<svg width="360" height="418" viewBox="0 0 360 418" fill="none" xmlns="http://www.w3.org/2000/svg">
<g filter="url(#filter0_d)">
<rect x="48" y="123" width="262" height="218" rx="30" fill="white"/>
</g>
<g clip-path="url(#clip0)">
<path d="M122.526 216.231C127.898 223.367 134.238 226.022 146.571 230.995C171.802 241.168 200.514 243.427 221.618 234.298C237.051 227.628 244.149 217.68 247.356 196.198C250.002 178.458 244.484 154.132 230.798 148.712C216.179 142.923 203.919 163.338 183.573 157.17C172.677 153.868 172.725 146.963 161.544 144.628C148.747 141.961 134.337 148.014 125.405 157.836C110.403 174.334 111.151 201.127 122.526 216.231Z" fill="#F2F2F2"/>
<path d="M150.41 167.604H128.144V213.457H150.41V167.604Z" fill="#D3D3D3"/>
<path d="M173.411 178.354H156.363V213.457H173.411V178.354Z" fill="#D3D3D3"/>
<path d="M194.575 171.919H170.251V213.457H194.575V171.919Z" fill="#D3D3D3"/>
<path d="M234.699 183.547H208.905V213.457H234.699V183.547Z" fill="#D3D3D3"/>
<path d="M243.936 211.833H118.569V218.195H243.936V211.833Z" fill="#5C5C5D"/>
<path d="M175.43 204.599C175.43 204.297 175.374 204.344 175.071 204.344H169.027C168.724 204.344 168.478 204.442 168.478 204.744L169.027 207.989C169.027 208.29 169.273 208.501 169.577 208.501H175.071C175.374 208.501 175.43 208.182 175.43 207.88V204.599Z" fill="black"/>
<path d="M217.369 196.399C217.369 196.399 227.232 196.676 230.508 196.945C234.403 197.264 241.825 199.08 241.825 202.116C241.825 206.512 238.518 209.656 235.908 209.656C219.863 209.656 175.114 209.519 175.114 209.519C175.114 209.519 173.247 209.915 171.643 207.441C170.04 204.967 166.352 199.861 169.118 197.985C169.118 197.985 179.259 191.002 189.803 191.002C189.803 191.002 196.088 190.783 198.866 190.757C203.222 190.71 206.444 190.763 217.369 196.399Z" fill="#D80A49"/>
<path d="M240.466 201.265C240.346 201.625 238.532 201.352 236.413 200.654C234.293 199.956 232.672 199.101 232.792 198.741C232.912 198.381 234.726 198.655 236.845 199.352C238.963 200.049 240.585 200.906 240.466 201.265Z" fill="#C2C2C2"/>
<path d="M170.271 199.385C170.272 199.07 170.2 198.76 170.06 198.477C169.919 198.195 169.715 197.949 169.463 197.759C169.243 197.905 169.121 197.985 169.121 197.985C168.018 198.732 167.945 199.994 168.35 201.398C169.413 201.377 170.271 200.487 170.271 199.385Z" fill="#C2C2C2"/>
<path d="M191.263 206.541C191.263 207.888 190.862 209.205 190.11 210.325C189.358 211.445 188.289 212.318 187.039 212.834C185.788 213.349 184.412 213.484 183.085 213.222C181.757 212.959 180.537 212.311 179.58 211.358C178.623 210.406 177.971 209.192 177.707 207.871C177.443 206.55 177.578 205.181 178.096 203.936C178.614 202.692 179.491 201.628 180.616 200.879C181.742 200.131 183.065 199.731 184.418 199.731C185.317 199.731 186.207 199.907 187.037 200.249C187.868 200.591 188.622 201.093 189.258 201.725C189.893 202.358 190.398 203.109 190.742 203.935C191.086 204.761 191.263 205.647 191.263 206.541V206.541Z" fill="black"/>
<path d="M189.019 206.541C189.019 207.446 188.75 208.332 188.244 209.085C187.739 209.837 187.021 210.424 186.18 210.771C185.34 211.118 184.415 211.208 183.522 211.032C182.63 210.855 181.81 210.42 181.167 209.779C180.523 209.139 180.085 208.324 179.907 207.436C179.73 206.548 179.821 205.627 180.169 204.791C180.517 203.954 181.106 203.239 181.863 202.736C182.619 202.233 183.508 201.964 184.418 201.964C185.638 201.964 186.808 202.446 187.671 203.304C188.534 204.163 189.019 205.327 189.019 206.541V206.541Z" fill="#F2F2F2"/>
<path d="M185.534 206.542C185.534 206.761 185.469 206.976 185.346 207.159C185.224 207.341 185.05 207.483 184.846 207.567C184.642 207.651 184.418 207.673 184.201 207.631C183.985 207.588 183.786 207.482 183.63 207.327C183.474 207.171 183.368 206.974 183.325 206.758C183.282 206.543 183.304 206.32 183.388 206.117C183.473 205.914 183.616 205.741 183.799 205.619C183.983 205.497 184.198 205.432 184.419 205.432C184.715 205.432 184.999 205.549 185.208 205.757C185.417 205.965 185.534 206.247 185.534 206.542V206.542Z" fill="#5C5C5D"/>
<path d="M234.111 206.541C234.111 207.888 233.71 209.205 232.958 210.325C232.206 211.445 231.138 212.318 229.887 212.834C228.637 213.349 227.261 213.484 225.933 213.222C224.605 212.959 223.386 212.311 222.429 211.358C221.471 210.406 220.819 209.192 220.555 207.871C220.291 206.55 220.426 205.181 220.944 203.936C221.462 202.692 222.339 201.628 223.465 200.879C224.59 200.131 225.913 199.731 227.267 199.731C228.165 199.731 229.055 199.907 229.886 200.249C230.716 200.591 231.471 201.093 232.106 201.725C232.742 202.358 233.246 203.109 233.59 203.935C233.934 204.761 234.111 205.647 234.111 206.541Z" fill="black"/>
<path d="M231.868 206.541C231.867 207.446 231.598 208.331 231.092 209.084C230.586 209.837 229.868 210.423 229.027 210.77C228.187 211.116 227.262 211.207 226.37 211.03C225.477 210.854 224.658 210.418 224.014 209.777C223.371 209.137 222.933 208.322 222.756 207.434C222.578 206.546 222.669 205.625 223.017 204.789C223.365 203.952 223.955 203.237 224.711 202.734C225.468 202.231 226.357 201.962 227.267 201.962C228.487 201.962 229.657 202.445 230.52 203.303C231.383 204.162 231.868 205.327 231.868 206.541Z" fill="#F2F2F2"/>
<path d="M228.384 206.542C228.384 206.762 228.318 206.976 228.196 207.159C228.073 207.342 227.899 207.484 227.695 207.569C227.491 207.653 227.267 207.675 227.05 207.632C226.833 207.589 226.635 207.484 226.478 207.328C226.322 207.173 226.216 206.975 226.173 206.759C226.129 206.544 226.152 206.321 226.236 206.118C226.32 205.915 226.464 205.741 226.647 205.619C226.831 205.497 227.047 205.432 227.267 205.432C227.563 205.432 227.847 205.549 228.056 205.757C228.266 205.965 228.383 206.247 228.384 206.542V206.542Z" fill="#5C5C5D"/>
<path d="M221.619 208.01H189.68V209.721H221.619V208.01Z" fill="black"/>
<path d="M181.984 193.927C181.69 194.077 180.955 195.185 182.968 195.96C184.981 196.734 187.248 197.742 192.605 197.742H210.229C210.229 197.742 214.251 197.643 217.37 196.524C213.453 194.503 210.529 193.14 208.184 192.302C185.971 191.347 183.1 193.353 181.984 193.927Z" fill="#C2C2C2"/>
<path d="M189.68 191.629H188.697V198.231H189.68V191.629Z" fill="#5C5C5D"/>
<path d="M201.826 190.994L201.324 191.966L214.02 198.454L214.522 197.482L201.826 190.994Z" fill="#5C5C5D"/>
<path d="M195.947 200.431C195.947 200.733 195.701 200.92 195.397 200.92H192.651C192.347 200.92 192.101 200.733 192.101 200.431C192.101 200.13 192.347 199.943 192.651 199.943H195.397C195.701 199.943 195.947 200.13 195.947 200.431Z" fill="#57041D"/>
<path d="M204.57 165.191H187.447V182.23H204.57V165.191Z" fill="white"/>
<path d="M162.613 201.001C162.512 201.001 162.411 201.019 162.315 201.053V203.758C162.411 203.793 162.512 203.811 162.613 203.811C163.309 203.811 164.191 203.181 164.191 202.406C164.191 201.63 163.309 201.001 162.613 201.001Z" fill="#FFE3CA"/>
<path d="M162.719 197.518C162.577 197.516 162.437 197.554 162.315 197.627V200.626C162.437 200.698 162.577 200.736 162.719 200.735C163.415 200.735 164.296 200.014 164.296 199.126C164.296 198.237 163.415 197.518 162.719 197.518Z" fill="#FFE3CA"/>
<path d="M163.74 188.2C163.257 188.12 162.762 188.183 162.315 188.381V191.559C163.543 191.593 164.349 190.367 164.667 189.299C164.924 188.433 163.74 188.2 163.74 188.2Z" fill="#FFE3CA"/>
<path d="M164.085 194.145C163.487 193.515 162.549 193.974 162.315 194.104V197.454L162.829 197.227C164.583 196.451 165.355 195.482 164.085 194.145Z" fill="#FFE3CA"/>
<path d="M150.105 200.016C150.125 200.077 150.15 200.149 150.171 200.209L150.175 200.22C150.144 200.134 150.122 200.066 150.105 200.016Z" fill="#F7BE89"/>
<path d="M150.105 200.016C150.061 199.888 150.036 199.814 150.105 200.016V200.016Z" fill="#F7BE89"/>
<path d="M150.209 200.322C150.205 200.308 150.195 200.279 150.176 200.224C150.19 200.268 150.203 200.306 150.209 200.322Z" fill="#F7BE89"/>
<path d="M150.177 200.225C150.177 200.225 150.174 200.222 150.177 200.225V200.225Z" fill="#F7BE89"/>
<path d="M150.175 200.221L150.171 200.209L150.175 200.221V200.221Z" fill="#F7BE89"/>
<path d="M143.812 189.514C143.979 189.267 144.462 187.868 144.462 187.868C144.462 187.868 143.958 187.382 143.604 187.21C143.217 187.606 142.99 188.68 142.854 189.529L143.24 189.623C143.24 189.623 143.644 189.761 143.812 189.514Z" fill="#FCD2B1"/>
<path d="M151.135 209.677C150.239 209.849 149.342 209.145 149.142 208.112L147.152 197.86C146.371 198.476 145.673 199.109 145.673 199.109L144.684 194.006C144.684 194.006 145.54 192.022 145.72 190.469L145.357 188.601C145.094 187.977 144.687 187.391 144.118 187.107C143.92 187.008 143.75 187.059 143.603 187.211C143.957 187.382 144.462 187.869 144.462 187.869C144.462 187.869 143.979 189.268 143.811 189.515C143.644 189.762 143.239 189.625 143.239 189.625L142.854 189.53C142.764 190.085 142.793 189.978 142.764 190.085C142.352 191.634 140.92 191.718 141.119 193.283C141.368 195.249 139.924 198.914 140.751 200.495C141.516 201.965 141.502 203.726 141.795 205.336C141.875 205.775 141.661 206.468 141.73 206.78C141.122 207.799 137.333 211.307 137.333 211.307L143.893 218.265C143.893 218.265 148.217 213.446 150.551 212.509C154.098 211.083 154.795 209.808 155.565 208.828L151.135 209.677Z" fill="#FFE3CA"/>
<path d="M160.397 180.594H148.349C147.304 180.594 146.456 181.438 146.456 182.478V209.388C146.456 210.428 147.304 211.272 148.349 211.272H160.397C161.443 211.272 162.29 210.428 162.29 209.388V182.478C162.29 181.438 161.443 180.594 160.397 180.594Z" fill="#1B191B"/>
<path d="M159.847 181.368H148.899C147.925 181.368 147.136 182.154 147.136 183.123V208.744C147.136 209.713 147.925 210.499 148.899 210.499H159.847C160.821 210.499 161.61 209.713 161.61 208.744V183.123C161.61 182.154 160.821 181.368 159.847 181.368Z" fill="white"/>
<path d="M151.249 180.82H157.495V181.216C157.495 181.376 157.464 181.534 157.402 181.681C157.341 181.828 157.251 181.962 157.138 182.075C157.024 182.188 156.89 182.277 156.742 182.338C156.594 182.399 156.435 182.431 156.275 182.431H152.469C152.146 182.431 151.835 182.303 151.606 182.075C151.377 181.847 151.249 181.538 151.249 181.216V180.82V180.82Z" fill="#1B191B"/>
<path d="M162.638 220.356L160.507 215.611C159.846 214.133 159.221 212.653 158.629 211.158L158.622 211.147C158.622 211.147 159.641 217.454 159.779 218.161C160.122 219.917 161.953 221.254 163.131 222.434C163.356 222.66 166.678 225.769 166.678 225.769C166.457 225.537 166.227 225.27 165.964 224.947C164.789 223.503 163.412 222.078 162.638 220.356Z" fill="#FCD2B1"/>
<path d="M178.259 221.754C176.743 220.096 178.063 216.416 177.113 214.423C176.422 212.977 175.234 209.047 173.462 208.656C172.636 208.474 172.109 208.957 171.365 208.211C170.532 207.373 169.973 208.284 169.134 208.049C168.33 207.822 168.016 206.598 167.012 207.377C166.408 207.661 166.017 208.189 165.275 207.735C164.633 207.343 164.134 206.711 163.328 207.296C162.826 207.501 162.555 208.012 161.92 207.73C161.346 207.476 161.027 206.475 160.763 205.96L157.545 199.703C157.24 199.111 156.894 198.085 156.319 197.779C154.385 196.751 154.628 200.091 154.948 200.997L157.073 206.998C157.569 208.403 158.088 209.79 158.631 211.159C159.223 212.653 159.845 214.133 160.509 215.611L162.641 220.356C163.414 222.078 164.792 223.501 165.964 224.946C166.227 225.27 166.457 225.537 166.678 225.768C167.36 226.485 167.936 226.865 169.011 227.524C170.296 228.311 172.58 231.204 172.58 231.204L181.042 226.2C181.042 226.2 178.863 222.413 178.259 221.754Z" fill="#FFE3CA"/>
<path d="M155.069 198.198C155.069 198.198 155.399 199.415 155.836 199.48C156.274 199.546 157.262 199.1 157.259 199.093C156.995 198.606 156.778 197.967 156.319 197.76C156.237 197.724 156.152 197.692 156.066 197.666C155.69 197.739 155.242 197.889 155.069 198.198Z" fill="#FCD2B1"/>
<path d="M136.881 209.717L145.556 218.455L126.895 240.954L109 235.939L136.881 209.717Z" fill="#8A062E"/>
<path d="M170.065 231.195L182.136 224.071L196.854 244.172L179.217 246L170.065 231.195Z" fill="#8A062E"/>
</g>
<path d="M104.203 276H102.875V264.578H109.242V265.758H104.203V269.938H108.938V271.117H104.203V276ZM112.242 276H110.945V267.438H112.242V276ZM110.836 265.117C110.836 264.82 110.909 264.604 111.055 264.469C111.201 264.328 111.383 264.258 111.602 264.258C111.81 264.258 111.99 264.328 112.141 264.469C112.292 264.609 112.367 264.826 112.367 265.117C112.367 265.409 112.292 265.628 112.141 265.773C111.99 265.914 111.81 265.984 111.602 265.984C111.383 265.984 111.201 265.914 111.055 265.773C110.909 265.628 110.836 265.409 110.836 265.117ZM120.852 276V270.461C120.852 269.763 120.693 269.242 120.375 268.898C120.057 268.555 119.56 268.383 118.883 268.383C117.987 268.383 117.331 268.625 116.914 269.109C116.497 269.594 116.289 270.393 116.289 271.508V276H114.992V267.438H116.047L116.258 268.609H116.32C116.586 268.188 116.958 267.862 117.438 267.633C117.917 267.398 118.451 267.281 119.039 267.281C120.07 267.281 120.846 267.531 121.367 268.031C121.888 268.526 122.148 269.32 122.148 270.414V276H120.852ZM130.648 274.852H130.578C129.979 275.721 129.083 276.156 127.891 276.156C126.771 276.156 125.898 275.773 125.273 275.008C124.654 274.242 124.344 273.154 124.344 271.742C124.344 270.331 124.656 269.234 125.281 268.453C125.906 267.672 126.776 267.281 127.891 267.281C129.052 267.281 129.943 267.703 130.562 268.547H130.664L130.609 267.93L130.578 267.328V263.844H131.875V276H130.82L130.648 274.852ZM128.055 275.07C128.94 275.07 129.581 274.831 129.977 274.352C130.378 273.867 130.578 273.089 130.578 272.016V271.742C130.578 270.529 130.375 269.664 129.969 269.148C129.568 268.628 128.924 268.367 128.039 268.367C127.279 268.367 126.695 268.664 126.289 269.258C125.888 269.846 125.688 270.68 125.688 271.758C125.688 272.852 125.888 273.677 126.289 274.234C126.69 274.792 127.279 275.07 128.055 275.07ZM141.555 275.086C141.784 275.086 142.005 275.07 142.219 275.039C142.432 275.003 142.602 274.966 142.727 274.93V275.922C142.586 275.99 142.378 276.044 142.102 276.086C141.831 276.133 141.586 276.156 141.367 276.156C139.711 276.156 138.883 275.284 138.883 273.539V268.445H137.656V267.82L138.883 267.281L139.43 265.453H140.18V267.438H142.664V268.445H140.18V273.484C140.18 274 140.302 274.396 140.547 274.672C140.792 274.948 141.128 275.086 141.555 275.086ZM150.305 276V270.461C150.305 269.763 150.146 269.242 149.828 268.898C149.51 268.555 149.013 268.383 148.336 268.383C147.435 268.383 146.776 268.628 146.359 269.117C145.948 269.607 145.742 270.409 145.742 271.523V276H144.445V263.844H145.742V267.523C145.742 267.966 145.721 268.333 145.68 268.625H145.758C146.013 268.214 146.375 267.891 146.844 267.656C147.318 267.417 147.857 267.297 148.461 267.297C149.508 267.297 150.292 267.547 150.812 268.047C151.339 268.542 151.602 269.331 151.602 270.414V276H150.305ZM157.891 276.156C156.625 276.156 155.625 275.771 154.891 275C154.161 274.229 153.797 273.159 153.797 271.789C153.797 270.409 154.135 269.312 154.812 268.5C155.495 267.688 156.409 267.281 157.555 267.281C158.628 267.281 159.477 267.635 160.102 268.344C160.727 269.047 161.039 269.977 161.039 271.133V271.953H155.141C155.167 272.958 155.419 273.721 155.898 274.242C156.383 274.763 157.062 275.023 157.938 275.023C158.859 275.023 159.771 274.831 160.672 274.445V275.602C160.214 275.799 159.779 275.94 159.367 276.023C158.961 276.112 158.469 276.156 157.891 276.156ZM157.539 268.367C156.852 268.367 156.302 268.591 155.891 269.039C155.484 269.487 155.245 270.107 155.172 270.898H159.648C159.648 270.081 159.466 269.456 159.102 269.023C158.737 268.586 158.216 268.367 157.539 268.367ZM170.836 276.156C169.596 276.156 168.635 275.776 167.953 275.016C167.276 274.25 166.938 273.169 166.938 271.773C166.938 270.341 167.281 269.234 167.969 268.453C168.661 267.672 169.646 267.281 170.922 267.281C171.333 267.281 171.745 267.326 172.156 267.414C172.568 267.503 172.891 267.607 173.125 267.727L172.727 268.828C172.44 268.714 172.128 268.62 171.789 268.547C171.451 268.469 171.151 268.43 170.891 268.43C169.151 268.43 168.281 269.539 168.281 271.758C168.281 272.81 168.492 273.617 168.914 274.18C169.341 274.742 169.971 275.023 170.805 275.023C171.518 275.023 172.25 274.87 173 274.562V275.711C172.427 276.008 171.706 276.156 170.836 276.156ZM180.305 276L180.047 274.781H179.984C179.557 275.318 179.13 275.682 178.703 275.875C178.281 276.062 177.753 276.156 177.117 276.156C176.268 276.156 175.602 275.938 175.117 275.5C174.638 275.062 174.398 274.44 174.398 273.633C174.398 271.904 175.781 270.997 178.547 270.914L180 270.867V270.336C180 269.664 179.854 269.169 179.562 268.852C179.276 268.529 178.815 268.367 178.18 268.367C177.466 268.367 176.659 268.586 175.758 269.023L175.359 268.031C175.781 267.802 176.242 267.622 176.742 267.492C177.247 267.362 177.753 267.297 178.258 267.297C179.279 267.297 180.034 267.523 180.523 267.977C181.018 268.43 181.266 269.156 181.266 270.156V276H180.305ZM177.375 275.086C178.182 275.086 178.815 274.865 179.273 274.422C179.737 273.979 179.969 273.359 179.969 272.562V271.789L178.672 271.844C177.641 271.88 176.896 272.042 176.438 272.328C175.984 272.609 175.758 273.049 175.758 273.648C175.758 274.117 175.898 274.474 176.18 274.719C176.466 274.964 176.865 275.086 177.375 275.086ZM187.852 267.281C188.232 267.281 188.573 267.312 188.875 267.375L188.695 268.578C188.341 268.5 188.029 268.461 187.758 268.461C187.065 268.461 186.471 268.742 185.977 269.305C185.487 269.867 185.242 270.568 185.242 271.406V276H183.945V267.438H185.016L185.164 269.023H185.227C185.544 268.466 185.927 268.036 186.375 267.734C186.823 267.432 187.315 267.281 187.852 267.281ZM193.273 267.438H194.664L196.539 272.32C196.951 273.435 197.206 274.24 197.305 274.734H197.367C197.435 274.469 197.576 274.016 197.789 273.375C198.008 272.729 198.716 270.75 199.914 267.438H201.305L197.625 277.188C197.26 278.151 196.833 278.833 196.344 279.234C195.859 279.641 195.263 279.844 194.555 279.844C194.159 279.844 193.768 279.799 193.383 279.711V278.672C193.669 278.734 193.99 278.766 194.344 278.766C195.234 278.766 195.87 278.266 196.25 277.266L196.727 276.047L193.273 267.438ZM210.086 271.711C210.086 273.107 209.734 274.198 209.031 274.984C208.328 275.766 207.357 276.156 206.117 276.156C205.352 276.156 204.672 275.977 204.078 275.617C203.484 275.258 203.026 274.742 202.703 274.07C202.38 273.398 202.219 272.612 202.219 271.711C202.219 270.315 202.568 269.229 203.266 268.453C203.964 267.672 204.932 267.281 206.172 267.281C207.37 267.281 208.32 267.68 209.023 268.477C209.732 269.273 210.086 270.352 210.086 271.711ZM203.562 271.711C203.562 272.805 203.781 273.638 204.219 274.211C204.656 274.784 205.299 275.07 206.148 275.07C206.997 275.07 207.641 274.786 208.078 274.219C208.521 273.646 208.742 272.81 208.742 271.711C208.742 270.622 208.521 269.797 208.078 269.234C207.641 268.667 206.992 268.383 206.133 268.383C205.284 268.383 204.643 268.661 204.211 269.219C203.779 269.776 203.562 270.607 203.562 271.711ZM213.586 267.438V272.992C213.586 273.69 213.745 274.211 214.062 274.555C214.38 274.898 214.878 275.07 215.555 275.07C216.451 275.07 217.104 274.826 217.516 274.336C217.932 273.846 218.141 273.047 218.141 271.938V267.438H219.438V276H218.367L218.18 274.852H218.109C217.844 275.273 217.474 275.596 217 275.82C216.531 276.044 215.995 276.156 215.391 276.156C214.349 276.156 213.568 275.909 213.047 275.414C212.531 274.919 212.273 274.128 212.273 273.039V267.438H213.586ZM227.648 276H226.352V263.844H227.648V276ZM237.789 271.711C237.789 273.107 237.438 274.198 236.734 274.984C236.031 275.766 235.06 276.156 233.82 276.156C233.055 276.156 232.375 275.977 231.781 275.617C231.188 275.258 230.729 274.742 230.406 274.07C230.083 273.398 229.922 272.612 229.922 271.711C229.922 270.315 230.271 269.229 230.969 268.453C231.667 267.672 232.635 267.281 233.875 267.281C235.073 267.281 236.023 267.68 236.727 268.477C237.435 269.273 237.789 270.352 237.789 271.711ZM231.266 271.711C231.266 272.805 231.484 273.638 231.922 274.211C232.359 274.784 233.003 275.07 233.852 275.07C234.701 275.07 235.344 274.786 235.781 274.219C236.224 273.646 236.445 272.81 236.445 271.711C236.445 270.622 236.224 269.797 235.781 269.234C235.344 268.667 234.695 268.383 233.836 268.383C232.987 268.383 232.346 268.661 231.914 269.219C231.482 269.776 231.266 270.607 231.266 271.711ZM241.945 276L238.695 267.438H240.086L241.93 272.516C242.346 273.703 242.591 274.474 242.664 274.828H242.727C242.784 274.552 242.964 273.982 243.266 273.117C243.573 272.247 244.258 270.354 245.32 267.438H246.711L243.461 276H241.945ZM251.703 276.156C250.438 276.156 249.438 275.771 248.703 275C247.974 274.229 247.609 273.159 247.609 271.789C247.609 270.409 247.948 269.312 248.625 268.5C249.307 267.688 250.221 267.281 251.367 267.281C252.44 267.281 253.289 267.635 253.914 268.344C254.539 269.047 254.852 269.977 254.852 271.133V271.953H248.953C248.979 272.958 249.232 273.721 249.711 274.242C250.195 274.763 250.875 275.023 251.75 275.023C252.672 275.023 253.583 274.831 254.484 274.445V275.602C254.026 275.799 253.591 275.94 253.18 276.023C252.773 276.112 252.281 276.156 251.703 276.156ZM251.352 268.367C250.664 268.367 250.115 268.591 249.703 269.039C249.297 269.487 249.057 270.107 248.984 270.898H253.461C253.461 270.081 253.279 269.456 252.914 269.023C252.549 268.586 252.029 268.367 251.352 268.367ZM107.875 298L106.305 292.977C106.206 292.669 106.021 291.971 105.75 290.883H105.688C105.479 291.794 105.297 292.497 105.141 292.992L103.523 298H102.023L99.6875 289.438H101.047C101.599 291.589 102.018 293.227 102.305 294.352C102.596 295.477 102.763 296.234 102.805 296.625H102.867C102.924 296.328 103.016 295.945 103.141 295.477C103.271 295.003 103.383 294.628 103.477 294.352L105.047 289.438H106.453L107.984 294.352C108.276 295.247 108.474 296 108.578 296.609H108.641C108.661 296.422 108.716 296.133 108.805 295.742C108.898 295.352 109.443 293.25 110.438 289.438H111.781L109.414 298H107.875ZM114.633 298H113.336V289.438H114.633V298ZM113.227 287.117C113.227 286.82 113.299 286.604 113.445 286.469C113.591 286.328 113.773 286.258 113.992 286.258C114.201 286.258 114.38 286.328 114.531 286.469C114.682 286.609 114.758 286.826 114.758 287.117C114.758 287.409 114.682 287.628 114.531 287.773C114.38 287.914 114.201 287.984 113.992 287.984C113.773 287.984 113.591 287.914 113.445 287.773C113.299 287.628 113.227 287.409 113.227 287.117ZM120.148 297.086C120.378 297.086 120.599 297.07 120.812 297.039C121.026 297.003 121.195 296.966 121.32 296.93V297.922C121.18 297.99 120.971 298.044 120.695 298.086C120.424 298.133 120.18 298.156 119.961 298.156C118.305 298.156 117.477 297.284 117.477 295.539V290.445H116.25V289.82L117.477 289.281L118.023 287.453H118.773V289.438H121.258V290.445H118.773V295.484C118.773 296 118.896 296.396 119.141 296.672C119.385 296.948 119.721 297.086 120.148 297.086ZM128.898 298V292.461C128.898 291.763 128.74 291.242 128.422 290.898C128.104 290.555 127.607 290.383 126.93 290.383C126.029 290.383 125.37 290.628 124.953 291.117C124.542 291.607 124.336 292.409 124.336 293.523V298H123.039V285.844H124.336V289.523C124.336 289.966 124.315 290.333 124.273 290.625H124.352C124.607 290.214 124.969 289.891 125.438 289.656C125.911 289.417 126.451 289.297 127.055 289.297C128.102 289.297 128.885 289.547 129.406 290.047C129.932 290.542 130.195 291.331 130.195 292.414V298H128.898ZM142.289 298L142.031 296.781H141.969C141.542 297.318 141.115 297.682 140.688 297.875C140.266 298.062 139.737 298.156 139.102 298.156C138.253 298.156 137.586 297.938 137.102 297.5C136.622 297.062 136.383 296.44 136.383 295.633C136.383 293.904 137.766 292.997 140.531 292.914L141.984 292.867V292.336C141.984 291.664 141.839 291.169 141.547 290.852C141.26 290.529 140.799 290.367 140.164 290.367C139.451 290.367 138.643 290.586 137.742 291.023L137.344 290.031C137.766 289.802 138.227 289.622 138.727 289.492C139.232 289.362 139.737 289.297 140.242 289.297C141.263 289.297 142.018 289.523 142.508 289.977C143.003 290.43 143.25 291.156 143.25 292.156V298H142.289ZM139.359 297.086C140.167 297.086 140.799 296.865 141.258 296.422C141.721 295.979 141.953 295.359 141.953 294.562V293.789L140.656 293.844C139.625 293.88 138.88 294.042 138.422 294.328C137.969 294.609 137.742 295.049 137.742 295.648C137.742 296.117 137.883 296.474 138.164 296.719C138.451 296.964 138.849 297.086 139.359 297.086ZM155.609 295.664C155.609 296.461 155.312 297.076 154.719 297.508C154.125 297.94 153.292 298.156 152.219 298.156C151.083 298.156 150.198 297.977 149.562 297.617V296.414C149.974 296.622 150.414 296.786 150.883 296.906C151.357 297.026 151.812 297.086 152.25 297.086C152.927 297.086 153.448 296.979 153.812 296.766C154.177 296.547 154.359 296.216 154.359 295.773C154.359 295.44 154.214 295.156 153.922 294.922C153.635 294.682 153.073 294.401 152.234 294.078C151.438 293.781 150.87 293.523 150.531 293.305C150.198 293.081 149.948 292.828 149.781 292.547C149.62 292.266 149.539 291.93 149.539 291.539C149.539 290.841 149.823 290.292 150.391 289.891C150.958 289.484 151.737 289.281 152.727 289.281C153.648 289.281 154.549 289.469 155.43 289.844L154.969 290.898C154.109 290.544 153.331 290.367 152.633 290.367C152.018 290.367 151.555 290.464 151.242 290.656C150.93 290.849 150.773 291.115 150.773 291.453C150.773 291.682 150.831 291.878 150.945 292.039C151.065 292.201 151.255 292.354 151.516 292.5C151.776 292.646 152.276 292.857 153.016 293.133C154.031 293.503 154.716 293.875 155.07 294.25C155.43 294.625 155.609 295.096 155.609 295.664ZM163.586 298V292.461C163.586 291.763 163.427 291.242 163.109 290.898C162.792 290.555 162.294 290.383 161.617 290.383C160.721 290.383 160.065 290.625 159.648 291.109C159.232 291.594 159.023 292.393 159.023 293.508V298H157.727V289.438H158.781L158.992 290.609H159.055C159.32 290.188 159.693 289.862 160.172 289.633C160.651 289.398 161.185 289.281 161.773 289.281C162.805 289.281 163.581 289.531 164.102 290.031C164.622 290.526 164.883 291.32 164.883 292.414V298H163.586ZM172.82 298L172.562 296.781H172.5C172.073 297.318 171.646 297.682 171.219 297.875C170.797 298.062 170.268 298.156 169.633 298.156C168.784 298.156 168.117 297.938 167.633 297.5C167.154 297.062 166.914 296.44 166.914 295.633C166.914 293.904 168.297 292.997 171.062 292.914L172.516 292.867V292.336C172.516 291.664 172.37 291.169 172.078 290.852C171.792 290.529 171.331 290.367 170.695 290.367C169.982 290.367 169.174 290.586 168.273 291.023L167.875 290.031C168.297 289.802 168.758 289.622 169.258 289.492C169.763 289.362 170.268 289.297 170.773 289.297C171.794 289.297 172.549 289.523 173.039 289.977C173.534 290.43 173.781 291.156 173.781 292.156V298H172.82ZM169.891 297.086C170.698 297.086 171.331 296.865 171.789 296.422C172.253 295.979 172.484 295.359 172.484 294.562V293.789L171.188 293.844C170.156 293.88 169.411 294.042 168.953 294.328C168.5 294.609 168.273 295.049 168.273 295.648C168.273 296.117 168.414 296.474 168.695 296.719C168.982 296.964 169.38 297.086 169.891 297.086ZM180.445 298.156C179.888 298.156 179.378 298.055 178.914 297.852C178.456 297.643 178.07 297.326 177.758 296.898H177.664C177.727 297.398 177.758 297.872 177.758 298.32V301.844H176.461V289.438H177.516L177.695 290.609H177.758C178.091 290.141 178.479 289.802 178.922 289.594C179.365 289.385 179.872 289.281 180.445 289.281C181.581 289.281 182.456 289.669 183.07 290.445C183.69 291.221 184 292.31 184 293.711C184 295.117 183.685 296.211 183.055 296.992C182.43 297.768 181.56 298.156 180.445 298.156ZM180.258 290.383C179.383 290.383 178.75 290.625 178.359 291.109C177.969 291.594 177.768 292.365 177.758 293.422V293.711C177.758 294.914 177.958 295.776 178.359 296.297C178.76 296.812 179.404 297.07 180.289 297.07C181.029 297.07 181.607 296.771 182.023 296.172C182.445 295.573 182.656 294.747 182.656 293.695C182.656 292.628 182.445 291.81 182.023 291.242C181.607 290.669 181.018 290.383 180.258 290.383ZM195.695 298L195.438 296.781H195.375C194.948 297.318 194.521 297.682 194.094 297.875C193.672 298.062 193.143 298.156 192.508 298.156C191.659 298.156 190.992 297.938 190.508 297.5C190.029 297.062 189.789 296.44 189.789 295.633C189.789 293.904 191.172 292.997 193.938 292.914L195.391 292.867V292.336C195.391 291.664 195.245 291.169 194.953 290.852C194.667 290.529 194.206 290.367 193.57 290.367C192.857 290.367 192.049 290.586 191.148 291.023L190.75 290.031C191.172 289.802 191.633 289.622 192.133 289.492C192.638 289.362 193.143 289.297 193.648 289.297C194.669 289.297 195.424 289.523 195.914 289.977C196.409 290.43 196.656 291.156 196.656 292.156V298H195.695ZM192.766 297.086C193.573 297.086 194.206 296.865 194.664 296.422C195.128 295.979 195.359 295.359 195.359 294.562V293.789L194.062 293.844C193.031 293.88 192.286 294.042 191.828 294.328C191.375 294.609 191.148 295.049 191.148 295.648C191.148 296.117 191.289 296.474 191.57 296.719C191.857 296.964 192.255 297.086 192.766 297.086ZM205.195 298V292.461C205.195 291.763 205.036 291.242 204.719 290.898C204.401 290.555 203.904 290.383 203.227 290.383C202.331 290.383 201.674 290.625 201.258 291.109C200.841 291.594 200.633 292.393 200.633 293.508V298H199.336V289.438H200.391L200.602 290.609H200.664C200.93 290.188 201.302 289.862 201.781 289.633C202.26 289.398 202.794 289.281 203.383 289.281C204.414 289.281 205.19 289.531 205.711 290.031C206.232 290.526 206.492 291.32 206.492 292.414V298H205.195ZM214.992 296.852H214.922C214.323 297.721 213.427 298.156 212.234 298.156C211.115 298.156 210.242 297.773 209.617 297.008C208.997 296.242 208.688 295.154 208.688 293.742C208.688 292.331 209 291.234 209.625 290.453C210.25 289.672 211.12 289.281 212.234 289.281C213.396 289.281 214.286 289.703 214.906 290.547H215.008L214.953 289.93L214.922 289.328V285.844H216.219V298H215.164L214.992 296.852ZM212.398 297.07C213.284 297.07 213.924 296.831 214.32 296.352C214.721 295.867 214.922 295.089 214.922 294.016V293.742C214.922 292.529 214.719 291.664 214.312 291.148C213.911 290.628 213.268 290.367 212.383 290.367C211.622 290.367 211.039 290.664 210.633 291.258C210.232 291.846 210.031 292.68 210.031 293.758C210.031 294.852 210.232 295.677 210.633 296.234C211.034 296.792 211.622 297.07 212.398 297.07ZM228.992 298V292.461C228.992 291.763 228.833 291.242 228.516 290.898C228.198 290.555 227.701 290.383 227.023 290.383C226.122 290.383 225.464 290.628 225.047 291.117C224.635 291.607 224.43 292.409 224.43 293.523V298H223.133V285.844H224.43V289.523C224.43 289.966 224.409 290.333 224.367 290.625H224.445C224.701 290.214 225.062 289.891 225.531 289.656C226.005 289.417 226.544 289.297 227.148 289.297C228.195 289.297 228.979 289.547 229.5 290.047C230.026 290.542 230.289 291.331 230.289 292.414V298H228.992ZM238.227 298L237.969 296.781H237.906C237.479 297.318 237.052 297.682 236.625 297.875C236.203 298.062 235.674 298.156 235.039 298.156C234.19 298.156 233.523 297.938 233.039 297.5C232.56 297.062 232.32 296.44 232.32 295.633C232.32 293.904 233.703 292.997 236.469 292.914L237.922 292.867V292.336C237.922 291.664 237.776 291.169 237.484 290.852C237.198 290.529 236.737 290.367 236.102 290.367C235.388 290.367 234.581 290.586 233.68 291.023L233.281 290.031C233.703 289.802 234.164 289.622 234.664 289.492C235.169 289.362 235.674 289.297 236.18 289.297C237.201 289.297 237.956 289.523 238.445 289.977C238.94 290.43 239.188 291.156 239.188 292.156V298H238.227ZM235.297 297.086C236.104 297.086 236.737 296.865 237.195 296.422C237.659 295.979 237.891 295.359 237.891 294.562V293.789L236.594 293.844C235.562 293.88 234.818 294.042 234.359 294.328C233.906 294.609 233.68 295.049 233.68 295.648C233.68 296.117 233.82 296.474 234.102 296.719C234.388 296.964 234.786 297.086 235.297 297.086ZM243.742 298L240.492 289.438H241.883L243.727 294.516C244.143 295.703 244.388 296.474 244.461 296.828H244.523C244.581 296.552 244.76 295.982 245.062 295.117C245.37 294.247 246.055 292.354 247.117 289.438H248.508L245.258 298H243.742ZM253.5 298.156C252.234 298.156 251.234 297.771 250.5 297C249.771 296.229 249.406 295.159 249.406 293.789C249.406 292.409 249.745 291.312 250.422 290.5C251.104 289.688 252.018 289.281 253.164 289.281C254.237 289.281 255.086 289.635 255.711 290.344C256.336 291.047 256.648 291.977 256.648 293.133V293.953H250.75C250.776 294.958 251.029 295.721 251.508 296.242C251.992 296.763 252.672 297.023 253.547 297.023C254.469 297.023 255.38 296.831 256.281 296.445V297.602C255.823 297.799 255.388 297.94 254.977 298.023C254.57 298.112 254.078 298.156 253.5 298.156ZM253.148 290.367C252.461 290.367 251.911 290.591 251.5 291.039C251.094 291.487 250.854 292.107 250.781 292.898H255.258C255.258 292.081 255.076 291.456 254.711 291.023C254.346 290.586 253.826 290.367 253.148 290.367ZM119.367 312.445H117.188V320H115.891V312.445H114.359V311.859L115.891 311.391V310.914C115.891 308.81 116.81 307.758 118.648 307.758C119.102 307.758 119.633 307.849 120.242 308.031L119.906 309.07C119.406 308.909 118.979 308.828 118.625 308.828C118.135 308.828 117.773 308.992 117.539 309.32C117.305 309.643 117.188 310.164 117.188 310.883V311.438H119.367V312.445ZM122.148 311.438V316.992C122.148 317.69 122.307 318.211 122.625 318.555C122.943 318.898 123.44 319.07 124.117 319.07C125.013 319.07 125.667 318.826 126.078 318.336C126.495 317.846 126.703 317.047 126.703 315.938V311.438H128V320H126.93L126.742 318.852H126.672C126.406 319.273 126.036 319.596 125.562 319.82C125.094 320.044 124.557 320.156 123.953 320.156C122.911 320.156 122.13 319.909 121.609 319.414C121.094 318.919 120.836 318.128 120.836 317.039V311.438H122.148ZM136.617 320V314.461C136.617 313.763 136.458 313.242 136.141 312.898C135.823 312.555 135.326 312.383 134.648 312.383C133.753 312.383 133.096 312.625 132.68 313.109C132.263 313.594 132.055 314.393 132.055 315.508V320H130.758V311.438H131.812L132.023 312.609H132.086C132.352 312.188 132.724 311.862 133.203 311.633C133.682 311.398 134.216 311.281 134.805 311.281C135.836 311.281 136.612 311.531 137.133 312.031C137.654 312.526 137.914 313.32 137.914 314.414V320H136.617ZM151.734 320L150.164 314.977C150.065 314.669 149.88 313.971 149.609 312.883H149.547C149.339 313.794 149.156 314.497 149 314.992L147.383 320H145.883L143.547 311.438H144.906C145.458 313.589 145.878 315.227 146.164 316.352C146.456 317.477 146.622 318.234 146.664 318.625H146.727C146.784 318.328 146.875 317.945 147 317.477C147.13 317.003 147.242 316.628 147.336 316.352L148.906 311.438H150.312L151.844 316.352C152.135 317.247 152.333 318 152.438 318.609H152.5C152.521 318.422 152.576 318.133 152.664 317.742C152.758 317.352 153.302 315.25 154.297 311.438H155.641L153.273 320H151.734ZM163.055 320V314.461C163.055 313.763 162.896 313.242 162.578 312.898C162.26 312.555 161.763 312.383 161.086 312.383C160.185 312.383 159.526 312.628 159.109 313.117C158.698 313.607 158.492 314.409 158.492 315.523V320H157.195V307.844H158.492V311.523C158.492 311.966 158.471 312.333 158.43 312.625H158.508C158.763 312.214 159.125 311.891 159.594 311.656C160.068 311.417 160.607 311.297 161.211 311.297C162.258 311.297 163.042 311.547 163.562 312.047C164.089 312.542 164.352 313.331 164.352 314.414V320H163.055ZM168.32 320H167.023V311.438H168.32V320ZM166.914 309.117C166.914 308.82 166.987 308.604 167.133 308.469C167.279 308.328 167.461 308.258 167.68 308.258C167.888 308.258 168.068 308.328 168.219 308.469C168.37 308.609 168.445 308.826 168.445 309.117C168.445 309.409 168.37 309.628 168.219 309.773C168.068 309.914 167.888 309.984 167.68 309.984C167.461 309.984 167.279 309.914 167.133 309.773C166.987 309.628 166.914 309.409 166.914 309.117ZM172.367 320H171.07V307.844H172.367V320ZM178.734 320.156C177.469 320.156 176.469 319.771 175.734 319C175.005 318.229 174.641 317.159 174.641 315.789C174.641 314.409 174.979 313.312 175.656 312.5C176.339 311.688 177.253 311.281 178.398 311.281C179.471 311.281 180.32 311.635 180.945 312.344C181.57 313.047 181.883 313.977 181.883 315.133V315.953H175.984C176.01 316.958 176.263 317.721 176.742 318.242C177.227 318.763 177.906 319.023 178.781 319.023C179.703 319.023 180.615 318.831 181.516 318.445V319.602C181.057 319.799 180.622 319.94 180.211 320.023C179.805 320.112 179.312 320.156 178.734 320.156ZM178.383 312.367C177.695 312.367 177.146 312.591 176.734 313.039C176.328 313.487 176.089 314.107 176.016 314.898H180.492C180.492 314.081 180.31 313.456 179.945 313.023C179.581 312.586 179.06 312.367 178.383 312.367ZM194.086 318.852H194.016C193.417 319.721 192.521 320.156 191.328 320.156C190.208 320.156 189.336 319.773 188.711 319.008C188.091 318.242 187.781 317.154 187.781 315.742C187.781 314.331 188.094 313.234 188.719 312.453C189.344 311.672 190.214 311.281 191.328 311.281C192.49 311.281 193.38 311.703 194 312.547H194.102L194.047 311.93L194.016 311.328V307.844H195.312V320H194.258L194.086 318.852ZM191.492 319.07C192.378 319.07 193.018 318.831 193.414 318.352C193.815 317.867 194.016 317.089 194.016 316.016V315.742C194.016 314.529 193.812 313.664 193.406 313.148C193.005 312.628 192.362 312.367 191.477 312.367C190.716 312.367 190.133 312.664 189.727 313.258C189.326 313.846 189.125 314.68 189.125 315.758C189.125 316.852 189.326 317.677 189.727 318.234C190.128 318.792 190.716 319.07 191.492 319.07ZM205.461 315.711C205.461 317.107 205.109 318.198 204.406 318.984C203.703 319.766 202.732 320.156 201.492 320.156C200.727 320.156 200.047 319.977 199.453 319.617C198.859 319.258 198.401 318.742 198.078 318.07C197.755 317.398 197.594 316.612 197.594 315.711C197.594 314.315 197.943 313.229 198.641 312.453C199.339 311.672 200.307 311.281 201.547 311.281C202.745 311.281 203.695 311.68 204.398 312.477C205.107 313.273 205.461 314.352 205.461 315.711ZM198.938 315.711C198.938 316.805 199.156 317.638 199.594 318.211C200.031 318.784 200.674 319.07 201.523 319.07C202.372 319.07 203.016 318.786 203.453 318.219C203.896 317.646 204.117 316.81 204.117 315.711C204.117 314.622 203.896 313.797 203.453 313.234C203.016 312.667 202.367 312.383 201.508 312.383C200.659 312.383 200.018 312.661 199.586 313.219C199.154 313.776 198.938 314.607 198.938 315.711ZM209.039 320H207.742V311.438H209.039V320ZM207.633 309.117C207.633 308.82 207.706 308.604 207.852 308.469C207.997 308.328 208.18 308.258 208.398 308.258C208.607 308.258 208.786 308.328 208.938 308.469C209.089 308.609 209.164 308.826 209.164 309.117C209.164 309.409 209.089 309.628 208.938 309.773C208.786 309.914 208.607 309.984 208.398 309.984C208.18 309.984 207.997 309.914 207.852 309.773C207.706 309.628 207.633 309.409 207.633 309.117ZM217.648 320V314.461C217.648 313.763 217.49 313.242 217.172 312.898C216.854 312.555 216.357 312.383 215.68 312.383C214.784 312.383 214.128 312.625 213.711 313.109C213.294 313.594 213.086 314.393 213.086 315.508V320H211.789V311.438H212.844L213.055 312.609H213.117C213.383 312.188 213.755 311.862 214.234 311.633C214.714 311.398 215.247 311.281 215.836 311.281C216.867 311.281 217.643 311.531 218.164 312.031C218.685 312.526 218.945 313.32 218.945 314.414V320H217.648ZM228.625 311.438V312.258L227.039 312.445C227.185 312.628 227.315 312.867 227.43 313.164C227.544 313.456 227.602 313.786 227.602 314.156C227.602 314.995 227.315 315.664 226.742 316.164C226.169 316.664 225.383 316.914 224.383 316.914C224.128 316.914 223.888 316.893 223.664 316.852C223.112 317.143 222.836 317.51 222.836 317.953C222.836 318.188 222.932 318.362 223.125 318.477C223.318 318.586 223.648 318.641 224.117 318.641H225.633C226.56 318.641 227.271 318.836 227.766 319.227C228.266 319.617 228.516 320.185 228.516 320.93C228.516 321.878 228.135 322.599 227.375 323.094C226.615 323.594 225.505 323.844 224.047 323.844C222.927 323.844 222.062 323.635 221.453 323.219C220.849 322.802 220.547 322.214 220.547 321.453C220.547 320.932 220.714 320.482 221.047 320.102C221.38 319.721 221.849 319.464 222.453 319.328C222.234 319.229 222.049 319.076 221.898 318.867C221.753 318.659 221.68 318.417 221.68 318.141C221.68 317.828 221.763 317.555 221.93 317.32C222.096 317.086 222.359 316.859 222.719 316.641C222.276 316.458 221.914 316.148 221.633 315.711C221.357 315.273 221.219 314.773 221.219 314.211C221.219 313.273 221.5 312.552 222.062 312.047C222.625 311.536 223.422 311.281 224.453 311.281C224.901 311.281 225.305 311.333 225.664 311.438H228.625ZM221.797 321.438C221.797 321.901 221.992 322.253 222.383 322.492C222.773 322.732 223.333 322.852 224.062 322.852C225.151 322.852 225.956 322.688 226.477 322.359C227.003 322.036 227.266 321.596 227.266 321.039C227.266 320.576 227.122 320.253 226.836 320.07C226.549 319.893 226.01 319.805 225.219 319.805H223.664C223.076 319.805 222.617 319.945 222.289 320.227C221.961 320.508 221.797 320.911 221.797 321.438ZM222.5 314.18C222.5 314.779 222.669 315.232 223.008 315.539C223.346 315.846 223.818 316 224.422 316C225.688 316 226.32 315.385 226.32 314.156C226.32 312.87 225.68 312.227 224.398 312.227C223.789 312.227 223.32 312.391 222.992 312.719C222.664 313.047 222.5 313.534 222.5 314.18ZM235.836 320H234.539V311.438H235.836V320ZM234.43 309.117C234.43 308.82 234.503 308.604 234.648 308.469C234.794 308.328 234.977 308.258 235.195 308.258C235.404 308.258 235.583 308.328 235.734 308.469C235.885 308.609 235.961 308.826 235.961 309.117C235.961 309.409 235.885 309.628 235.734 309.773C235.583 309.914 235.404 309.984 235.195 309.984C234.977 309.984 234.794 309.914 234.648 309.773C234.503 309.628 234.43 309.409 234.43 309.117ZM241.352 319.086C241.581 319.086 241.802 319.07 242.016 319.039C242.229 319.003 242.398 318.966 242.523 318.93V319.922C242.383 319.99 242.174 320.044 241.898 320.086C241.628 320.133 241.383 320.156 241.164 320.156C239.508 320.156 238.68 319.284 238.68 317.539V312.445H237.453V311.82L238.68 311.281L239.227 309.453H239.977V311.438H242.461V312.445H239.977V317.484C239.977 318 240.099 318.396 240.344 318.672C240.589 318.948 240.924 319.086 241.352 319.086Z" fill="#5C5C5D"/>
<defs>
<filter id="filter0_d" x="-52" y="0" width="462" height="418" filterUnits="userSpaceOnUse" color-interpolation-filters="sRGB">
<feFlood flood-opacity="0" result="BackgroundImageFix"/>
<feColorMatrix in="SourceAlpha" type="matrix" values="0 0 0 0 0 0 0 0 0 0 0 0 0 0 0 0 0 0 127 0"/>
<feOffset dy="-23"/>
<feGaussianBlur stdDeviation="50"/>
<feColorMatrix type="matrix" values="0 0 0 0 0 0 0 0 0 0 0 0 0 0 0 0 0 0 0.1 0"/>
<feBlend mode="normal" in2="BackgroundImageFix" result="effect1_dropShadow"/>
<feBlend mode="normal" in="SourceGraphic" in2="effect1_dropShadow" result="shape"/>
</filter>
<clipPath id="clip0">
<rect width="139" height="102" fill="white" transform="translate(109 144)"/>
</clipPath>
</defs>
</svg>
