<svg width="139" height="102" viewBox="0 0 139 102" fill="none" xmlns="http://www.w3.org/2000/svg">
<g clip-path="url(#clip0)">
<path d="M13.5259 72.2309C18.8985 79.3669 25.2381 82.0223 37.5706 86.9952C62.8021 97.1676 91.5139 99.4273 112.618 90.2985C128.051 83.6275 135.149 73.6796 138.356 52.1976C141.002 34.4583 135.484 10.1315 121.798 4.71181C107.179 -1.07719 94.9185 19.3379 74.5731 13.1701C63.6766 9.86823 63.7251 2.96253 52.5442 0.62821C39.7465 -2.03885 25.3373 4.01414 16.4051 13.8356C1.40286 30.3338 2.15095 57.1265 13.5259 72.2309Z" fill="#F2F2F2"/>
<path d="M41.4103 23.6042H19.1439V69.457H41.4103V23.6042Z" fill="#D3D3D3"/>
<path d="M64.4114 34.3544H47.3626V69.457H64.4114V34.3544Z" fill="#D3D3D3"/>
<path d="M85.5755 27.919H61.2515V69.457H85.5755V27.919Z" fill="#D3D3D3"/>
<path d="M125.699 39.5467H99.9053V69.457H125.699V39.5467Z" fill="#D3D3D3"/>
<path d="M134.936 67.8325H9.56885V74.1949H134.936V67.8325Z" fill="#5C5C5D"/>
<path d="M66.4301 60.5987C66.4301 60.2967 66.3742 60.3435 66.0707 60.3435H60.0272C59.7237 60.3435 59.4783 60.4422 59.4783 60.7442L60.0272 63.989C60.0272 64.2903 60.2734 64.5009 60.5769 64.5009H66.0707C66.3742 64.5009 66.4301 64.1821 66.4301 63.8801V60.5987Z" fill="black"/>
<path d="M108.37 52.3986C108.37 52.3986 118.232 52.6765 121.508 52.9449C125.403 53.2638 132.825 55.0803 132.825 58.116C132.825 62.5118 129.518 65.6557 126.908 65.6557C110.863 65.6557 66.1142 65.519 66.1142 65.519C66.1142 65.519 64.2469 65.9146 62.6434 63.4406C61.0399 60.9666 57.3524 55.8606 60.1177 53.9848C60.1177 53.9848 70.2588 47.0023 80.8033 47.0023C80.8033 47.0023 87.0879 46.7829 89.8657 46.7566C94.2219 46.7098 97.4443 46.7632 108.37 52.3986Z" fill="#D80A49"/>
<path d="M131.466 57.2655C131.346 57.6253 129.532 57.3518 127.413 56.6541C125.293 55.9564 123.672 55.1008 123.792 54.741C123.912 54.3811 125.726 54.6547 127.845 55.3516C129.963 56.0486 131.585 56.9056 131.466 57.2655Z" fill="#C2C2C2"/>
<path d="M61.2714 55.3852C61.2725 55.0704 61.2 54.7595 61.0597 54.4773C60.9194 54.195 60.7152 53.9491 60.463 53.7589C60.2426 53.9051 60.1206 53.9848 60.1206 53.9848C59.0183 54.7322 58.9448 55.9944 59.3497 57.3978C60.4131 57.3773 61.2714 56.4873 61.2714 55.3852Z" fill="#C2C2C2"/>
<path d="M82.2628 62.541C82.2629 63.888 81.8617 65.2049 81.1098 66.3249C80.3579 67.445 79.2892 68.3181 78.0387 68.8337C76.7882 69.3493 75.4121 69.4843 74.0846 69.2217C72.757 68.959 71.5374 68.3105 70.5802 67.3581C69.623 66.4057 68.9711 65.1923 68.7068 63.8712C68.4426 62.5501 68.578 61.1807 69.0959 59.9361C69.6137 58.6916 70.4908 57.6278 71.6162 56.8793C72.7415 56.1309 74.0647 55.7313 75.4183 55.7311C76.317 55.731 77.2069 55.9071 78.0373 56.2493C78.8677 56.5915 79.6222 57.0931 80.2578 57.7254C80.8933 58.3578 81.3975 59.1085 81.7415 59.9348C82.0856 60.761 82.2627 61.6466 82.2628 62.541Z" fill="black"/>
<path d="M80.0191 62.541C80.0193 63.4465 79.7496 64.3316 79.2443 65.0845C78.7389 65.8374 78.0206 66.4243 77.18 66.771C76.3395 67.1176 75.4146 67.2084 74.5222 67.0319C73.6298 66.8554 72.81 66.4195 72.1666 65.7794C71.5231 65.1392 71.0849 64.3236 70.9072 63.4356C70.7296 62.5476 70.8205 61.6271 71.1686 60.7905C71.5166 59.954 72.1061 59.2389 72.8626 58.7358C73.619 58.2326 74.5083 57.964 75.4182 57.9638C76.6382 57.9638 77.8082 58.446 78.671 59.3044C79.5338 60.1627 80.0188 61.327 80.0191 62.541Z" fill="#F2F2F2"/>
<path d="M76.5345 62.5417C76.5345 62.7613 76.4691 62.9759 76.3465 63.1585C76.2239 63.3411 76.0497 63.4833 75.8459 63.5674C75.642 63.6514 75.4177 63.6734 75.2014 63.6305C74.985 63.5877 74.7862 63.482 74.6302 63.3267C74.4742 63.1715 74.3679 62.9737 74.3249 62.7583C74.2819 62.543 74.3039 62.3198 74.3884 62.1169C74.4728 61.9141 74.6158 61.7407 74.7992 61.6187C74.9827 61.4967 75.1983 61.4316 75.419 61.4316C75.7148 61.4316 75.9986 61.5486 76.2078 61.7568C76.417 61.965 76.5345 62.2473 76.5345 62.5417Z" fill="#5C5C5D"/>
<path d="M125.111 62.541C125.111 63.888 124.71 65.2049 123.958 66.3249C123.206 67.445 122.138 68.3181 120.887 68.8337C119.637 69.3493 118.26 69.4843 116.933 69.2217C115.605 68.959 114.386 68.3105 113.429 67.3581C112.471 66.4057 111.819 65.1923 111.555 63.8712C111.291 62.5501 111.426 61.1807 111.944 59.9361C112.462 58.6916 113.339 57.6278 114.465 56.8793C115.59 56.1309 116.913 55.7313 118.267 55.7311C119.165 55.731 120.055 55.9071 120.886 56.2493C121.716 56.5915 122.471 57.0931 123.106 57.7254C123.742 58.3578 124.246 59.1085 124.59 59.9348C124.934 60.761 125.111 61.6466 125.111 62.541Z" fill="black"/>
<path d="M122.868 62.541C122.867 63.4464 122.598 64.3314 122.092 65.0841C121.586 65.8368 120.868 66.4235 120.027 66.7699C119.187 67.1163 118.262 67.2069 117.37 67.0302C116.477 66.8536 115.658 66.4176 115.014 65.7774C114.371 65.1372 113.933 64.3215 113.756 63.4335C113.578 62.5456 113.669 61.6252 114.017 60.7887C114.365 59.9522 114.955 59.2372 115.711 58.7341C116.468 58.231 117.357 57.9624 118.267 57.9623C119.487 57.9623 120.657 58.4447 121.52 59.3033C122.383 60.162 122.868 61.3266 122.868 62.541Z" fill="#F2F2F2"/>
<path d="M119.384 62.5417C119.384 62.7615 119.318 62.9763 119.196 63.1591C119.073 63.3419 118.899 63.4844 118.695 63.5686C118.491 63.6528 118.267 63.6749 118.05 63.6321C117.834 63.5893 117.635 63.4836 117.478 63.3282C117.322 63.1729 117.216 62.975 117.173 62.7595C117.13 62.544 117.152 62.3206 117.236 62.1175C117.321 61.9145 117.464 61.741 117.647 61.6189C117.831 61.4968 118.047 61.4316 118.267 61.4316C118.563 61.4316 118.847 61.5485 119.056 61.7567C119.266 61.9649 119.383 62.2473 119.384 62.5417Z" fill="#5C5C5D"/>
<path d="M112.619 64.0102H80.6798V65.7214H112.619V64.0102Z" fill="black"/>
<path d="M72.9843 49.9268C72.6904 50.0774 71.9555 51.1854 73.9683 51.9598C75.9811 52.7343 78.2481 53.742 83.6045 53.742H101.229C101.229 53.742 105.251 53.6425 108.37 52.5236C104.453 50.5031 101.529 49.1399 99.1844 48.3018C76.9709 47.3468 74.0998 49.3527 72.9843 49.9268Z" fill="#C2C2C2"/>
<path d="M80.6798 47.629H79.6973V54.2305H80.6798V47.629Z" fill="#5C5C5D"/>
<path d="M92.8257 46.9939L92.3239 47.9665L105.02 54.4544L105.522 53.4818L92.8257 46.9939Z" fill="#5C5C5D"/>
<path d="M86.9467 56.431C86.9467 56.7331 86.7013 56.9203 86.3971 56.9203H83.6509C83.3474 56.9203 83.1012 56.7331 83.1012 56.431C83.1012 56.1297 83.3474 55.9425 83.6509 55.9425H86.3971C86.7013 55.9425 86.9467 56.1297 86.9467 56.431Z" fill="#57041D"/>
<path d="M95.5696 21.191H78.4473V38.2303H95.5696V21.191Z" fill="white"/>
<path d="M53.6134 57.0007C53.5117 57.0011 53.4108 57.0186 53.315 57.0527V59.7584C53.4108 59.7927 53.5117 59.8105 53.6134 59.8111C54.3093 59.8111 55.1911 59.1814 55.1911 58.4055C55.1911 57.6296 54.3093 57.0007 53.6134 57.0007Z" fill="#FFE3CA"/>
<path d="M53.7192 53.5175C53.5769 53.5162 53.437 53.5542 53.315 53.6272V56.6255C53.4372 56.698 53.577 56.7357 53.7192 56.7345C54.4151 56.7345 55.2962 56.0142 55.2962 55.1256C55.2962 54.2371 54.4151 53.5175 53.7192 53.5175Z" fill="#FFE3CA"/>
<path d="M54.7399 44.2C54.2574 44.12 53.7618 44.183 53.315 44.3814V47.5589C54.543 47.5933 55.3491 46.3669 55.6666 45.2992C55.9238 44.4333 54.7399 44.2 54.7399 44.2Z" fill="#FFE3CA"/>
<path d="M55.0853 50.1447C54.4871 49.5151 53.5487 49.9744 53.315 50.1038V53.4539L53.8294 53.2272C55.5828 52.4513 56.3552 51.4816 55.0853 50.1447Z" fill="#FFE3CA"/>
<path d="M41.1053 56.0157C41.1251 56.0771 41.1501 56.1487 41.1707 56.2094L41.1751 56.2204C41.1442 56.1341 41.1222 56.0661 41.1053 56.0157Z" fill="#F7BE89"/>
<path d="M41.1053 56.0157C41.0612 55.8877 41.0362 55.8138 41.1053 56.0157V56.0157Z" fill="#F7BE89"/>
<path d="M41.2086 56.3215C41.205 56.3084 41.1947 56.2786 41.1758 56.224C41.1904 56.2684 41.2035 56.3055 41.2086 56.3215Z" fill="#F7BE89"/>
<path d="M41.1767 56.2249C41.1767 56.2249 41.174 56.2222 41.1767 56.2249V56.2249Z" fill="#F7BE89"/>
<path d="M41.1752 56.2207L41.1707 56.2094L41.1752 56.2215V56.2207Z" fill="#F7BE89"/>
<path d="M34.8119 45.5141C34.9794 45.2669 35.4622 43.8679 35.4622 43.8679C35.4622 43.8679 34.9581 43.3816 34.6039 43.2098C34.2174 43.6061 33.9896 44.6804 33.8536 45.5287L34.2402 45.6231C34.2402 45.6231 34.6436 45.7606 34.8119 45.5141Z" fill="#FCD2B1"/>
<path d="M42.1348 65.6769C41.239 65.8488 40.3417 65.1445 40.1419 64.1119L38.1518 53.8598C37.3707 54.4763 36.6733 55.1089 36.6733 55.1089L35.6842 50.0058C35.6842 50.0058 36.5403 48.0218 36.7196 46.4685L36.3573 44.6008C36.0942 43.9769 35.6871 43.3912 35.1176 43.1067C34.9199 43.008 34.7502 43.0592 34.6032 43.2105C34.9574 43.3817 35.4615 43.8687 35.4615 43.8687C35.4615 43.8687 34.9787 45.2677 34.8112 45.5149C34.6436 45.7621 34.2394 45.6246 34.2394 45.6246L33.8536 45.5302C33.764 46.0846 33.7934 45.9778 33.764 46.0846C33.3525 47.6342 31.9195 47.7183 32.1186 49.2833C32.3677 51.249 30.9245 54.9143 31.7512 56.4947C32.5162 57.9653 32.5015 59.7256 32.7954 61.3359C32.8748 61.7747 32.6609 62.468 32.73 62.7795C32.1216 63.7989 28.3333 67.307 28.3333 67.307L34.8927 74.2646C34.8927 74.2646 39.2167 69.4461 41.5506 68.5085C45.0978 67.0832 45.7951 65.8078 46.5645 64.8279L42.1348 65.6769Z" fill="#FFE3CA"/>
<path d="M51.3971 36.5944H39.349C38.3035 36.5944 37.456 37.4378 37.456 38.4783V65.388C37.456 66.4284 38.3035 67.2719 39.349 67.2719H51.3971C52.4426 67.2719 53.2901 66.4284 53.2901 65.388V38.4783C53.2901 37.4378 52.4426 36.5944 51.3971 36.5944Z" fill="#1B191B"/>
<path d="M50.8467 37.3681H39.8994C38.9254 37.3681 38.1357 38.1539 38.1357 39.1233V64.7437C38.1357 65.7131 38.9254 66.4989 39.8994 66.4989H50.8467C51.8207 66.4989 52.6103 65.7131 52.6103 64.7437V39.1233C52.6103 38.1539 51.8207 37.3681 50.8467 37.3681Z" fill="white"/>
<path d="M42.2487 36.8197H48.4951V37.216C48.4951 37.3756 48.4635 37.5335 48.4022 37.6809C48.3408 37.8283 48.2509 37.9622 48.1376 38.075C48.0242 38.1878 47.8897 38.2772 47.7416 38.3383C47.5935 38.3993 47.4348 38.4307 47.2745 38.4307H43.4694C43.1456 38.4307 42.8352 38.3028 42.6063 38.075C42.3774 37.8472 42.2487 37.5382 42.2487 37.216V36.8197Z" fill="#1B191B"/>
<path d="M53.6384 76.3561L51.5073 71.6107C50.8459 70.1327 50.2213 68.6526 49.629 67.1585L49.6223 67.1468C49.6223 67.1468 50.6409 73.4536 50.779 74.1615C51.1222 75.9166 52.9527 77.2542 54.1315 78.4338C54.3563 78.6597 57.6779 81.7692 57.6779 81.7692C57.4575 81.5374 57.2267 81.2705 56.9636 80.9472C55.7886 79.5029 54.4122 78.0776 53.6384 76.3561Z" fill="#FCD2B1"/>
<path d="M69.2593 77.7543C67.7426 76.0965 69.0631 72.4158 68.113 70.423C67.4222 68.9765 66.2339 65.0465 64.4622 64.656C63.6362 64.4739 63.1085 64.9565 62.3649 64.2106C61.5315 63.3733 60.973 64.2837 60.1338 64.049C59.3299 63.8223 59.0161 62.5981 58.0123 63.3769C57.4075 63.6607 57.0165 64.1887 56.275 63.7352C55.6328 63.3425 55.1338 62.7114 54.3277 63.2965C53.8258 63.5005 53.5553 64.0117 52.9197 63.7301C52.3457 63.4764 52.0268 62.4745 51.763 61.9604L48.545 55.7034C48.2401 55.111 47.8939 54.085 47.3185 53.7793C45.3851 52.7511 45.6284 56.091 45.948 56.997L48.0725 62.9981C48.5688 64.4032 49.0883 65.79 49.6312 67.1585C50.2235 68.6525 50.8452 70.1327 51.5095 71.6106L53.6406 76.3561C54.4144 78.0776 55.7915 79.5007 56.9636 80.9465C57.2267 81.2697 57.4574 81.5366 57.6779 81.7684C58.3599 82.4851 58.936 82.8654 60.0111 83.5236C61.2964 84.3112 63.5796 87.2042 63.5796 87.2042L72.0415 82.1999C72.0415 82.1999 69.8634 78.4132 69.2593 77.7543Z" fill="#FFE3CA"/>
<path d="M46.0693 54.1976C46.0693 54.1976 46.3993 55.4145 46.8365 55.4803C47.2738 55.5461 48.2622 55.1 48.2592 55.0927C47.9954 54.6064 47.7779 53.9665 47.3186 53.7603C47.2366 53.7236 47.1525 53.6921 47.0665 53.666C46.6895 53.7391 46.242 53.889 46.0693 54.1976Z" fill="#FCD2B1"/>
<path d="M27.8807 65.7171L36.5557 74.4547L17.8946 96.954L0 91.9387L27.8807 65.7171Z" fill="#8A062E"/>
<path d="M61.0649 87.1955L73.1365 80.0711L87.8536 100.172L70.2169 102L61.0649 87.1955Z" fill="#8A062E"/>
</g>
<defs>
<clipPath id="clip0">
<rect width="139" height="102" fill="white"/>
</clipPath>
</defs>
</svg>
