<svg width="360" height="1268" viewBox="0 0 360 1268" fill="none" xmlns="http://www.w3.org/2000/svg">
<path d="M0 27H378V1226H0V27Z" fill="url(#paint0_linear)"/>
<path d="M-66.5405 80.3189C-66.5405 80.3189 -64.2801 67.5409 27.4939 75.0252C119.268 82.5095 192.958 123.947 307.563 80.319C422.167 36.6913 478 55.4932 478 55.4932L466.698 0.000117427L-74 10.0399" fill="white"/>
<path d="M-79.5405 1206.96C-79.5405 1206.96 -77.2801 1216.67 14.4939 1210.98C106.268 1205.29 179.958 1173.8 294.563 1206.96C409.167 1240.11 465 1225.83 465 1225.83L453.698 1268L-87 1260.37" fill="white"/>
<g filter="url(#filter0_d)">
<rect x="63" y="160" width="234" height="944" rx="30" fill="white"/>
</g>
<defs>
<filter id="filter0_d" x="-37" y="110" width="434" height="1144" filterUnits="userSpaceOnUse" color-interpolation-filters="sRGB">
<feFlood flood-opacity="0" result="BackgroundImageFix"/>
<feColorMatrix in="SourceAlpha" type="matrix" values="0 0 0 0 0 0 0 0 0 0 0 0 0 0 0 0 0 0 127 0"/>
<feOffset dy="50"/>
<feGaussianBlur stdDeviation="50"/>
<feColorMatrix type="matrix" values="0 0 0 0 0 0 0 0 0 0 0 0 0 0 0 0 0 0 0.1 0"/>
<feBlend mode="normal" in2="BackgroundImageFix" result="effect1_dropShadow"/>
<feBlend mode="normal" in="SourceGraphic" in2="effect1_dropShadow" result="shape"/>
</filter>
<linearGradient id="paint0_linear" x1="219.492" y1="-251.429" x2="802.246" y2="1649.85" gradientUnits="userSpaceOnUse">
<stop offset="0.0230714" stop-color="#D80A49"/>
<stop offset="0.661385"/>
</linearGradient>
</defs>
</svg>
