<svg width="23" height="23" viewBox="0 0 23 23" fill="none" xmlns="http://www.w3.org/2000/svg">
<g clip-path="url(#clip0)">
<path d="M13.5327 10.1857C14.6555 11.3085 14.6555 13.1289 13.5327 14.2517C12.4099 15.3745 10.5895 15.3745 9.46673 14.2517C8.34393 13.1289 8.34393 11.3085 9.46673 10.1857C10.5895 9.06293 12.4099 9.06293 13.5327 10.1857Z" fill="white"/>
<path d="M20.1249 4.31223H18.1385L16.7002 1.43713H6.29839L4.86152 4.31365L2.87788 4.31718C1.29645 4.32 0.00908784 5.60873 0.00772231 7.19087L0 18.687C0 20.2726 1.28944 21.5628 2.8751 21.5628H20.1249C21.7106 21.5628 23 20.2733 23 18.6877V7.18729C23 5.60167 21.7106 4.31223 20.1249 4.31223ZM11.4996 17.9689C8.32903 17.9689 5.74945 15.3893 5.74945 12.2187C5.74945 9.04808 8.32903 6.4685 11.4996 6.4685C14.6703 6.4685 17.2498 9.04808 17.2498 12.2187C17.2498 15.3893 14.6703 17.9689 11.4996 17.9689Z" fill="white"/>
</g>
<defs>
<clipPath id="clip0">
<rect width="23" height="23" fill="white"/>
</clipPath>
</defs>
</svg>
