<svg width="60" height="60" viewBox="0 0 60 60" fill="none" xmlns="http://www.w3.org/2000/svg">
<path d="M44.41 59.77H15.36C6.88 59.77 0 52.89 0 44.41V15.36C0 6.88 6.88 0 15.36 0H44.4C52.88 0 59.76 6.88 59.76 15.36V44.4C59.77 52.89 52.89 59.77 44.41 59.77Z" fill="#D80A49"/>
<path d="M7.96 37.2C8.02 38.49 8.64 39.59 9.64 40.4C10.1 40.78 10.25 41.19 10.24 41.75C10.22 43.35 10.24 44.95 10.24 46.54C10.24 47.42 10.71 47.88 11.56 47.91C12.64 47.94 13.71 47.95 14.79 47.91C15.78 47.87 16.17 47.43 16.19 46.41C16.21 45.27 16.24 44.12 16.18 42.99C16.14 42.14 16.42 41.86 17.29 41.87C21.46 41.91 25.64 41.89 29.81 41.89C34.02 41.89 38.23 41.91 42.43 41.87C43.3 41.86 43.58 42.15 43.54 43C43.48 44.14 43.51 45.28 43.53 46.42C43.55 47.48 43.95 47.89 45.02 47.92C46.03 47.95 47.04 47.95 48.05 47.92C49.05 47.89 49.45 47.47 49.47 46.45C49.49 44.95 49.5 43.45 49.47 41.95C49.45 41.25 49.61 40.71 50.19 40.25C51.1 39.54 51.66 38.52 51.72 37.39C51.92 33.93 51.98 30.47 50.83 27.13C50.4 25.89 49.86 24.67 48.77 23.87C48.13 23.4 47.86 22.84 47.7 22.11C47.08 19.32 46.11 16.66 44.42 14.32C43.05 12.41 41.31 11.36 38.8 11.4C32.6 11.51 26.41 11.45 20.21 11.42C18.86 11.42 17.73 11.85 16.73 12.72C15.81 13.52 15.09 14.48 14.48 15.53C13.29 17.61 12.49 19.85 11.96 22.18C11.86 22.61 11.88 23.13 11.46 23.41C9.48 24.74 8.83 26.83 8.35 28.99C7.76 31.72 7.83 34.47 7.96 37.2Z" stroke="white" stroke-width="1.4415" stroke-linecap="round" stroke-linejoin="round"/>
<path d="M15.21 23C16.52 23 17.83 23 19.15 23C18.72 22.27 18.47 21.41 18.47 20.48C18.47 17.92 20.37 15.84 22.71 15.84C25.05 15.84 26.95 17.92 26.95 20.48C26.95 21.41 26.7 22.28 26.27 23C27.47 23 28.68 23 29.88 23C31.05 23 32.23 23 33.4 23C32.97 22.27 32.72 21.41 32.72 20.48C32.72 17.92 34.62 15.84 36.96 15.84C39.3 15.84 41.2 17.92 41.2 20.48C41.2 21.41 40.95 22.28 40.51 23.01C41.89 23.01 43.26 23.01 44.64 23.02C45.41 23.02 45.72 22.85 45.49 22.02C44.86 19.68 44.03 17.43 42.59 15.44C41.71 14.24 40.64 13.6 39.04 13.62C32.95 13.69 26.85 13.7 20.76 13.62C19.09 13.6 17.98 14.28 17.07 15.55C15.7 17.46 14.91 19.63 14.29 21.87C13.99 22.96 14.03 23 15.21 23Z" fill="white"/>
<path d="M21.34 31.76C21.57 32.03 21.84 32.28 22.12 32.49C24.4 34.22 26.96 35.15 30.62 35.15C32.92 35.14 35.64 34.13 38.02 32.16C38.51 31.75 38.87 31.25 38.4 30.65C37.91 30.02 37.31 30.24 36.76 30.64C36.63 30.74 36.51 30.85 36.38 30.95C32.54 33.97 27.16 33.96 23.33 30.93C23 30.67 22.7 30.35 22.25 30.31C21.87 30.27 21.53 30.33 21.31 30.68C21.07 31.04 21.05 31.43 21.34 31.76Z" fill="white"/>
</svg>
