<svg width="462" height="418" viewBox="0 0 462 418" fill="none" xmlns="http://www.w3.org/2000/svg">
<g filter="url(#filter0_d)">
<rect x="100" y="50" width="262" height="218" rx="30" fill="white"/>
</g>
<path d="M174.562 198H168.195V186.578H174.562V187.758H169.523V191.438H174.258V192.609H169.523V196.812H174.562V198ZM182.766 198V192.461C182.766 191.763 182.607 191.242 182.289 190.898C181.971 190.555 181.474 190.383 180.797 190.383C179.901 190.383 179.245 190.625 178.828 191.109C178.411 191.594 178.203 192.393 178.203 193.508V198H176.906V189.438H177.961L178.172 190.609H178.234C178.5 190.188 178.872 189.862 179.352 189.633C179.831 189.398 180.365 189.281 180.953 189.281C181.984 189.281 182.76 189.531 183.281 190.031C183.802 190.526 184.062 191.32 184.062 192.414V198H182.766ZM193.742 189.438V190.258L192.156 190.445C192.302 190.628 192.432 190.867 192.547 191.164C192.661 191.456 192.719 191.786 192.719 192.156C192.719 192.995 192.432 193.664 191.859 194.164C191.286 194.664 190.5 194.914 189.5 194.914C189.245 194.914 189.005 194.893 188.781 194.852C188.229 195.143 187.953 195.51 187.953 195.953C187.953 196.188 188.049 196.362 188.242 196.477C188.435 196.586 188.766 196.641 189.234 196.641H190.75C191.677 196.641 192.388 196.836 192.883 197.227C193.383 197.617 193.633 198.185 193.633 198.93C193.633 199.878 193.253 200.599 192.492 201.094C191.732 201.594 190.622 201.844 189.164 201.844C188.044 201.844 187.18 201.635 186.57 201.219C185.966 200.802 185.664 200.214 185.664 199.453C185.664 198.932 185.831 198.482 186.164 198.102C186.497 197.721 186.966 197.464 187.57 197.328C187.352 197.229 187.167 197.076 187.016 196.867C186.87 196.659 186.797 196.417 186.797 196.141C186.797 195.828 186.88 195.555 187.047 195.32C187.214 195.086 187.477 194.859 187.836 194.641C187.393 194.458 187.031 194.148 186.75 193.711C186.474 193.273 186.336 192.773 186.336 192.211C186.336 191.273 186.617 190.552 187.18 190.047C187.742 189.536 188.539 189.281 189.57 189.281C190.018 189.281 190.422 189.333 190.781 189.438H193.742ZM186.914 199.438C186.914 199.901 187.109 200.253 187.5 200.492C187.891 200.732 188.451 200.852 189.18 200.852C190.268 200.852 191.073 200.688 191.594 200.359C192.12 200.036 192.383 199.596 192.383 199.039C192.383 198.576 192.24 198.253 191.953 198.07C191.667 197.893 191.128 197.805 190.336 197.805H188.781C188.193 197.805 187.734 197.945 187.406 198.227C187.078 198.508 186.914 198.911 186.914 199.438ZM187.617 192.18C187.617 192.779 187.786 193.232 188.125 193.539C188.464 193.846 188.935 194 189.539 194C190.805 194 191.438 193.385 191.438 192.156C191.438 190.87 190.797 190.227 189.516 190.227C188.906 190.227 188.438 190.391 188.109 190.719C187.781 191.047 187.617 191.534 187.617 192.18ZM200.766 198L200.508 196.781H200.445C200.018 197.318 199.591 197.682 199.164 197.875C198.742 198.062 198.214 198.156 197.578 198.156C196.729 198.156 196.062 197.938 195.578 197.5C195.099 197.062 194.859 196.44 194.859 195.633C194.859 193.904 196.242 192.997 199.008 192.914L200.461 192.867V192.336C200.461 191.664 200.315 191.169 200.023 190.852C199.737 190.529 199.276 190.367 198.641 190.367C197.927 190.367 197.12 190.586 196.219 191.023L195.82 190.031C196.242 189.802 196.703 189.622 197.203 189.492C197.708 189.362 198.214 189.297 198.719 189.297C199.74 189.297 200.495 189.523 200.984 189.977C201.479 190.43 201.727 191.156 201.727 192.156V198H200.766ZM197.836 197.086C198.643 197.086 199.276 196.865 199.734 196.422C200.198 195.979 200.43 195.359 200.43 194.562V193.789L199.133 193.844C198.102 193.88 197.357 194.042 196.898 194.328C196.445 194.609 196.219 195.049 196.219 195.648C196.219 196.117 196.359 196.474 196.641 196.719C196.927 196.964 197.326 197.086 197.836 197.086ZM211.414 189.438V190.258L209.828 190.445C209.974 190.628 210.104 190.867 210.219 191.164C210.333 191.456 210.391 191.786 210.391 192.156C210.391 192.995 210.104 193.664 209.531 194.164C208.958 194.664 208.172 194.914 207.172 194.914C206.917 194.914 206.677 194.893 206.453 194.852C205.901 195.143 205.625 195.51 205.625 195.953C205.625 196.188 205.721 196.362 205.914 196.477C206.107 196.586 206.438 196.641 206.906 196.641H208.422C209.349 196.641 210.06 196.836 210.555 197.227C211.055 197.617 211.305 198.185 211.305 198.93C211.305 199.878 210.924 200.599 210.164 201.094C209.404 201.594 208.294 201.844 206.836 201.844C205.716 201.844 204.852 201.635 204.242 201.219C203.638 200.802 203.336 200.214 203.336 199.453C203.336 198.932 203.503 198.482 203.836 198.102C204.169 197.721 204.638 197.464 205.242 197.328C205.023 197.229 204.839 197.076 204.688 196.867C204.542 196.659 204.469 196.417 204.469 196.141C204.469 195.828 204.552 195.555 204.719 195.32C204.885 195.086 205.148 194.859 205.508 194.641C205.065 194.458 204.703 194.148 204.422 193.711C204.146 193.273 204.008 192.773 204.008 192.211C204.008 191.273 204.289 190.552 204.852 190.047C205.414 189.536 206.211 189.281 207.242 189.281C207.69 189.281 208.094 189.333 208.453 189.438H211.414ZM204.586 199.438C204.586 199.901 204.781 200.253 205.172 200.492C205.562 200.732 206.122 200.852 206.852 200.852C207.94 200.852 208.745 200.688 209.266 200.359C209.792 200.036 210.055 199.596 210.055 199.039C210.055 198.576 209.911 198.253 209.625 198.07C209.339 197.893 208.799 197.805 208.008 197.805H206.453C205.865 197.805 205.406 197.945 205.078 198.227C204.75 198.508 204.586 198.911 204.586 199.438ZM205.289 192.18C205.289 192.779 205.458 193.232 205.797 193.539C206.135 193.846 206.607 194 207.211 194C208.477 194 209.109 193.385 209.109 192.156C209.109 190.87 208.469 190.227 207.188 190.227C206.578 190.227 206.109 190.391 205.781 190.719C205.453 191.047 205.289 191.534 205.289 192.18ZM214.469 198H213.172V189.438H214.469V198ZM213.062 187.117C213.062 186.82 213.135 186.604 213.281 186.469C213.427 186.328 213.609 186.258 213.828 186.258C214.036 186.258 214.216 186.328 214.367 186.469C214.518 186.609 214.594 186.826 214.594 187.117C214.594 187.409 214.518 187.628 214.367 187.773C214.216 187.914 214.036 187.984 213.828 187.984C213.609 187.984 213.427 187.914 213.281 187.773C213.135 187.628 213.062 187.409 213.062 187.117ZM223.078 198V192.461C223.078 191.763 222.919 191.242 222.602 190.898C222.284 190.555 221.786 190.383 221.109 190.383C220.214 190.383 219.557 190.625 219.141 191.109C218.724 191.594 218.516 192.393 218.516 193.508V198H217.219V189.438H218.273L218.484 190.609H218.547C218.812 190.188 219.185 189.862 219.664 189.633C220.143 189.398 220.677 189.281 221.266 189.281C222.297 189.281 223.073 189.531 223.594 190.031C224.115 190.526 224.375 191.32 224.375 192.414V198H223.078ZM234.055 189.438V190.258L232.469 190.445C232.615 190.628 232.745 190.867 232.859 191.164C232.974 191.456 233.031 191.786 233.031 192.156C233.031 192.995 232.745 193.664 232.172 194.164C231.599 194.664 230.812 194.914 229.812 194.914C229.557 194.914 229.318 194.893 229.094 194.852C228.542 195.143 228.266 195.51 228.266 195.953C228.266 196.188 228.362 196.362 228.555 196.477C228.747 196.586 229.078 196.641 229.547 196.641H231.062C231.99 196.641 232.701 196.836 233.195 197.227C233.695 197.617 233.945 198.185 233.945 198.93C233.945 199.878 233.565 200.599 232.805 201.094C232.044 201.594 230.935 201.844 229.477 201.844C228.357 201.844 227.492 201.635 226.883 201.219C226.279 200.802 225.977 200.214 225.977 199.453C225.977 198.932 226.143 198.482 226.477 198.102C226.81 197.721 227.279 197.464 227.883 197.328C227.664 197.229 227.479 197.076 227.328 196.867C227.182 196.659 227.109 196.417 227.109 196.141C227.109 195.828 227.193 195.555 227.359 195.32C227.526 195.086 227.789 194.859 228.148 194.641C227.706 194.458 227.344 194.148 227.062 193.711C226.786 193.273 226.648 192.773 226.648 192.211C226.648 191.273 226.93 190.552 227.492 190.047C228.055 189.536 228.852 189.281 229.883 189.281C230.331 189.281 230.734 189.333 231.094 189.438H234.055ZM227.227 199.438C227.227 199.901 227.422 200.253 227.812 200.492C228.203 200.732 228.763 200.852 229.492 200.852C230.581 200.852 231.385 200.688 231.906 200.359C232.432 200.036 232.695 199.596 232.695 199.039C232.695 198.576 232.552 198.253 232.266 198.07C231.979 197.893 231.44 197.805 230.648 197.805H229.094C228.505 197.805 228.047 197.945 227.719 198.227C227.391 198.508 227.227 198.911 227.227 199.438ZM227.93 192.18C227.93 192.779 228.099 193.232 228.438 193.539C228.776 193.846 229.247 194 229.852 194C231.117 194 231.75 193.385 231.75 192.156C231.75 190.87 231.109 190.227 229.828 190.227C229.219 190.227 228.75 190.391 228.422 190.719C228.094 191.047 227.93 191.534 227.93 192.18ZM245.234 198L244.977 196.781H244.914C244.487 197.318 244.06 197.682 243.633 197.875C243.211 198.062 242.682 198.156 242.047 198.156C241.198 198.156 240.531 197.938 240.047 197.5C239.568 197.062 239.328 196.44 239.328 195.633C239.328 193.904 240.711 192.997 243.477 192.914L244.93 192.867V192.336C244.93 191.664 244.784 191.169 244.492 190.852C244.206 190.529 243.745 190.367 243.109 190.367C242.396 190.367 241.589 190.586 240.688 191.023L240.289 190.031C240.711 189.802 241.172 189.622 241.672 189.492C242.177 189.362 242.682 189.297 243.188 189.297C244.208 189.297 244.964 189.523 245.453 189.977C245.948 190.43 246.195 191.156 246.195 192.156V198H245.234ZM242.305 197.086C243.112 197.086 243.745 196.865 244.203 196.422C244.667 195.979 244.898 195.359 244.898 194.562V193.789L243.602 193.844C242.57 193.88 241.826 194.042 241.367 194.328C240.914 194.609 240.688 195.049 240.688 195.648C240.688 196.117 240.828 196.474 241.109 196.719C241.396 196.964 241.794 197.086 242.305 197.086ZM254.734 198V192.461C254.734 191.763 254.576 191.242 254.258 190.898C253.94 190.555 253.443 190.383 252.766 190.383C251.87 190.383 251.214 190.625 250.797 191.109C250.38 191.594 250.172 192.393 250.172 193.508V198H248.875V189.438H249.93L250.141 190.609H250.203C250.469 190.188 250.841 189.862 251.32 189.633C251.799 189.398 252.333 189.281 252.922 189.281C253.953 189.281 254.729 189.531 255.25 190.031C255.771 190.526 256.031 191.32 256.031 192.414V198H254.734ZM264.531 196.852H264.461C263.862 197.721 262.966 198.156 261.773 198.156C260.654 198.156 259.781 197.773 259.156 197.008C258.536 196.242 258.227 195.154 258.227 193.742C258.227 192.331 258.539 191.234 259.164 190.453C259.789 189.672 260.659 189.281 261.773 189.281C262.935 189.281 263.826 189.703 264.445 190.547H264.547L264.492 189.93L264.461 189.328V185.844H265.758V198H264.703L264.531 196.852ZM261.938 197.07C262.823 197.07 263.464 196.831 263.859 196.352C264.26 195.867 264.461 195.089 264.461 194.016V193.742C264.461 192.529 264.258 191.664 263.852 191.148C263.451 190.628 262.807 190.367 261.922 190.367C261.161 190.367 260.578 190.664 260.172 191.258C259.771 191.846 259.57 192.68 259.57 193.758C259.57 194.852 259.771 195.677 260.172 196.234C260.573 196.792 261.161 197.07 261.938 197.07ZM276.531 190.445H274.352V198H273.055V190.445H271.523V189.859L273.055 189.391V188.914C273.055 186.81 273.974 185.758 275.812 185.758C276.266 185.758 276.797 185.849 277.406 186.031L277.07 187.07C276.57 186.909 276.143 186.828 275.789 186.828C275.299 186.828 274.938 186.992 274.703 187.32C274.469 187.643 274.352 188.164 274.352 188.883V189.438H276.531V190.445ZM279.312 189.438V194.992C279.312 195.69 279.471 196.211 279.789 196.555C280.107 196.898 280.604 197.07 281.281 197.07C282.177 197.07 282.831 196.826 283.242 196.336C283.659 195.846 283.867 195.047 283.867 193.938V189.438H285.164V198H284.094L283.906 196.852H283.836C283.57 197.273 283.201 197.596 282.727 197.82C282.258 198.044 281.721 198.156 281.117 198.156C280.076 198.156 279.294 197.909 278.773 197.414C278.258 196.919 278 196.128 278 195.039V189.438H279.312ZM293.781 198V192.461C293.781 191.763 293.622 191.242 293.305 190.898C292.987 190.555 292.49 190.383 291.812 190.383C290.917 190.383 290.26 190.625 289.844 191.109C289.427 191.594 289.219 192.393 289.219 193.508V198H287.922V189.438H288.977L289.188 190.609H289.25C289.516 190.188 289.888 189.862 290.367 189.633C290.846 189.398 291.38 189.281 291.969 189.281C293 189.281 293.776 189.531 294.297 190.031C294.818 190.526 295.078 191.32 295.078 192.414V198H293.781ZM165.82 220L164.25 214.977C164.151 214.669 163.966 213.971 163.695 212.883H163.633C163.424 213.794 163.242 214.497 163.086 214.992L161.469 220H159.969L157.633 211.438H158.992C159.544 213.589 159.964 215.227 160.25 216.352C160.542 217.477 160.708 218.234 160.75 218.625H160.812C160.87 218.328 160.961 217.945 161.086 217.477C161.216 217.003 161.328 216.628 161.422 216.352L162.992 211.438H164.398L165.93 216.352C166.221 217.247 166.419 218 166.523 218.609H166.586C166.607 218.422 166.661 218.133 166.75 217.742C166.844 217.352 167.388 215.25 168.383 211.438H169.727L167.359 220H165.82ZM176.547 220L176.289 218.781H176.227C175.799 219.318 175.372 219.682 174.945 219.875C174.523 220.062 173.995 220.156 173.359 220.156C172.51 220.156 171.844 219.938 171.359 219.5C170.88 219.062 170.641 218.44 170.641 217.633C170.641 215.904 172.023 214.997 174.789 214.914L176.242 214.867V214.336C176.242 213.664 176.096 213.169 175.805 212.852C175.518 212.529 175.057 212.367 174.422 212.367C173.708 212.367 172.901 212.586 172 213.023L171.602 212.031C172.023 211.802 172.484 211.622 172.984 211.492C173.49 211.362 173.995 211.297 174.5 211.297C175.521 211.297 176.276 211.523 176.766 211.977C177.26 212.43 177.508 213.156 177.508 214.156V220H176.547ZM173.617 219.086C174.424 219.086 175.057 218.865 175.516 218.422C175.979 217.979 176.211 217.359 176.211 216.562V215.789L174.914 215.844C173.883 215.88 173.138 216.042 172.68 216.328C172.227 216.609 172 217.049 172 217.648C172 218.117 172.141 218.474 172.422 218.719C172.708 218.964 173.107 219.086 173.617 219.086ZM178.828 211.438H180.219L182.094 216.32C182.505 217.435 182.76 218.24 182.859 218.734H182.922C182.99 218.469 183.13 218.016 183.344 217.375C183.562 216.729 184.271 214.75 185.469 211.438H186.859L183.18 221.188C182.815 222.151 182.388 222.833 181.898 223.234C181.414 223.641 180.818 223.844 180.109 223.844C179.714 223.844 179.323 223.799 178.938 223.711V222.672C179.224 222.734 179.544 222.766 179.898 222.766C180.789 222.766 181.424 222.266 181.805 221.266L182.281 220.047L178.828 211.438ZM195.172 219.086C195.401 219.086 195.622 219.07 195.836 219.039C196.049 219.003 196.219 218.966 196.344 218.93V219.922C196.203 219.99 195.995 220.044 195.719 220.086C195.448 220.133 195.203 220.156 194.984 220.156C193.328 220.156 192.5 219.284 192.5 217.539V212.445H191.273V211.82L192.5 211.281L193.047 209.453H193.797V211.438H196.281V212.445H193.797V217.484C193.797 218 193.919 218.396 194.164 218.672C194.409 218.948 194.745 219.086 195.172 219.086ZM205.453 215.711C205.453 217.107 205.102 218.198 204.398 218.984C203.695 219.766 202.724 220.156 201.484 220.156C200.719 220.156 200.039 219.977 199.445 219.617C198.852 219.258 198.393 218.742 198.07 218.07C197.747 217.398 197.586 216.612 197.586 215.711C197.586 214.315 197.935 213.229 198.633 212.453C199.331 211.672 200.299 211.281 201.539 211.281C202.737 211.281 203.688 211.68 204.391 212.477C205.099 213.273 205.453 214.352 205.453 215.711ZM198.93 215.711C198.93 216.805 199.148 217.638 199.586 218.211C200.023 218.784 200.667 219.07 201.516 219.07C202.365 219.07 203.008 218.786 203.445 218.219C203.888 217.646 204.109 216.81 204.109 215.711C204.109 214.622 203.888 213.797 203.445 213.234C203.008 212.667 202.359 212.383 201.5 212.383C200.651 212.383 200.01 212.661 199.578 213.219C199.146 213.776 198.93 214.607 198.93 215.711ZM217.719 218.852H217.648C217.049 219.721 216.154 220.156 214.961 220.156C213.841 220.156 212.969 219.773 212.344 219.008C211.724 218.242 211.414 217.154 211.414 215.742C211.414 214.331 211.727 213.234 212.352 212.453C212.977 211.672 213.846 211.281 214.961 211.281C216.122 211.281 217.013 211.703 217.633 212.547H217.734L217.68 211.93L217.648 211.328V207.844H218.945V220H217.891L217.719 218.852ZM215.125 219.07C216.01 219.07 216.651 218.831 217.047 218.352C217.448 217.867 217.648 217.089 217.648 216.016V215.742C217.648 214.529 217.445 213.664 217.039 213.148C216.638 212.628 215.995 212.367 215.109 212.367C214.349 212.367 213.766 212.664 213.359 213.258C212.958 213.846 212.758 214.68 212.758 215.758C212.758 216.852 212.958 217.677 213.359 218.234C213.76 218.792 214.349 219.07 215.125 219.07ZM223 220H221.703V211.438H223V220ZM221.594 209.117C221.594 208.82 221.667 208.604 221.812 208.469C221.958 208.328 222.141 208.258 222.359 208.258C222.568 208.258 222.747 208.328 222.898 208.469C223.049 208.609 223.125 208.826 223.125 209.117C223.125 209.409 223.049 209.628 222.898 209.773C222.747 209.914 222.568 209.984 222.359 209.984C222.141 209.984 221.958 209.914 221.812 209.773C221.667 209.628 221.594 209.409 221.594 209.117ZM231.273 217.664C231.273 218.461 230.977 219.076 230.383 219.508C229.789 219.94 228.956 220.156 227.883 220.156C226.747 220.156 225.862 219.977 225.227 219.617V218.414C225.638 218.622 226.078 218.786 226.547 218.906C227.021 219.026 227.477 219.086 227.914 219.086C228.591 219.086 229.112 218.979 229.477 218.766C229.841 218.547 230.023 218.216 230.023 217.773C230.023 217.44 229.878 217.156 229.586 216.922C229.299 216.682 228.737 216.401 227.898 216.078C227.102 215.781 226.534 215.523 226.195 215.305C225.862 215.081 225.612 214.828 225.445 214.547C225.284 214.266 225.203 213.93 225.203 213.539C225.203 212.841 225.487 212.292 226.055 211.891C226.622 211.484 227.401 211.281 228.391 211.281C229.312 211.281 230.214 211.469 231.094 211.844L230.633 212.898C229.773 212.544 228.995 212.367 228.297 212.367C227.682 212.367 227.219 212.464 226.906 212.656C226.594 212.849 226.438 213.115 226.438 213.453C226.438 213.682 226.495 213.878 226.609 214.039C226.729 214.201 226.919 214.354 227.18 214.5C227.44 214.646 227.94 214.857 228.68 215.133C229.695 215.503 230.38 215.875 230.734 216.25C231.094 216.625 231.273 217.096 231.273 217.664ZM236.812 220.156C235.573 220.156 234.612 219.776 233.93 219.016C233.253 218.25 232.914 217.169 232.914 215.773C232.914 214.341 233.258 213.234 233.945 212.453C234.638 211.672 235.622 211.281 236.898 211.281C237.31 211.281 237.721 211.326 238.133 211.414C238.544 211.503 238.867 211.607 239.102 211.727L238.703 212.828C238.417 212.714 238.104 212.62 237.766 212.547C237.427 212.469 237.128 212.43 236.867 212.43C235.128 212.43 234.258 213.539 234.258 215.758C234.258 216.81 234.469 217.617 234.891 218.18C235.318 218.742 235.948 219.023 236.781 219.023C237.495 219.023 238.227 218.87 238.977 218.562V219.711C238.404 220.008 237.682 220.156 236.812 220.156ZM248.406 215.711C248.406 217.107 248.055 218.198 247.352 218.984C246.648 219.766 245.677 220.156 244.438 220.156C243.672 220.156 242.992 219.977 242.398 219.617C241.805 219.258 241.346 218.742 241.023 218.07C240.701 217.398 240.539 216.612 240.539 215.711C240.539 214.315 240.888 213.229 241.586 212.453C242.284 211.672 243.253 211.281 244.492 211.281C245.69 211.281 246.641 211.68 247.344 212.477C248.052 213.273 248.406 214.352 248.406 215.711ZM241.883 215.711C241.883 216.805 242.102 217.638 242.539 218.211C242.977 218.784 243.62 219.07 244.469 219.07C245.318 219.07 245.961 218.786 246.398 218.219C246.841 217.646 247.062 216.81 247.062 215.711C247.062 214.622 246.841 213.797 246.398 213.234C245.961 212.667 245.312 212.383 244.453 212.383C243.604 212.383 242.964 212.661 242.531 213.219C242.099 213.776 241.883 214.607 241.883 215.711ZM252.562 220L249.312 211.438H250.703L252.547 216.516C252.964 217.703 253.208 218.474 253.281 218.828H253.344C253.401 218.552 253.581 217.982 253.883 217.117C254.19 216.247 254.875 214.354 255.938 211.438H257.328L254.078 220H252.562ZM262.32 220.156C261.055 220.156 260.055 219.771 259.32 219C258.591 218.229 258.227 217.159 258.227 215.789C258.227 214.409 258.565 213.312 259.242 212.5C259.924 211.688 260.839 211.281 261.984 211.281C263.057 211.281 263.906 211.635 264.531 212.344C265.156 213.047 265.469 213.977 265.469 215.133V215.953H259.57C259.596 216.958 259.849 217.721 260.328 218.242C260.812 218.763 261.492 219.023 262.367 219.023C263.289 219.023 264.201 218.831 265.102 218.445V219.602C264.643 219.799 264.208 219.94 263.797 220.023C263.391 220.112 262.898 220.156 262.32 220.156ZM261.969 212.367C261.281 212.367 260.732 212.591 260.32 213.039C259.914 213.487 259.674 214.107 259.602 214.898H264.078C264.078 214.081 263.896 213.456 263.531 213.023C263.167 212.586 262.646 212.367 261.969 212.367ZM271.594 211.281C271.974 211.281 272.315 211.312 272.617 211.375L272.438 212.578C272.083 212.5 271.771 212.461 271.5 212.461C270.807 212.461 270.214 212.742 269.719 213.305C269.229 213.867 268.984 214.568 268.984 215.406V220H267.688V211.438H268.758L268.906 213.023H268.969C269.286 212.466 269.669 212.036 270.117 211.734C270.565 211.432 271.057 211.281 271.594 211.281ZM283.641 220L283.383 218.781H283.32C282.893 219.318 282.466 219.682 282.039 219.875C281.617 220.062 281.089 220.156 280.453 220.156C279.604 220.156 278.938 219.938 278.453 219.5C277.974 219.062 277.734 218.44 277.734 217.633C277.734 215.904 279.117 214.997 281.883 214.914L283.336 214.867V214.336C283.336 213.664 283.19 213.169 282.898 212.852C282.612 212.529 282.151 212.367 281.516 212.367C280.802 212.367 279.995 212.586 279.094 213.023L278.695 212.031C279.117 211.802 279.578 211.622 280.078 211.492C280.583 211.362 281.089 211.297 281.594 211.297C282.615 211.297 283.37 211.523 283.859 211.977C284.354 212.43 284.602 213.156 284.602 214.156V220H283.641ZM280.711 219.086C281.518 219.086 282.151 218.865 282.609 218.422C283.073 217.979 283.305 217.359 283.305 216.562V215.789L282.008 215.844C280.977 215.88 280.232 216.042 279.773 216.328C279.32 216.609 279.094 217.049 279.094 217.648C279.094 218.117 279.234 218.474 279.516 218.719C279.802 218.964 280.201 219.086 280.711 219.086ZM293.141 220V214.461C293.141 213.763 292.982 213.242 292.664 212.898C292.346 212.555 291.849 212.383 291.172 212.383C290.276 212.383 289.62 212.625 289.203 213.109C288.786 213.594 288.578 214.393 288.578 215.508V220H287.281V211.438H288.336L288.547 212.609H288.609C288.875 212.188 289.247 211.862 289.727 211.633C290.206 211.398 290.74 211.281 291.328 211.281C292.359 211.281 293.135 211.531 293.656 212.031C294.177 212.526 294.438 213.32 294.438 214.414V220H293.141ZM302.938 218.852H302.867C302.268 219.721 301.372 220.156 300.18 220.156C299.06 220.156 298.188 219.773 297.562 219.008C296.943 218.242 296.633 217.154 296.633 215.742C296.633 214.331 296.945 213.234 297.57 212.453C298.195 211.672 299.065 211.281 300.18 211.281C301.341 211.281 302.232 211.703 302.852 212.547H302.953L302.898 211.93L302.867 211.328V207.844H304.164V220H303.109L302.938 218.852ZM300.344 219.07C301.229 219.07 301.87 218.831 302.266 218.352C302.667 217.867 302.867 217.089 302.867 216.016V215.742C302.867 214.529 302.664 213.664 302.258 213.148C301.857 212.628 301.214 212.367 300.328 212.367C299.568 212.367 298.984 212.664 298.578 213.258C298.177 213.846 297.977 214.68 297.977 215.758C297.977 216.852 298.177 217.677 298.578 218.234C298.979 218.792 299.568 219.07 300.344 219.07ZM190.812 239.664C190.812 240.461 190.516 241.076 189.922 241.508C189.328 241.94 188.495 242.156 187.422 242.156C186.286 242.156 185.401 241.977 184.766 241.617V240.414C185.177 240.622 185.617 240.786 186.086 240.906C186.56 241.026 187.016 241.086 187.453 241.086C188.13 241.086 188.651 240.979 189.016 240.766C189.38 240.547 189.562 240.216 189.562 239.773C189.562 239.44 189.417 239.156 189.125 238.922C188.839 238.682 188.276 238.401 187.438 238.078C186.641 237.781 186.073 237.523 185.734 237.305C185.401 237.081 185.151 236.828 184.984 236.547C184.823 236.266 184.742 235.93 184.742 235.539C184.742 234.841 185.026 234.292 185.594 233.891C186.161 233.484 186.94 233.281 187.93 233.281C188.852 233.281 189.753 233.469 190.633 233.844L190.172 234.898C189.312 234.544 188.534 234.367 187.836 234.367C187.221 234.367 186.758 234.464 186.445 234.656C186.133 234.849 185.977 235.115 185.977 235.453C185.977 235.682 186.034 235.878 186.148 236.039C186.268 236.201 186.458 236.354 186.719 236.5C186.979 236.646 187.479 236.857 188.219 237.133C189.234 237.503 189.919 237.875 190.273 238.25C190.633 238.625 190.812 239.096 190.812 239.664ZM198.789 242V236.461C198.789 235.763 198.63 235.242 198.312 234.898C197.995 234.555 197.497 234.383 196.82 234.383C195.919 234.383 195.26 234.628 194.844 235.117C194.432 235.607 194.227 236.409 194.227 237.523V242H192.93V229.844H194.227V233.523C194.227 233.966 194.206 234.333 194.164 234.625H194.242C194.497 234.214 194.859 233.891 195.328 233.656C195.802 233.417 196.341 233.297 196.945 233.297C197.992 233.297 198.776 233.547 199.297 234.047C199.823 234.542 200.086 235.331 200.086 236.414V242H198.789ZM210.148 237.711C210.148 239.107 209.797 240.198 209.094 240.984C208.391 241.766 207.419 242.156 206.18 242.156C205.414 242.156 204.734 241.977 204.141 241.617C203.547 241.258 203.089 240.742 202.766 240.07C202.443 239.398 202.281 238.612 202.281 237.711C202.281 236.315 202.63 235.229 203.328 234.453C204.026 233.672 204.995 233.281 206.234 233.281C207.432 233.281 208.383 233.68 209.086 234.477C209.794 235.273 210.148 236.352 210.148 237.711ZM203.625 237.711C203.625 238.805 203.844 239.638 204.281 240.211C204.719 240.784 205.362 241.07 206.211 241.07C207.06 241.07 207.703 240.786 208.141 240.219C208.583 239.646 208.805 238.81 208.805 237.711C208.805 236.622 208.583 235.797 208.141 235.234C207.703 234.667 207.055 234.383 206.195 234.383C205.346 234.383 204.706 234.661 204.273 235.219C203.841 235.776 203.625 236.607 203.625 237.711ZM216.414 242.156C215.857 242.156 215.346 242.055 214.883 241.852C214.424 241.643 214.039 241.326 213.727 240.898H213.633C213.695 241.398 213.727 241.872 213.727 242.32V245.844H212.43V233.438H213.484L213.664 234.609H213.727C214.06 234.141 214.448 233.802 214.891 233.594C215.333 233.385 215.841 233.281 216.414 233.281C217.549 233.281 218.424 233.669 219.039 234.445C219.659 235.221 219.969 236.31 219.969 237.711C219.969 239.117 219.654 240.211 219.023 240.992C218.398 241.768 217.529 242.156 216.414 242.156ZM216.227 234.383C215.352 234.383 214.719 234.625 214.328 235.109C213.938 235.594 213.737 236.365 213.727 237.422V237.711C213.727 238.914 213.927 239.776 214.328 240.297C214.729 240.812 215.372 241.07 216.258 241.07C216.997 241.07 217.576 240.771 217.992 240.172C218.414 239.573 218.625 238.747 218.625 237.695C218.625 236.628 218.414 235.81 217.992 235.242C217.576 234.669 216.987 234.383 216.227 234.383ZM237.312 242V236.43C237.312 235.747 237.167 235.237 236.875 234.898C236.583 234.555 236.13 234.383 235.516 234.383C234.708 234.383 234.112 234.615 233.727 235.078C233.341 235.542 233.148 236.255 233.148 237.219V242H231.852V236.43C231.852 235.747 231.706 235.237 231.414 234.898C231.122 234.555 230.667 234.383 230.047 234.383C229.234 234.383 228.638 234.628 228.258 235.117C227.883 235.602 227.695 236.398 227.695 237.508V242H226.398V233.438H227.453L227.664 234.609H227.727C227.971 234.193 228.315 233.867 228.758 233.633C229.206 233.398 229.706 233.281 230.258 233.281C231.596 233.281 232.471 233.766 232.883 234.734H232.945C233.201 234.286 233.57 233.932 234.055 233.672C234.539 233.411 235.091 233.281 235.711 233.281C236.68 233.281 237.404 233.531 237.883 234.031C238.367 234.526 238.609 235.32 238.609 236.414V242H237.312ZM248.68 237.711C248.68 239.107 248.328 240.198 247.625 240.984C246.922 241.766 245.951 242.156 244.711 242.156C243.945 242.156 243.266 241.977 242.672 241.617C242.078 241.258 241.62 240.742 241.297 240.07C240.974 239.398 240.812 238.612 240.812 237.711C240.812 236.315 241.161 235.229 241.859 234.453C242.557 233.672 243.526 233.281 244.766 233.281C245.964 233.281 246.914 233.68 247.617 234.477C248.326 235.273 248.68 236.352 248.68 237.711ZM242.156 237.711C242.156 238.805 242.375 239.638 242.812 240.211C243.25 240.784 243.893 241.07 244.742 241.07C245.591 241.07 246.234 240.786 246.672 240.219C247.115 239.646 247.336 238.81 247.336 237.711C247.336 236.622 247.115 235.797 246.672 235.234C246.234 234.667 245.586 234.383 244.727 234.383C243.878 234.383 243.237 234.661 242.805 235.219C242.372 235.776 242.156 236.607 242.156 237.711ZM253.727 241.086C253.956 241.086 254.177 241.07 254.391 241.039C254.604 241.003 254.773 240.966 254.898 240.93V241.922C254.758 241.99 254.549 242.044 254.273 242.086C254.003 242.133 253.758 242.156 253.539 242.156C251.883 242.156 251.055 241.284 251.055 239.539V234.445H249.828V233.82L251.055 233.281L251.602 231.453H252.352V233.438H254.836V234.445H252.352V239.484C252.352 240 252.474 240.396 252.719 240.672C252.964 240.948 253.299 241.086 253.727 241.086ZM264.008 237.711C264.008 239.107 263.656 240.198 262.953 240.984C262.25 241.766 261.279 242.156 260.039 242.156C259.273 242.156 258.594 241.977 258 241.617C257.406 241.258 256.948 240.742 256.625 240.07C256.302 239.398 256.141 238.612 256.141 237.711C256.141 236.315 256.49 235.229 257.188 234.453C257.885 233.672 258.854 233.281 260.094 233.281C261.292 233.281 262.242 233.68 262.945 234.477C263.654 235.273 264.008 236.352 264.008 237.711ZM257.484 237.711C257.484 238.805 257.703 239.638 258.141 240.211C258.578 240.784 259.221 241.07 260.07 241.07C260.919 241.07 261.562 240.786 262 240.219C262.443 239.646 262.664 238.81 262.664 237.711C262.664 236.622 262.443 235.797 262 235.234C261.562 234.667 260.914 234.383 260.055 234.383C259.206 234.383 258.565 234.661 258.133 235.219C257.701 235.776 257.484 236.607 257.484 237.711ZM270.195 233.281C270.576 233.281 270.917 233.312 271.219 233.375L271.039 234.578C270.685 234.5 270.372 234.461 270.102 234.461C269.409 234.461 268.815 234.742 268.32 235.305C267.831 235.867 267.586 236.568 267.586 237.406V242H266.289V233.438H267.359L267.508 235.023H267.57C267.888 234.466 268.271 234.036 268.719 233.734C269.167 233.432 269.659 233.281 270.195 233.281ZM278.344 239.664C278.344 240.461 278.047 241.076 277.453 241.508C276.859 241.94 276.026 242.156 274.953 242.156C273.818 242.156 272.932 241.977 272.297 241.617V240.414C272.708 240.622 273.148 240.786 273.617 240.906C274.091 241.026 274.547 241.086 274.984 241.086C275.661 241.086 276.182 240.979 276.547 240.766C276.911 240.547 277.094 240.216 277.094 239.773C277.094 239.44 276.948 239.156 276.656 238.922C276.37 238.682 275.807 238.401 274.969 238.078C274.172 237.781 273.604 237.523 273.266 237.305C272.932 237.081 272.682 236.828 272.516 236.547C272.354 236.266 272.273 235.93 272.273 235.539C272.273 234.841 272.557 234.292 273.125 233.891C273.693 233.484 274.471 233.281 275.461 233.281C276.383 233.281 277.284 233.469 278.164 233.844L277.703 234.898C276.844 234.544 276.065 234.367 275.367 234.367C274.753 234.367 274.289 234.464 273.977 234.656C273.664 234.849 273.508 235.115 273.508 235.453C273.508 235.682 273.565 235.878 273.68 236.039C273.799 236.201 273.99 236.354 274.25 236.5C274.51 236.646 275.01 236.857 275.75 237.133C276.766 237.503 277.451 237.875 277.805 238.25C278.164 238.625 278.344 239.096 278.344 239.664Z" fill="#5C5C5D"/>
<path d="M255.728 91.2685H254.925C254.766 91.2685 254.638 91.3971 254.638 91.5557V102.346C254.638 102.505 254.766 102.633 254.925 102.633H255.728C255.886 102.633 256.015 102.505 256.015 102.346V91.5557C256.015 91.3971 255.886 91.2685 255.728 91.2685Z" fill="black"/>
<path d="M250.499 70H214.217C211.521 70 209.335 72.1896 209.335 74.8907V158.866C209.335 161.567 211.521 163.757 214.217 163.757H250.499C253.195 163.757 255.381 161.567 255.381 158.866V74.8907C255.381 72.1896 253.195 70 250.499 70Z" fill="black"/>
<path d="M248.972 72.4421H243.69V73.0787C243.69 73.4749 243.612 73.8673 243.461 74.2334C243.309 74.5994 243.087 74.932 242.808 75.2121C242.528 75.4922 242.196 75.7144 241.83 75.8659C241.465 76.0174 241.073 76.0952 240.678 76.095H223.88C223.484 76.0952 223.093 76.0174 222.727 75.8659C222.362 75.7144 222.03 75.4922 221.75 75.2121C221.47 74.932 221.248 74.5994 221.097 74.2334C220.946 73.8673 220.868 73.4749 220.868 73.0787V72.4421H215.922C214.952 72.4421 214.022 72.8281 213.337 73.5152C212.651 74.2023 212.265 75.1342 212.265 76.1059V157.657C212.265 158.629 212.651 159.561 213.337 160.248C214.022 160.935 214.952 161.321 215.922 161.321H248.972C249.942 161.321 250.872 160.935 251.558 160.248C252.244 159.561 252.629 158.629 252.629 157.657V76.1122C252.63 75.6305 252.536 75.1534 252.352 74.7082C252.169 74.263 251.9 73.8583 251.56 73.5174C251.22 73.1766 250.817 72.9061 250.373 72.7216C249.929 72.5371 249.453 72.4421 248.972 72.4421Z" fill="white"/>
<path d="M233.862 72.8H228.401C228.134 72.8 227.917 73.0173 227.917 73.2854V73.6219C227.917 73.89 228.134 74.1074 228.401 74.1074H233.862C234.13 74.1074 234.346 73.89 234.346 73.6219V73.2854C234.346 73.0173 234.13 72.8 233.862 72.8Z" fill="#E6E8EC"/>
<path d="M236.06 74.1962C236.469 74.1962 236.801 73.8638 236.801 73.4537C236.801 73.0437 236.469 72.7113 236.06 72.7113C235.651 72.7113 235.319 73.0437 235.319 73.4537C235.319 73.8638 235.651 74.1962 236.06 74.1962Z" fill="#E6E8EC"/>
<path d="M232.639 126.756C237.45 126.756 241.35 122.849 241.35 118.03C241.35 113.21 237.45 109.303 232.639 109.303C227.829 109.303 223.929 113.21 223.929 118.03C223.929 122.849 227.829 126.756 232.639 126.756Z" fill="white"/>
<path d="M244.096 116.811C244.096 119.118 243.413 121.373 242.134 123.291C240.854 125.209 239.036 126.704 236.909 127.587C234.782 128.469 232.441 128.7 230.182 128.25C227.924 127.8 225.85 126.689 224.222 125.058C222.594 123.427 221.485 121.348 221.036 119.086C220.587 116.823 220.817 114.478 221.699 112.347C222.58 110.215 224.072 108.394 225.987 107.112C227.901 105.831 230.152 105.147 232.454 105.147C233.983 105.147 235.497 105.449 236.91 106.035C238.322 106.621 239.605 107.48 240.686 108.563C241.767 109.646 242.625 110.932 243.21 112.347C243.795 113.762 244.096 115.279 244.096 116.811ZM231.109 122.985L239.744 114.333C239.814 114.263 239.87 114.18 239.908 114.089C239.946 113.997 239.965 113.899 239.965 113.8C239.965 113.702 239.946 113.604 239.908 113.512C239.87 113.421 239.814 113.338 239.744 113.268L238.682 112.211C238.612 112.141 238.53 112.086 238.439 112.048C238.348 112.01 238.25 111.991 238.151 111.991C238.053 111.991 237.955 112.01 237.864 112.048C237.773 112.086 237.69 112.141 237.621 112.211L230.577 119.268L227.289 115.965C227.148 115.825 226.957 115.746 226.757 115.746C226.558 115.746 226.367 115.825 226.226 115.965L225.164 117.036C225.023 117.178 224.944 117.369 224.944 117.569C224.944 117.768 225.023 117.959 225.164 118.101L230.046 122.991C230.116 123.061 230.199 123.117 230.29 123.155C230.381 123.192 230.479 123.212 230.578 123.212C230.676 123.212 230.774 123.192 230.865 123.155C230.956 123.117 231.039 123.061 231.109 122.991L231.109 122.985Z" fill="#D80A49"/>
<path d="M210.777 88.4837H210.657C210.498 88.4837 210.37 88.6123 210.37 88.771V91.5598C210.37 91.7184 210.498 91.847 210.657 91.847H210.777C210.935 91.847 211.064 91.7184 211.064 91.5598V88.771C211.064 88.6123 210.935 88.4837 210.777 88.4837Z" fill="#3F3D56"/>
<path d="M210.84 94.6422H210.631C210.473 94.6422 210.345 94.7708 210.345 94.9295V100.209C210.345 100.367 210.473 100.496 210.631 100.496H210.84C210.998 100.496 211.127 100.367 211.127 100.209V94.9295C211.127 94.7708 210.998 94.6422 210.84 94.6422Z" fill="#3F3D56"/>
<path d="M210.815 102.544H210.644C210.486 102.544 210.357 102.673 210.357 102.831V108.161C210.357 108.319 210.486 108.448 210.644 108.448H210.815C210.973 108.448 211.101 108.319 211.101 108.161V102.831C211.101 102.673 210.973 102.544 210.815 102.544Z" fill="#3F3D56"/>
<path d="M201.134 118.156C201.154 118.175 201.18 118.187 201.207 118.191C201.234 118.194 201.262 118.189 201.286 118.175C201.235 118.176 201.184 118.17 201.134 118.156Z" fill="url(#paint0_linear)"/>
<path d="M206.889 120.411L206.738 121.231L206.622 121.858L206.412 123.005L204.367 124.439C204.367 124.439 204.183 124.281 203.879 124.032C203.041 123.341 201.28 121.933 199.987 121.178C199.655 120.966 199.295 120.799 198.917 120.684L206.889 120.411Z" fill="#FEB9B9"/>
<path d="M205.389 121.021C205.389 121.021 207.772 121.431 207.912 120.411C208.052 119.391 206.685 118.84 205.527 118.771C204.369 118.703 197.418 119.181 197.418 119.181C197.418 119.181 196.192 120.819 200.62 121.094L205.389 121.021Z" fill="black"/>
<path d="M210.602 87.3658H198.132V102.18H210.602V87.3658Z" fill="#2F2E41"/>
<path opacity="0.1" d="M210.602 87.4331H198.132V102.247H210.602V87.4331Z" fill="#57041D"/>
<path d="M183.517 112.726C183.312 112.778 183.05 112.977 182.758 113.265C181.501 114.511 179.701 117.437 179.701 117.437C177.4 114.69 179.946 112.52 181.032 111.775C181.296 111.594 181.473 111.495 181.473 111.495L183.517 112.726Z" fill="#FEB9B9"/>
<path d="M206.752 92.0414C206.752 92.0414 207.365 96.3421 209.477 97.3662C211.59 98.3902 206.752 100.304 206.752 100.304L200.143 97.8446C200.143 97.8446 203.891 96.6153 203.141 92.9969L206.752 92.0414Z" fill="#FEB9B9"/>
<path d="M199.665 117.915L199.516 118.732L199.394 119.362L199.183 120.509L197.139 121.941C197.139 121.941 196.955 121.785 196.651 121.536C195.813 120.845 194.052 119.437 192.757 118.682C192.425 118.469 192.065 118.303 191.687 118.188L199.665 117.915Z" fill="#FEB9B9"/>
<path d="M197.897 118.923C197.897 118.923 200.036 118.938 200.165 117.915C200.293 116.892 198.999 116.344 197.897 116.275C196.795 116.207 190.098 116.717 190.098 116.717C190.098 116.717 189.148 118.649 193.36 118.923L197.897 118.923Z" fill="black"/>
<path d="M212.896 134.99C212.802 134.944 212.709 134.897 212.617 134.85L212.365 134.533L209.068 130.344V130.417C209.046 131.116 208.809 136.659 206.957 137.171C204.981 137.717 202.597 137.854 201.511 134.168C200.424 130.481 198.439 122.426 196.4 121.947L199.433 119.456C199.433 119.456 201.441 121.809 202.259 124.061C202.228 123.921 200.842 117.43 201.98 116.281H211.93C211.93 116.281 213.466 120.664 214.519 122.836C215.338 124.522 216.569 128.507 217.361 131.205C218.145 133.868 215.39 136.22 212.896 134.99Z" fill="#5C5C5D"/>
<path opacity="0.1" d="M212.612 117.505C211.076 118.416 204.333 118.045 202.139 117.897L201.542 117.853C201.477 117.853 201.551 117.817 201.551 117.817L201.613 117.197L203.248 113.034L212.004 107.947C211.826 108.483 211.768 109.303 211.782 110.241C211.822 113.258 212.612 117.505 212.612 117.505Z" fill="black"/>
<path d="M212.612 117.3C211.076 118.21 204.333 117.84 202.139 117.691L201.542 117.649L201.443 117.641L201.551 117.613L202.09 117.473L203.248 112.831L212.003 107.746C211.826 108.281 211.767 109.101 211.781 110.04C211.822 113.053 212.612 117.3 212.612 117.3Z" fill="#EFEFEF"/>
<path opacity="0.1" d="M211.776 110.037C209.995 110.448 206.077 111.655 204.572 114.57C203.568 116.51 202.723 117.343 202.134 117.691L201.536 117.649C201.54 117.637 201.543 117.625 201.546 117.613L202.085 117.473L203.242 112.831L211.998 107.746C211.822 108.278 211.762 109.098 211.776 110.037Z" fill="black"/>
<path opacity="0.1" d="M181.473 111.498L183.517 112.726C183.312 112.778 183.05 112.977 182.758 113.265C182.587 112.767 181.518 112.071 181.032 111.775C181.295 111.597 181.473 111.498 181.473 111.498Z" fill="black"/>
<path opacity="0.1" d="M201.172 117.729C201.149 117.741 201.124 117.745 201.099 117.742C201.074 117.738 201.05 117.727 201.032 117.709C201.077 117.723 201.125 117.729 201.172 117.729Z" fill="black"/>
<path d="M205.798 97.0933C205.798 97.0933 203.958 97.2975 202.663 95.9322C202.663 95.9322 197.217 97.5032 195.373 101.053C193.528 104.602 180.99 111.566 180.99 111.566C180.99 111.566 183.171 112.795 182.966 113.409L191.211 108.63C191.211 108.63 194.144 106.514 194.958 106.036C195.772 105.558 200.274 102.622 201.228 110.609C202.181 118.597 201.228 117.641 201.228 117.641C201.228 117.641 202.591 118.119 204.567 114.296C206.542 110.472 212.674 109.585 212.674 109.585L213.015 105.559C213.015 105.559 214.231 102.889 213.294 101.781C213.01 101.453 212.821 101.054 212.748 100.626C212.593 99.6032 212.748 97.8991 214.918 96.4833C218.257 94.298 219.551 92.5241 219.551 92.5241C219.551 92.5241 219.619 91.2259 217.575 90.6116C215.531 89.9973 207.218 86.6524 207.218 86.6524L206.939 87.8135L213.498 92.4514C213.498 92.4514 210.227 95.1094 207.633 95.0451C207.633 95.0451 208.115 97.0247 205.798 97.0933Z" fill="#D80A49"/>
<path opacity="0.1" d="M207.06 93.9133C206.899 93.3661 206.773 92.809 206.683 92.2456L203.072 93.2014C203.231 93.8921 203.203 94.6129 202.99 95.2888C203.728 95.4862 204.508 95.461 205.232 95.2163C205.956 94.9716 206.592 94.5184 207.06 93.9133Z" fill="black"/>
<path d="M204.061 95.216C206.206 95.216 207.944 93.474 207.944 91.3252C207.944 89.1764 206.206 87.4345 204.061 87.4345C201.916 87.4345 200.178 89.1764 200.178 91.3252C200.178 93.474 201.916 95.216 204.061 95.216Z" fill="#FEB9B9"/>
<path opacity="0.1" d="M208.285 122.659C208.285 122.659 210.533 127.097 209.852 128.461L208.285 122.659Z" fill="black"/>
<path d="M206.126 82.3392C207.204 82.4623 208.228 82.9253 209.289 83.1786C209.554 83.2612 209.837 83.2718 210.107 83.2093C210.519 83.082 210.854 82.6497 211.282 82.6623C211.545 82.6707 211.777 82.8498 211.994 83.0218C212.341 83.2879 212.668 83.5798 212.971 83.8948C213.703 84.6908 214.157 85.7625 214.824 86.6285C215.492 87.4945 216.443 88.5101 217.392 88.1129C216.747 90.6312 214.735 92.2065 212.449 92.3633C211.537 92.426 210.603 92.236 209.72 92.5032C209.501 92.5934 209.268 92.65 209.032 92.671C208.524 92.671 208.114 92.2037 207.797 91.749C207.054 90.6802 206.467 89.4672 205.63 88.4921C205.351 88.169 205.028 87.8626 204.637 87.8039C204.246 87.7452 203.888 87.9326 203.54 88.1131C202.966 88.4111 202.38 88.7188 201.934 89.2323C201.489 89.7458 201.208 90.504 201.392 91.191C201.491 91.5631 201.718 91.8989 201.722 92.2878C201.73 92.9089 201.183 93.3623 201.075 93.9666C201.051 94.2205 201.042 94.4756 201.049 94.7305C201.001 95.5584 200.46 96.2357 199.897 96.7577C199.676 96.9591 199.434 97.1774 199.369 97.4893C199.326 97.7033 199.369 97.9283 199.341 98.1455C199.259 98.6827 198.724 98.9555 198.25 99.0255C197.697 99.1076 197.132 99.0405 196.614 98.8311C197.276 98.5175 197.684 97.6252 197.53 96.8263C197.319 95.7182 196.208 94.9222 196.303 93.7946C196.355 93.4487 196.459 93.1125 196.61 92.7972C196.852 92.1879 197.029 91.5542 197.135 90.9071C197.219 90.4076 197.26 89.8774 197.103 89.4004C196.964 88.9666 196.672 88.6212 196.424 88.2545C196.089 87.7558 195.825 87.2129 195.638 86.6414C195.571 86.4719 195.545 86.2886 195.563 86.107C195.619 85.8925 195.738 85.6999 195.905 85.5543C196.513 84.9146 197.162 84.2504 197.976 84.0671C198.365 84.0025 198.76 83.9875 199.152 84.0224C199.834 84.0438 200.517 84.0148 201.195 83.9356C201.753 83.8698 202.697 83.8782 203.171 83.5159C203.612 83.1772 203.861 82.752 204.404 82.5366C204.954 82.3323 205.545 82.2646 206.127 82.3393L206.126 82.3392Z" fill="#57041D"/>
<path d="M278.284 163.524C281.395 163.524 283.917 163.097 283.917 162.57C283.917 162.042 281.395 161.615 278.284 161.615C275.173 161.615 272.651 162.042 272.651 162.57C272.651 163.097 275.173 163.524 278.284 163.524Z" fill="#D80A49"/>
<path d="M280.614 161.009C280.871 160.798 281.058 160.515 281.15 160.196C281.22 159.875 281.083 159.494 280.775 159.369C280.43 159.237 280.061 159.477 279.783 159.719C279.505 159.96 279.183 160.237 278.818 160.185C279.006 160.014 279.147 159.798 279.227 159.557C279.307 159.315 279.323 159.057 279.273 158.808C279.257 158.705 279.213 158.608 279.146 158.527C278.955 158.322 278.608 158.409 278.38 158.572C277.651 159.084 277.448 160.077 277.444 160.968C277.37 160.647 277.432 160.311 277.43 159.985C277.427 159.66 277.339 159.283 277.06 159.111C276.888 159.018 276.695 158.973 276.5 158.979C276.172 158.966 275.807 159 275.583 159.24C275.303 159.538 275.379 160.037 275.62 160.363C275.861 160.689 276.229 160.898 276.568 161.124C276.839 161.286 277.07 161.507 277.244 161.771C277.265 161.808 277.282 161.847 277.294 161.887H279.341C279.803 161.653 280.231 161.358 280.613 161.009L280.614 161.009Z" fill="#D80A49"/>
<path d="M201.694 163.945C203.747 163.945 205.411 163.663 205.411 163.315C205.411 162.967 203.747 162.685 201.694 162.685C199.641 162.685 197.976 162.967 197.976 163.315C197.976 163.663 199.641 163.945 201.694 163.945Z" fill="#EFEFEF"/>
<path d="M203.231 162.285C203.401 162.146 203.524 161.959 203.585 161.749C203.612 161.643 203.603 161.532 203.557 161.432C203.512 161.333 203.435 161.252 203.338 161.203C203.11 161.116 202.867 161.275 202.683 161.434C202.499 161.593 202.287 161.776 202.046 161.741C202.17 161.629 202.263 161.486 202.316 161.327C202.369 161.168 202.379 160.997 202.347 160.833C202.336 160.765 202.307 160.701 202.262 160.648C202.137 160.512 201.907 160.57 201.757 160.677C201.276 161.016 201.142 161.67 201.139 162.258C201.09 162.046 201.132 161.825 201.13 161.61C201.128 161.395 201.07 161.147 200.886 161.033C200.772 160.972 200.645 160.942 200.516 160.946C200.3 160.938 200.059 160.96 199.911 161.118C199.726 161.315 199.776 161.645 199.935 161.859C200.094 162.074 200.337 162.212 200.561 162.361C200.74 162.468 200.893 162.614 201.008 162.788C201.022 162.812 201.033 162.838 201.041 162.865H202.392C202.696 162.71 202.979 162.515 203.231 162.285V162.285Z" fill="#EFEFEF"/>
<path d="M180.669 163.945C182.722 163.945 184.387 163.663 184.387 163.315C184.387 162.967 182.722 162.685 180.669 162.685C178.616 162.685 176.951 162.967 176.951 163.315C176.951 163.663 178.616 163.945 180.669 163.945Z" fill="#EFEFEF"/>
<path d="M182.207 162.285C182.376 162.146 182.499 161.959 182.561 161.749C182.588 161.643 182.578 161.532 182.533 161.432C182.488 161.333 182.41 161.252 182.313 161.203C182.085 161.116 181.842 161.275 181.658 161.434C181.474 161.593 181.263 161.776 181.021 161.741C181.145 161.629 181.238 161.486 181.291 161.327C181.344 161.168 181.354 160.997 181.322 160.833C181.311 160.765 181.282 160.701 181.238 160.648C181.112 160.512 180.883 160.57 180.732 160.677C180.251 161.016 180.117 161.67 180.114 162.258C180.065 162.046 180.107 161.825 180.105 161.61C180.103 161.395 180.045 161.147 179.861 161.033C179.747 160.972 179.62 160.942 179.491 160.946C179.275 160.938 179.034 160.96 178.886 161.118C178.701 161.315 178.751 161.645 178.91 161.859C179.069 162.074 179.313 162.212 179.536 162.361C179.715 162.468 179.868 162.614 179.983 162.788C179.997 162.812 180.008 162.838 180.016 162.865H181.367C181.672 162.71 181.954 162.515 182.207 162.285V162.285Z" fill="#EFEFEF"/>
<path d="M288 163.585H175V163.814H288V163.585Z" fill="#1B191B"/>
<path d="M282.484 76.3374C282.484 76.3374 270.688 75.6243 272.078 83.9058C272.078 83.9058 271.797 85.3698 273.126 86.0337C273.126 86.0337 273.147 85.4203 274.336 85.6294C274.759 85.6997 275.19 85.7204 275.618 85.6911C276.196 85.653 276.745 85.4279 277.184 85.0496C277.184 85.0496 280.5 83.6769 281.789 78.2477C281.789 78.2477 282.743 77.0631 282.705 76.7584L280.715 77.6104C280.715 77.6104 281.396 79.0491 280.855 80.2445C280.855 80.2445 280.79 77.6618 280.408 77.718C280.331 77.7293 279.374 78.2162 279.374 78.2162C279.374 78.2162 280.544 80.7216 279.661 82.5437C279.661 82.5437 279.996 79.4558 279.008 78.3973L277.607 79.2171C277.607 79.2171 278.975 81.8054 278.047 83.9179C278.047 83.9179 278.285 80.6782 277.312 79.4164L276.042 80.4087C276.042 80.4087 277.327 82.959 276.544 84.7111C276.544 84.7111 276.442 80.9409 275.768 80.656C275.768 80.656 274.657 81.6386 274.487 82.04C274.487 82.04 275.367 83.8928 274.821 84.8696C274.821 84.8696 274.486 82.3572 274.211 82.3431C274.211 82.3431 273.104 84.0078 272.989 85.1504C272.989 85.1504 273.037 83.4534 273.943 82.186C273.943 82.186 272.873 82.3699 272.248 83.064C272.248 83.064 272.421 81.8878 274.217 81.784C274.217 81.784 275.131 80.5207 275.375 80.4449C275.375 80.4449 273.59 80.2944 272.507 80.7762C272.507 80.7762 273.46 79.666 275.703 80.1712L276.957 79.1452C276.957 79.1452 274.606 78.8237 273.609 79.1789C273.609 79.1789 274.756 78.1964 277.295 78.9122L278.659 78.0953C278.659 78.0953 276.655 77.6629 275.461 77.8146C275.461 77.8146 276.722 77.1338 279.06 77.8721L280.041 77.4331C280.041 77.4331 278.572 77.144 278.142 77.0977C277.712 77.0514 277.69 76.9335 277.69 76.9335C278.62 76.7781 279.575 76.8846 280.448 77.241C280.448 77.241 282.519 76.468 282.484 76.3374Z" fill="#D80A49"/>
<path d="M266.321 71.9532C266.321 71.9532 260.998 71.6317 261.62 75.3738C261.62 75.3738 261.494 76.0349 262.093 76.3352C262.093 76.3352 262.103 76.0545 262.641 76.1514C262.832 76.1836 263.026 76.193 263.219 76.1795C263.481 76.1621 263.729 76.0596 263.927 75.8874C263.927 75.8874 265.426 75.267 266.009 72.8135C266.009 72.8135 266.439 72.2788 266.422 72.1412L265.522 72.5258C265.522 72.5258 265.829 73.1757 265.588 73.716C265.588 73.716 265.559 72.5495 265.387 72.5763C265.352 72.5763 264.919 72.8021 264.919 72.8021C264.919 72.8021 265.448 73.9348 265.049 74.7574C265.049 74.7574 265.2 73.3622 264.753 72.8835L264.12 73.2598C264.12 73.2598 264.738 74.429 264.319 75.3836C264.319 75.3836 264.427 73.9196 263.987 73.3498L263.414 73.7989C263.414 73.7989 263.994 74.9513 263.641 75.7432C263.641 75.7432 263.593 74.0392 263.289 73.9101C263.289 73.9101 262.788 74.3536 262.711 74.5361C262.711 74.5361 263.109 75.3783 262.862 75.8148C262.862 75.8148 262.711 74.6792 262.582 74.6734C262.582 74.6734 262.082 75.426 262.03 75.9366C262.055 75.4602 262.204 74.9987 262.461 74.5976C262.173 74.6524 261.906 74.7904 261.695 74.9948C261.695 74.9948 261.774 74.4629 262.585 74.4166C262.585 74.4166 263.005 73.8454 263.109 73.8102C263.109 73.8102 262.302 73.7429 261.813 73.9608C261.813 73.9608 262.243 73.4596 263.256 73.6871L263.816 73.2238C263.816 73.2238 262.753 73.0821 262.302 73.2384C262.302 73.2384 262.821 72.7948 263.968 73.1177L264.585 72.7486C264.585 72.7486 263.678 72.5535 263.139 72.6231C263.139 72.6231 263.709 72.3157 264.766 72.6482L265.207 72.4503C265.207 72.4503 264.543 72.3197 264.348 72.2986C264.153 72.2775 264.143 72.2242 264.143 72.2242C264.564 72.1541 264.996 72.2027 265.39 72.3646C265.39 72.3646 266.338 72.0116 266.321 71.9532Z" fill="#1B191B"/>
<path d="M184.224 129.081C184.224 129.081 178.9 128.759 179.522 132.501C179.522 132.501 179.397 133.163 179.995 133.463C179.995 133.463 180.005 133.182 180.543 133.279C180.734 133.311 180.928 133.321 181.122 133.307C181.383 133.29 181.632 133.187 181.829 133.015C181.829 133.015 183.328 132.395 183.911 129.941C183.911 129.941 184.341 129.406 184.324 129.269L183.425 129.653C183.425 129.653 183.732 130.303 183.491 130.844C183.491 130.844 183.461 129.677 183.289 129.704C183.254 129.704 182.821 129.93 182.821 129.93C182.821 129.93 183.35 131.062 182.951 131.885C182.951 131.885 183.102 130.49 182.656 130.011L182.022 130.387C182.022 130.387 182.64 131.557 182.221 132.511C182.221 132.511 182.329 131.047 181.889 130.477L181.316 130.927C181.316 130.927 181.896 132.079 181.543 132.871C181.543 132.871 181.496 131.167 181.192 131.038C181.192 131.038 180.69 131.481 180.613 131.664C180.613 131.664 181.011 132.506 180.764 132.942C180.764 132.942 180.613 131.807 180.484 131.801C180.484 131.801 179.984 132.554 179.932 133.064C179.957 132.588 180.106 132.126 180.364 131.725C180.075 131.78 179.809 131.918 179.597 132.122C179.597 132.122 179.676 131.591 180.487 131.544C180.487 131.544 180.907 130.973 181.011 130.938C181.011 130.938 180.204 130.871 179.715 131.088C179.715 131.088 180.145 130.587 181.158 130.815L181.718 130.351C181.718 130.351 180.655 130.21 180.205 130.366C180.205 130.366 180.723 129.922 181.871 130.245L182.487 129.876C182.487 129.876 181.581 129.681 181.041 129.751C181.041 129.751 181.611 129.443 182.668 129.776L183.109 129.578C183.109 129.578 182.446 129.447 182.25 129.426C182.055 129.405 182.046 129.352 182.046 129.352C182.466 129.282 182.898 129.33 183.293 129.492C183.293 129.492 184.24 129.139 184.224 129.081Z" fill="#1B191B"/>
<defs>
<filter id="filter0_d" x="0" y="0" width="462" height="418" filterUnits="userSpaceOnUse" color-interpolation-filters="sRGB">
<feFlood flood-opacity="0" result="BackgroundImageFix"/>
<feColorMatrix in="SourceAlpha" type="matrix" values="0 0 0 0 0 0 0 0 0 0 0 0 0 0 0 0 0 0 127 0"/>
<feOffset dy="50"/>
<feGaussianBlur stdDeviation="50"/>
<feColorMatrix type="matrix" values="0 0 0 0 0 0 0 0 0 0 0 0 0 0 0 0 0 0 0.1 0"/>
<feBlend mode="normal" in2="BackgroundImageFix" result="effect1_dropShadow"/>
<feBlend mode="normal" in="SourceGraphic" in2="effect1_dropShadow" result="shape"/>
</filter>
<linearGradient id="paint0_linear" x1="201.211" y1="118.192" x2="201.211" y2="118.156" gradientUnits="userSpaceOnUse">
<stop stop-color="#808080" stop-opacity="0.251"/>
<stop offset="0.54" stop-color="#808080" stop-opacity="0.122"/>
<stop offset="1" stop-color="#808080" stop-opacity="0.102"/>
</linearGradient>
</defs>
</svg>
