<svg width="113" height="94" viewBox="0 0 113 94" fill="none" xmlns="http://www.w3.org/2000/svg">
<path d="M80.7278 21.2685H79.9248C79.7665 21.2685 79.6381 21.3971 79.6381 21.5557V32.3461C79.6381 32.5048 79.7665 32.6334 79.9248 32.6334H80.7278C80.8862 32.6334 81.0145 32.5048 81.0145 32.3461V21.5557C81.0145 21.3971 80.8862 21.2685 80.7278 21.2685Z" fill="black"/>
<path d="M75.4992 0H39.2169C36.5209 0 34.3354 2.18964 34.3354 4.89071V88.8662C34.3354 91.5673 36.5209 93.7569 39.2169 93.7569H75.4992C78.1952 93.7569 80.3807 91.5673 80.3807 88.8662V4.89071C80.3807 2.18964 78.1952 0 75.4992 0Z" fill="black"/>
<path d="M73.9719 2.44211H68.69V3.07869C68.69 3.47494 68.6121 3.8673 68.4607 4.23337C68.3093 4.59943 68.0874 4.93202 67.8076 5.21214C67.5279 5.49225 67.1958 5.7144 66.8304 5.86589C66.4649 6.01737 66.0732 6.09524 65.6777 6.09502H48.88C48.4845 6.09524 48.0928 6.01737 47.7274 5.86589C47.3619 5.7144 47.0298 5.49225 46.7501 5.21214C46.4703 4.93202 46.2484 4.59943 46.097 4.23337C45.9456 3.8673 45.8677 3.47494 45.8677 3.07869V2.44211H40.9224C39.9525 2.44211 39.0223 2.82812 38.3365 3.51522C37.6507 4.20232 37.2654 5.13423 37.2654 6.10594V87.6574C37.2654 88.6291 37.6507 89.561 38.3365 90.2481C39.0223 90.9352 39.9525 91.3213 40.9224 91.3213H73.9719C74.9418 91.3213 75.8719 90.9352 76.5577 90.2481C77.2435 89.561 77.6288 88.6291 77.6288 87.6574V6.11221C77.6296 5.63054 77.5356 5.15344 77.3522 4.70819C77.1688 4.26295 76.8996 3.85832 76.5599 3.51743C76.2203 3.17655 75.8169 2.90612 75.3728 2.7216C74.9287 2.53708 74.4526 2.44211 73.9719 2.44211Z" fill="white"/>
<path d="M58.8619 2.79996H53.4011C53.1336 2.79996 52.9166 3.01729 52.9166 3.28539V3.62193C52.9166 3.89003 53.1336 4.10737 53.4011 4.10737H58.8619C59.1295 4.10737 59.3464 3.89003 59.3464 3.62193V3.28539C59.3464 3.01729 59.1295 2.79996 58.8619 2.79996Z" fill="#E6E8EC"/>
<path d="M61.06 4.19617C61.4693 4.19617 61.8011 3.86377 61.8011 3.45372C61.8011 3.04368 61.4693 2.71127 61.06 2.71127C60.6508 2.71127 60.319 3.04368 60.319 3.45372C60.319 3.86377 60.6508 4.19617 61.06 4.19617Z" fill="#E6E8EC"/>
<path d="M57.6392 56.7564C62.4499 56.7564 66.3497 52.8492 66.3497 48.0295C66.3497 43.2098 62.4499 39.3026 57.6392 39.3026C52.8286 39.3026 48.9288 43.2098 48.9288 48.0295C48.9288 52.8492 52.8286 56.7564 57.6392 56.7564Z" fill="white"/>
<path d="M69.0959 46.8109C69.0958 49.1178 68.413 51.3729 67.1337 53.2909C65.8544 55.209 64.0361 56.7039 61.9089 57.5867C59.7816 58.4694 57.4408 58.7003 55.1825 58.2502C52.9242 57.8 50.8499 56.6891 49.2218 55.0578C47.5937 53.4266 46.485 51.3482 46.0359 49.0857C45.5867 46.8231 45.8174 44.4779 46.6986 42.3466C47.5798 40.2154 49.072 38.3938 50.9865 37.1122C52.9011 35.8307 55.1519 35.1467 57.4544 35.1467C58.9833 35.1468 60.4971 35.4485 61.9096 36.0347C63.322 36.6209 64.6053 37.4801 65.6864 38.5632C66.7674 39.6464 67.6248 40.9322 68.2099 42.3473C68.7949 43.7625 69.096 45.2792 69.0959 46.8109ZM56.1087 52.9848L64.7445 44.3327C64.8144 44.2629 64.8698 44.1799 64.9077 44.0886C64.9455 43.9972 64.965 43.8993 64.965 43.8004C64.965 43.7015 64.9455 43.6036 64.9077 43.5123C64.8698 43.4209 64.8144 43.338 64.7445 43.2681L63.6819 42.2113C63.6124 42.1414 63.5297 42.0858 63.4386 42.048C63.3476 42.0101 63.25 41.9906 63.1514 41.9906C63.0528 41.9906 62.9552 42.0101 62.8642 42.048C62.7731 42.0858 62.6905 42.1414 62.6209 42.2113L55.5775 49.2682L52.2888 45.9655C52.1476 45.8248 51.9566 45.7459 51.7575 45.7459C51.5584 45.7459 51.3674 45.8248 51.2262 45.9655L50.1636 47.0363C50.0232 47.1778 49.9444 47.3691 49.9444 47.5686C49.9444 47.7681 50.0232 47.9594 50.1636 48.1009L55.0464 52.9911C55.1161 53.0611 55.1989 53.1167 55.29 53.1546C55.3812 53.1925 55.4789 53.212 55.5777 53.212C55.6764 53.212 55.7741 53.1925 55.8653 53.1546C55.9564 53.1167 56.0392 53.0611 56.1089 52.9911L56.1087 52.9848Z" fill="#D80A49"/>
<path d="M35.7771 18.4837H35.6565C35.4982 18.4837 35.3698 18.6123 35.3698 18.771V21.5598C35.3698 21.7184 35.4982 21.847 35.6565 21.847H35.7771C35.9354 21.847 36.0638 21.7184 36.0638 21.5598V18.771C36.0638 18.6123 35.9354 18.4837 35.7771 18.4837Z" fill="#3F3D56"/>
<path d="M35.8399 24.6422H35.6314C35.473 24.6422 35.3447 24.7708 35.3447 24.9295V30.2085C35.3447 30.3671 35.473 30.4958 35.6314 30.4958H35.8399C35.9983 30.4958 36.1266 30.3671 36.1266 30.2085V24.9295C36.1266 24.7708 35.9983 24.6422 35.8399 24.6422Z" fill="#3F3D56"/>
<path d="M35.8148 32.544H35.6439C35.4855 32.544 35.3572 32.6726 35.3572 32.8312V38.1606C35.3572 38.3192 35.4855 38.4478 35.6439 38.4478H35.8148C35.9731 38.4478 36.1015 38.3192 36.1015 38.1606V32.8312C36.1015 32.6726 35.9731 32.544 35.8148 32.544Z" fill="#3F3D56"/>
<path d="M26.1341 48.1557C26.1539 48.175 26.1795 48.1873 26.2069 48.1908C26.2344 48.1943 26.2622 48.1889 26.2863 48.1753C26.2349 48.1761 26.1836 48.1695 26.1341 48.1557Z" fill="url(#paint0_linear)"/>
<path d="M31.8886 50.4109L31.7383 51.2307L31.6224 51.8579L31.4116 53.0052L29.3672 54.4391C29.3672 54.4391 29.1829 54.2811 28.8789 54.032C28.0411 53.3408 26.2802 51.9334 24.9871 51.1779C24.6545 50.9656 24.2947 50.7994 23.9174 50.6841L31.8886 50.4109Z" fill="#FEB9B9"/>
<path d="M30.3888 51.0209C30.3888 51.0209 32.7725 51.4308 32.912 50.4109C33.0516 49.391 31.6851 48.8399 30.527 48.7712C29.3689 48.7026 22.4182 49.1812 22.4182 49.1812C22.4182 49.1812 21.1921 50.8195 25.6201 51.0937L30.3888 51.0209Z" fill="black"/>
<path d="M35.6016 17.3658H23.1318V32.1802H35.6016V17.3658Z" fill="#2F2E41"/>
<path opacity="0.1" d="M35.6016 17.4331H23.1318V32.2474H35.6016V17.4331Z" fill="#57041D"/>
<path d="M8.51726 42.726C8.31193 42.7778 8.04951 42.9769 7.75768 43.2646C6.50093 44.5112 4.70095 47.4366 4.70095 47.4366C2.39968 44.6902 4.94622 42.5203 6.03169 41.7746C6.29561 41.5941 6.47289 41.4948 6.47289 41.4948L8.51726 42.726Z" fill="#FEB9B9"/>
<path d="M31.7517 22.0414C31.7517 22.0414 32.3652 26.3421 34.4774 27.3662C36.5896 28.3902 31.7517 30.3041 31.7517 30.3041L25.1426 27.8446C25.1426 27.8446 28.8905 26.6153 28.1406 22.9969L31.7517 22.0414Z" fill="#FEB9B9"/>
<path d="M24.6651 47.915L24.5156 48.7321L24.3942 49.3616L24.1833 50.5089L22.139 51.9415C22.139 51.9415 21.9547 51.7848 21.6507 51.5358C20.8129 50.8447 19.0521 49.4373 17.757 48.6818C17.4246 48.4691 17.0647 48.303 16.6873 48.188L24.6651 47.915Z" fill="#FEB9B9"/>
<path d="M22.8967 48.9227C22.8967 48.9227 25.0359 48.9378 25.1646 47.915C25.2933 46.8922 23.9988 46.344 22.8967 46.2754C21.7945 46.2067 15.0982 46.7171 15.0982 46.7171C15.0982 46.7171 14.1482 48.6488 18.3602 48.9225L22.8967 48.9227Z" fill="black"/>
<path d="M37.8958 64.9902C37.8023 64.9441 37.7087 64.8965 37.6165 64.8504L37.3651 64.5328L34.0683 60.3441V60.4169C34.046 61.1164 33.8086 66.6594 31.9569 67.1714C29.981 67.7171 27.5974 67.8542 26.5108 64.1678C25.4242 60.4813 23.4388 52.4257 21.3999 51.9473L24.4329 49.4556C24.4329 49.4556 26.4409 51.8088 27.2591 54.0612C27.2284 53.9213 25.8417 47.4298 26.9798 46.2812H36.9299C36.9299 46.2812 38.466 50.6644 39.5188 52.8357C40.3384 54.5216 41.5686 58.5074 42.3608 61.2047C43.1449 63.8682 40.3898 66.22 37.8958 64.9902Z" fill="#5C5C5D"/>
<path opacity="0.1" d="M37.6124 47.5051C36.0763 48.4159 29.3331 48.0451 27.1394 47.8968L26.5417 47.8534C26.4775 47.8534 26.5515 47.8171 26.5515 47.8171L26.6129 47.1973L28.2482 43.0337L37.0035 37.9468C36.8261 38.4827 36.7675 39.3025 36.7816 40.2413C36.822 43.2576 37.6124 47.5051 37.6124 47.5051Z" fill="black"/>
<path d="M37.6124 47.2995C36.0763 48.2103 29.3331 47.8395 27.1394 47.6913L26.5417 47.6492L26.4425 47.6408L26.5515 47.6129L27.0904 47.473L28.248 42.831L37.0034 37.7455C36.8261 38.2814 36.7674 39.1012 36.7814 40.04C36.822 43.0534 37.6124 47.2995 37.6124 47.2995Z" fill="#EFEFEF"/>
<path opacity="0.1" d="M36.7759 40.0371C34.9955 40.4484 31.0773 41.6552 29.5719 44.5699C28.5679 46.5104 27.7231 47.3428 27.1338 47.6911L26.5361 47.6491C26.54 47.6372 26.5432 47.625 26.5458 47.6127L27.0848 47.4729L28.2424 42.8309L36.9978 37.7455C36.8225 38.2785 36.7619 39.0983 36.7759 40.0371Z" fill="black"/>
<path opacity="0.1" d="M6.47288 41.4978L8.51725 42.7262C8.31193 42.778 8.04951 42.977 7.75767 43.2648C7.58728 42.7667 6.51821 42.0714 6.03169 41.7749C6.29548 41.5971 6.47288 41.4978 6.47288 41.4978Z" fill="black"/>
<path opacity="0.1" d="M26.1717 47.729C26.1493 47.7407 26.1238 47.7451 26.0988 47.7416C26.0738 47.7381 26.0505 47.7268 26.0321 47.7094C26.0775 47.7227 26.1245 47.7293 26.1717 47.729Z" fill="black"/>
<path d="M30.7981 27.0933C30.7981 27.0933 28.9577 27.2975 27.6632 25.9322C27.6632 25.9322 22.2171 27.5032 20.3727 31.0526C18.5282 34.6019 5.98975 41.5663 5.98975 41.5663C5.98975 41.5663 8.17096 42.7946 7.96563 43.4088L16.2113 38.6297C16.2113 38.6297 19.1437 36.5144 19.9579 36.036C20.7721 35.5575 25.2739 32.6224 26.2277 40.6094C27.1815 48.5965 26.2277 47.6409 26.2277 47.6409C26.2277 47.6409 27.5906 48.1195 29.5665 44.2958C31.5424 40.4722 37.674 39.5853 37.674 39.5853L38.0146 35.5588C38.0146 35.5588 39.2309 32.8894 38.294 31.7815C38.0101 31.4534 37.8213 31.0537 37.748 30.6258C37.593 29.6032 37.748 27.8991 39.9179 26.4833C43.2567 24.298 44.5511 22.5241 44.5511 22.5241C44.5511 22.5241 44.6195 21.2259 42.5752 20.6116C40.531 19.9973 32.2182 16.6524 32.2182 16.6524L31.9389 17.8135L38.4978 22.4514C38.4978 22.4514 35.2275 25.1094 32.633 25.0451C32.6329 25.0451 33.1146 27.0247 30.7981 27.0933Z" fill="#D80A49"/>
<path opacity="0.1" d="M32.0603 23.9133C31.8992 23.3661 31.7733 22.809 31.6833 22.2456L28.0722 23.2014C28.2314 23.8921 28.203 24.6129 27.9899 25.2888C28.7282 25.4862 29.5082 25.461 30.2322 25.2163C30.9563 24.9716 31.5922 24.5184 32.0603 23.9133Z" fill="black"/>
<path d="M29.0609 25.216C31.2057 25.216 32.9444 23.474 32.9444 21.3252C32.9444 19.1764 31.2057 17.4345 29.0609 17.4345C26.9162 17.4345 25.1775 19.1764 25.1775 21.3252C25.1775 23.474 26.9162 25.216 29.0609 25.216Z" fill="#FEB9B9"/>
<path opacity="0.1" d="M33.285 52.6591C33.285 52.6591 35.5332 57.0968 34.8517 58.4608L33.285 52.6591Z" fill="black"/>
<path d="M31.1261 12.3392C32.2041 12.4623 33.2277 12.9253 34.289 13.1786C34.5542 13.2612 34.8366 13.2718 35.1073 13.2093C35.5192 13.082 35.8543 12.6497 36.2816 12.6623C36.5446 12.6707 36.7773 12.8498 36.9938 13.0218C37.3409 13.2879 37.6676 13.5798 37.9712 13.8948C38.7029 14.6908 39.1567 15.7625 39.8241 16.6285C40.4916 17.4945 41.4434 18.5101 42.3916 18.1129C41.7466 20.6312 39.7347 22.2065 37.449 22.3633C36.5372 22.426 35.6029 22.236 34.7204 22.5032C34.5006 22.5934 34.2685 22.65 34.0318 22.671C33.5235 22.671 33.1144 22.2037 32.7974 21.749C32.0544 20.6802 31.4666 19.4672 30.6302 18.4921C30.3509 18.169 30.0284 17.8626 29.6374 17.8039C29.2464 17.7452 28.8875 17.9326 28.5399 18.1131C27.966 18.4111 27.3795 18.7188 26.9341 19.2323C26.4886 19.7458 26.2079 20.504 26.3922 21.191C26.4914 21.5631 26.7177 21.8989 26.7217 22.2878C26.7301 22.9089 26.1828 23.3623 26.0752 23.9666C26.0509 24.2205 26.0421 24.4756 26.0487 24.7305C26.0012 25.5584 25.4602 26.2357 24.8968 26.7577C24.6762 26.9591 24.4336 27.1774 24.369 27.4893C24.3257 27.7033 24.369 27.9283 24.3411 28.1455C24.2587 28.6827 23.7239 28.9555 23.2505 29.0255C22.6974 29.1076 22.1325 29.0405 21.6139 28.8311C22.2758 28.5175 22.6836 27.6252 22.53 26.8263C22.3191 25.7182 21.2076 24.9222 21.303 23.7946C21.3553 23.4487 21.4588 23.1125 21.6103 22.7972C21.8525 22.1879 22.0285 21.5542 22.1353 20.9071C22.2191 20.4076 22.2597 19.8774 22.1032 19.4004C21.9636 18.9666 21.6717 18.6212 21.4245 18.2545C21.0894 17.7558 20.8248 17.2129 20.6383 16.6414C20.5708 16.4719 20.545 16.2886 20.5632 16.107C20.6192 15.8925 20.7385 15.6999 20.9054 15.5543C21.5129 14.9146 22.1621 14.2504 22.9763 14.0671C23.3647 14.0025 23.7598 13.9875 24.152 14.0224C24.8342 14.0438 25.517 14.0148 26.1949 13.9356C26.7534 13.8698 27.6973 13.8782 28.1708 13.5159C28.612 13.1772 28.8606 12.752 29.4037 12.5366C29.9538 12.3323 30.545 12.2646 31.1268 12.3393L31.1261 12.3392Z" fill="#57041D"/>
<path d="M103.284 93.524C106.395 93.524 108.917 93.0967 108.917 92.5696C108.917 92.0425 106.395 91.6151 103.284 91.6151C100.173 91.6151 97.6507 92.0425 97.6507 92.5696C97.6507 93.0967 100.173 93.524 103.284 93.524Z" fill="#D80A49"/>
<path d="M105.614 91.0088C105.871 90.7985 106.058 90.5151 106.15 90.1961C106.22 89.8747 106.083 89.4937 105.775 89.3694C105.43 89.2374 105.061 89.4775 104.783 89.7188C104.505 89.9602 104.183 90.2367 103.818 90.1848C104.006 90.0143 104.147 89.7979 104.227 89.5566C104.307 89.3153 104.323 89.0573 104.273 88.8079C104.257 88.7045 104.213 88.6075 104.146 88.5272C103.955 88.3222 103.608 88.4093 103.38 88.5721C102.651 89.0844 102.448 90.0773 102.444 90.9679C102.37 90.6465 102.432 90.311 102.43 89.9854C102.427 89.6597 102.339 89.2829 102.06 89.111C101.888 89.0185 101.695 88.973 101.5 88.979C101.172 88.9665 100.807 89.0001 100.583 89.24C100.303 89.5376 100.379 90.0373 100.62 90.3629C100.861 90.6886 101.229 90.8977 101.568 91.1237C101.839 91.2858 102.07 91.507 102.244 91.7708C102.265 91.8077 102.282 91.8468 102.294 91.8873H104.341C104.803 91.6533 105.231 91.358 105.613 91.0093L105.614 91.0088Z" fill="#D80A49"/>
<path d="M26.6938 93.9452C28.747 93.9452 30.4115 93.6632 30.4115 93.3153C30.4115 92.9674 28.747 92.6854 26.6938 92.6854C24.6406 92.6854 22.9762 92.9674 22.9762 93.3153C22.9762 93.6632 24.6406 93.9452 26.6938 93.9452Z" fill="#EFEFEF"/>
<path d="M28.2314 92.2852C28.4008 92.1464 28.5242 91.9594 28.5854 91.7489C28.6124 91.6433 28.6025 91.5316 28.5575 91.4323C28.5124 91.3331 28.4349 91.2523 28.3377 91.2032C28.1102 91.1162 27.867 91.2746 27.6831 91.4339C27.4992 91.5932 27.2874 91.7757 27.0461 91.7415C27.1703 91.629 27.2633 91.4861 27.3159 91.3268C27.3686 91.1676 27.3791 90.9974 27.3466 90.8328C27.3358 90.7646 27.3067 90.7006 27.2625 90.6476C27.1373 90.5123 26.9074 90.5698 26.7568 90.6772C26.276 91.0158 26.1419 91.6701 26.1392 92.2584C26.0902 92.0463 26.1318 91.8249 26.1299 91.61C26.128 91.3952 26.0698 91.1469 25.8858 91.033C25.7723 90.972 25.6447 90.942 25.5159 90.946C25.2996 90.9377 25.0592 90.9599 24.9112 91.1183C24.7263 91.3148 24.7763 91.6445 24.9353 91.8594C25.0943 92.0743 25.3374 92.2124 25.5613 92.3611C25.7402 92.4679 25.8928 92.6137 26.0078 92.7876C26.0217 92.812 26.0329 92.8377 26.0411 92.8645H27.3919C27.6965 92.7099 27.9789 92.5149 28.2314 92.2846V92.2852Z" fill="#EFEFEF"/>
<path d="M5.66899 93.9452C7.72218 93.9452 9.38663 93.6632 9.38663 93.3153C9.38663 92.9674 7.72218 92.6854 5.66899 92.6854C3.61579 92.6854 1.95134 92.9674 1.95134 93.3153C1.95134 93.6632 3.61579 93.9452 5.66899 93.9452Z" fill="#EFEFEF"/>
<path d="M7.20655 92.2852C7.37596 92.1464 7.49941 91.9594 7.56061 91.7489C7.58756 91.6433 7.57769 91.5316 7.53263 91.4323C7.48757 91.3331 7.41003 91.2523 7.31284 91.2032C7.08536 91.1162 6.84222 91.2746 6.6583 91.4339C6.47438 91.5932 6.26255 91.7757 6.0213 91.7415C6.14548 91.629 6.23843 91.4861 6.29109 91.3268C6.34375 91.1676 6.35432 90.9974 6.32177 90.8328C6.31094 90.7646 6.28186 90.7006 6.23764 90.6476C6.11244 90.5123 5.88257 90.5698 5.73196 90.6772C5.2512 91.0158 5.11711 91.6701 5.11436 92.2584C5.0654 92.0463 5.10697 91.8249 5.10509 91.61C5.10321 91.3952 5.045 91.1469 4.86096 91.033C4.74744 90.972 4.61988 90.942 4.49112 90.946C4.27477 90.9377 4.0344 90.9599 3.88641 91.1183C3.70149 91.3148 3.75144 91.6445 3.91044 91.8594C4.06945 92.0743 4.31258 92.2124 4.53644 92.3611C4.71537 92.4679 4.86801 92.6137 4.98302 92.7876C4.99688 92.812 5.00804 92.8377 5.01632 92.8645H6.36709C6.67166 92.7099 6.95403 92.5149 7.20655 92.2846V92.2852Z" fill="#EFEFEF"/>
<path d="M113 93.5855H0V93.8139H113V93.5855Z" fill="#1B191B"/>
<path d="M107.484 6.33744C107.484 6.33744 95.6878 5.62435 97.0776 13.9058C97.0776 13.9058 96.7974 15.3698 98.1255 16.0337C98.1255 16.0337 98.1466 15.4203 99.336 15.6294C99.7594 15.6997 100.19 15.7204 100.618 15.6911C101.196 15.653 101.745 15.4279 102.184 15.0496C102.184 15.0496 105.5 13.6769 106.789 8.24769C106.789 8.24769 107.743 7.06308 107.705 6.7584L105.715 7.61036C105.715 7.61036 106.396 9.0491 105.855 10.2445C105.855 10.2445 105.79 7.66179 105.408 7.71798C105.331 7.72927 104.374 8.21621 104.374 8.21621C104.374 8.21621 105.544 10.7216 104.661 12.5437C104.661 12.5437 104.996 9.45576 104.008 8.39734L102.607 9.21705C102.607 9.21705 103.975 11.8054 103.047 13.9179C103.047 13.9179 103.285 10.6782 102.312 9.41637L101.042 10.4087C101.042 10.4087 102.327 12.959 101.544 14.7111C101.544 14.7111 101.442 10.9409 100.768 10.656C100.768 10.656 99.6567 11.6386 99.4872 12.04C99.4872 12.04 100.367 13.8928 99.8206 14.8696C99.8206 14.8696 99.4858 12.3572 99.2111 12.3431C99.2111 12.3431 98.1044 14.0078 97.9895 15.1504C97.9895 15.1504 98.0372 13.4534 98.9435 12.186C98.9435 12.186 97.8731 12.3699 97.2483 13.064C97.2483 13.064 97.4205 11.8878 99.2166 11.784C99.2166 11.784 100.131 10.5207 100.375 10.4449C100.375 10.4449 98.5904 10.2944 97.5074 10.7762C97.5074 10.7762 98.4601 9.66598 100.703 10.1712L101.957 9.14518C101.957 9.14518 99.6061 8.82369 98.6087 9.17892C98.6087 9.17892 99.7561 8.19639 102.295 8.91225L103.659 8.09529C103.659 8.09529 101.655 7.66291 100.461 7.81456C100.461 7.81456 101.722 7.13383 104.06 7.87214L105.041 7.43312C105.041 7.43312 103.572 7.14399 103.142 7.0977C102.712 7.05142 102.69 6.93351 102.69 6.93351C103.62 6.77813 104.575 6.88456 105.448 7.24095C105.448 7.24095 107.519 6.46802 107.484 6.33744Z" fill="#D80A49"/>
<path d="M91.3214 1.95317C91.3214 1.95317 85.9977 1.63168 86.6197 5.37378C86.6197 5.37378 86.4945 6.03495 87.0932 6.33524C87.0932 6.33524 87.1029 6.05452 87.6409 6.15135C87.832 6.18358 88.0262 6.19301 88.2195 6.17945C88.4808 6.16212 88.7293 6.05956 88.927 5.88744C88.927 5.88744 90.426 5.26704 91.0088 2.81353C91.0088 2.81353 91.4388 2.2788 91.4219 2.1412L90.5225 2.52578C90.5225 2.52578 90.8294 3.17566 90.5883 3.71603C90.5883 3.71603 90.5589 2.54949 90.3866 2.57633C90.3516 2.57633 89.9187 2.80211 89.9187 2.80211C89.9187 2.80211 90.4483 3.93479 90.049 4.75739C90.049 4.75739 90.2002 3.36218 89.7534 2.88352L89.1201 3.25983C89.1201 3.25983 89.738 4.42901 89.3191 5.38357C89.3191 5.38357 89.427 3.91961 88.9871 3.34976L88.414 3.79894C88.414 3.79894 88.9941 4.95132 88.641 5.74319C88.641 5.74319 88.5934 4.03915 88.2893 3.91008C88.2893 3.91008 87.7878 4.35362 87.7107 4.53613C87.7107 4.53613 88.1085 5.3783 87.862 5.81481C87.862 5.81481 87.7107 4.67925 87.5818 4.67335C87.5818 4.67335 87.0817 5.42596 87.0298 5.93661C87.0549 5.46024 87.2036 4.99868 87.4614 4.59759C87.1728 4.65237 86.9064 4.79044 86.695 4.99484C86.695 4.99484 86.7735 4.46287 87.5847 4.41659C87.5847 4.41659 88.005 3.84536 88.1087 3.81024C88.1087 3.81024 87.3018 3.74288 86.8127 3.96076C86.8127 3.96076 87.2428 3.45964 88.2558 3.68706L88.8162 3.22383C88.8162 3.22383 87.7532 3.08209 87.3025 3.23838C87.3025 3.23838 87.8208 2.79484 88.9683 3.11771L89.5848 2.74855C89.5848 2.74855 88.6783 2.5535 88.139 2.62312C88.139 2.62312 88.7091 2.31568 89.7655 2.64821L90.2069 2.45027C90.2069 2.45027 89.5433 2.31969 89.348 2.29862C89.1527 2.27754 89.1434 2.22423 89.1434 2.22423C89.564 2.15414 89.9957 2.20274 90.3903 2.3646C90.3903 2.3646 91.3378 2.01162 91.3214 1.95317Z" fill="#1B191B"/>
<path d="M9.22362 59.0808C9.22362 59.0808 3.89993 58.7594 4.52192 62.5014C4.52192 62.5014 4.39672 63.1626 4.99542 63.4629C4.99542 63.4629 5.00518 63.1822 5.54316 63.279C5.73422 63.3112 5.92842 63.3207 6.1217 63.3071C6.38303 63.2898 6.63151 63.1872 6.82919 63.0151C6.82919 63.0151 8.3282 62.3947 8.911 59.9412C8.911 59.9412 9.34106 59.4065 9.32415 59.2689L8.42473 59.6535C8.42473 59.6535 8.73159 60.3033 8.49058 60.8437C8.49058 60.8437 8.46116 59.6772 8.28888 59.704C8.25383 59.704 7.82089 59.9298 7.82089 59.9298C7.82089 59.9298 8.35049 61.0625 7.95123 61.8851C7.95123 61.8851 8.10246 60.4898 7.65563 60.0112L7.02238 60.3875C7.02238 60.3875 7.64023 61.5567 7.22132 62.5112C7.22132 62.5112 7.32924 61.0473 6.8893 60.4774L6.31626 60.9266C6.31626 60.9266 6.8963 62.079 6.54324 62.8708C6.54324 62.8708 6.49567 61.1668 6.19156 61.0377C6.19156 61.0377 5.69002 61.4813 5.6129 61.6638C5.6129 61.6638 6.01077 62.506 5.76426 62.9425C5.76426 62.9425 5.6129 61.8069 5.48407 61.801C5.48407 61.801 4.9839 62.5536 4.93207 63.0643C4.95712 62.5879 5.10587 62.1263 5.36362 61.7253C5.075 61.78 4.80864 61.9181 4.59729 62.1225C4.59729 62.1225 4.67579 61.5905 5.48695 61.5443C5.48695 61.5443 5.90724 60.973 6.0109 60.9379C6.0109 60.9379 5.204 60.8705 4.71497 61.0884C4.71497 61.0884 5.14503 60.5873 6.15801 60.8147L6.7184 60.3515C6.7184 60.3515 5.65546 60.2098 5.20475 60.366C5.20475 60.366 5.72307 59.9225 6.87051 60.2454L7.48699 59.8762C7.48699 59.8762 6.58056 59.6812 6.0412 59.7508C6.0412 59.7508 6.61135 59.4433 7.66777 59.7759L8.1091 59.5779C8.1091 59.5779 7.44555 59.4474 7.25024 59.4263C7.05493 59.4052 7.04566 59.3519 7.04566 59.3519C7.46623 59.2818 7.89797 59.3304 8.29252 59.4923C8.29252 59.4923 9.24002 59.1393 9.22362 59.0808Z" fill="#1B191B"/>
<defs>
<linearGradient id="paint0_linear" x1="26.2109" y1="48.1921" x2="26.2109" y2="48.1557" gradientUnits="userSpaceOnUse">
<stop stop-color="#808080" stop-opacity="0.251"/>
<stop offset="0.54" stop-color="#808080" stop-opacity="0.122"/>
<stop offset="1" stop-color="#808080" stop-opacity="0.102"/>
</linearGradient>
</defs>
</svg>
