<svg width="175" height="50" viewBox="0 0 175 50" fill="none" xmlns="http://www.w3.org/2000/svg">
<path d="M36.9942 49.6675H12.7951C5.73115 49.6675 0 44.0104 0 37.0377V13.1515C0 6.17879 5.73115 0.521729 12.7951 0.521729H36.9859C44.0499 0.521729 49.781 6.17879 49.781 13.1515V37.0295C49.7894 44.0104 44.0582 49.6675 36.9942 49.6675Z" fill="#D80A49"/>
<path d="M79.3865 35.4182V19.8202L73.0305 35.41H70.9313L64.5754 19.8202V35.41H59.7689V13.1436H66.4997L71.9809 26.6037L77.4622 13.1436H84.2263V35.4182H79.3865Z" fill="#D80A49"/>
<path d="M87.5333 27.3351C87.5333 22.7634 90.782 18.8906 96.1633 18.8906C101.578 18.8906 104.827 22.7634 104.827 27.3351C104.827 31.9397 101.578 35.8125 96.1633 35.8125C90.782 35.8207 87.5333 31.9479 87.5333 27.3351ZM100.353 27.3351C100.353 24.8273 98.829 22.6565 96.155 22.6565C93.481 22.6565 91.9982 24.8273 91.9982 27.3351C91.9982 29.8759 93.4893 32.0466 96.155 32.0466C98.8373 32.0466 100.353 29.8759 100.353 27.3351Z" fill="#D80A49"/>
<path d="M108.85 31.4136V22.9938H106.143V19.2854H108.85V14.8782H113.182V19.2854H116.497V22.9938H113.182V30.2706C113.182 31.2738 113.723 32.0385 114.673 32.0385C115.314 32.0385 115.922 31.8082 116.164 31.5698L117.08 34.7766C116.439 35.3439 115.289 35.8126 113.498 35.8126C110.466 35.8208 108.85 34.2832 108.85 31.4136Z" fill="#D80A49"/>
<path d="M118.388 27.3351C118.388 22.7634 121.637 18.8906 127.018 18.8906C132.433 18.8906 135.682 22.7634 135.682 27.3351C135.682 31.9397 132.433 35.8125 127.018 35.8125C121.629 35.8207 118.388 31.9479 118.388 27.3351ZM131.208 27.3351C131.208 24.8273 129.684 22.6565 127.01 22.6565C124.336 22.6565 122.853 24.8273 122.853 27.3351C122.853 29.8759 124.344 32.0466 127.01 32.0466C129.684 32.0466 131.208 29.8759 131.208 27.3351Z" fill="#D80A49"/>
<path d="M138.847 35.418V19.2855H143.146V21.4891C144.295 20.0502 146.328 18.8826 148.352 18.8826V23.0267C148.044 22.9609 147.644 22.928 147.169 22.928C145.745 22.928 143.854 23.7256 143.146 24.7616V35.4097H138.847V35.418Z" fill="#D80A49"/>
<path d="M151.026 35.418V13.1433H155.324V35.418H151.026Z" fill="#D80A49"/>
<path d="M159.647 37.9176C160.022 38.0821 160.597 38.1889 160.997 38.1889C162.113 38.1889 162.854 37.8847 163.262 37.0214L163.871 35.6564L157.24 19.2937H161.838L166.103 30.5092L170.368 19.2937H175L167.319 38.0574C166.103 41.0997 163.937 41.8973 161.13 41.9631C160.622 41.9631 159.539 41.8644 158.997 41.7328L159.647 37.9176Z" fill="#D80A49"/>
<path d="M6.63054 31.1092C6.68052 32.1699 7.19699 33.0744 8.03001 33.7404C8.41319 34.0528 8.53815 34.3899 8.52981 34.8504C8.51315 36.166 8.52981 37.4816 8.52981 38.789C8.52981 39.5125 8.92133 39.8908 9.6294 39.9154C10.5291 39.9401 11.4204 39.9483 12.32 39.9154C13.1447 39.8826 13.4696 39.5208 13.4863 38.6821C13.5029 37.7447 13.5279 36.7991 13.4779 35.87C13.4446 35.1711 13.6779 34.9409 14.4026 34.9491C17.8763 34.982 21.3583 34.9655 24.8319 34.9655C28.3389 34.9655 31.8459 34.982 35.3446 34.9491C36.0693 34.9409 36.3026 35.1793 36.2692 35.8782C36.2193 36.8156 36.2443 37.7529 36.2609 38.6903C36.2776 39.5619 36.6108 39.899 37.5021 39.9237C38.3435 39.9483 39.1848 39.9483 40.0261 39.9237C40.8592 39.899 41.1924 39.5537 41.209 38.715C41.2257 37.4816 41.234 36.2482 41.209 35.0149C41.1924 34.4393 41.3257 33.9953 41.8088 33.617C42.5668 33.0332 43.0333 32.1945 43.0833 31.2654C43.2499 28.4204 43.2999 25.5755 42.3419 22.8291C41.9837 21.8096 41.5339 20.8064 40.6259 20.1486C40.0928 19.7622 39.8679 19.3017 39.7346 18.7015C39.2181 16.4074 38.4101 14.2202 37.0023 12.2962C35.8611 10.7257 34.4116 9.8623 32.3207 9.89519C27.1561 9.98564 21.9997 9.93631 16.835 9.91164C15.7104 9.91164 14.7691 10.2652 13.9361 10.9806C13.1697 11.6384 12.5699 12.4277 12.0618 13.2911C11.0705 15.0014 10.4041 16.8432 9.9626 18.759C9.8793 19.1126 9.89596 19.5402 9.54609 19.7704C7.89672 20.864 7.35526 22.5825 6.95542 24.3585C6.46394 26.6033 6.52225 28.8644 6.63054 31.1092Z" stroke="white" stroke-width="1.4415" stroke-linecap="round" stroke-linejoin="round"/>
<path d="M12.6697 19.4333C13.761 19.4333 14.8522 19.4333 15.9518 19.4333C15.5936 18.833 15.3853 18.1259 15.3853 17.3612C15.3853 15.2563 16.9681 13.546 18.9173 13.546C20.8666 13.546 22.4493 15.2563 22.4493 17.3612C22.4493 18.1259 22.2411 18.8413 21.8829 19.4333C22.8825 19.4333 23.8904 19.4333 24.8901 19.4333C25.8647 19.4333 26.8477 19.4333 27.8223 19.4333C27.4641 18.833 27.2558 18.1259 27.2558 17.3612C27.2558 15.2563 28.8386 13.546 30.7878 13.546C32.7371 13.546 34.3198 15.2563 34.3198 17.3612C34.3198 18.1259 34.1115 18.8413 33.745 19.4415C34.8946 19.4415 36.0358 19.4415 37.1854 19.4497C37.8268 19.4497 38.085 19.3099 37.8934 18.6275C37.3686 16.7034 36.6772 14.8534 35.4777 13.2171C34.7446 12.2304 33.8533 11.7041 32.5205 11.7206C27.4474 11.7781 22.366 11.7864 17.293 11.7206C15.9018 11.7041 14.9772 12.2633 14.2191 13.3075C13.0779 14.878 12.4198 16.6623 11.9033 18.5041C11.6534 19.4004 11.6868 19.4333 12.6697 19.4333Z" fill="white"/>
<path d="M17.7762 26.6361C17.9677 26.8581 18.1927 27.0636 18.4259 27.2363C20.3252 28.6588 22.4577 29.4235 25.5065 29.4235C27.4225 29.4153 29.6883 28.5848 31.6709 26.965C32.079 26.6278 32.3789 26.2167 31.9874 25.7234C31.5792 25.2054 31.0794 25.3863 30.6213 25.7152C30.513 25.7974 30.413 25.8878 30.3047 25.97C27.1059 28.4532 22.6243 28.445 19.4339 25.9536C19.159 25.7398 18.9091 25.4767 18.5342 25.4438C18.2177 25.4109 17.9344 25.4603 17.7512 25.748C17.5512 26.0441 17.5346 26.3647 17.7762 26.6361Z" fill="white"/>
</svg>
