<svg width="919" height="641" viewBox="0 0 919 641" fill="none" xmlns="http://www.w3.org/2000/svg">
<g filter="url(#filter0_d)">
<path d="M130.528 251.512C102.626 235.397 88.6755 227.34 83.4484 218.049C78.8505 209.876 78.8505 201.072 83.4484 192.9C88.6755 183.608 102.626 175.551 130.528 159.436L271.118 78.2391C288.557 68.1674 297.276 63.1316 307.331 61.2448C316.175 59.5851 325.702 59.5851 334.546 61.2448C344.601 63.1316 353.32 68.1674 370.759 78.2391L788.471 319.488C816.374 335.603 830.325 343.66 835.552 352.951C840.149 361.124 840.149 369.928 835.552 378.1C830.325 387.392 816.374 395.449 788.471 411.564L647.882 492.761C630.443 502.833 621.724 507.868 611.669 509.755C602.825 511.415 593.298 511.415 584.454 509.755C574.399 507.868 565.68 502.833 548.241 492.761L130.528 251.512Z" fill="#0A5CD8"/>
<path d="M130.779 251.079C116.821 243.018 106.377 236.985 98.7666 231.808C91.1508 226.627 86.4383 222.343 83.8842 217.803C79.3719 209.783 79.3719 201.165 83.8842 193.145C86.4383 188.605 91.1508 184.321 98.7666 179.14C106.377 173.963 116.821 167.931 130.779 159.869L271.368 78.6721C288.835 68.5843 297.471 63.6037 307.423 61.7362C316.206 60.0879 325.671 60.0879 334.454 61.7362C344.406 63.6037 353.042 68.5843 370.509 78.6721L788.221 319.921C802.179 327.982 812.623 334.015 820.233 339.192C827.849 344.373 832.562 348.657 835.116 353.197C839.628 361.217 839.628 369.835 835.116 377.855C832.562 382.395 827.849 386.679 820.233 391.86C812.623 397.037 802.179 403.069 788.221 411.131L647.632 492.328C630.165 502.416 621.529 507.396 611.577 509.264C602.794 510.912 593.329 510.912 584.546 509.264C574.594 507.396 565.958 502.416 548.491 492.328L130.779 251.079Z" stroke="black"/>
</g>
<path d="M31.5069 180.012L31.5187 179.5H31.5V162.617L873.5 340.405V357.5H873.489L873.497 358.008C873.569 362.759 872.32 367.525 869.734 372.121C866.891 377.176 861.648 381.941 853.188 387.697C844.733 393.45 833.131 400.152 817.629 409.107L661.48 499.306C642.084 510.51 632.482 516.049 621.418 518.126C611.656 519.958 601.137 519.958 591.375 518.126C580.31 516.049 570.709 510.51 551.312 499.306L87.3707 231.311C71.8688 222.356 60.2667 215.654 51.8124 209.901C43.3524 204.145 38.1092 199.381 35.2659 194.326C32.6439 189.664 31.3959 184.829 31.5069 180.012Z" fill="black" stroke="black"/>
<path d="M87.3707 212.311C71.8688 203.356 60.2667 196.654 51.8124 190.901C43.3524 185.145 38.1092 180.381 35.2658 175.326C30.2447 166.399 30.2447 156.805 35.2658 147.879C38.1092 142.824 43.3524 138.059 51.8124 132.303C60.2667 126.55 71.8688 119.848 87.3707 110.893L243.52 20.6942C262.916 9.48977 272.518 3.95086 283.582 1.87418C293.344 0.0419441 303.863 0.0419384 313.625 1.87417C324.689 3.95086 334.291 9.48978 353.688 20.6942L817.629 288.689C833.131 297.644 844.733 304.346 853.188 310.099C861.648 315.855 866.891 320.619 869.734 325.674C874.755 334.601 874.755 344.195 869.734 353.121C866.891 358.176 861.648 362.941 853.188 368.697C844.733 374.45 833.131 381.152 817.629 390.107L661.48 480.306C642.084 491.51 632.482 497.049 621.418 499.126C611.656 500.958 601.137 500.958 591.375 499.126C580.31 497.049 570.709 491.51 551.312 480.306L87.3707 212.311Z" fill="url(#paint0_linear)" stroke="black"/>
<rect x="0.866044" width="38.191" height="3.89887" rx="1.94944" transform="matrix(0.866044 -0.499967 0.866044 0.499967 156.024 91.9353)" fill="black" stroke="black"/>
<g filter="url(#filter1_i)">
<mask id="mask0" mask-type="alpha" maskUnits="userSpaceOnUse" x="50" y="13" width="807" height="466">
<path d="M98.4028 126.432C96.2719 125.29 95.2064 124.72 94.0838 124.528C93.0714 124.355 92.0659 124.365 91.0654 124.56C89.9561 124.776 88.9817 125.339 87.033 126.464L79.2548 130.954C63.4142 140.099 55.4938 144.671 52.5262 149.944C49.9159 154.582 49.916 159.578 52.5263 164.216C55.4938 169.488 63.4142 174.061 79.2548 183.205L562.916 462.423C578.757 471.568 586.677 476.14 595.81 477.853C603.844 479.36 612.498 479.36 620.531 477.853C629.664 476.14 637.585 471.568 653.426 462.423L828.081 361.594C843.922 352.45 851.842 347.877 854.809 342.605C857.42 337.967 857.42 332.971 854.809 328.333C851.842 323.06 843.922 318.488 828.081 309.343L344.42 30.1257C328.579 20.9808 320.659 16.4084 311.526 14.6953C303.492 13.1883 294.838 13.1884 286.804 14.6952C277.671 16.4084 269.751 20.9808 253.91 30.1257L246.132 34.616C244.183 35.741 243.209 36.3035 242.835 36.9439C242.497 37.5215 242.478 38.102 242.778 38.6864C243.111 39.3345 244.099 39.9496 246.077 41.1798C247.861 42.29 249.044 43.1528 249.885 44.0413C253.473 47.8348 253.473 52.4214 249.885 56.2148C248.369 57.8176 245.738 59.3365 240.475 62.3745L135.116 123.198C129.854 126.236 127.223 127.755 124.447 128.63C117.875 130.702 109.931 130.702 103.36 128.63C101.82 128.145 100.326 127.462 98.4028 126.432Z" fill="black"/>
</mask>
<g mask="url(#mask0)">
<path d="M98.4028 126.432C96.2719 125.29 95.2064 124.72 94.0838 124.528C93.0714 124.355 92.0659 124.365 91.0654 124.56C89.9561 124.776 88.9817 125.339 87.033 126.464L79.2548 130.954C63.4142 140.099 55.4938 144.671 52.5262 149.944C49.9159 154.582 49.916 159.578 52.5263 164.216C55.4938 169.488 63.4142 174.061 79.2548 183.205L562.916 462.423C578.757 471.568 586.677 476.14 595.81 477.853C603.844 479.36 612.498 479.36 620.531 477.853C629.664 476.14 637.585 471.568 653.426 462.423L828.081 361.594C843.922 352.45 851.842 347.877 854.809 342.605C857.42 337.967 857.42 332.971 854.809 328.333C851.842 323.06 843.922 318.488 828.081 309.343L344.42 30.1257C328.579 20.9808 320.659 16.4084 311.526 14.6953C303.492 13.1883 294.838 13.1884 286.804 14.6952C277.671 16.4084 269.751 20.9808 253.91 30.1257L246.132 34.616C244.183 35.741 243.209 36.3035 242.835 36.9439C242.497 37.5215 242.478 38.102 242.778 38.6864C243.111 39.3345 244.099 39.9496 246.077 41.1798C247.861 42.29 249.044 43.1528 249.885 44.0413C253.473 47.8348 253.473 52.4214 249.885 56.2148C248.369 57.8176 245.738 59.3365 240.475 62.3745L135.116 123.198C129.854 126.236 127.223 127.755 124.447 128.63C117.875 130.702 109.931 130.702 103.36 128.63C101.82 128.145 100.326 127.462 98.4028 126.432Z" fill="#1B191B"/>
<path opacity="0.4" d="M286.587 28.0793C285.551 27.481 285.551 26.511 286.587 25.9128L297.524 19.5986C298.561 19.0003 300.241 19.0003 301.277 19.5986L304.672 21.5585C305.708 22.1568 305.708 23.1268 304.672 23.725L293.735 30.0392C292.698 30.6375 291.018 30.6375 289.982 30.0392L286.587 28.0793Z" stroke="white"/>
<path opacity="0.5" d="M302.701 19.1039L305.529 20.7368C305.861 20.2687 305.675 19.7325 305.058 19.3761C304.44 19.0196 303.511 18.9124 302.701 19.1039Z" fill="white"/>
<path d="M287.828 27.6627C287.19 27.2945 287.19 26.6976 287.828 26.3294L298.246 20.3148C298.884 19.9467 299.918 19.9467 300.555 20.3148L303.431 21.9751C304.069 22.3433 304.069 22.9402 303.431 23.3084L293.013 29.323C292.375 29.6911 291.341 29.6911 290.704 29.323L287.828 27.6627Z" fill="white"/>
<path fill-rule="evenodd" clip-rule="evenodd" d="M276.472 33.0812C278.046 32.1731 280.151 31.6416 282.353 31.5966C282.521 31.5944 282.657 31.5145 282.658 31.4176L282.667 30.4753C282.668 30.4262 282.635 30.3794 282.575 30.3452C282.515 30.3111 282.433 30.2924 282.348 30.2933C276.546 30.3984 271.825 33.1238 271.643 36.4737C271.641 36.5228 271.673 36.5699 271.732 36.6045C271.792 36.6391 271.873 36.6583 271.958 36.6581L273.59 36.6527C273.758 36.6521 273.897 36.5734 273.9 36.4764C273.978 35.2049 274.899 33.9894 276.472 33.0812ZM279.106 34.6027C279.971 34.1031 281.128 33.8078 282.353 33.7741C282.522 33.7718 282.657 33.6918 282.656 33.5939L282.645 32.6396C282.644 32.5895 282.609 32.5415 282.547 32.5063C282.485 32.4711 282.401 32.4517 282.314 32.4525C278.537 32.5272 275.512 34.2734 275.383 36.4539C275.381 36.5041 275.415 36.5525 275.476 36.5884C275.537 36.6243 275.62 36.6446 275.707 36.6448L277.36 36.6517C277.529 36.6519 277.668 36.5741 277.672 36.4762C277.73 35.7698 278.241 35.1021 279.106 34.6027ZM282.682 34.7615C282.744 34.7957 282.778 34.8433 282.776 34.8932L282.759 36.5284C282.759 36.5764 282.725 36.6227 282.666 36.657C282.607 36.6913 282.526 36.7107 282.443 36.711L279.61 36.7207C279.524 36.7217 279.441 36.702 279.382 36.6664C279.323 36.6308 279.293 36.5823 279.298 36.5325C279.454 35.5722 280.787 34.8029 282.45 34.7127C282.537 34.7097 282.62 34.7273 282.682 34.7615Z" fill="white"/>
<path fill-rule="evenodd" clip-rule="evenodd" d="M266.874 37.8817C266.483 37.6563 265.85 37.6563 265.46 37.8817L264.753 38.2899C264.362 38.5154 264.362 38.8809 264.753 39.1063L270.881 42.6442C271.271 42.8696 271.904 42.8696 272.295 42.6442L273.002 42.236C273.393 42.0105 273.393 41.645 273.002 41.4196L266.874 37.8817ZM263.103 41.1474L263.81 40.7392C264.2 40.5137 264.833 40.5137 265.224 40.7392L269.702 43.3245C270.093 43.55 270.093 43.9155 269.702 44.141L268.995 44.5492C268.605 44.7746 267.971 44.7746 267.581 44.5492L263.103 41.9638C262.712 41.7384 262.712 41.3729 263.103 41.1474ZM262.16 43.5967L261.453 44.0049C261.062 44.2304 261.062 44.5959 261.453 44.8213L264.281 46.4542C264.672 46.6796 265.305 46.6796 265.695 46.4542L266.402 46.046C266.793 45.8205 266.793 45.455 266.402 45.2295L263.574 43.5967C263.183 43.3712 262.55 43.3712 262.16 43.5967ZM261.688 46.3181C261.298 46.0927 260.665 46.0927 260.274 46.3181L259.567 46.7263C259.177 46.9518 259.177 47.3173 259.567 47.5427L260.981 48.3592C261.372 48.5846 262.005 48.5846 262.395 48.3592L263.103 47.951C263.493 47.7255 263.493 47.36 263.103 47.1345L261.688 46.3181Z" fill="white"/>
<path d="M79.7248 153.323C81.4146 152.348 81.6988 151.176 80.4251 150.44C79.4813 149.896 78.1112 149.831 76.9795 150.279L76.8933 150.229C77.4819 149.661 77.3551 149.014 76.5685 148.56C75.4115 147.892 73.5289 148.024 72.0421 148.882C70.5553 149.74 70.3218 150.83 71.4788 151.498C72.2603 151.949 73.402 152.022 74.3763 151.683L74.4626 151.732C73.7065 152.403 73.8181 153.188 74.7468 153.724C76.0154 154.457 78.0452 154.293 79.7248 153.323ZM78.7099 152.731C77.827 153.241 76.7157 153.303 75.9849 152.881C75.2542 152.459 75.3608 151.817 76.2437 151.308C77.1216 150.801 78.2329 150.739 78.9637 151.161C79.6944 151.583 79.5929 152.222 78.7099 152.731ZM75.239 150.727C74.4931 151.158 73.5391 151.199 72.8946 150.827C72.24 150.449 72.2958 149.896 73.0468 149.462C73.7928 149.031 74.7519 148.999 75.4065 149.377C76.0509 149.749 75.9799 150.3 75.239 150.727ZM84.184 149.641C84.666 149.363 84.6508 148.973 84.1941 148.71C83.7323 148.443 83.0625 148.437 82.5804 148.716C82.1034 148.991 82.1085 149.381 82.5703 149.647C83.027 149.911 83.707 149.917 84.184 149.641ZM80.3781 147.444C80.8602 147.166 80.85 146.779 80.3933 146.516C79.9316 146.249 79.2617 146.243 78.7797 146.522C78.3027 146.797 78.3077 147.187 78.7695 147.453C79.2262 147.717 79.9011 147.72 80.3781 147.444ZM89.4043 147.524L90.7135 146.768L83.391 142.541L82.0869 143.294L81.5135 145.172L82.7719 145.898L83.3149 144.108L83.4012 144.059L89.4043 147.524ZM95.8171 144.033C97.4409 143.096 97.4866 141.862 95.9592 140.98C94.5231 140.151 92.5187 140.131 91.1283 140.934C90.4229 141.341 90.154 141.783 90.2656 142.223L90.1793 142.272L88.3018 140.983L91.6966 139.024L90.5904 138.385L86.1807 140.931L90.0119 143.582L91.1993 142.896C91.0166 142.48 91.2196 142.053 91.8235 141.704C92.6658 141.218 93.8482 141.221 94.7261 141.727C95.5989 142.231 95.5938 142.902 94.7362 143.397C93.9801 143.834 92.9602 143.907 92.2041 143.564L90.976 144.273C92.3258 144.982 94.2998 144.909 95.8171 144.033Z" fill="white"/>
</g>
<g clip-path="url(#clip0)">
<path d="M278.786 195.191L258.245 207.049C252.249 210.511 242.519 210.511 236.522 207.049L215.981 195.191C209.985 191.729 209.985 186.112 215.981 182.65L236.515 170.796C242.512 167.334 252.241 167.334 258.238 170.796L278.772 182.65C284.782 186.112 284.782 191.729 278.786 195.191Z" fill="#D80A49"/>
<path d="M302.517 167.342L289.103 159.598L297.114 170.453L295.333 171.482L276.531 166.857L289.937 174.596L285.857 176.952L266.709 165.897L272.422 162.599L288.65 166.595L281.728 157.227L287.469 153.912L306.625 164.971L302.517 167.342Z" fill="white"/>
<path d="M302.481 159.337C298.55 157.068 297.977 153.553 302.545 150.916C307.141 148.262 313.229 148.593 317.161 150.863C321.121 153.149 321.693 156.663 317.097 159.317C312.536 161.958 306.448 161.627 302.481 159.337ZM313.364 153.055C311.207 151.81 308.046 151.479 305.776 152.79C303.507 154.1 304.115 155.904 306.271 157.149C308.456 158.411 311.589 158.758 313.852 157.451C316.129 156.137 315.549 154.316 313.364 153.055Z" fill="white"/>
<path d="M324.083 150.916L316.843 146.736L314.545 148.062L311.356 146.221L313.654 144.895L309.864 142.707L313.541 140.584L317.331 142.772L320.145 141.147L323.334 142.988L320.52 144.613L326.778 148.226C327.64 148.724 328.757 148.838 329.564 148.373C330.108 148.058 330.426 147.646 330.426 147.409L333.962 148.552C333.905 149.148 333.332 149.944 331.812 150.822C329.245 152.312 326.551 152.34 324.083 150.916Z" fill="white"/>
<path d="M328.673 144.217C324.741 141.947 324.168 138.433 328.736 135.796C333.332 133.142 339.421 133.473 343.352 135.743C347.312 138.029 347.885 141.543 343.288 144.197C338.721 146.842 332.639 146.507 328.673 144.217ZM339.555 137.935C337.398 136.69 334.238 136.359 331.968 137.669C329.698 138.98 330.306 140.784 332.463 142.029C334.648 143.29 337.78 143.637 340.043 142.331C342.313 141.021 341.74 139.196 339.555 137.935Z" fill="white"/>
<path d="M352.99 138.204L339.117 130.195L342.765 128.089L344.66 129.183C344.399 127.905 345.12 126.329 346.838 125.337L350.402 127.395C350.084 127.513 349.716 127.693 349.313 127.925C348.104 128.623 347.185 129.946 347.475 130.807L356.632 136.094L352.983 138.2L352.99 138.204Z" fill="white"/>
<path d="M363.328 132.236L344.172 121.177L347.821 119.071L366.977 130.13L363.328 132.236Z" fill="white"/>
<path d="M372.796 129.252C373.256 129.15 373.836 128.921 374.175 128.725C375.122 128.178 375.49 127.664 375.094 127.035L374.437 126.06L354.737 121.186L358.64 118.932L371.905 122.41L365.881 114.752L369.812 112.483L379.429 125.562C381.013 127.668 379.86 129.125 377.534 130.534C377.102 130.783 376.098 131.264 375.525 131.464L372.796 129.252Z" fill="white"/>
<path d="M237.053 200.857C238.007 201.359 239.224 201.555 240.503 201.477C241.097 201.444 241.493 201.551 241.882 201.783C243 202.444 244.145 203.089 245.269 203.739C245.892 204.098 246.549 204.094 247.171 203.759C247.956 203.33 248.72 202.898 249.455 202.44C250.127 202.02 250.092 201.681 249.385 201.257C248.593 200.783 247.801 200.301 246.959 199.865C246.33 199.534 246.33 199.305 246.952 198.954C249.929 197.268 252.871 195.554 255.819 193.852C258.796 192.133 261.787 190.423 264.729 188.692C265.337 188.333 265.74 188.337 266.313 188.7C267.077 189.19 267.904 189.643 268.724 190.1C269.488 190.525 270.061 190.529 270.838 190.104C271.574 189.704 272.288 189.292 272.981 188.867C273.667 188.447 273.653 188.112 272.946 187.688C271.899 187.067 270.845 186.451 269.764 185.851C269.254 185.573 268.986 185.287 269.071 184.863C269.212 184.201 268.887 183.556 268.13 183.071C265.825 181.577 263.421 180.14 260.246 179.246C259.065 178.915 257.821 178.638 256.484 178.756C255.699 178.825 255.112 178.707 254.483 178.474C252.072 177.588 249.505 176.899 246.655 176.633C244.336 176.413 242.363 176.694 240.617 177.735C236.31 180.311 231.891 182.814 227.486 185.332C226.531 185.883 226.036 186.52 225.944 187.283C225.859 187.986 226.029 188.671 226.34 189.349C226.969 190.684 227.988 191.925 229.26 193.092C229.494 193.309 229.876 193.513 229.777 193.799C229.317 195.15 230.335 196.268 231.523 197.346C233.036 198.701 235.03 199.795 237.053 200.857Z" stroke="white" stroke-width="1.4415" stroke-linecap="round" stroke-linejoin="round"/>
<path d="M232.138 192.1C233.065 191.566 233.991 191.031 234.924 190.492C234.104 190.37 233.319 190.121 232.662 189.741C230.851 188.696 230.724 187.071 232.379 186.116C234.033 185.161 236.848 185.234 238.658 186.279C239.316 186.659 239.754 187.116 239.959 187.586C240.808 187.096 241.663 186.602 242.512 186.112C243.339 185.634 244.173 185.153 245.001 184.675C244.18 184.553 243.396 184.304 242.738 183.924C240.928 182.879 240.8 181.254 242.455 180.299C244.11 179.344 246.924 179.417 248.734 180.462C249.392 180.842 249.83 181.299 250.035 181.777C251.011 181.213 251.98 180.654 252.963 180.095C253.507 179.781 253.606 179.585 252.857 179.34C250.757 178.642 248.579 178.062 246.153 177.837C244.682 177.707 243.473 177.882 242.356 178.544C238.099 181.058 233.793 183.552 229.43 186.006C228.235 186.679 227.931 187.41 228.186 188.3C228.567 189.639 229.543 190.847 230.689 192.015C231.247 192.582 231.304 192.582 232.138 192.1Z" fill="white"/>
<path d="M242.667 193.174C243.021 193.19 243.388 193.182 243.735 193.154C246.57 192.929 249.038 192.264 251.626 190.77C253.246 189.827 254.455 188.304 254.745 186.528C254.801 186.161 254.702 185.81 253.946 185.757C253.154 185.7 252.885 186.034 252.779 186.422C252.758 186.516 252.751 186.61 252.729 186.704C252.15 189.504 248.338 191.696 243.487 192.023C243.07 192.051 242.632 192.043 242.285 192.211C241.988 192.349 241.79 192.513 241.882 192.745C241.967 192.99 242.229 193.158 242.667 193.174Z" fill="white"/>
</g>
<g filter="url(#filter2_d)">
<rect width="108.592" height="31.0262" rx="5" transform="matrix(0.866044 -0.499967 0.866044 0.499967 297.751 279.135)" fill="white"/>
</g>
<g filter="url(#filter3_d)">
<rect width="109.408" height="31.0262" rx="5" transform="matrix(0.866044 -0.499967 0.866044 0.499967 417.252 210.147)" fill="white"/>
</g>
<path d="M392.18 328.162L386.666 331.345L376.774 325.634L382.288 322.451L383.31 323.041L378.946 325.56L382.132 327.4L386.233 325.033L387.247 325.619L383.147 327.986L386.787 330.087L391.151 327.568L392.18 328.162ZM403.662 321.533L398.838 318.748C398.247 318.407 397.678 318.225 397.132 318.201C396.582 318.175 396.041 318.316 395.509 318.623C394.81 319.027 394.494 319.441 394.561 319.865C394.629 320.29 395.08 320.743 395.915 321.225L400.055 323.615L398.932 324.263L394.108 321.478C393.517 321.137 392.949 320.955 392.403 320.932C391.853 320.906 391.309 321.047 390.772 321.357C390.069 321.764 389.764 322.184 389.859 322.619C389.954 323.049 390.482 323.541 391.442 324.095L395.333 326.341L394.21 326.99L386.794 322.709L387.707 322.181L388.905 322.662L388.959 322.631C388.81 322.3 388.826 321.965 389.007 321.627C389.191 321.286 389.523 320.977 390.001 320.701C391.16 320.032 392.338 319.837 393.533 320.115L393.587 320.084C393.42 319.732 393.434 319.37 393.628 318.998C393.822 318.626 394.187 318.285 394.724 317.975C395.563 317.49 396.406 317.253 397.254 317.264C398.102 317.269 399 317.545 399.947 318.092L404.785 320.885L403.662 321.533ZM411.666 316.912L410.387 316.432L410.333 316.463C410.428 316.945 410.373 317.341 410.171 317.651C409.968 317.955 409.591 318.266 409.041 318.584C408.305 319.009 407.539 319.232 406.74 319.256C405.946 319.277 405.2 319.085 404.501 318.682C403.003 317.817 403.416 316.673 405.739 315.248L406.957 314.498L406.497 314.233C405.915 313.897 405.36 313.722 404.832 313.709C404.304 313.691 403.765 313.841 403.215 314.159C402.597 314.515 402.087 315.028 401.686 315.698L400.482 315.401C400.649 315.075 400.892 314.755 401.212 314.44C401.537 314.122 401.918 313.837 402.356 313.584C403.24 313.074 404.09 312.81 404.907 312.791C405.728 312.771 406.571 313.01 407.437 313.51L412.498 316.432L411.666 316.912ZM408.337 317.92C409.036 317.516 409.392 317.089 409.406 316.639C409.424 316.186 409.088 315.76 408.398 315.362L407.728 314.975L406.652 315.651C405.791 316.184 405.285 316.638 405.137 317.01C404.988 317.377 405.173 317.71 405.691 318.01C406.097 318.244 406.528 318.352 406.984 318.334C407.444 318.313 407.895 318.175 408.337 317.92ZM415.942 314.444L414.819 315.092L407.403 310.811L408.526 310.163L415.942 314.444ZM405.299 309.706C405.042 309.557 404.918 309.413 404.927 309.272C404.931 309.129 405.028 309.003 405.218 308.893C405.398 308.789 405.615 308.734 405.867 308.729C406.12 308.724 406.373 308.794 406.625 308.94C406.878 309.086 407.002 309.233 406.997 309.382C406.988 309.527 406.894 309.652 406.713 309.757C406.524 309.866 406.305 309.922 406.057 309.924C405.804 309.924 405.552 309.852 405.299 309.706ZM419.447 312.42L418.324 313.069L407.796 306.991L408.919 306.343L419.447 312.42ZM425.597 308.87L415.705 303.159L416.855 302.495L426.747 308.206L425.597 308.87ZM432.322 299.167C433.955 300.11 434.76 301.088 434.738 302.101C434.715 303.109 433.872 304.093 432.207 305.054L429.467 306.636L419.575 300.925L422.606 299.175C424.144 298.287 425.766 297.843 427.471 297.843C429.176 297.843 430.793 298.285 432.322 299.167ZM431.145 299.894C429.855 299.149 428.558 298.775 427.255 298.773C425.956 298.768 424.668 299.134 423.391 299.87L421.72 300.835L429.623 305.397L431.023 304.589C432.394 303.797 433.089 303.008 433.107 302.222C433.121 301.433 432.467 300.657 431.145 299.894Z" fill="#C2C2C2"/>
<path d="M574.535 298.082L572.987 298.975L565.568 294.692L569.82 292.237L571.109 292.981L568.405 294.543L570.318 295.647L572.835 294.194L574.118 294.935L571.601 296.388L574.535 298.082ZM576.955 293.397C577.517 293.722 578.033 293.914 578.503 293.975C578.976 294.033 579.421 293.942 579.837 293.702C580.25 293.464 580.404 293.211 580.299 292.943C580.194 292.672 579.859 292.373 579.294 292.047C578.733 291.723 578.22 291.532 577.757 291.476C577.293 291.419 576.854 291.511 576.437 291.751C576.025 291.989 575.867 292.242 575.966 292.51C576.06 292.775 576.39 293.071 576.955 293.397ZM580.878 291.133C581.801 291.666 582.28 292.224 582.314 292.806C582.348 293.388 581.93 293.93 581.06 294.432C580.516 294.746 579.917 294.955 579.264 295.058C578.608 295.16 577.945 295.146 577.275 295.017C576.605 294.889 575.972 294.652 575.377 294.309C574.45 293.773 573.971 293.218 573.941 292.642C573.91 292.065 574.333 291.525 575.209 291.019C575.754 290.704 576.353 290.495 577.006 290.392C577.659 290.288 578.318 290.3 578.985 290.427C579.651 290.554 580.282 290.789 580.878 291.133ZM582.39 286.873C582.6 286.752 582.789 286.661 582.958 286.598L584.293 287.503C584.134 287.556 583.965 287.634 583.785 287.738C583.291 288.023 583.033 288.319 583.009 288.625C582.989 288.93 583.207 289.214 583.664 289.478L586.551 291.145L585.003 292.038L579.33 288.763L580.502 288.086L581.684 288.505L581.761 288.461C581.618 288.176 581.6 287.892 581.705 287.609C581.81 287.322 582.038 287.077 582.39 286.873ZM588.987 283.188L589.773 283.642L589.113 284.287C589.53 284.339 589.895 284.457 590.21 284.638C590.819 284.99 591.081 285.387 590.996 285.831C590.912 286.27 590.492 286.707 589.738 287.143L589.443 287.295L589.19 287.412C589.152 287.575 589.208 287.699 589.357 287.785C589.58 287.913 589.976 287.814 590.544 287.486L591.509 286.929C592.131 286.57 592.738 286.373 593.33 286.34C593.926 286.305 594.482 286.437 595 286.736C595.663 287.119 595.9 287.576 595.71 288.107C595.524 288.636 594.914 289.199 593.878 289.797C593.087 290.254 592.343 290.524 591.646 290.606C590.956 290.688 590.362 290.585 589.865 290.298C589.523 290.101 589.344 289.874 589.327 289.618C589.31 289.363 589.459 289.087 589.773 288.792C589.547 288.845 589.298 288.862 589.027 288.842C588.753 288.821 588.53 288.76 588.357 288.66C588.141 288.535 588.024 288.396 588.007 288.242C587.987 288.085 588.026 287.899 588.124 287.682C587.698 287.78 587.255 287.797 586.794 287.735C586.338 287.67 585.917 287.527 585.531 287.304C584.912 286.947 584.634 286.554 584.699 286.126C584.763 285.699 585.169 285.269 585.917 284.837C586.076 284.746 586.279 284.646 586.526 284.539C586.772 284.427 586.933 284.358 587.008 284.331L588.987 283.188ZM591.082 289.454C591.296 289.577 591.564 289.615 591.889 289.569C592.217 289.52 592.566 289.389 592.935 289.176C593.489 288.856 593.848 288.561 594.01 288.291C594.173 288.022 594.122 287.811 593.858 287.659C593.645 287.536 593.405 287.504 593.138 287.565C592.87 287.625 592.542 287.768 592.153 287.993L591.351 288.455C591.067 288.619 590.895 288.795 590.834 288.983C590.78 289.17 590.862 289.327 591.082 289.454ZM587.028 286.463C587.336 286.641 587.649 286.742 587.967 286.765C588.288 286.787 588.593 286.714 588.88 286.548C589.171 286.38 589.294 286.206 589.251 286.024C589.207 285.842 589.031 285.663 588.723 285.485C588.039 285.09 587.417 285.055 586.855 285.379C586.287 285.708 586.345 286.069 587.028 286.463ZM593.269 281.864C592.941 282.053 592.789 282.262 592.813 282.491C592.833 282.717 593.021 282.949 593.376 283.185L595.548 281.931C595.159 281.715 594.765 281.602 594.366 281.594C593.963 281.585 593.598 281.675 593.269 281.864ZM598.268 284.498C597.354 285.025 596.389 285.292 595.37 285.297C594.352 285.303 593.381 285.04 592.458 284.506C591.507 283.958 591.01 283.397 590.966 282.825C590.922 282.249 591.319 281.719 592.158 281.234C592.96 280.771 593.812 280.543 594.716 280.549C595.619 280.555 596.473 280.79 597.278 281.255L598.029 281.688L594.371 283.8C594.827 284.045 595.301 284.168 595.792 284.17C596.282 284.171 596.747 284.046 597.187 283.792C597.529 283.594 597.816 283.387 598.05 283.171C598.283 282.954 598.488 282.705 598.664 282.424L599.861 283.115C599.726 283.349 599.536 283.574 599.293 283.789C599.053 284.005 598.711 284.242 598.268 284.498ZM602.997 280.344C603.268 280.187 603.533 279.966 603.794 279.679L604.946 280.344C604.733 280.666 604.345 280.989 603.784 281.313C603.165 281.671 602.557 281.842 601.962 281.826C601.367 281.806 600.756 281.616 600.13 281.255L597.395 279.676L596.654 280.103L596 279.725L596.334 278.935L595.583 277.985L596.573 277.414L597.781 278.111L599.369 277.194L600.531 277.865L598.943 278.782L601.678 280.361C601.898 280.488 602.121 280.547 602.348 280.537C602.578 280.525 602.794 280.461 602.997 280.344ZM606.722 274.965L607.24 274.666C607.723 274.387 607.991 274.123 608.041 273.875C608.089 273.625 607.93 273.395 607.564 273.184C607.196 272.971 606.822 272.872 606.443 272.888C606.067 272.902 605.665 273.033 605.235 273.281L604.52 273.694L606.722 274.965ZM609.097 272.235C609.895 272.696 610.255 273.193 610.178 273.726C610.103 274.257 609.606 274.788 608.686 275.32L608.011 275.709L610.65 277.232L609.076 278.141L601.658 273.858L604.027 272.49C604.927 271.97 605.805 271.688 606.661 271.643C607.517 271.594 608.329 271.791 609.097 272.235ZM619.083 272.364L618.013 272.091L617.972 272.115C618.04 272.454 617.999 272.742 617.85 272.976C617.701 273.206 617.405 273.45 616.962 273.705C616.418 274.02 615.832 274.178 615.206 274.18C614.584 274.18 613.985 274.014 613.41 273.682C612.808 273.334 612.574 272.957 612.71 272.551C612.845 272.141 613.322 271.682 614.141 271.174L615.095 270.588L614.846 270.445C614.271 270.113 613.689 270.117 613.101 270.457C612.647 270.718 612.251 271.105 611.913 271.617L610.355 271.309C610.666 270.735 611.22 270.218 612.015 269.759C612.776 269.32 613.525 269.079 614.263 269.036C615 268.993 615.707 269.167 616.384 269.557L620.164 271.74L619.083 272.364ZM615.998 271.11L615.42 271.467C614.983 271.735 614.729 271.975 614.658 272.188C614.587 272.401 614.704 272.595 615.009 272.771C615.445 273.023 615.914 273.004 616.414 272.715C616.773 272.508 616.955 272.284 616.962 272.041C616.972 271.797 616.807 271.577 616.465 271.379L615.998 271.11ZM624.036 267.559C624.618 267.895 624.858 268.268 624.757 268.678C624.659 269.087 624.207 269.523 623.402 269.988C622.989 270.226 622.608 270.413 622.26 270.547C621.915 270.684 621.561 270.794 621.199 270.878L619.921 270.14C620.344 270.052 620.78 269.931 621.23 269.777C621.683 269.621 622.047 269.463 622.321 269.305C622.882 268.981 623.001 268.725 622.676 268.538C622.554 268.467 622.419 268.432 622.27 268.432C622.118 268.43 621.903 268.455 621.626 268.506C621.345 268.554 620.988 268.63 620.555 268.731C619.936 268.878 619.445 268.965 619.083 268.995C618.725 269.022 618.398 269.005 618.104 268.945C617.81 268.88 617.515 268.763 617.221 268.593C616.717 268.302 616.522 267.966 616.637 267.583C616.752 267.196 617.169 266.796 617.886 266.382C618.569 265.987 619.383 265.689 620.327 265.488L620.976 266.402C620.57 266.496 620.205 266.592 619.88 266.689C619.555 266.787 619.264 266.91 619.007 267.058C618.551 267.322 618.446 267.525 618.693 267.668C618.831 267.748 619.024 267.775 619.271 267.75C619.521 267.722 619.995 267.623 620.692 267.451C621.314 267.299 621.807 267.208 622.169 267.178C622.531 267.149 622.862 267.165 623.163 267.225C623.464 267.286 623.755 267.397 624.036 267.559ZM629.202 264.577C629.784 264.913 630.024 265.286 629.922 265.696C629.824 266.104 629.373 266.541 628.568 267.006C628.155 267.244 627.774 267.43 627.426 267.565C627.081 267.702 626.727 267.812 626.365 267.896L625.086 267.158C625.509 267.07 625.946 266.949 626.396 266.795C626.849 266.638 627.213 266.481 627.487 266.323C628.048 265.999 628.167 265.743 627.842 265.556C627.72 265.485 627.585 265.45 627.436 265.45C627.284 265.448 627.069 265.473 626.791 265.523C626.511 265.572 626.154 265.647 625.721 265.749C625.102 265.895 624.611 265.983 624.249 266.013C623.891 266.04 623.564 266.023 623.27 265.963C622.975 265.898 622.681 265.781 622.387 265.611C621.883 265.32 621.688 264.983 621.803 264.6C621.918 264.214 622.334 263.813 623.052 263.399C623.735 263.005 624.549 262.707 625.492 262.506L626.142 263.42C625.736 263.514 625.371 263.609 625.046 263.707C624.721 263.805 624.43 263.928 624.173 264.076C623.716 264.34 623.611 264.543 623.858 264.685C623.997 264.766 624.19 264.793 624.437 264.767C624.687 264.74 625.161 264.641 625.858 264.469C626.48 264.316 626.972 264.226 627.334 264.196C627.696 264.167 628.028 264.183 628.329 264.243C628.63 264.304 628.921 264.415 629.202 264.577ZM636.758 262.16L634.337 261.267L631.242 260.159L631.206 260.18L634.662 263.37L632.998 264.331L625.711 261.987L627.253 261.097L630.42 262.169C630.975 262.368 631.702 262.665 632.602 263.06L632.632 263.042C632.389 262.886 632.04 262.616 631.587 262.233L631.237 261.938L629.217 259.963L630.922 258.979L634.307 260.165C634.395 260.2 634.525 260.252 634.698 260.32C634.873 260.387 635.058 260.46 635.251 260.54C635.44 260.618 635.624 260.697 635.804 260.777C635.983 260.854 636.122 260.918 636.22 260.971L636.25 260.953C636.037 260.795 635.758 260.571 635.413 260.282C635.065 259.991 634.833 259.793 634.718 259.688L632.886 257.845L634.403 256.969L638.442 261.188L636.758 262.16ZM639.381 257.359C639.943 257.683 640.459 257.875 640.929 257.936C641.403 257.994 641.847 257.904 642.264 257.663C642.676 257.425 642.83 257.172 642.725 256.905C642.62 256.633 642.286 256.334 641.721 256.008C641.159 255.684 640.647 255.494 640.183 255.437C639.72 255.38 639.28 255.472 638.864 255.712C638.451 255.951 638.294 256.204 638.392 256.471C638.486 256.737 638.816 257.033 639.381 257.359ZM643.304 255.094C644.227 255.627 644.706 256.185 644.74 256.767C644.774 257.349 644.356 257.891 643.487 258.393C642.942 258.707 642.343 258.916 641.69 259.02C641.034 259.121 640.371 259.108 639.701 258.979C639.031 258.85 638.399 258.614 637.803 258.27C636.876 257.735 636.397 257.179 636.367 256.603C636.337 256.027 636.759 255.486 637.636 254.98C638.18 254.666 638.779 254.457 639.432 254.353C640.085 254.25 640.745 254.261 641.411 254.388C642.078 254.515 642.708 254.751 643.304 255.094ZM644.816 250.835C645.026 250.714 645.215 250.622 645.384 250.559L646.719 251.465C646.56 251.517 646.391 251.595 646.212 251.699C645.718 251.984 645.459 252.28 645.435 252.587C645.415 252.891 645.633 253.175 646.09 253.439L648.977 255.106L647.429 255.999L641.756 252.724L642.928 252.048L644.111 252.467L644.187 252.423C644.045 252.137 644.026 251.853 644.131 251.57C644.236 251.283 644.464 251.038 644.816 250.835ZM654.047 252.297C653.38 252.681 652.597 252.835 651.697 252.757C650.801 252.676 649.894 252.372 648.977 251.843C648.047 251.305 647.516 250.776 647.384 250.255C647.252 249.729 647.526 249.27 648.206 248.878C648.92 248.466 649.742 248.312 650.672 248.415L650.723 248.386C650.222 248.187 649.806 247.991 649.474 247.8L647.658 246.751L649.211 245.855L657.106 250.413L655.919 251.098L654.884 250.847L654.818 250.885C655.024 251.41 654.767 251.881 654.047 252.297ZM653.356 251.271C653.752 251.043 653.926 250.809 653.879 250.571C653.835 250.331 653.546 250.047 653.011 249.719L652.844 249.622C652.235 249.27 651.704 249.073 651.25 249.03C650.801 248.985 650.364 249.085 649.941 249.329C649.596 249.528 649.474 249.768 649.576 250.05C649.677 250.327 650.007 250.627 650.565 250.949C651.124 251.271 651.64 251.458 652.113 251.509C652.583 251.557 652.998 251.478 653.356 251.271Z" fill="#D80A49"/>
<path d="M426.233 346.946C427.234 347.524 427.663 348.167 427.519 348.875C427.374 349.578 426.666 350.297 425.394 351.031L424.23 351.703L428.121 353.949L426.971 354.613L417.079 348.903L419.643 347.422C422.115 345.995 424.312 345.836 426.233 346.946ZM423.243 351.133L424.278 350.535C425.297 349.947 425.87 349.426 425.996 348.973C426.123 348.52 425.823 348.084 425.096 347.664C424.442 347.287 423.741 347.129 422.992 347.192C422.243 347.254 421.416 347.547 420.509 348.071L419.224 348.813L423.243 351.133ZM439.711 347.258L438.432 346.778L438.378 346.809C438.473 347.291 438.419 347.686 438.216 347.996C438.013 348.301 437.636 348.612 437.086 348.93C436.35 349.354 435.584 349.578 434.785 349.602C433.991 349.623 433.245 349.431 432.546 349.028C431.048 348.163 431.461 347.019 433.784 345.594L435.002 344.844L434.542 344.579C433.96 344.243 433.405 344.068 432.877 344.055C432.35 344.037 431.811 344.187 431.26 344.504C430.642 344.861 430.133 345.374 429.731 346.043L428.527 345.746C428.694 345.421 428.937 345.101 429.257 344.786C429.582 344.468 429.963 344.183 430.401 343.93C431.285 343.42 432.135 343.155 432.952 343.137C433.773 343.116 434.616 343.356 435.482 343.856L440.543 346.778L439.711 347.258ZM436.382 348.266C437.081 347.862 437.438 347.435 437.451 346.985C437.469 346.532 437.133 346.106 436.443 345.707L435.773 345.321L434.697 345.996C433.836 346.53 433.331 346.983 433.182 347.356C433.033 347.723 433.218 348.056 433.737 348.356C434.143 348.59 434.573 348.698 435.029 348.68C435.489 348.659 435.94 348.521 436.382 348.266ZM445.624 341.508C446.315 341.907 446.59 342.363 446.45 342.876C446.31 343.389 445.775 343.913 444.846 344.45C443.863 345.017 442.941 345.37 442.079 345.508L441.037 344.907C441.574 344.805 442.097 344.667 442.607 344.493C443.121 344.316 443.568 344.118 443.946 343.899C444.533 343.56 444.891 343.247 445.022 342.958C445.149 342.666 445.02 342.409 444.637 342.188C444.348 342.021 443.976 341.952 443.52 341.981C443.065 342.005 442.334 342.145 441.328 342.403C440.381 342.653 439.666 342.808 439.183 342.868C438.701 342.922 438.265 342.921 437.877 342.864C437.494 342.804 437.133 342.676 436.795 342.481C436.19 342.132 435.96 341.715 436.105 341.231C436.244 340.744 436.743 340.253 437.6 339.759C438.398 339.298 439.341 338.941 440.428 338.688L440.942 339.446C439.891 339.699 439.064 339.999 438.459 340.348C437.927 340.656 437.609 340.936 437.505 341.188C437.401 341.441 437.496 341.652 437.789 341.821C437.988 341.936 438.207 342.005 438.446 342.028C438.689 342.049 438.987 342.031 439.339 341.973C439.691 341.916 440.306 341.771 441.186 341.54C442.386 341.217 443.301 341.061 443.933 341.071C444.569 341.079 445.133 341.225 445.624 341.508ZM452.242 337.688C452.932 338.087 453.207 338.543 453.067 339.056C452.927 339.568 452.393 340.093 451.463 340.63C450.48 341.197 449.558 341.55 448.696 341.688L447.654 341.087C448.191 340.985 448.714 340.847 449.224 340.673C449.738 340.496 450.185 340.298 450.564 340.079C451.15 339.74 451.509 339.427 451.639 339.138C451.766 338.846 451.637 338.589 451.254 338.368C450.965 338.201 450.593 338.132 450.137 338.161C449.682 338.184 448.951 338.325 447.945 338.583C446.998 338.833 446.283 338.988 445.8 339.048C445.318 339.102 444.882 339.101 444.494 339.044C444.111 338.984 443.75 338.856 443.412 338.661C442.807 338.312 442.577 337.895 442.722 337.411C442.862 336.924 443.36 336.433 444.217 335.939C445.015 335.478 445.958 335.121 447.045 334.868L447.559 335.626C446.508 335.879 445.681 336.179 445.076 336.528C444.544 336.836 444.226 337.116 444.122 337.368C444.019 337.621 444.113 337.832 444.407 338.001C444.605 338.115 444.824 338.184 445.063 338.208C445.306 338.229 445.604 338.211 445.956 338.153C446.308 338.096 446.923 337.951 447.803 337.72C449.003 337.397 449.919 337.241 450.55 337.251C451.186 337.259 451.75 337.405 452.242 337.688ZM462.154 334.302L456.443 332.575C456.091 332.471 455.327 332.215 454.15 331.806L454.095 331.837C454.704 332.397 455.155 332.84 455.449 333.165L458.385 336.478L457.086 337.227L447.647 334.114L448.825 333.435C451.166 334.234 452.947 334.844 454.17 335.263C455.397 335.679 456.197 335.975 456.572 336.149L456.626 336.118C456.418 335.941 456.166 335.704 455.868 335.407C455.57 335.105 455.343 334.862 455.185 334.677L452.289 331.435L453.507 330.732L459.089 332.423C460.117 332.725 460.94 333.003 461.558 333.255L461.612 333.224C461.468 333.12 461.265 332.948 461.003 332.708C460.746 332.466 459.398 331.143 456.957 328.74L458.121 328.068L463.487 333.532L462.154 334.302ZM469.569 325.732C470.778 326.43 471.419 327.151 471.491 327.896C471.558 328.638 471.055 329.319 469.982 329.939C469.319 330.322 468.575 330.572 467.749 330.689C466.924 330.806 466.08 330.777 465.219 330.603C464.357 330.428 463.536 330.116 462.756 329.665C461.547 328.968 460.909 328.25 460.841 327.513C460.769 326.774 461.27 326.094 462.343 325.474C463.381 324.875 464.549 324.599 465.848 324.646C467.151 324.691 468.392 325.053 469.569 325.732ZM463.92 328.994C464.867 329.541 465.778 329.848 466.653 329.915C467.528 329.983 468.333 329.805 469.068 329.38C469.804 328.956 470.115 328.492 470.002 327.99C469.889 327.482 469.357 326.953 468.405 326.404C467.463 325.86 466.556 325.558 465.685 325.498C464.815 325.433 464.008 325.615 463.263 326.045C462.528 326.469 462.215 326.929 462.323 327.423C462.431 327.918 462.963 328.442 463.92 328.994ZM471.091 320.424C471.421 320.234 471.743 320.079 472.059 319.959L472.945 320.65C472.571 320.788 472.267 320.925 472.032 321.061C471.432 321.407 471.161 321.844 471.22 322.373C471.283 322.899 471.678 323.372 472.404 323.791L476.382 326.088L475.259 326.736L467.844 322.455L468.771 321.92L470.273 322.639L470.327 322.607C470.119 322.17 470.079 321.764 470.205 321.389C470.331 321.014 470.627 320.692 471.091 320.424ZM484.969 319.983L484.908 320.018C485.142 320.752 484.743 321.417 483.71 322.014C482.74 322.574 481.653 322.818 480.449 322.748C479.249 322.675 478.038 322.286 476.816 321.58C475.593 320.874 474.914 320.17 474.779 319.467C474.644 318.764 475.059 318.134 476.024 317.576C477.03 316.996 478.166 316.761 479.434 316.873L479.522 316.823L478.94 316.541L478.392 316.256L475.374 314.514L476.498 313.866L487.025 319.943L486.112 320.471L484.969 319.983ZM482.912 321.389C483.678 320.946 484.026 320.506 483.954 320.068C483.881 319.626 483.381 319.136 482.452 318.6L482.215 318.463C481.164 317.856 480.239 317.526 479.441 317.471C478.642 317.411 477.86 317.602 477.093 318.045C476.434 318.425 476.186 318.865 476.349 319.365C476.511 319.86 477.059 320.377 477.993 320.916C478.94 321.463 479.829 321.775 480.659 321.854C481.489 321.932 482.24 321.777 482.912 321.389Z" fill="#C2C2C2"/>
<line y1="-0.5" x2="248.21" y2="-0.5" transform="matrix(0.866044 -0.499967 0.866044 0.499967 394.624 335.877)" stroke="#878789"/>
<line y1="-0.5" x2="247.393" y2="-0.5" transform="matrix(0.866044 -0.499967 0.866044 0.499967 433.515 357.512)" stroke="#878789"/>
<g clip-path="url(#clip1)">
<path d="M349.723 270.767C350.7 271.331 350.7 272.244 349.723 272.808L340.531 278.115C339.555 278.678 337.972 278.679 336.995 278.115L327.803 272.808C326.826 272.244 326.827 271.331 327.803 270.767L336.995 265.46C337.972 264.897 339.554 264.897 340.531 265.46L349.723 270.767Z" fill="#0A5CD8"/>
<path d="M342.782 269.876L341.591 270.563L346.188 273.216L344.42 274.237L339.824 271.583L338.763 272.196L337.349 271.379L338.409 270.767L337.557 270.275C336.318 269.559 336.097 268.836 337.558 267.993L338.763 267.297L340.177 268.114L339.369 268.58C338.8 268.909 338.975 269.053 339.372 269.282L340.177 269.747L341.591 268.93L342.782 269.876Z" fill="white"/>
</g>
<g clip-path="url(#clip2)">
<path d="M461.705 198.189L461.207 198.477L461.181 198.462L455.612 201.677L458.087 203.106L461.584 201.087C462.515 202.213 462.178 203.602 460.562 204.535C458.512 205.718 455.188 205.718 453.138 204.535C451.087 203.351 451.087 201.432 453.138 200.248C454.084 199.702 455.302 199.411 456.54 199.369L456.54 197.349C454.406 197.392 452.292 197.879 450.663 198.82C447.246 200.792 447.246 203.991 450.663 205.963C454.08 207.936 459.62 207.936 463.037 205.963C466.454 203.991 466.454 200.792 463.037 198.82C462.622 198.58 462.175 198.371 461.705 198.189Z" fill="#FBC02D"/>
<path d="M448.496 203.889L452.02 203.576C451.208 202.472 451.579 201.148 453.138 200.248C454.084 199.702 455.302 199.411 456.54 199.369L456.54 197.349C454.406 197.392 452.292 197.879 450.663 198.82C448.286 200.191 447.567 202.156 448.496 203.889Z" fill="#E53935"/>
<path d="M463.037 205.963C464.635 205.041 465.476 203.849 465.579 202.641L462.044 202.811C461.893 203.442 461.402 204.05 460.562 204.535C458.953 205.464 456.56 205.66 454.613 205.131L454.15 207.193C457.178 207.758 460.632 207.351 463.037 205.963Z" fill="#4CAF50"/>
<path d="M461.705 198.189L461.674 198.178L461.181 198.462L455.612 201.677L458.087 203.106L461.584 201.087C462.031 201.628 462.183 202.23 462.043 202.812C462.043 202.812 462.043 202.811 462.043 202.811L465.579 202.641C465.566 202.79 466.131 200.605 463.037 198.82C462.622 198.58 462.175 198.371 461.705 198.189Z" fill="#0A5CD8"/>
</g>
<path d="M357.066 266.505L356.348 266.92L350.165 263.351L353.612 261.362L354.25 261.73L351.523 263.305L353.785 264.611L356.348 263.131L356.986 263.5L354.424 264.98L357.066 266.505ZM363.566 262.753L362.767 262.453L362.733 262.472C362.792 262.773 362.758 263.021 362.631 263.214C362.505 263.405 362.269 263.599 361.925 263.798C361.466 264.063 360.986 264.203 360.488 264.218C359.991 264.231 359.525 264.111 359.088 263.859C358.152 263.319 358.41 262.603 359.862 261.713L360.623 261.244L360.335 261.078C359.972 260.868 359.625 260.759 359.295 260.751C358.965 260.74 358.628 260.833 358.284 261.032C357.898 261.255 357.58 261.576 357.329 261.994L356.576 261.808C356.68 261.605 356.832 261.405 357.033 261.208C357.236 261.009 357.474 260.831 357.747 260.673C358.3 260.354 358.831 260.189 359.342 260.178C359.855 260.165 360.382 260.314 360.923 260.627L364.086 262.453L363.566 262.753ZM361.485 263.383C361.922 263.131 362.145 262.864 362.154 262.582C362.165 262.299 361.955 262.033 361.524 261.784L361.105 261.542L360.433 261.965C359.894 262.298 359.578 262.581 359.485 262.814C359.392 263.044 359.508 263.252 359.832 263.439C360.086 263.586 360.355 263.653 360.64 263.642C360.927 263.629 361.209 263.542 361.485 263.383ZM367.473 260.595C366.802 260.982 366.076 261.164 365.296 261.139C364.515 261.112 363.746 260.88 362.991 260.444C362.216 259.996 361.803 259.543 361.752 259.084C361.704 258.623 362.025 258.194 362.716 257.795C362.939 257.666 363.185 257.552 363.456 257.451C363.727 257.35 363.958 257.281 364.15 257.246L364.53 257.714C364.313 257.768 364.093 257.836 363.87 257.919C363.645 258.001 363.462 258.082 363.321 258.164C362.379 258.707 362.509 259.326 363.71 260.019C364.279 260.348 364.83 260.534 365.363 260.578C365.899 260.62 366.392 260.511 366.843 260.251C367.23 260.028 367.542 259.751 367.782 259.421L368.404 259.78C368.254 260.051 367.944 260.323 367.473 260.595ZM371.706 258.151C371.021 258.547 370.271 258.739 369.457 258.727C368.645 258.714 367.868 258.494 367.127 258.066C366.38 257.635 365.969 257.186 365.896 256.721C365.826 256.254 366.1 255.841 366.721 255.483C367.301 255.148 367.953 254.993 368.674 255.019C369.393 255.044 370.066 255.236 370.691 255.598L371.135 255.854L367.943 257.697C368.501 258.003 369.051 258.163 369.592 258.176C370.136 258.187 370.645 258.056 371.119 257.783C371.618 257.495 372.007 257.15 372.286 256.748L372.912 257.109C372.771 257.314 372.611 257.494 372.434 257.648C372.262 257.803 372.019 257.971 371.706 258.151ZM367.3 255.827C366.928 256.042 366.752 256.284 366.771 256.552C366.794 256.819 367 257.088 367.389 257.358L369.812 255.959C369.369 255.704 368.932 255.565 368.501 255.544C368.067 255.521 367.666 255.616 367.3 255.827ZM371.973 252.461C372.582 252.109 373.263 251.957 374.015 252.004C374.768 252.048 375.525 252.29 376.286 252.729C377.047 253.169 377.469 253.609 377.55 254.05C377.632 254.488 377.371 254.881 376.768 255.229C376.466 255.403 376.135 255.531 375.774 255.612C375.414 255.691 375.033 255.712 374.633 255.676L374.582 255.705L375.03 256.135L374.527 256.425L367.947 252.627L368.649 252.222L370.247 253.144C370.605 253.351 370.916 253.543 371.178 253.72L371.212 253.701C371.076 253.245 371.33 252.832 371.973 252.461ZM372.459 252.859C371.98 253.135 371.773 253.415 371.837 253.696C371.899 253.976 372.256 254.304 372.907 254.68C373.559 255.056 374.134 255.263 374.633 255.3C375.129 255.336 375.616 255.215 376.096 254.939C376.527 254.69 376.692 254.414 376.591 254.111C376.486 253.807 376.139 253.484 375.55 253.144C374.947 252.796 374.392 252.598 373.884 252.549C373.377 252.5 372.902 252.603 372.459 252.859ZM381.517 249.71C382.273 250.146 382.673 250.596 382.718 251.062C382.76 251.526 382.446 251.951 381.775 252.339C381.361 252.578 380.895 252.734 380.379 252.807C379.864 252.881 379.336 252.863 378.798 252.754C378.259 252.645 377.746 252.449 377.259 252.168C376.503 251.732 376.104 251.283 376.062 250.823C376.017 250.361 376.33 249.936 377.001 249.548C377.649 249.174 378.379 249.002 379.191 249.031C380.006 249.059 380.781 249.285 381.517 249.71ZM377.986 251.748C378.578 252.09 379.147 252.282 379.694 252.324C380.241 252.366 380.745 252.255 381.204 251.99C381.664 251.724 381.858 251.435 381.788 251.121C381.717 250.803 381.384 250.473 380.79 250.129C380.2 249.789 379.634 249.6 379.09 249.563C378.546 249.522 378.041 249.636 377.576 249.905C377.116 250.17 376.92 250.457 376.988 250.767C377.056 251.076 377.388 251.403 377.986 251.748ZM386.752 246.687C387.508 247.123 387.908 247.574 387.953 248.04C387.995 248.504 387.681 248.929 387.01 249.316C386.596 249.556 386.131 249.712 385.615 249.785C385.099 249.858 384.572 249.841 384.033 249.731C383.495 249.622 382.982 249.427 382.494 249.146C381.738 248.709 381.339 248.261 381.297 247.8C381.252 247.338 381.565 246.913 382.236 246.526C382.884 246.152 383.614 245.979 384.426 246.009C385.241 246.036 386.016 246.262 386.752 246.687ZM383.221 248.726C383.813 249.067 384.383 249.26 384.93 249.302C385.476 249.344 385.98 249.233 386.439 248.967C386.899 248.702 387.093 248.412 387.023 248.098C386.952 247.781 386.62 247.451 386.025 247.107C385.436 246.767 384.869 246.578 384.325 246.541C383.781 246.5 383.276 246.614 382.811 246.883C382.351 247.148 382.156 247.435 382.223 247.744C382.291 248.054 382.624 248.381 383.221 248.726ZM388.63 245.545C388.579 245.375 388.538 245.139 388.507 244.834L388.418 243.055L389.251 242.574L389.349 244.798L394.017 245.174L393.167 245.664L389.34 245.345L389.268 245.913L391.002 246.914L390.309 247.315L383.729 243.516L384.422 243.116L387.911 245.13C388.066 245.219 388.294 245.364 388.596 245.564L388.63 245.545Z" fill="#1D1D1B"/>
<path d="M480.348 190.778L482.45 189.565L485.456 191.301C485.234 191.55 484.98 191.788 484.695 192.014C484.41 192.24 484.045 192.482 483.6 192.739C482.664 193.279 481.657 193.54 480.581 193.52C479.501 193.499 478.459 193.199 477.456 192.619C476.813 192.248 476.379 191.849 476.153 191.423C475.928 190.993 475.93 190.565 476.162 190.139C476.39 189.711 476.83 189.309 477.481 188.933C478.141 188.552 478.876 188.267 479.688 188.078L480.044 188.606C479.249 188.791 478.593 189.033 478.077 189.331C477.324 189.765 476.961 190.234 476.986 190.737C477.012 191.24 477.422 191.721 478.217 192.18C479.051 192.662 479.887 192.91 480.724 192.924C481.564 192.937 482.379 192.716 483.169 192.26C483.597 192.013 483.966 191.743 484.276 191.45L482.374 190.351L480.991 191.15L480.348 190.778ZM488.75 186.987C489.506 187.423 489.906 187.874 489.951 188.34C489.994 188.804 489.679 189.229 489.008 189.616C488.594 189.856 488.129 190.012 487.613 190.085C487.097 190.158 486.57 190.141 486.031 190.031C485.493 189.922 484.98 189.727 484.492 189.446C483.737 189.009 483.338 188.561 483.295 188.1C483.25 187.638 483.563 187.213 484.234 186.826C484.883 186.452 485.613 186.279 486.425 186.309C487.239 186.336 488.015 186.562 488.75 186.987ZM485.219 189.026C485.812 189.367 486.381 189.56 486.928 189.602C487.475 189.644 487.978 189.533 488.438 189.267C488.897 189.002 489.092 188.712 489.021 188.398C488.951 188.081 488.618 187.751 488.023 187.407C487.434 187.067 486.867 186.878 486.323 186.841C485.779 186.8 485.274 186.914 484.809 187.183C484.35 187.448 484.154 187.735 484.222 188.044C484.289 188.354 484.622 188.681 485.219 189.026ZM493.986 183.965C494.741 184.401 495.142 184.852 495.187 185.317C495.229 185.781 494.915 186.207 494.244 186.594C493.829 186.833 493.364 186.99 492.848 187.063C492.332 187.136 491.805 187.118 491.267 187.009C490.728 186.9 490.215 186.705 489.727 186.423C488.972 185.987 488.573 185.539 488.531 185.078C488.485 184.616 488.798 184.191 489.469 183.804C490.118 183.43 490.848 183.257 491.66 183.286C492.475 183.314 493.25 183.54 493.986 183.965ZM490.455 186.003C491.047 186.345 491.616 186.537 492.163 186.58C492.71 186.622 493.213 186.51 493.673 186.245C494.132 185.98 494.327 185.69 494.256 185.376C494.186 185.059 493.853 184.728 493.258 184.385C492.669 184.045 492.102 183.856 491.558 183.819C491.014 183.778 490.51 183.892 490.044 184.16C489.585 184.426 489.389 184.713 489.457 185.022C489.524 185.331 489.857 185.658 490.455 186.003ZM496.7 179.727L497.145 179.983L496.388 180.537C496.565 180.549 496.765 180.583 496.988 180.64C497.208 180.695 497.418 180.781 497.618 180.896C498.072 181.158 498.279 181.457 498.24 181.792C498.2 182.128 497.91 182.451 497.369 182.764C497.231 182.844 497.09 182.912 496.946 182.969C496.805 183.233 496.854 183.434 497.094 183.572C497.221 183.645 497.367 183.67 497.534 183.645C497.697 183.619 497.906 183.533 498.159 183.386L498.98 182.913C499.482 182.623 499.972 182.462 500.451 182.429C500.933 182.395 501.376 182.495 501.779 182.727C502.292 183.023 502.477 183.368 502.333 183.76C502.192 184.154 501.727 184.579 500.938 185.034C500.332 185.384 499.751 185.589 499.195 185.649C498.643 185.708 498.161 185.619 497.749 185.381C497.467 185.218 497.314 185.025 497.288 184.802C497.263 184.579 497.377 184.352 497.631 184.121C497.459 184.159 497.276 184.168 497.081 184.151C496.889 184.131 496.719 184.078 496.569 183.992C496.4 183.894 496.297 183.783 496.261 183.657C496.224 183.532 496.244 183.379 496.32 183.198C495.982 183.28 495.618 183.296 495.229 183.247C494.843 183.197 494.497 183.084 494.193 182.908C493.685 182.615 493.447 182.302 493.478 181.968C493.506 181.633 493.8 181.304 494.358 180.982C494.6 180.842 494.847 180.732 495.098 180.652L496.7 179.727ZM498.417 184.985C498.668 185.13 498.964 185.179 499.305 185.132C499.647 185.085 500.014 184.947 500.409 184.719C500.998 184.379 501.345 184.076 501.449 183.811C501.559 183.546 501.463 183.326 501.162 183.152C500.911 183.007 500.659 182.951 500.405 182.984C500.154 183.018 499.814 183.159 499.386 183.406L498.544 183.892C498.226 184.076 498.054 184.263 498.028 184.453C498.003 184.644 498.133 184.821 498.417 184.985ZM494.869 182.498C495.194 182.685 495.531 182.774 495.88 182.764C496.23 182.754 496.568 182.655 496.895 182.466C497.58 182.071 497.59 181.681 496.925 181.297C496.228 180.895 495.533 180.894 494.84 181.294C494.51 181.485 494.345 181.682 494.345 181.887C494.345 182.093 494.52 182.296 494.869 182.498ZM502.989 181.448L502.287 181.853L495.707 178.055L496.409 177.649L502.989 181.448ZM506.52 179.507C505.835 179.903 505.085 180.095 504.27 180.083C503.458 180.07 502.681 179.85 501.94 179.422C501.193 178.991 500.783 178.542 500.709 178.077C500.639 177.61 500.914 177.197 501.534 176.839C502.115 176.504 502.766 176.349 503.488 176.375C504.206 176.4 504.879 176.592 505.505 176.954L505.949 177.21L502.756 179.053C503.314 179.359 503.864 179.519 504.405 179.532C504.949 179.543 505.458 179.412 505.932 179.139C506.431 178.851 506.82 178.506 507.099 178.104L507.725 178.465C507.584 178.67 507.425 178.85 507.247 179.004C507.075 179.159 506.833 179.327 506.52 179.507ZM502.113 177.183C501.741 177.398 501.565 177.64 501.585 177.908C501.607 178.175 501.813 178.444 502.202 178.714L504.625 177.315C504.183 177.06 503.746 176.921 503.314 176.9C502.88 176.877 502.48 176.972 502.113 177.183Z" fill="#1D1D1B"/>
<path d="M453.584 249.236C454.793 249.934 455.433 250.655 455.505 251.4C455.573 252.142 455.07 252.823 453.997 253.443C453.334 253.825 452.589 254.075 451.764 254.192C450.938 254.31 450.095 254.281 449.233 254.107C448.372 253.932 447.551 253.62 446.771 253.169C445.562 252.471 444.924 251.754 444.856 251.017C444.784 250.277 445.284 249.598 446.358 248.978C447.395 248.379 448.564 248.103 449.863 248.15C451.166 248.194 452.407 248.556 453.584 249.236ZM447.934 252.497C448.882 253.044 449.793 253.351 450.668 253.419C451.543 253.487 452.348 253.308 453.083 252.884C453.819 252.46 454.13 251.996 454.017 251.493C453.904 250.986 453.372 250.457 452.42 249.908C451.477 249.363 450.571 249.061 449.7 249.001C448.83 248.936 448.022 249.119 447.278 249.548C446.543 249.973 446.229 250.432 446.338 250.927C446.446 251.422 446.978 251.945 447.934 252.497ZM455.106 243.928C455.436 243.737 455.758 243.582 456.074 243.463L456.96 244.154C456.586 244.292 456.281 244.429 456.047 244.564C455.447 244.911 455.176 245.348 455.235 245.877C455.298 246.403 455.693 246.875 456.419 247.294L460.397 249.591L459.274 250.24L451.859 245.959L452.786 245.424L454.288 246.142L454.342 246.111C454.134 245.673 454.094 245.267 454.22 244.892C454.346 244.517 454.642 244.196 455.106 243.928Z" fill="#C2C2C2"/>
<path d="M575.224 406.802C576.449 407.509 577.053 408.242 577.036 409.002C577.019 409.758 576.386 410.496 575.138 411.216L573.083 412.403L565.664 408.12L567.937 406.808C569.091 406.142 570.307 405.809 571.586 405.809C572.865 405.809 574.078 406.14 575.224 406.802ZM574.341 407.347C573.374 406.788 572.401 406.508 571.424 406.506C570.449 406.502 569.483 406.776 568.526 407.329L567.273 408.053L573.2 411.474L574.25 410.868C575.278 410.274 575.799 409.682 575.813 409.093C575.823 408.501 575.333 407.919 574.341 407.347ZM582.552 403.72C583.459 404.243 583.939 404.784 583.993 405.343C584.044 405.899 583.667 406.41 582.861 406.875C582.364 407.162 581.806 407.349 581.187 407.437C580.568 407.525 579.935 407.504 579.289 407.373C578.643 407.242 578.027 407.008 577.442 406.67C576.535 406.146 576.057 405.608 576.006 405.056C575.952 404.501 576.327 403.991 577.132 403.526C577.91 403.077 578.787 402.87 579.761 402.905C580.739 402.939 581.669 403.21 582.552 403.72ZM578.315 406.166C579.025 406.576 579.709 406.807 580.365 406.857C581.021 406.908 581.625 406.774 582.176 406.456C582.728 406.138 582.961 405.79 582.877 405.413C582.792 405.032 582.393 404.636 581.679 404.224C580.972 403.816 580.292 403.589 579.639 403.544C578.986 403.495 578.381 403.632 577.823 403.954C577.271 404.273 577.036 404.617 577.117 404.988C577.198 405.359 577.598 405.752 578.315 406.166ZM590.625 402.276L587.028 400.199C586.574 399.937 586.133 399.801 585.703 399.791C585.274 399.782 584.839 399.904 584.399 400.158C583.817 400.493 583.548 400.83 583.592 401.168C583.636 401.506 584.02 401.884 584.744 402.302L587.662 403.986L586.82 404.473L581.258 401.262L581.943 400.866L582.841 401.227L582.882 401.203C582.78 400.946 582.811 400.684 582.973 400.418C583.132 400.151 583.403 399.907 583.785 399.686C584.455 399.299 585.121 399.102 585.784 399.094C586.444 399.084 587.129 399.285 587.84 399.695L591.468 401.789L590.625 402.276ZM586.459 396.115L586.647 396.135C586.897 396.381 587.165 396.682 587.449 397.038C587.73 397.391 587.973 397.731 588.18 398.057L587.56 398.415C586.833 397.721 586.158 397.132 585.536 396.648L586.459 396.115ZM596.172 398.388C596.321 398.302 596.454 398.213 596.573 398.122C596.688 398.028 596.774 397.951 596.831 397.89L597.476 398.262C597.429 398.34 597.329 398.439 597.177 398.558C597.031 398.677 596.887 398.778 596.745 398.86C595.669 399.481 594.565 399.464 593.432 398.81L590.123 396.9L589.326 397.36L588.92 397.126L589.367 396.463L588.535 395.573L589.022 395.292L590.311 396.036L591.924 395.104L592.579 395.482L590.965 396.414L594.238 398.303C594.573 398.497 594.91 398.599 595.248 398.611C595.587 398.623 595.894 398.548 596.172 398.388ZM605.149 393.891L601.551 391.814C601.097 391.553 600.656 391.417 600.226 391.407C599.797 391.397 599.362 391.519 598.922 391.773C598.337 392.111 598.068 392.45 598.115 392.79C598.166 393.128 598.553 393.506 599.277 393.924L602.185 395.602L601.343 396.088L593.447 391.53L594.289 391.044L596.679 392.424C596.967 392.59 597.192 392.735 597.354 392.86L597.405 392.831C597.303 392.581 597.329 392.324 597.481 392.06C597.633 391.793 597.906 391.546 598.298 391.319C598.978 390.927 599.65 390.727 600.313 390.719C600.976 390.707 601.659 390.904 602.363 391.31L605.991 393.405L605.149 393.891ZM611.147 390.429L610.188 390.068L610.147 390.092C610.218 390.453 610.177 390.75 610.025 390.982C609.873 391.211 609.59 391.444 609.178 391.683C608.626 392.001 608.051 392.169 607.452 392.186C606.857 392.202 606.297 392.058 605.773 391.756C604.65 391.107 604.959 390.249 606.701 389.181L607.615 388.618L607.27 388.419C606.833 388.167 606.417 388.036 606.021 388.027C605.626 388.013 605.221 388.125 604.809 388.363C604.345 388.631 603.963 389.016 603.662 389.518L602.758 389.295C602.884 389.051 603.066 388.811 603.307 388.574C603.55 388.336 603.836 388.122 604.164 387.933C604.827 387.55 605.465 387.352 606.077 387.338C606.693 387.322 607.326 387.502 607.975 387.877L611.771 390.068L611.147 390.429ZM608.65 391.185C609.174 390.882 609.442 390.562 609.452 390.224C609.465 389.884 609.213 389.565 608.696 389.266L608.193 388.976L607.386 389.482C606.74 389.883 606.361 390.223 606.25 390.502C606.138 390.777 606.277 391.027 606.666 391.252C606.97 391.428 607.293 391.509 607.635 391.495C607.98 391.479 608.318 391.376 608.65 391.185ZM614.729 388.36L607.057 386.368L607.96 385.847L612.456 387.06C613.498 387.349 614.157 387.546 614.435 387.652L614.475 387.628C614.333 387.503 614.08 387.222 613.714 386.784C613.349 386.343 612.564 385.376 611.36 383.884L612.263 383.363L615.714 387.792L614.729 388.36ZM621.169 384.76C620.347 385.235 619.447 385.465 618.469 385.451C617.495 385.436 616.563 385.171 615.673 384.658C614.777 384.14 614.284 383.602 614.196 383.043C614.112 382.483 614.442 381.988 615.186 381.558C615.883 381.156 616.664 380.97 617.53 381.002C618.393 381.031 619.2 381.262 619.951 381.696L620.484 382.003L616.652 384.215C617.322 384.582 617.982 384.774 618.631 384.789C619.284 384.803 619.895 384.646 620.463 384.318C621.062 383.972 621.529 383.558 621.864 383.076L622.615 383.509C622.446 383.755 622.255 383.971 622.042 384.157C621.835 384.342 621.544 384.543 621.169 384.76ZM615.881 381.971C615.435 382.229 615.223 382.519 615.247 382.841C615.274 383.162 615.521 383.484 615.988 383.808L618.895 382.129C618.364 381.823 617.84 381.657 617.322 381.631C616.801 381.604 616.321 381.717 615.881 381.971ZM630.673 379.156L629.714 378.796L629.674 378.819C629.745 379.18 629.704 379.477 629.552 379.71C629.399 379.938 629.117 380.172 628.704 380.41C628.153 380.728 627.578 380.896 626.979 380.914C626.384 380.929 625.824 380.786 625.299 380.483C624.176 379.835 624.486 378.976 626.228 377.908L627.141 377.346L626.796 377.146C626.36 376.894 625.944 376.764 625.548 376.754C625.152 376.74 624.748 376.852 624.335 377.091C623.872 377.358 623.489 377.743 623.188 378.245L622.285 378.022C622.41 377.778 622.593 377.538 622.833 377.302C623.077 377.063 623.363 376.85 623.691 376.66C624.354 376.277 624.991 376.079 625.604 376.065C626.219 376.05 626.852 376.229 627.502 376.604L631.297 378.796L630.673 379.156ZM628.177 379.912C628.701 379.609 628.968 379.289 628.978 378.951C628.992 378.611 628.74 378.292 628.222 377.993L627.72 377.703L626.913 378.21C626.267 378.61 625.888 378.95 625.776 379.229C625.665 379.505 625.803 379.755 626.192 379.979C626.497 380.155 626.82 380.236 627.162 380.222C627.507 380.207 627.845 380.103 628.177 379.912ZM636.844 375.594L633.246 373.517C632.793 373.255 632.351 373.119 631.922 373.11C631.492 373.1 631.057 373.222 630.617 373.476C630.035 373.812 629.767 374.149 629.811 374.486C629.855 374.824 630.238 375.202 630.962 375.62L633.88 377.305L633.038 377.791L627.476 374.58L628.161 374.185L629.06 374.545L629.1 374.522C628.999 374.264 629.029 374.002 629.191 373.736C629.35 373.469 629.621 373.225 630.003 373.004C630.673 372.617 631.34 372.42 632.003 372.412C632.662 372.403 633.347 372.603 634.058 373.013L637.686 375.107L636.844 375.594ZM645.541 370.573L644.582 370.212L644.542 370.236C644.613 370.597 644.572 370.894 644.42 371.126C644.268 371.355 643.985 371.588 643.573 371.826C643.021 372.145 642.446 372.313 641.847 372.33C641.252 372.346 640.692 372.202 640.168 371.9C639.044 371.251 639.354 370.393 641.096 369.325L642.01 368.762L641.665 368.563C641.228 368.311 640.812 368.18 640.416 368.17C640.02 368.157 639.616 368.269 639.203 368.507C638.74 368.775 638.358 369.16 638.057 369.662L637.153 369.439C637.278 369.195 637.461 368.955 637.701 368.718C637.945 368.48 638.231 368.266 638.559 368.077C639.222 367.694 639.86 367.496 640.472 367.482C641.088 367.466 641.72 367.646 642.37 368.021L646.166 370.212L645.541 370.573ZM643.045 371.328C643.569 371.026 643.836 370.705 643.847 370.368C643.86 370.028 643.608 369.708 643.09 369.41L642.588 369.12L641.781 369.626C641.135 370.027 640.756 370.367 640.645 370.646C640.533 370.921 640.672 371.171 641.061 371.396C641.365 371.572 641.688 371.653 642.03 371.639C642.375 371.623 642.713 371.52 643.045 371.328ZM650.23 367.983C649.425 368.448 648.554 368.665 647.617 368.636C646.68 368.603 645.758 368.325 644.851 367.801C643.921 367.264 643.425 366.72 643.364 366.17C643.307 365.617 643.693 365.101 644.521 364.623C644.789 364.468 645.085 364.331 645.409 364.21C645.734 364.089 646.012 364.007 646.242 363.964L646.698 364.526C646.438 364.591 646.174 364.673 645.907 364.772C645.636 364.87 645.416 364.967 645.247 365.065C644.117 365.717 644.273 366.46 645.714 367.292C646.397 367.686 647.059 367.91 647.698 367.962C648.341 368.013 648.933 367.882 649.474 367.57C649.938 367.302 650.313 366.97 650.601 366.574L651.347 367.004C651.167 367.331 650.795 367.657 650.23 367.983ZM655.183 365.124C654.378 365.589 653.507 365.806 652.57 365.777C651.632 365.744 650.711 365.465 649.804 364.942C648.874 364.405 648.378 363.861 648.317 363.31C648.26 362.758 648.645 362.242 649.474 361.764C649.741 361.609 650.037 361.472 650.362 361.351C650.687 361.229 650.964 361.147 651.194 361.104L651.651 361.667C651.391 361.731 651.127 361.813 650.859 361.913C650.589 362.011 650.369 362.108 650.2 362.206C649.07 362.858 649.225 363.6 650.667 364.432C651.35 364.827 652.011 365.05 652.651 365.103C653.294 365.154 653.886 365.023 654.427 364.711C654.89 364.443 655.266 364.111 655.553 363.715L656.299 364.145C656.12 364.471 655.748 364.798 655.183 365.124ZM659.826 359.109C660.733 359.633 661.213 360.174 661.267 360.732C661.318 361.289 660.941 361.8 660.136 362.265C659.638 362.552 659.08 362.739 658.461 362.827C657.842 362.915 657.209 362.893 656.563 362.763C655.917 362.632 655.301 362.397 654.716 362.059C653.809 361.536 653.331 360.998 653.28 360.445C653.226 359.891 653.601 359.381 654.407 358.916C655.185 358.467 656.061 358.26 657.035 358.295C658.013 358.328 658.943 358.6 659.826 359.109ZM655.589 361.556C656.299 361.966 656.983 362.196 657.639 362.247C658.295 362.298 658.899 362.164 659.451 361.846C660.002 361.527 660.235 361.18 660.151 360.803C660.066 360.422 659.667 360.025 658.953 359.613C658.246 359.205 657.566 358.979 656.913 358.934C656.26 358.885 655.655 359.022 655.097 359.344C654.545 359.662 654.31 360.007 654.391 360.378C654.472 360.749 654.872 361.142 655.589 361.556ZM659.324 356.195L662.932 358.277C663.385 358.539 663.826 358.675 664.256 358.685C664.686 358.694 665.12 358.572 665.56 358.318C666.142 357.983 666.408 357.646 666.357 357.308C666.31 356.968 665.926 356.59 665.205 356.174L662.282 354.487L663.124 354L668.686 357.211L667.991 357.612L667.123 357.252L667.077 357.279C667.179 357.536 667.149 357.796 666.986 358.058C666.827 358.318 666.551 358.561 666.159 358.787C665.482 359.178 664.814 359.378 664.155 359.388C663.498 359.396 662.817 359.195 662.11 358.787L658.471 356.687L659.324 356.195ZM674.283 353.98L670.685 351.903C670.232 351.641 669.791 351.505 669.361 351.496C668.931 351.486 668.497 351.608 668.057 351.862C667.475 352.198 667.206 352.535 667.25 352.873C667.294 353.21 667.678 353.588 668.402 354.006L671.32 355.691L670.477 356.177L664.916 352.966L665.601 352.571L666.499 352.931L666.54 352.908C666.438 352.65 666.469 352.388 666.631 352.123C666.79 351.855 667.061 351.611 667.443 351.39C668.113 351.004 668.779 350.806 669.442 350.798C670.102 350.789 670.787 350.989 671.497 351.399L675.126 353.494L674.283 353.98ZM678.064 351.112C678.213 351.026 678.346 350.937 678.465 350.845C678.58 350.752 678.666 350.674 678.723 350.614L679.368 350.986C679.321 351.064 679.221 351.163 679.068 351.282C678.923 351.401 678.779 351.502 678.637 351.584C677.561 352.205 676.457 352.188 675.324 351.534L672.015 349.624L671.218 350.084L670.812 349.849L671.259 349.187L670.427 348.297L670.914 348.015L672.203 348.76L673.816 347.828L674.471 348.206L672.857 349.137L676.13 351.027C676.465 351.22 676.802 351.323 677.14 351.335C677.478 351.346 677.786 351.272 678.064 351.112ZM679.063 348.859L678.789 348.701C678.394 348.472 678.13 348.25 677.998 348.033C677.862 347.814 677.818 347.527 677.866 347.172C677.937 346.682 677.933 346.346 677.856 346.164C677.781 345.98 677.605 345.809 677.328 345.648C676.983 345.449 676.606 345.36 676.196 345.382C675.787 345.399 675.374 345.528 674.958 345.769C674.691 345.923 674.463 346.092 674.273 346.275C674.08 346.457 673.903 346.69 673.74 346.975L672.756 346.753C673.06 346.19 673.561 345.708 674.258 345.306C674.904 344.933 675.565 344.734 676.242 344.711C676.919 344.688 677.546 344.843 678.125 345.177C678.372 345.319 678.556 345.465 678.678 345.613C678.8 345.758 678.881 345.916 678.921 346.088C678.959 346.258 678.95 346.573 678.896 347.034C678.845 347.399 678.86 347.67 678.942 347.846C679.026 348.019 679.229 348.199 679.551 348.385L679.718 348.481L679.063 348.859ZM680.322 349.873C679.862 349.607 679.835 349.357 680.241 349.123C680.437 349.01 680.647 348.957 680.87 348.965C681.097 348.97 681.322 349.038 681.545 349.167C681.761 349.292 681.876 349.421 681.89 349.553C681.9 349.684 681.809 349.805 681.616 349.917C681.44 350.018 681.242 350.072 681.022 350.078C680.799 350.082 680.565 350.013 680.322 349.873Z" fill="#C2C2C2"/>
<path d="M685.188 342.921L685.696 342.628C686.193 342.341 686.477 342.081 686.548 341.849C686.619 341.616 686.477 341.398 686.122 341.193C685.77 340.99 685.398 340.915 685.006 340.97C684.617 341.023 684.168 341.196 683.661 341.489L683.184 341.764L685.188 342.921ZM686.467 343.659L689.314 345.303L687.741 346.211L680.322 341.928L682.484 340.68C683.492 340.098 684.422 339.774 685.275 339.707C686.124 339.639 686.922 339.821 687.67 340.252C688.106 340.504 688.375 340.798 688.477 341.134C688.575 341.468 688.5 341.818 688.253 342.183C691.037 342.501 692.842 342.703 693.668 342.789L691.922 343.797L687.304 343.176L686.467 343.659ZM692.15 338.263C691.822 338.453 691.67 338.662 691.694 338.89C691.714 339.117 691.902 339.348 692.257 339.584L694.429 338.331C694.04 338.114 693.646 338.001 693.247 337.994C692.844 337.984 692.479 338.074 692.15 338.263ZM697.149 340.897C696.235 341.424 695.27 341.691 694.251 341.697C693.233 341.702 692.262 341.439 691.339 340.906C690.388 340.357 689.891 339.796 689.847 339.224C689.803 338.648 690.2 338.118 691.039 337.633C691.841 337.17 692.693 336.942 693.597 336.948C694.5 336.954 695.354 337.189 696.159 337.654L696.91 338.087L693.252 340.2C693.708 340.444 694.182 340.567 694.673 340.569C695.163 340.571 695.628 340.445 696.068 340.191C696.41 339.994 696.697 339.787 696.931 339.57C697.164 339.353 697.369 339.104 697.545 338.823L698.742 339.514C698.607 339.748 698.417 339.973 698.174 340.188C697.934 340.405 697.592 340.641 697.149 340.897ZM699.884 332.65L700.671 333.104L700.011 333.749C700.427 333.802 700.792 333.919 701.107 334.1C701.716 334.452 701.978 334.849 701.893 335.293C701.809 335.732 701.389 336.17 700.635 336.605L700.341 336.757L700.087 336.875C700.05 337.037 700.106 337.161 700.254 337.247C700.478 337.376 700.874 337.276 701.442 336.948L702.406 336.391C703.028 336.032 703.636 335.836 704.228 335.802C704.823 335.767 705.38 335.899 705.897 336.198C706.56 336.581 706.797 337.038 706.608 337.569C706.422 338.098 705.811 338.662 704.776 339.259C703.984 339.716 703.24 339.986 702.543 340.068C701.853 340.15 701.259 340.047 700.762 339.76C700.42 339.563 700.241 339.336 700.224 339.081C700.207 338.825 700.356 338.549 700.671 338.254C700.444 338.307 700.195 338.324 699.925 338.304C699.651 338.283 699.427 338.222 699.255 338.123C699.038 337.998 698.922 337.858 698.905 337.704C698.884 337.547 698.923 337.361 699.021 337.144C698.595 337.242 698.152 337.259 697.692 337.197C697.235 337.132 696.814 336.989 696.428 336.766C695.809 336.409 695.532 336.016 695.596 335.589C695.66 335.161 696.066 334.731 696.814 334.3C696.973 334.208 697.176 334.108 697.423 334.001C697.67 333.889 697.831 333.82 697.905 333.793L699.884 332.65ZM701.98 338.916C702.193 339.039 702.462 339.078 702.787 339.031C703.115 338.982 703.463 338.851 703.832 338.638C704.387 338.318 704.745 338.023 704.908 337.753C705.07 337.484 705.019 337.273 704.755 337.121C704.542 336.998 704.302 336.966 704.035 337.027C703.768 337.087 703.44 337.23 703.05 337.455L702.249 337.917C701.965 338.082 701.792 338.257 701.731 338.445C701.677 338.632 701.76 338.79 701.98 338.916ZM697.925 335.925C698.233 336.103 698.546 336.204 698.864 336.227C699.185 336.249 699.49 336.176 699.777 336.01C700.068 335.842 700.192 335.668 700.148 335.486C700.104 335.304 699.928 335.125 699.62 334.947C698.937 334.552 698.314 334.517 697.753 334.842C697.184 335.17 697.242 335.531 697.925 335.925ZM699.29 331.3C698.786 331.009 698.815 330.701 699.377 330.377C699.938 330.053 700.471 330.036 700.975 330.327C701.215 330.466 701.332 330.615 701.325 330.775C701.318 330.932 701.175 331.091 700.894 331.253C700.332 331.577 699.798 331.593 699.29 331.3ZM708.044 334.49L706.496 335.383L700.823 332.108L702.37 331.215L708.044 334.49ZM711.946 330.292C712.528 330.628 712.768 331.001 712.667 331.411C712.568 331.819 712.117 332.256 711.312 332.721C710.899 332.959 710.518 333.145 710.17 333.28C709.825 333.417 709.471 333.527 709.109 333.611L707.831 332.873C708.253 332.785 708.69 332.664 709.14 332.51C709.593 332.353 709.957 332.196 710.231 332.038C710.792 331.714 710.911 331.458 710.586 331.27C710.464 331.2 710.329 331.165 710.18 331.165C710.028 331.163 709.813 331.187 709.536 331.238C709.255 331.287 708.898 331.362 708.465 331.464C707.846 331.61 707.355 331.698 706.993 331.727C706.635 331.755 706.308 331.738 706.014 331.678C705.72 331.613 705.425 331.496 705.131 331.326C704.627 331.035 704.432 330.698 704.547 330.315C704.662 329.929 705.079 329.528 705.796 329.114C706.479 328.72 707.293 328.422 708.237 328.221L708.886 329.135C708.48 329.229 708.115 329.324 707.79 329.422C707.465 329.52 707.174 329.643 706.917 329.791C706.461 330.055 706.356 330.258 706.603 330.4C706.741 330.48 706.934 330.508 707.181 330.482C707.431 330.455 707.905 330.355 708.602 330.184C709.224 330.031 709.717 329.94 710.079 329.911C710.441 329.882 710.772 329.898 711.073 329.958C711.374 330.019 711.665 330.13 711.946 330.292ZM716.097 328.534C716.368 328.378 716.633 328.156 716.894 327.869L718.046 328.534C717.832 328.857 717.445 329.18 716.883 329.504C716.264 329.861 715.657 330.032 715.062 330.017C714.466 329.997 713.856 329.807 713.23 329.445L710.495 327.866L709.754 328.294L709.099 327.916L709.434 327.125L708.683 326.176L709.673 325.605L710.88 326.302L712.469 325.385L713.631 326.056L712.042 326.973L714.778 328.552C714.997 328.679 715.221 328.737 715.447 328.728C715.677 328.716 715.894 328.651 716.097 328.534ZM717.026 323.903C716.697 324.092 716.545 324.301 716.569 324.53C716.589 324.756 716.777 324.988 717.132 325.224L719.304 323.97C718.915 323.753 718.521 323.641 718.122 323.633C717.719 323.624 717.354 323.713 717.026 323.903ZM722.024 326.536C721.111 327.064 720.145 327.33 719.126 327.336C718.108 327.342 717.137 327.078 716.214 326.545C715.263 325.996 714.766 325.436 714.722 324.864C714.678 324.288 715.075 323.757 715.914 323.273C716.716 322.81 717.569 322.582 718.472 322.587C719.375 322.593 720.229 322.829 721.034 323.293L721.785 323.727L718.127 325.839C718.583 326.083 719.057 326.206 719.548 326.208C720.038 326.21 720.503 326.084 720.943 325.83C721.285 325.633 721.572 325.426 721.806 325.209C722.039 324.993 722.244 324.744 722.42 324.462L723.617 325.154C723.482 325.388 723.293 325.613 723.049 325.827C722.809 326.044 722.467 326.281 722.024 326.536ZM722.882 319.251C723.091 319.13 723.281 319.038 723.45 318.975L724.784 319.881C724.625 319.933 724.456 320.011 724.277 320.115C723.783 320.4 723.524 320.696 723.501 321.003C723.48 321.307 723.699 321.591 724.155 321.855L727.043 323.522L725.495 324.415L719.822 321.14L720.994 320.464L722.176 320.882L722.252 320.839C722.11 320.553 722.092 320.269 722.196 319.986C722.301 319.699 722.53 319.454 722.882 319.251ZM739.617 316.263L737.618 317.417L728.778 316.04L728.732 316.066C729.788 316.601 730.527 316.991 730.95 317.235L734.441 319.251L733.036 320.062L725.617 315.779L727.601 314.634L736.38 315.981L736.415 315.961C735.4 315.434 734.693 315.055 734.294 314.824L730.782 312.797L732.198 311.98L739.617 316.263ZM739.754 312.897C740.316 313.221 740.832 313.413 741.302 313.474C741.775 313.532 742.22 313.442 742.636 313.201C743.049 312.963 743.203 312.71 743.098 312.443C742.993 312.171 742.658 311.872 742.093 311.546C741.532 311.222 741.019 311.032 740.556 310.975C740.092 310.918 739.653 311.01 739.237 311.25C738.824 311.489 738.667 311.741 738.765 312.009C738.859 312.275 739.189 312.571 739.754 312.897ZM743.677 310.632C744.6 311.165 745.079 311.723 745.113 312.305C745.147 312.887 744.729 313.429 743.859 313.931C743.315 314.245 742.716 314.454 742.063 314.558C741.407 314.659 740.744 314.646 740.074 314.517C739.404 314.388 738.771 314.151 738.176 313.808C737.249 313.273 736.77 312.717 736.74 312.141C736.709 311.565 737.132 311.024 738.009 310.518C738.553 310.203 739.152 309.995 739.805 309.891C740.458 309.787 741.118 309.799 741.784 309.926C742.45 310.053 743.081 310.288 743.677 310.632ZM752.466 308.845L750.045 307.952L746.95 306.844L746.914 306.865L750.37 310.055L748.706 311.016L741.419 308.672L742.961 307.782L746.128 308.854C746.683 309.053 747.41 309.35 748.31 309.745L748.34 309.727C748.097 309.571 747.748 309.301 747.295 308.918L746.945 308.623L744.925 306.648L746.63 305.664L750.015 306.85C750.103 306.885 750.233 306.937 750.405 307.005C750.581 307.072 750.766 307.145 750.959 307.225C751.148 307.303 751.332 307.382 751.512 307.462C751.691 307.539 751.83 307.603 751.928 307.656L751.958 307.638C751.745 307.48 751.466 307.256 751.121 306.967C750.773 306.676 750.541 306.478 750.426 306.373L748.594 304.53L750.111 303.654L754.15 307.873L752.466 308.845Z" fill="#D80A49"/>
<rect width="228.614" height="40.8239" rx="5" transform="matrix(0.866044 -0.499967 0.866044 0.499967 499.983 379.556)" fill="#C2C2C2"/>
<path d="M596.303 340.63L598.612 339.297C599.664 338.69 600.578 338.336 601.352 338.237C602.127 338.133 602.841 338.27 603.494 338.647C603.937 338.903 604.196 339.173 604.27 339.458C604.348 339.741 604.243 339.999 603.956 340.232L604.006 340.261C604.581 340.05 605.116 339.968 605.61 340.015C606.107 340.06 606.594 340.22 607.071 340.495C607.748 340.886 608.03 341.332 607.919 341.834C607.811 342.334 607.337 342.826 606.498 343.31L603.722 344.913L596.303 340.63ZM600.815 341.418L601.728 340.891C602.154 340.645 602.396 340.429 602.454 340.243C602.514 340.056 602.393 339.874 602.088 339.698C601.804 339.534 601.496 339.478 601.165 339.528C600.833 339.575 600.442 339.729 599.992 339.988L599.165 340.466L600.815 341.418ZM602.063 342.139L603.996 343.255L605.021 342.663C605.454 342.413 605.691 342.181 605.732 341.966C605.772 341.751 605.622 341.545 605.28 341.348C604.664 340.992 603.917 341.068 603.037 341.576L602.063 342.139ZM614.602 338.632L613.668 338.333L613.587 338.38C613.685 338.628 613.655 338.882 613.496 339.142C613.333 339.4 613.058 339.641 612.668 339.865C612.002 340.25 611.322 340.438 610.629 340.428C609.932 340.416 609.248 340.217 608.578 339.83L604.879 337.695L606.427 336.801L609.741 338.714C610.15 338.95 610.53 339.086 610.882 339.121C611.231 339.154 611.564 339.079 611.882 338.896C612.315 338.646 612.484 338.382 612.389 338.105C612.291 337.825 611.907 337.492 611.237 337.106L608.568 335.565L610.116 334.671L615.789 337.947L614.602 338.632ZM618.672 334.976C618.942 334.82 619.208 334.598 619.468 334.311L620.62 334.976C620.407 335.298 620.02 335.621 619.458 335.946C618.839 336.303 618.232 336.474 617.636 336.458C617.041 336.439 616.43 336.248 615.805 335.887L613.069 334.308L612.328 334.736L611.674 334.358L612.009 333.567L611.258 332.618L612.247 332.047L613.455 332.744L615.043 331.827L616.205 332.498L614.617 333.415L617.352 334.994C617.572 335.121 617.795 335.179 618.022 335.169C618.252 335.158 618.469 335.093 618.672 334.976ZM623.188 332.369C623.459 332.213 623.724 331.991 623.985 331.704L625.136 332.369C624.923 332.691 624.536 333.014 623.974 333.338C623.355 333.696 622.748 333.867 622.153 333.851C621.557 333.832 620.947 333.641 620.321 333.28L617.586 331.701L616.845 332.129L616.19 331.751L616.525 330.96L615.774 330.011L616.764 329.439L617.971 330.136L619.56 329.22L620.722 329.89L619.133 330.807L621.869 332.386C622.088 332.513 622.312 332.572 622.538 332.562C622.768 332.55 622.985 332.486 623.188 332.369ZM624.832 329.439C625.394 329.763 625.909 329.956 626.38 330.016C626.853 330.075 627.298 329.984 627.714 329.744C628.127 329.506 628.281 329.253 628.176 328.985C628.071 328.714 627.736 328.415 627.171 328.089C626.61 327.765 626.097 327.574 625.634 327.518C625.17 327.461 624.731 327.553 624.314 327.793C623.902 328.031 623.744 328.284 623.842 328.552C623.937 328.817 624.267 329.113 624.832 329.439ZM628.755 327.175C629.678 327.708 630.157 328.266 630.191 328.848C630.224 329.43 629.807 329.971 628.937 330.473C628.393 330.788 627.794 330.997 627.141 331.1C626.485 331.202 625.822 331.188 625.152 331.059C624.482 330.93 623.849 330.694 623.254 330.35C622.327 329.815 621.848 329.26 621.818 328.683C621.787 328.107 622.21 327.566 623.086 327.061C623.631 326.746 624.23 326.537 624.883 326.434C625.536 326.33 626.195 326.342 626.862 326.469C627.528 326.596 628.159 326.831 628.755 327.175ZM638.117 325.057L636.569 325.95L633.256 324.037C632.846 323.801 632.467 323.666 632.119 323.633C631.767 323.598 631.432 323.672 631.114 323.856C630.681 324.106 630.514 324.37 630.612 324.65C630.707 324.927 631.089 325.259 631.759 325.646L634.428 327.186L632.88 328.08L627.207 324.805L628.389 324.122L629.323 324.421L629.409 324.371C629.308 324.113 629.338 323.858 629.501 323.604C629.663 323.346 629.937 323.106 630.323 322.883C630.982 322.502 631.662 322.317 632.363 322.326C633.059 322.334 633.744 322.532 634.418 322.921L638.117 325.057Z" fill="white"/>
<g filter="url(#filter4_d)">
<rect width="228.614" height="40.8239" rx="5" transform="matrix(0.866044 -0.499967 0.866044 0.499967 499.983 379.556)" fill="#C2C2C2"/>
</g>
<path d="M607.68 342.628L600.261 338.345L601.834 337.437L607.954 340.97L610.963 339.233L612.263 339.983L607.68 342.628ZM611.821 336.951C612.383 337.275 612.899 337.467 613.369 337.528C613.842 337.586 614.287 337.495 614.703 337.255C615.116 337.017 615.27 336.764 615.165 336.496C615.06 336.225 614.725 335.926 614.16 335.6C613.599 335.276 613.086 335.085 612.623 335.029C612.159 334.972 611.72 335.064 611.303 335.304C610.891 335.542 610.733 335.795 610.832 336.063C610.926 336.328 611.256 336.624 611.821 336.951ZM615.744 334.686C616.667 335.219 617.146 335.777 617.18 336.359C617.214 336.941 616.796 337.483 615.926 337.985C615.382 338.299 614.783 338.508 614.13 338.612C613.474 338.713 612.811 338.699 612.141 338.571C611.471 338.442 610.838 338.205 610.243 337.862C609.316 337.326 608.837 336.771 608.807 336.195C608.776 335.619 609.199 335.078 610.075 334.572C610.62 334.257 611.219 334.048 611.872 333.945C612.525 333.841 613.184 333.853 613.851 333.98C614.517 334.107 615.148 334.342 615.744 334.686ZM619.133 329.466L619.92 329.92L619.26 330.564C619.676 330.617 620.042 330.734 620.356 330.916C620.965 331.267 621.227 331.665 621.143 332.108C621.058 332.547 620.639 332.985 619.884 333.42L619.59 333.573L619.336 333.69C619.299 333.852 619.355 333.976 619.504 334.062C619.727 334.191 620.123 334.091 620.691 333.763L621.655 333.207C622.278 332.847 622.885 332.651 623.477 332.618C624.073 332.583 624.629 332.714 625.147 333.013C625.81 333.396 626.047 333.853 625.857 334.384C625.671 334.914 625.06 335.477 624.025 336.075C623.234 336.532 622.489 336.801 621.792 336.883C621.102 336.965 620.509 336.863 620.011 336.576C619.67 336.378 619.49 336.152 619.473 335.896C619.456 335.64 619.605 335.365 619.92 335.07C619.693 335.122 619.445 335.139 619.174 335.12C618.9 335.098 618.677 335.038 618.504 334.938C618.288 334.813 618.171 334.673 618.154 334.519C618.134 334.363 618.173 334.176 618.271 333.959C617.844 334.057 617.401 334.075 616.941 334.012C616.484 333.948 616.063 333.804 615.678 333.582C615.059 333.224 614.781 332.832 614.845 332.404C614.91 331.976 615.316 331.547 616.063 331.115C616.222 331.023 616.425 330.924 616.672 330.816C616.919 330.705 617.08 330.635 617.154 330.608L619.133 329.466ZM621.229 335.732C621.442 335.855 621.711 335.893 622.036 335.846C622.364 335.797 622.713 335.666 623.081 335.454C623.636 335.133 623.995 334.838 624.157 334.569C624.319 334.299 624.269 334.088 624.005 333.936C623.792 333.813 623.552 333.782 623.284 333.842C623.017 333.903 622.689 334.045 622.3 334.27L621.498 334.733C621.214 334.897 621.041 335.073 620.98 335.26C620.926 335.448 621.009 335.605 621.229 335.732ZM617.175 332.741C617.482 332.919 617.795 333.019 618.113 333.043C618.435 333.064 618.739 332.992 619.027 332.826C619.318 332.658 619.441 332.483 619.397 332.301C619.353 332.12 619.177 331.94 618.869 331.762C618.186 331.368 617.564 331.333 617.002 331.657C616.434 331.985 616.491 332.346 617.175 332.741ZM618.54 328.115C618.036 327.824 618.064 327.517 618.626 327.192C619.187 326.868 619.72 326.852 620.224 327.143C620.465 327.281 620.581 327.431 620.575 327.591C620.568 327.747 620.424 327.906 620.143 328.068C619.582 328.392 619.047 328.408 618.54 328.115ZM627.293 331.305L625.745 332.199L620.072 328.924L621.62 328.03L627.293 331.305ZM634.159 327.342L632.611 328.235L629.298 326.322C628.888 326.086 628.509 325.951 628.161 325.918C627.809 325.883 627.474 325.957 627.156 326.141C626.723 326.391 626.556 326.655 626.654 326.935C626.748 327.212 627.131 327.544 627.801 327.931L630.47 329.471L628.922 330.365L623.249 327.09L624.431 326.407L625.365 326.706L625.451 326.656C625.35 326.398 625.38 326.143 625.542 325.889C625.705 325.631 625.979 325.391 626.365 325.168C627.024 324.787 627.704 324.602 628.404 324.611C629.101 324.619 629.786 324.818 630.46 325.206L634.159 327.342Z" fill="black"/>
</g>
<defs>
<filter id="filter0_d" x="0" y="30" width="919" height="611" filterUnits="userSpaceOnUse" color-interpolation-filters="sRGB">
<feFlood flood-opacity="0" result="BackgroundImageFix"/>
<feColorMatrix in="SourceAlpha" type="matrix" values="0 0 0 0 0 0 0 0 0 0 0 0 0 0 0 0 0 0 127 0"/>
<feOffset dy="50"/>
<feGaussianBlur stdDeviation="40"/>
<feColorMatrix type="matrix" values="0 0 0 0 0.341667 0 0 0 0 0.0156597 0 0 0 0 0.115361 0 0 0 1 0"/>
<feBlend mode="normal" in2="BackgroundImageFix" result="effect1_dropShadow"/>
<feBlend mode="normal" in="SourceGraphic" in2="effect1_dropShadow" result="shape"/>
</filter>
<filter id="filter1_i" x="34" y="4.00006" width="839.336" height="484.549" filterUnits="userSpaceOnUse" color-interpolation-filters="sRGB">
<feFlood flood-opacity="0" result="BackgroundImageFix"/>
<feBlend mode="normal" in="SourceGraphic" in2="BackgroundImageFix" result="shape"/>
<feColorMatrix in="SourceAlpha" type="matrix" values="0 0 0 0 0 0 0 0 0 0 0 0 0 0 0 0 0 0 127 0" result="hardAlpha"/>
<feOffset dy="-1"/>
<feComposite in2="hardAlpha" operator="arithmetic" k2="-1" k3="1"/>
<feColorMatrix type="matrix" values="0 0 0 0 1 0 0 0 0 1 0 0 0 0 1 0 0 0 0.24 0"/>
<feBlend mode="normal" in2="shape" result="effect1_innerShadow"/>
</filter>
<filter id="filter2_d" x="291.287" y="220.307" width="133.842" height="84.8756" filterUnits="userSpaceOnUse" color-interpolation-filters="sRGB">
<feFlood flood-opacity="0" result="BackgroundImageFix"/>
<feColorMatrix in="SourceAlpha" type="matrix" values="0 0 0 0 0 0 0 0 0 0 0 0 0 0 0 0 0 0 127 0"/>
<feOffset dy="3"/>
<feGaussianBlur stdDeviation="4.5"/>
<feColorMatrix type="matrix" values="0 0 0 0 0 0 0 0 0 0 0 0 0 0 0 0 0 0 0.15 0"/>
<feBlend mode="normal" in2="BackgroundImageFix" result="effect1_dropShadow"/>
<feBlend mode="normal" in="SourceGraphic" in2="effect1_dropShadow" result="shape"/>
</filter>
<filter id="filter3_d" x="410.788" y="150.911" width="134.549" height="85.2839" filterUnits="userSpaceOnUse" color-interpolation-filters="sRGB">
<feFlood flood-opacity="0" result="BackgroundImageFix"/>
<feColorMatrix in="SourceAlpha" type="matrix" values="0 0 0 0 0 0 0 0 0 0 0 0 0 0 0 0 0 0 127 0"/>
<feOffset dy="3"/>
<feGaussianBlur stdDeviation="4.5"/>
<feColorMatrix type="matrix" values="0 0 0 0 0 0 0 0 0 0 0 0 0 0 0 0 0 0 0.15 0"/>
<feBlend mode="normal" in2="BackgroundImageFix" result="effect1_dropShadow"/>
<feBlend mode="normal" in="SourceGraphic" in2="effect1_dropShadow" result="shape"/>
</filter>
<filter id="filter4_d" x="492.983" y="262.256" width="247.345" height="148.71" filterUnits="userSpaceOnUse" color-interpolation-filters="sRGB">
<feFlood flood-opacity="0" result="BackgroundImageFix"/>
<feColorMatrix in="SourceAlpha" type="matrix" values="0 0 0 0 0 0 0 0 0 0 0 0 0 0 0 0 0 0 127 0"/>
<feOffset dy="4"/>
<feGaussianBlur stdDeviation="3.5"/>
<feColorMatrix type="matrix" values="0 0 0 0 0 0 0 0 0 0 0 0 0 0 0 0 0 0 0.2 0"/>
<feBlend mode="normal" in2="BackgroundImageFix" result="effect1_dropShadow"/>
<feBlend mode="normal" in="SourceGraphic" in2="effect1_dropShadow" result="shape"/>
</filter>
<linearGradient id="paint0_linear" x1="452.5" y1="0" x2="452.5" y2="501" gradientUnits="userSpaceOnUse">
<stop stop-color="#292929"/>
<stop offset="1" stop-color="#171717"/>
</linearGradient>
<clipPath id="clip0">
<rect width="171.534" height="48.8009" fill="white" transform="matrix(0.866044 -0.499967 0.866044 0.499967 205.12 188.92)"/>
</clipPath>
<clipPath id="clip1">
<rect width="19.5955" height="19.5955" fill="white" transform="matrix(0.866044 -0.499967 0.866044 0.499967 321.792 271.788)"/>
</clipPath>
<clipPath id="clip2">
<rect width="17.1461" height="17.146" fill="white" transform="matrix(0.866044 -0.499967 0.866044 0.499967 442.001 202.391)"/>
</clipPath>
</defs>
</svg>
