<svg width="126" height="99" viewBox="0 0 126 99" fill="none" xmlns="http://www.w3.org/2000/svg">
<g clip-path="url(#clip0)">
<path d="M93.351 56.016L68.3285 24.6896C67.1924 25.7306 65.7925 26.4387 64.2818 26.7367C59.5711 27.6661 54.9706 24.4433 54.0064 19.5383C53.3248 16.071 54.6443 12.6931 57.1393 10.6814L48.6074 0L1.90735e-06 41.6192L44.7436 97.6353L93.351 56.016Z" fill="#F2F2F2"/>
<path d="M10.6698 97.9208H126" stroke="#1B191B" stroke-width="2" stroke-miterlimit="10"/>
<path d="M80.4492 9.32563C81.5076 9.32563 82.3656 8.46604 82.3656 7.40569C82.3656 6.34533 81.5076 5.48575 80.4492 5.48575C79.3908 5.48575 78.5328 6.34533 78.5328 7.40569C78.5328 8.46604 79.3908 9.32563 80.4492 9.32563Z" stroke="#1B191B" stroke-width="2" stroke-miterlimit="10"/>
<path d="M105.775 65.1455C106.833 65.1455 107.691 64.2859 107.691 63.2256C107.691 62.1652 106.833 61.3056 105.775 61.3056C104.717 61.3056 103.859 62.1652 103.859 63.2256C103.859 64.2859 104.717 65.1455 105.775 65.1455Z" stroke="#1B191B" stroke-width="2" stroke-miterlimit="10"/>
<path d="M22.1693 14.1399C23.2277 14.1399 24.0857 13.2803 24.0857 12.22C24.0857 11.1596 23.2277 10.3 22.1693 10.3C21.1109 10.3 20.2529 11.1596 20.2529 12.22C20.2529 13.2803 21.1109 14.1399 22.1693 14.1399Z" stroke="#1B191B" stroke-width="2" stroke-miterlimit="10"/>
<path d="M62.2597 25.2483C66.1556 25.2483 69.3139 22.0842 69.3139 18.1811C69.3139 14.2779 66.1556 11.1138 62.2597 11.1138C58.3637 11.1138 55.2054 14.2779 55.2054 18.1811C55.2054 22.0842 58.3637 25.2483 62.2597 25.2483Z" fill="#F2F2F2"/>
<path d="M20.3755 14.2321H51.6258C53.1338 14.2321 54.5969 14.7461 55.7746 15.6896C56.9524 16.6331 57.7747 17.95 58.1063 19.4238L73.8965 89.5912C74.0687 90.3566 74.0717 91.1504 73.9053 91.917C73.739 92.6837 73.4072 93.4046 72.9334 94.0292C72.4595 94.6538 71.855 95.167 71.1622 95.5328C70.4694 95.8986 69.7052 96.1082 68.923 96.1468L36.7975 97.7325C35.0773 97.8174 33.385 97.2724 32.0364 96.1991C30.6879 95.1259 29.7751 93.5977 29.4686 91.8997L20.5114 42.2906L19.8451 42.4813L18.1312 33.0785L18.8171 32.9067L16.3169 19.059C16.2098 18.4659 16.2346 17.8564 16.3896 17.274C16.5446 16.6916 16.8259 16.1506 17.2135 15.6897C17.6012 15.2287 18.0855 14.859 18.6321 14.6071C19.1786 14.3551 19.7739 14.2271 20.3755 14.2321Z" fill="#1B191B"/>
<path d="M47.5118 15.7447H51.1596C52.2072 15.7447 53.2233 16.1036 54.0392 16.7619C54.8551 17.4202 55.4217 18.3383 55.645 19.3637L70.8014 88.9586C70.8887 89.3593 70.8886 89.7742 70.8011 90.1748C70.7137 90.5755 70.541 90.9525 70.2948 91.2802C70.0486 91.6078 69.7347 91.8784 69.3746 92.0734C69.0145 92.2684 68.6166 92.3832 68.2081 92.41L36.1865 94.5126C35.2832 94.5719 34.3896 94.2959 33.6764 93.7372C32.9632 93.1786 32.4803 92.3764 32.3198 91.4838L19.3867 19.5506C19.303 19.085 19.3223 18.6067 19.4433 18.1494C19.5643 17.6921 19.7839 17.267 20.0868 16.9041C20.3896 16.5411 20.7683 16.2492 21.1961 16.0488C21.6239 15.8485 22.0903 15.7447 22.5625 15.7447H26.0231C26.358 15.7447 26.6836 15.8553 26.9494 16.0594C27.2153 16.2635 27.4065 16.5498 27.4936 16.8738C27.5705 17.1598 27.7393 17.4125 27.974 17.5927C28.2087 17.7729 28.4962 17.8705 28.7919 17.8705H45.2203C45.7993 17.8705 46.357 17.6516 46.7818 17.2575C47.2067 16.8633 47.4673 16.3231 47.5117 15.7447L47.5118 15.7447Z" fill="#D80A49"/>
<path d="M57.7133 33.7326H24.5786V33.8962H57.7133V33.7326Z" fill="#2F2E41"/>
<path d="M59.0191 39.0472H25.5579V39.2108H59.0191V39.0472Z" fill="#2F2E41"/>
<path d="M26.671 33.4737L27.4239 32.4681L27.2934 32.37L26.6427 33.2391L24.1353 31.1838L24.0321 31.3105L26.671 33.4737Z" fill="#2F2E41"/>
<path d="M30.9966 57.1851L31.7494 56.1794L31.6189 56.0814L30.9681 56.9505L28.4607 54.8953L28.3575 55.0219L30.9966 57.1851Z" fill="#2F2E41"/>
<path d="M62.69 57.1988L28.0046 57.9346L28.0081 58.0982L62.6934 57.3623L62.69 57.1988Z" fill="#2F2E41"/>
<path d="M63.7508 62.0228L28.4125 62.8404L28.4163 63.004L63.7545 62.1863L63.7508 62.0228Z" fill="#2F2E41"/>
<path opacity="0.1" d="M42.0845 75.9635C42.0845 78.0235 42.9014 79.9992 44.3554 81.4559C45.8094 82.9126 47.7814 83.731 49.8377 83.731C51.894 83.731 53.866 82.9126 55.32 81.4559C56.7741 79.9992 57.5909 78.0235 57.5909 75.9635C57.5909 75.8662 57.5893 75.7697 57.5852 75.6732C57.5093 73.6397 56.64 71.7172 55.164 70.3192C53.6881 68.9212 51.7235 68.1593 49.6927 68.1973C47.6619 68.2353 45.727 69.0703 44.3043 70.5226C42.8815 71.9749 42.0845 73.9285 42.0845 75.9635H42.0845Z" fill="black"/>
<path opacity="0.1" d="M42.819 78.9887C42.819 79.086 42.8207 79.1825 42.8247 79.279C43.5768 80.875 44.849 82.1669 46.4317 82.9419C48.0145 83.7169 49.8135 83.9289 51.5326 83.5429C53.2516 83.1569 54.7882 82.196 55.8894 80.8183C56.9906 79.4407 57.5907 77.7284 57.5909 75.9634C57.5909 75.8661 57.5893 75.7697 57.5852 75.6732C56.8331 74.0771 55.561 72.7853 53.9782 72.0102C52.3954 71.2352 50.5964 71.0232 48.8774 71.4092C47.1583 71.7952 45.6217 72.7561 44.5205 74.1338C43.4193 75.5115 42.8192 77.2237 42.819 78.9887H42.819Z" fill="black"/>
<path d="M89.9983 35.3547C92.6379 35.3547 94.7777 33.211 94.7777 30.5665C94.7777 27.922 92.6379 25.7782 89.9983 25.7782C87.3587 25.7782 85.2188 27.922 85.2188 30.5665C85.2188 33.211 87.3587 35.3547 89.9983 35.3547Z" fill="#1B191B"/>
<path d="M95.1544 90.5693L96.0636 94.4728H93.8557L92.9465 90.0488L95.1544 90.5693Z" fill="#9F616A"/>
<path d="M84.5046 90.5692V94.2125L82.2967 94.4727V90.5692H84.5046Z" fill="#9F616A"/>
<path d="M95.8038 49.1922C95.8038 49.1922 95.544 54.7872 95.2843 55.1776C95.0245 55.5679 92.6867 61.1629 92.6867 61.1629L91.5178 57.5197C91.5178 57.5197 93.3361 54.527 93.0764 52.8355C92.8166 51.144 92.9802 49.0625 92.9802 49.0625L95.8038 49.1922Z" fill="#9F616A"/>
<path d="M88.4008 35.6602C90.4092 35.6602 92.0373 34.029 92.0373 32.0169C92.0373 30.0048 90.4092 28.3737 88.4008 28.3737C86.3924 28.3737 84.7643 30.0048 84.7643 32.0169C84.7643 34.029 86.3924 35.6602 88.4008 35.6602Z" fill="#9F616A"/>
<path d="M91.388 32.4073C91.388 32.4073 91.2581 37.6119 92.1672 38.3926C93.0763 39.1733 86.9722 38.5227 86.9722 38.5227C86.9722 38.5227 88.2709 34.8795 87.2319 34.0988C86.1929 33.3181 91.388 32.4073 91.388 32.4073Z" fill="#9F616A"/>
<path d="M86.5825 38.2625C86.5825 38.2625 87.3618 36.8312 88.4008 36.9613C89.4398 37.0914 92.8166 37.3517 92.9465 37.6119C93.0764 37.8721 93.466 38.7829 93.7257 39.0432C93.9855 39.3034 95.9336 39.6937 96.0635 41.2551C96.1934 42.8165 91.388 52.315 91.388 52.315C91.388 52.315 92.0373 54.527 91.9075 55.0475C91.7776 55.5679 92.5569 57.1293 92.427 57.7799C92.2971 58.4305 94.3751 62.334 93.3361 67.4085V75.6058C93.3361 75.6058 96.8428 89.7885 95.8038 90.8294C94.7648 91.8704 91.2581 91.2198 90.6087 90.8294C89.9593 90.4391 87.2319 70.7915 87.2319 70.7915L85.9332 64.1556L85.8033 78.7286C85.8033 78.7286 86.063 90.9596 85.1539 91.3499C84.2448 91.7403 80.7381 91.8704 80.4784 91.0897C80.2758 90.4808 79.2832 74.2801 78.8561 67.1787C78.7081 64.7275 78.9006 62.2675 79.4279 59.8693C79.9685 57.413 80.7532 54.5272 81.6472 53.356C83.3356 51.144 84.3746 44.1177 84.3746 44.1177L82.1667 40.0841C82.1667 40.0841 83.4655 38.7829 84.2448 38.7829C85.024 38.7829 86.5825 38.2625 86.5825 38.2625Z" fill="#1B191B"/>
<path d="M95.2843 40.3444L95.9692 40.8114C95.9692 40.8114 96.4532 49.1923 96.0635 49.7127C95.6739 50.2332 92.965 49.9792 92.7609 49.5207C92.5568 49.0621 95.2843 40.3444 95.2843 40.3444Z" fill="#5C5C5D"/>
<path d="M83.7023 47.9644C84.0825 50.6066 84.4156 52.9587 82.4718 55.0866C80.5182 57.2401 78.3149 59.1521 75.9086 60.782C75.6702 61.4148 72.1701 66.0611 71.9921 64.2077C71.814 62.3544 73.0233 60.9014 74.7418 59.3341C76.4602 57.7668 78.8643 54.3662 80.2208 52.5003C81.5773 50.6344 81.0189 49.4708 80.9718 47.9123C80.9246 46.3537 83.1689 47.9833 83.7023 47.9644Z" fill="#9F616A"/>
<path d="M82.2966 92.1045C82.2966 92.1045 82.1667 93.5619 81.7771 93.9523C81.3875 94.3426 80.3485 94.8631 80.4784 96.2944C80.6082 97.7257 81.4524 97.7907 81.4524 97.7907L81.3875 97.4654L81.7771 97.5955L81.842 97.7907H85.4786C85.4786 97.7907 85.5435 96.4245 85.4136 95.7739C85.2838 95.1233 85.2838 92.0005 84.8941 92.1307C84.5045 92.2608 83.4655 92.3909 83.2057 92.9113C82.946 93.4318 82.1667 93.2494 82.2966 92.1045Z" fill="#8A062E"/>
<path d="M95.544 92.1045C95.544 92.1045 95.6739 93.5619 96.0635 93.9523C96.4531 94.3426 97.4921 94.8631 97.3623 96.2944C97.2324 97.7257 96.3882 97.7907 96.3882 97.7907L96.4531 97.4654L96.0635 97.5955L95.9986 97.7907H92.362C92.362 97.7907 92.2971 96.4245 92.427 95.7739C92.5569 95.1233 92.5569 92.0005 92.9465 92.1307C93.3361 92.2608 94.3751 92.3909 94.6349 92.9113C94.8946 93.4318 95.6739 93.2494 95.544 92.1045Z" fill="#8A062E"/>
<path d="M83.985 39.6938L82.1667 40.0841C82.1667 40.0841 82.1667 42.9467 81.6472 44.1177C81.1277 45.2888 80.2186 48.0212 80.6082 48.1513C80.9979 48.2815 84.6344 50.1031 84.8941 49.0622C85.1539 48.0212 85.8033 39.6938 83.985 39.6938Z" fill="#5C5C5D"/>
<path d="M95.176 29.0502C97.8156 29.0502 99.9554 26.9064 99.9554 24.262C99.9554 21.6175 97.8156 19.4737 95.176 19.4737C92.5364 19.4737 90.3965 21.6175 90.3965 24.262C90.3965 26.9064 92.5364 29.0502 95.176 29.0502Z" fill="#1B191B"/>
<path d="M99.2985 28.2269C98.6799 28.6749 97.9632 28.9678 97.2084 29.0814C96.4536 29.1949 95.6826 29.1257 94.96 28.8796C94.2373 28.6334 93.5841 28.2174 93.0548 27.6665C92.5255 27.1155 92.1356 26.4456 91.9178 25.7127C92.0002 26.3695 92.2177 27.002 92.5564 27.5703C92.8952 28.1386 93.3479 28.6304 93.8859 29.0146C94.4239 29.3988 95.0356 29.6671 95.6824 29.8025C96.3291 29.9379 96.9969 29.9375 97.6435 29.8013C98.2901 29.6652 98.9014 29.3962 99.439 29.0113C99.9766 28.6265 100.429 28.1341 100.767 27.5654C101.105 26.9967 101.322 26.3639 101.403 25.707C101.485 25.0502 101.43 24.3835 101.241 23.7491C101.348 24.6014 101.224 25.4669 100.883 26.2548C100.541 27.0427 99.9936 27.7239 99.2985 28.2269Z" fill="#1B191B"/>
<path d="M91.2728 34.8759C93.2085 34.8759 94.7777 33.3038 94.7777 31.3645C94.7777 29.4252 93.2085 27.8531 91.2728 27.8531C89.3371 27.8531 87.7679 29.4252 87.7679 31.3645C87.7679 33.3038 89.3371 34.8759 91.2728 34.8759Z" fill="#1B191B"/>
<path d="M88.3255 32.4818C90.0412 32.4818 91.4321 31.392 91.4321 30.0477C91.4321 28.7035 90.0412 27.6137 88.3255 27.6137C86.6097 27.6137 85.2188 28.7035 85.2188 30.0477C85.2188 31.392 86.6097 32.4818 88.3255 32.4818Z" fill="#1B191B"/>
<path d="M87.4968 33.587C87.8225 33.587 88.0864 33.1191 88.0864 32.5419C88.0864 31.9647 87.8225 31.4968 87.4968 31.4968C87.1712 31.4968 86.9072 31.9647 86.9072 32.5419C86.9072 33.1191 87.1712 33.587 87.4968 33.587Z" fill="#A0616A"/>
</g>
<path d="M75.6 30.6982H33.4473V45.8182H75.6V30.6982Z" fill="#E6E6E6"/>
<path d="M34.3636 44.4436H74.6836V32.0727H34.3636V44.4436Z" fill="white"/>
<path d="M39.8618 41.2364C41.3801 41.2364 42.6109 40.0056 42.6109 38.4873C42.6109 36.969 41.3801 35.7382 39.8618 35.7382C38.3435 35.7382 37.1127 36.969 37.1127 38.4873C37.1127 40.0056 38.3435 41.2364 39.8618 41.2364Z" fill="#D80A49"/>
<path d="M71.0182 36.1964H46.2764V37.5709H71.0182V36.1964Z" fill="#D80A49"/>
<path d="M71.0182 38.9455H46.2764V40.32H71.0182V38.9455Z" fill="#D80A49"/>
<defs>
<clipPath id="clip0">
<rect width="126" height="98.0509" fill="white"/>
</clipPath>
</defs>
</svg>
