<svg width="462" height="418" viewBox="0 0 462 418" fill="none" xmlns="http://www.w3.org/2000/svg">
<g filter="url(#filter0_d)">
<rect x="100" y="50" width="262" height="218" rx="30" fill="white"/>
</g>
<path d="M156.234 186H149.867V174.578H156.234V175.758H151.195V179.438H155.93V180.609H151.195V184.812H156.234V186ZM164.438 186V180.461C164.438 179.763 164.279 179.242 163.961 178.898C163.643 178.555 163.146 178.383 162.469 178.383C161.573 178.383 160.917 178.625 160.5 179.109C160.083 179.594 159.875 180.393 159.875 181.508V186H158.578V177.438H159.633L159.844 178.609H159.906C160.172 178.188 160.544 177.862 161.023 177.633C161.503 177.398 162.036 177.281 162.625 177.281C163.656 177.281 164.432 177.531 164.953 178.031C165.474 178.526 165.734 179.32 165.734 180.414V186H164.438ZM171.172 185.086C171.401 185.086 171.622 185.07 171.836 185.039C172.049 185.003 172.219 184.966 172.344 184.93V185.922C172.203 185.99 171.995 186.044 171.719 186.086C171.448 186.133 171.203 186.156 170.984 186.156C169.328 186.156 168.5 185.284 168.5 183.539V178.445H167.273V177.82L168.5 177.281L169.047 175.453H169.797V177.438H172.281V178.445H169.797V183.484C169.797 184 169.919 184.396 170.164 184.672C170.409 184.948 170.745 185.086 171.172 185.086ZM177.68 186.156C176.414 186.156 175.414 185.771 174.68 185C173.951 184.229 173.586 183.159 173.586 181.789C173.586 180.409 173.924 179.312 174.602 178.5C175.284 177.688 176.198 177.281 177.344 177.281C178.417 177.281 179.266 177.635 179.891 178.344C180.516 179.047 180.828 179.977 180.828 181.133V181.953H174.93C174.956 182.958 175.208 183.721 175.688 184.242C176.172 184.763 176.852 185.023 177.727 185.023C178.648 185.023 179.56 184.831 180.461 184.445V185.602C180.003 185.799 179.568 185.94 179.156 186.023C178.75 186.112 178.258 186.156 177.68 186.156ZM177.328 178.367C176.641 178.367 176.091 178.591 175.68 179.039C175.273 179.487 175.034 180.107 174.961 180.898H179.438C179.438 180.081 179.255 179.456 178.891 179.023C178.526 178.586 178.005 178.367 177.328 178.367ZM186.953 177.281C187.333 177.281 187.674 177.312 187.977 177.375L187.797 178.578C187.443 178.5 187.13 178.461 186.859 178.461C186.167 178.461 185.573 178.742 185.078 179.305C184.589 179.867 184.344 180.568 184.344 181.406V186H183.047V177.438H184.117L184.266 179.023H184.328C184.646 178.466 185.029 178.036 185.477 177.734C185.924 177.432 186.417 177.281 186.953 177.281ZM196.5 185.086C196.729 185.086 196.951 185.07 197.164 185.039C197.378 185.003 197.547 184.966 197.672 184.93V185.922C197.531 185.99 197.323 186.044 197.047 186.086C196.776 186.133 196.531 186.156 196.312 186.156C194.656 186.156 193.828 185.284 193.828 183.539V178.445H192.602V177.82L193.828 177.281L194.375 175.453H195.125V177.438H197.609V178.445H195.125V183.484C195.125 184 195.247 184.396 195.492 184.672C195.737 184.948 196.073 185.086 196.5 185.086ZM205.25 186V180.461C205.25 179.763 205.091 179.242 204.773 178.898C204.456 178.555 203.958 178.383 203.281 178.383C202.38 178.383 201.721 178.628 201.305 179.117C200.893 179.607 200.688 180.409 200.688 181.523V186H199.391V173.844H200.688V177.523C200.688 177.966 200.667 178.333 200.625 178.625H200.703C200.958 178.214 201.32 177.891 201.789 177.656C202.263 177.417 202.802 177.297 203.406 177.297C204.453 177.297 205.237 177.547 205.758 178.047C206.284 178.542 206.547 179.331 206.547 180.414V186H205.25ZM212.836 186.156C211.57 186.156 210.57 185.771 209.836 185C209.107 184.229 208.742 183.159 208.742 181.789C208.742 180.409 209.081 179.312 209.758 178.5C210.44 177.688 211.354 177.281 212.5 177.281C213.573 177.281 214.422 177.635 215.047 178.344C215.672 179.047 215.984 179.977 215.984 181.133V181.953H210.086C210.112 182.958 210.365 183.721 210.844 184.242C211.328 184.763 212.008 185.023 212.883 185.023C213.805 185.023 214.716 184.831 215.617 184.445V185.602C215.159 185.799 214.724 185.94 214.312 186.023C213.906 186.112 213.414 186.156 212.836 186.156ZM212.484 178.367C211.797 178.367 211.247 178.591 210.836 179.039C210.43 179.487 210.19 180.107 210.117 180.898H214.594C214.594 180.081 214.411 179.456 214.047 179.023C213.682 178.586 213.161 178.367 212.484 178.367ZM223.656 186H222.359V173.844H223.656V186ZM227.703 186H226.406V177.438H227.703V186ZM226.297 175.117C226.297 174.82 226.37 174.604 226.516 174.469C226.661 174.328 226.844 174.258 227.062 174.258C227.271 174.258 227.451 174.328 227.602 174.469C227.753 174.609 227.828 174.826 227.828 175.117C227.828 175.409 227.753 175.628 227.602 175.773C227.451 175.914 227.271 175.984 227.062 175.984C226.844 175.984 226.661 175.914 226.516 175.773C226.37 175.628 226.297 175.409 226.297 175.117ZM233.875 186.156C232.635 186.156 231.674 185.776 230.992 185.016C230.315 184.25 229.977 183.169 229.977 181.773C229.977 180.341 230.32 179.234 231.008 178.453C231.701 177.672 232.685 177.281 233.961 177.281C234.372 177.281 234.784 177.326 235.195 177.414C235.607 177.503 235.93 177.607 236.164 177.727L235.766 178.828C235.479 178.714 235.167 178.62 234.828 178.547C234.49 178.469 234.19 178.43 233.93 178.43C232.19 178.43 231.32 179.539 231.32 181.758C231.32 182.81 231.531 183.617 231.953 184.18C232.38 184.742 233.01 185.023 233.844 185.023C234.557 185.023 235.289 184.87 236.039 184.562V185.711C235.466 186.008 234.745 186.156 233.875 186.156ZM241.695 186.156C240.43 186.156 239.43 185.771 238.695 185C237.966 184.229 237.602 183.159 237.602 181.789C237.602 180.409 237.94 179.312 238.617 178.5C239.299 177.688 240.214 177.281 241.359 177.281C242.432 177.281 243.281 177.635 243.906 178.344C244.531 179.047 244.844 179.977 244.844 181.133V181.953H238.945C238.971 182.958 239.224 183.721 239.703 184.242C240.188 184.763 240.867 185.023 241.742 185.023C242.664 185.023 243.576 184.831 244.477 184.445V185.602C244.018 185.799 243.583 185.94 243.172 186.023C242.766 186.112 242.273 186.156 241.695 186.156ZM241.344 178.367C240.656 178.367 240.107 178.591 239.695 179.039C239.289 179.487 239.049 180.107 238.977 180.898H243.453C243.453 180.081 243.271 179.456 242.906 179.023C242.542 178.586 242.021 178.367 241.344 178.367ZM252.922 186V180.461C252.922 179.763 252.763 179.242 252.445 178.898C252.128 178.555 251.63 178.383 250.953 178.383C250.057 178.383 249.401 178.625 248.984 179.109C248.568 179.594 248.359 180.393 248.359 181.508V186H247.062V177.438H248.117L248.328 178.609H248.391C248.656 178.188 249.029 177.862 249.508 177.633C249.987 177.398 250.521 177.281 251.109 177.281C252.141 177.281 252.917 177.531 253.438 178.031C253.958 178.526 254.219 179.32 254.219 180.414V186H252.922ZM262.414 183.664C262.414 184.461 262.117 185.076 261.523 185.508C260.93 185.94 260.096 186.156 259.023 186.156C257.888 186.156 257.003 185.977 256.367 185.617V184.414C256.779 184.622 257.219 184.786 257.688 184.906C258.161 185.026 258.617 185.086 259.055 185.086C259.732 185.086 260.253 184.979 260.617 184.766C260.982 184.547 261.164 184.216 261.164 183.773C261.164 183.44 261.018 183.156 260.727 182.922C260.44 182.682 259.878 182.401 259.039 182.078C258.242 181.781 257.674 181.523 257.336 181.305C257.003 181.081 256.753 180.828 256.586 180.547C256.424 180.266 256.344 179.93 256.344 179.539C256.344 178.841 256.628 178.292 257.195 177.891C257.763 177.484 258.542 177.281 259.531 177.281C260.453 177.281 261.354 177.469 262.234 177.844L261.773 178.898C260.914 178.544 260.135 178.367 259.438 178.367C258.823 178.367 258.359 178.464 258.047 178.656C257.734 178.849 257.578 179.115 257.578 179.453C257.578 179.682 257.635 179.878 257.75 180.039C257.87 180.201 258.06 180.354 258.32 180.5C258.581 180.646 259.081 180.857 259.82 181.133C260.836 181.503 261.521 181.875 261.875 182.25C262.234 182.625 262.414 183.096 262.414 183.664ZM268.148 186.156C266.883 186.156 265.883 185.771 265.148 185C264.419 184.229 264.055 183.159 264.055 181.789C264.055 180.409 264.393 179.312 265.07 178.5C265.753 177.688 266.667 177.281 267.812 177.281C268.885 177.281 269.734 177.635 270.359 178.344C270.984 179.047 271.297 179.977 271.297 181.133V181.953H265.398C265.424 182.958 265.677 183.721 266.156 184.242C266.641 184.763 267.32 185.023 268.195 185.023C269.117 185.023 270.029 184.831 270.93 184.445V185.602C270.471 185.799 270.036 185.94 269.625 186.023C269.219 186.112 268.727 186.156 268.148 186.156ZM267.797 178.367C267.109 178.367 266.56 178.591 266.148 179.039C265.742 179.487 265.503 180.107 265.43 180.898H269.906C269.906 180.081 269.724 179.456 269.359 179.023C268.995 178.586 268.474 178.367 267.797 178.367ZM281.656 186.156C281.099 186.156 280.589 186.055 280.125 185.852C279.667 185.643 279.281 185.326 278.969 184.898H278.875C278.938 185.398 278.969 185.872 278.969 186.32V189.844H277.672V177.438H278.727L278.906 178.609H278.969C279.302 178.141 279.69 177.802 280.133 177.594C280.576 177.385 281.083 177.281 281.656 177.281C282.792 177.281 283.667 177.669 284.281 178.445C284.901 179.221 285.211 180.31 285.211 181.711C285.211 183.117 284.896 184.211 284.266 184.992C283.641 185.768 282.771 186.156 281.656 186.156ZM281.469 178.383C280.594 178.383 279.961 178.625 279.57 179.109C279.18 179.594 278.979 180.365 278.969 181.422V181.711C278.969 182.914 279.169 183.776 279.57 184.297C279.971 184.812 280.615 185.07 281.5 185.07C282.24 185.07 282.818 184.771 283.234 184.172C283.656 183.573 283.867 182.747 283.867 181.695C283.867 180.628 283.656 179.81 283.234 179.242C282.818 178.669 282.229 178.383 281.469 178.383ZM288.781 186H287.484V173.844H288.781V186ZM296.797 186L296.539 184.781H296.477C296.049 185.318 295.622 185.682 295.195 185.875C294.773 186.062 294.245 186.156 293.609 186.156C292.76 186.156 292.094 185.938 291.609 185.5C291.13 185.062 290.891 184.44 290.891 183.633C290.891 181.904 292.273 180.997 295.039 180.914L296.492 180.867V180.336C296.492 179.664 296.346 179.169 296.055 178.852C295.768 178.529 295.307 178.367 294.672 178.367C293.958 178.367 293.151 178.586 292.25 179.023L291.852 178.031C292.273 177.802 292.734 177.622 293.234 177.492C293.74 177.362 294.245 177.297 294.75 177.297C295.771 177.297 296.526 177.523 297.016 177.977C297.51 178.43 297.758 179.156 297.758 180.156V186H296.797ZM293.867 185.086C294.674 185.086 295.307 184.865 295.766 184.422C296.229 183.979 296.461 183.359 296.461 182.562V181.789L295.164 181.844C294.133 181.88 293.388 182.042 292.93 182.328C292.477 182.609 292.25 183.049 292.25 183.648C292.25 184.117 292.391 184.474 292.672 184.719C292.958 184.964 293.357 185.086 293.867 185.086ZM303.203 185.086C303.432 185.086 303.654 185.07 303.867 185.039C304.081 185.003 304.25 184.966 304.375 184.93V185.922C304.234 185.99 304.026 186.044 303.75 186.086C303.479 186.133 303.234 186.156 303.016 186.156C301.359 186.156 300.531 185.284 300.531 183.539V178.445H299.305V177.82L300.531 177.281L301.078 175.453H301.828V177.438H304.312V178.445H301.828V183.484C301.828 184 301.951 184.396 302.195 184.672C302.44 184.948 302.776 185.086 303.203 185.086ZM309.711 186.156C308.445 186.156 307.445 185.771 306.711 185C305.982 184.229 305.617 183.159 305.617 181.789C305.617 180.409 305.956 179.312 306.633 178.5C307.315 177.688 308.229 177.281 309.375 177.281C310.448 177.281 311.297 177.635 311.922 178.344C312.547 179.047 312.859 179.977 312.859 181.133V181.953H306.961C306.987 182.958 307.24 183.721 307.719 184.242C308.203 184.763 308.883 185.023 309.758 185.023C310.68 185.023 311.591 184.831 312.492 184.445V185.602C312.034 185.799 311.599 185.94 311.188 186.023C310.781 186.112 310.289 186.156 309.711 186.156ZM309.359 178.367C308.672 178.367 308.122 178.591 307.711 179.039C307.305 179.487 307.065 180.107 306.992 180.898H311.469C311.469 180.081 311.286 179.456 310.922 179.023C310.557 178.586 310.036 178.367 309.359 178.367ZM147.625 208V202.461C147.625 201.763 147.466 201.242 147.148 200.898C146.831 200.555 146.333 200.383 145.656 200.383C144.76 200.383 144.104 200.625 143.688 201.109C143.271 201.594 143.062 202.393 143.062 203.508V208H141.766V199.438H142.82L143.031 200.609H143.094C143.359 200.188 143.732 199.862 144.211 199.633C144.69 199.398 145.224 199.281 145.812 199.281C146.844 199.281 147.62 199.531 148.141 200.031C148.661 200.526 148.922 201.32 148.922 202.414V208H147.625ZM152.812 199.438V204.992C152.812 205.69 152.971 206.211 153.289 206.555C153.607 206.898 154.104 207.07 154.781 207.07C155.677 207.07 156.331 206.826 156.742 206.336C157.159 205.846 157.367 205.047 157.367 203.938V199.438H158.664V208H157.594L157.406 206.852H157.336C157.07 207.273 156.701 207.596 156.227 207.82C155.758 208.044 155.221 208.156 154.617 208.156C153.576 208.156 152.794 207.909 152.273 207.414C151.758 206.919 151.5 206.128 151.5 205.039V199.438H152.812ZM172.336 208V202.43C172.336 201.747 172.19 201.237 171.898 200.898C171.607 200.555 171.154 200.383 170.539 200.383C169.732 200.383 169.135 200.615 168.75 201.078C168.365 201.542 168.172 202.255 168.172 203.219V208H166.875V202.43C166.875 201.747 166.729 201.237 166.438 200.898C166.146 200.555 165.69 200.383 165.07 200.383C164.258 200.383 163.661 200.628 163.281 201.117C162.906 201.602 162.719 202.398 162.719 203.508V208H161.422V199.438H162.477L162.688 200.609H162.75C162.995 200.193 163.339 199.867 163.781 199.633C164.229 199.398 164.729 199.281 165.281 199.281C166.62 199.281 167.495 199.766 167.906 200.734H167.969C168.224 200.286 168.594 199.932 169.078 199.672C169.562 199.411 170.115 199.281 170.734 199.281C171.703 199.281 172.427 199.531 172.906 200.031C173.391 200.526 173.633 201.32 173.633 202.414V208H172.336ZM180.297 199.297C181.422 199.297 182.294 199.682 182.914 200.453C183.539 201.219 183.852 202.305 183.852 203.711C183.852 205.117 183.536 206.211 182.906 206.992C182.281 207.768 181.411 208.156 180.297 208.156C179.74 208.156 179.229 208.055 178.766 207.852C178.307 207.643 177.922 207.326 177.609 206.898H177.516L177.242 208H176.312V195.844H177.609V198.797C177.609 199.458 177.589 200.052 177.547 200.578H177.609C178.214 199.724 179.109 199.297 180.297 199.297ZM180.109 200.383C179.224 200.383 178.586 200.638 178.195 201.148C177.805 201.654 177.609 202.508 177.609 203.711C177.609 204.914 177.81 205.776 178.211 206.297C178.612 206.812 179.255 207.07 180.141 207.07C180.938 207.07 181.531 206.781 181.922 206.203C182.312 205.62 182.508 204.784 182.508 203.695C182.508 202.581 182.312 201.75 181.922 201.203C181.531 200.656 180.927 200.383 180.109 200.383ZM189.742 208.156C188.477 208.156 187.477 207.771 186.742 207C186.013 206.229 185.648 205.159 185.648 203.789C185.648 202.409 185.987 201.312 186.664 200.5C187.346 199.688 188.26 199.281 189.406 199.281C190.479 199.281 191.328 199.635 191.953 200.344C192.578 201.047 192.891 201.977 192.891 203.133V203.953H186.992C187.018 204.958 187.271 205.721 187.75 206.242C188.234 206.763 188.914 207.023 189.789 207.023C190.711 207.023 191.622 206.831 192.523 206.445V207.602C192.065 207.799 191.63 207.94 191.219 208.023C190.812 208.112 190.32 208.156 189.742 208.156ZM189.391 200.367C188.703 200.367 188.154 200.591 187.742 201.039C187.336 201.487 187.096 202.107 187.023 202.898H191.5C191.5 202.081 191.318 201.456 190.953 201.023C190.589 200.586 190.068 200.367 189.391 200.367ZM199.016 199.281C199.396 199.281 199.737 199.312 200.039 199.375L199.859 200.578C199.505 200.5 199.193 200.461 198.922 200.461C198.229 200.461 197.635 200.742 197.141 201.305C196.651 201.867 196.406 202.568 196.406 203.406V208H195.109V199.438H196.18L196.328 201.023H196.391C196.708 200.466 197.091 200.036 197.539 199.734C197.987 199.432 198.479 199.281 199.016 199.281ZM211.062 208L210.805 206.781H210.742C210.315 207.318 209.888 207.682 209.461 207.875C209.039 208.062 208.51 208.156 207.875 208.156C207.026 208.156 206.359 207.938 205.875 207.5C205.396 207.062 205.156 206.44 205.156 205.633C205.156 203.904 206.539 202.997 209.305 202.914L210.758 202.867V202.336C210.758 201.664 210.612 201.169 210.32 200.852C210.034 200.529 209.573 200.367 208.938 200.367C208.224 200.367 207.417 200.586 206.516 201.023L206.117 200.031C206.539 199.802 207 199.622 207.5 199.492C208.005 199.362 208.51 199.297 209.016 199.297C210.036 199.297 210.792 199.523 211.281 199.977C211.776 200.43 212.023 201.156 212.023 202.156V208H211.062ZM208.133 207.086C208.94 207.086 209.573 206.865 210.031 206.422C210.495 205.979 210.727 205.359 210.727 204.562V203.789L209.43 203.844C208.398 203.88 207.654 204.042 207.195 204.328C206.742 204.609 206.516 205.049 206.516 205.648C206.516 206.117 206.656 206.474 206.938 206.719C207.224 206.964 207.622 207.086 208.133 207.086ZM220.562 208V202.461C220.562 201.763 220.404 201.242 220.086 200.898C219.768 200.555 219.271 200.383 218.594 200.383C217.698 200.383 217.042 200.625 216.625 201.109C216.208 201.594 216 202.393 216 203.508V208H214.703V199.438H215.758L215.969 200.609H216.031C216.297 200.188 216.669 199.862 217.148 199.633C217.628 199.398 218.161 199.281 218.75 199.281C219.781 199.281 220.557 199.531 221.078 200.031C221.599 200.526 221.859 201.32 221.859 202.414V208H220.562ZM230.359 206.852H230.289C229.69 207.721 228.794 208.156 227.602 208.156C226.482 208.156 225.609 207.773 224.984 207.008C224.365 206.242 224.055 205.154 224.055 203.742C224.055 202.331 224.367 201.234 224.992 200.453C225.617 199.672 226.487 199.281 227.602 199.281C228.763 199.281 229.654 199.703 230.273 200.547H230.375L230.32 199.93L230.289 199.328V195.844H231.586V208H230.531L230.359 206.852ZM227.766 207.07C228.651 207.07 229.292 206.831 229.688 206.352C230.089 205.867 230.289 205.089 230.289 204.016V203.742C230.289 202.529 230.086 201.664 229.68 201.148C229.279 200.628 228.635 200.367 227.75 200.367C226.99 200.367 226.406 200.664 226 201.258C225.599 201.846 225.398 202.68 225.398 203.758C225.398 204.852 225.599 205.677 226 206.234C226.401 206.792 226.99 207.07 227.766 207.07ZM239.797 208H238.5V199.438H239.797V208ZM238.391 197.117C238.391 196.82 238.464 196.604 238.609 196.469C238.755 196.328 238.938 196.258 239.156 196.258C239.365 196.258 239.544 196.328 239.695 196.469C239.846 196.609 239.922 196.826 239.922 197.117C239.922 197.409 239.846 197.628 239.695 197.773C239.544 197.914 239.365 197.984 239.156 197.984C238.938 197.984 238.755 197.914 238.609 197.773C238.464 197.628 238.391 197.409 238.391 197.117ZM248.375 206.852H248.305C247.706 207.721 246.81 208.156 245.617 208.156C244.497 208.156 243.625 207.773 243 207.008C242.38 206.242 242.07 205.154 242.07 203.742C242.07 202.331 242.383 201.234 243.008 200.453C243.633 199.672 244.503 199.281 245.617 199.281C246.779 199.281 247.669 199.703 248.289 200.547H248.391L248.336 199.93L248.305 199.328V195.844H249.602V208H248.547L248.375 206.852ZM245.781 207.07C246.667 207.07 247.307 206.831 247.703 206.352C248.104 205.867 248.305 205.089 248.305 204.016V203.742C248.305 202.529 248.102 201.664 247.695 201.148C247.294 200.628 246.651 200.367 245.766 200.367C245.005 200.367 244.422 200.664 244.016 201.258C243.615 201.846 243.414 202.68 243.414 203.758C243.414 204.852 243.615 205.677 244.016 206.234C244.417 206.792 245.005 207.07 245.781 207.07ZM255.977 208.156C254.711 208.156 253.711 207.771 252.977 207C252.247 206.229 251.883 205.159 251.883 203.789C251.883 202.409 252.221 201.312 252.898 200.5C253.581 199.688 254.495 199.281 255.641 199.281C256.714 199.281 257.562 199.635 258.188 200.344C258.812 201.047 259.125 201.977 259.125 203.133V203.953H253.227C253.253 204.958 253.505 205.721 253.984 206.242C254.469 206.763 255.148 207.023 256.023 207.023C256.945 207.023 257.857 206.831 258.758 206.445V207.602C258.299 207.799 257.865 207.94 257.453 208.023C257.047 208.112 256.555 208.156 255.977 208.156ZM255.625 200.367C254.938 200.367 254.388 200.591 253.977 201.039C253.57 201.487 253.331 202.107 253.258 202.898H257.734C257.734 202.081 257.552 201.456 257.188 201.023C256.823 200.586 256.302 200.367 255.625 200.367ZM267.203 208V202.461C267.203 201.763 267.044 201.242 266.727 200.898C266.409 200.555 265.911 200.383 265.234 200.383C264.339 200.383 263.682 200.625 263.266 201.109C262.849 201.594 262.641 202.393 262.641 203.508V208H261.344V199.438H262.398L262.609 200.609H262.672C262.938 200.188 263.31 199.862 263.789 199.633C264.268 199.398 264.802 199.281 265.391 199.281C266.422 199.281 267.198 199.531 267.719 200.031C268.24 200.526 268.5 201.32 268.5 202.414V208H267.203ZM273.938 207.086C274.167 207.086 274.388 207.07 274.602 207.039C274.815 207.003 274.984 206.966 275.109 206.93V207.922C274.969 207.99 274.76 208.044 274.484 208.086C274.214 208.133 273.969 208.156 273.75 208.156C272.094 208.156 271.266 207.284 271.266 205.539V200.445H270.039V199.82L271.266 199.281L271.812 197.453H272.562V199.438H275.047V200.445H272.562V205.484C272.562 206 272.685 206.396 272.93 206.672C273.174 206.948 273.51 207.086 273.938 207.086ZM278.125 208H276.828V199.438H278.125V208ZM276.719 197.117C276.719 196.82 276.792 196.604 276.938 196.469C277.083 196.328 277.266 196.258 277.484 196.258C277.693 196.258 277.872 196.328 278.023 196.469C278.174 196.609 278.25 196.826 278.25 197.117C278.25 197.409 278.174 197.628 278.023 197.773C277.872 197.914 277.693 197.984 277.484 197.984C277.266 197.984 277.083 197.914 276.938 197.773C276.792 197.628 276.719 197.409 276.719 197.117ZM284.734 200.445H282.555V208H281.258V200.445H279.727V199.859L281.258 199.391V198.914C281.258 196.81 282.177 195.758 284.016 195.758C284.469 195.758 285 195.849 285.609 196.031L285.273 197.07C284.773 196.909 284.346 196.828 283.992 196.828C283.503 196.828 283.141 196.992 282.906 197.32C282.672 197.643 282.555 198.164 282.555 198.883V199.438H284.734V200.445ZM284.938 199.438H286.328L288.203 204.32C288.615 205.435 288.87 206.24 288.969 206.734H289.031C289.099 206.469 289.24 206.016 289.453 205.375C289.672 204.729 290.38 202.75 291.578 199.438H292.969L289.289 209.188C288.924 210.151 288.497 210.833 288.008 211.234C287.523 211.641 286.927 211.844 286.219 211.844C285.823 211.844 285.432 211.799 285.047 211.711V210.672C285.333 210.734 285.654 210.766 286.008 210.766C286.898 210.766 287.534 210.266 287.914 209.266L288.391 208.047L284.938 199.438ZM301.281 207.086C301.51 207.086 301.732 207.07 301.945 207.039C302.159 207.003 302.328 206.966 302.453 206.93V207.922C302.312 207.99 302.104 208.044 301.828 208.086C301.557 208.133 301.312 208.156 301.094 208.156C299.438 208.156 298.609 207.284 298.609 205.539V200.445H297.383V199.82L298.609 199.281L299.156 197.453H299.906V199.438H302.391V200.445H299.906V205.484C299.906 206 300.029 206.396 300.273 206.672C300.518 206.948 300.854 207.086 301.281 207.086ZM310.031 208V202.461C310.031 201.763 309.872 201.242 309.555 200.898C309.237 200.555 308.74 200.383 308.062 200.383C307.161 200.383 306.503 200.628 306.086 201.117C305.674 201.607 305.469 202.409 305.469 203.523V208H304.172V195.844H305.469V199.523C305.469 199.966 305.448 200.333 305.406 200.625H305.484C305.74 200.214 306.102 199.891 306.57 199.656C307.044 199.417 307.583 199.297 308.188 199.297C309.234 199.297 310.018 199.547 310.539 200.047C311.065 200.542 311.328 201.331 311.328 202.414V208H310.031ZM317.617 208.156C316.352 208.156 315.352 207.771 314.617 207C313.888 206.229 313.523 205.159 313.523 203.789C313.523 202.409 313.862 201.312 314.539 200.5C315.221 199.688 316.135 199.281 317.281 199.281C318.354 199.281 319.203 199.635 319.828 200.344C320.453 201.047 320.766 201.977 320.766 203.133V203.953H314.867C314.893 204.958 315.146 205.721 315.625 206.242C316.109 206.763 316.789 207.023 317.664 207.023C318.586 207.023 319.497 206.831 320.398 206.445V207.602C319.94 207.799 319.505 207.94 319.094 208.023C318.688 208.112 318.195 208.156 317.617 208.156ZM317.266 200.367C316.578 200.367 316.029 200.591 315.617 201.039C315.211 201.487 314.971 202.107 314.898 202.898H319.375C319.375 202.081 319.193 201.456 318.828 201.023C318.464 200.586 317.943 200.367 317.266 200.367ZM150.656 230V224.43C150.656 223.747 150.51 223.237 150.219 222.898C149.927 222.555 149.474 222.383 148.859 222.383C148.052 222.383 147.456 222.615 147.07 223.078C146.685 223.542 146.492 224.255 146.492 225.219V230H145.195V224.43C145.195 223.747 145.049 223.237 144.758 222.898C144.466 222.555 144.01 222.383 143.391 222.383C142.578 222.383 141.982 222.628 141.602 223.117C141.227 223.602 141.039 224.398 141.039 225.508V230H139.742V221.438H140.797L141.008 222.609H141.07C141.315 222.193 141.659 221.867 142.102 221.633C142.549 221.398 143.049 221.281 143.602 221.281C144.94 221.281 145.815 221.766 146.227 222.734H146.289C146.544 222.286 146.914 221.932 147.398 221.672C147.883 221.411 148.435 221.281 149.055 221.281C150.023 221.281 150.747 221.531 151.227 222.031C151.711 222.526 151.953 223.32 151.953 224.414V230H150.656ZM159.898 230L159.641 228.781H159.578C159.151 229.318 158.724 229.682 158.297 229.875C157.875 230.062 157.346 230.156 156.711 230.156C155.862 230.156 155.195 229.938 154.711 229.5C154.232 229.062 153.992 228.44 153.992 227.633C153.992 225.904 155.375 224.997 158.141 224.914L159.594 224.867V224.336C159.594 223.664 159.448 223.169 159.156 222.852C158.87 222.529 158.409 222.367 157.773 222.367C157.06 222.367 156.253 222.586 155.352 223.023L154.953 222.031C155.375 221.802 155.836 221.622 156.336 221.492C156.841 221.362 157.346 221.297 157.852 221.297C158.872 221.297 159.628 221.523 160.117 221.977C160.612 222.43 160.859 223.156 160.859 224.156V230H159.898ZM156.969 229.086C157.776 229.086 158.409 228.865 158.867 228.422C159.331 227.979 159.562 227.359 159.562 226.562V225.789L158.266 225.844C157.234 225.88 156.49 226.042 156.031 226.328C155.578 226.609 155.352 227.049 155.352 227.648C155.352 228.117 155.492 228.474 155.773 228.719C156.06 228.964 156.458 229.086 156.969 229.086ZM164.82 225.617C165.044 225.299 165.385 224.883 165.844 224.367L168.609 221.438H170.148L166.68 225.086L170.391 230H168.82L165.797 225.953L164.82 226.797V230H163.539V217.844H164.82V224.289C164.82 224.576 164.799 225.018 164.758 225.617H164.82ZM175.562 230.156C174.297 230.156 173.297 229.771 172.562 229C171.833 228.229 171.469 227.159 171.469 225.789C171.469 224.409 171.807 223.312 172.484 222.5C173.167 221.688 174.081 221.281 175.227 221.281C176.299 221.281 177.148 221.635 177.773 222.344C178.398 223.047 178.711 223.977 178.711 225.133V225.953H172.812C172.839 226.958 173.091 227.721 173.57 228.242C174.055 228.763 174.734 229.023 175.609 229.023C176.531 229.023 177.443 228.831 178.344 228.445V229.602C177.885 229.799 177.451 229.94 177.039 230.023C176.633 230.112 176.141 230.156 175.562 230.156ZM175.211 222.367C174.523 222.367 173.974 222.591 173.562 223.039C173.156 223.487 172.917 224.107 172.844 224.898H177.32C177.32 224.081 177.138 223.456 176.773 223.023C176.409 222.586 175.888 222.367 175.211 222.367ZM182.289 228.141L182.406 228.32C182.271 228.841 182.076 229.445 181.82 230.133C181.565 230.826 181.299 231.469 181.023 232.062H180.047C180.188 231.521 180.341 230.852 180.508 230.055C180.68 229.258 180.799 228.62 180.867 228.141H182.289ZM199.922 230V224.43C199.922 223.747 199.776 223.237 199.484 222.898C199.193 222.555 198.74 222.383 198.125 222.383C197.318 222.383 196.721 222.615 196.336 223.078C195.951 223.542 195.758 224.255 195.758 225.219V230H194.461V224.43C194.461 223.747 194.315 223.237 194.023 222.898C193.732 222.555 193.276 222.383 192.656 222.383C191.844 222.383 191.247 222.628 190.867 223.117C190.492 223.602 190.305 224.398 190.305 225.508V230H189.008V221.438H190.062L190.273 222.609H190.336C190.581 222.193 190.924 221.867 191.367 221.633C191.815 221.398 192.315 221.281 192.867 221.281C194.206 221.281 195.081 221.766 195.492 222.734H195.555C195.81 222.286 196.18 221.932 196.664 221.672C197.148 221.411 197.701 221.281 198.32 221.281C199.289 221.281 200.013 221.531 200.492 222.031C200.977 222.526 201.219 223.32 201.219 224.414V230H199.922ZM211.289 225.711C211.289 227.107 210.938 228.198 210.234 228.984C209.531 229.766 208.56 230.156 207.32 230.156C206.555 230.156 205.875 229.977 205.281 229.617C204.688 229.258 204.229 228.742 203.906 228.07C203.583 227.398 203.422 226.612 203.422 225.711C203.422 224.315 203.771 223.229 204.469 222.453C205.167 221.672 206.135 221.281 207.375 221.281C208.573 221.281 209.523 221.68 210.227 222.477C210.935 223.273 211.289 224.352 211.289 225.711ZM204.766 225.711C204.766 226.805 204.984 227.638 205.422 228.211C205.859 228.784 206.503 229.07 207.352 229.07C208.201 229.07 208.844 228.786 209.281 228.219C209.724 227.646 209.945 226.81 209.945 225.711C209.945 224.622 209.724 223.797 209.281 223.234C208.844 222.667 208.195 222.383 207.336 222.383C206.487 222.383 205.846 222.661 205.414 223.219C204.982 223.776 204.766 224.607 204.766 225.711ZM219.398 228.852H219.328C218.729 229.721 217.833 230.156 216.641 230.156C215.521 230.156 214.648 229.773 214.023 229.008C213.404 228.242 213.094 227.154 213.094 225.742C213.094 224.331 213.406 223.234 214.031 222.453C214.656 221.672 215.526 221.281 216.641 221.281C217.802 221.281 218.693 221.703 219.312 222.547H219.414L219.359 221.93L219.328 221.328V217.844H220.625V230H219.57L219.398 228.852ZM216.805 229.07C217.69 229.07 218.331 228.831 218.727 228.352C219.128 227.867 219.328 227.089 219.328 226.016V225.742C219.328 224.529 219.125 223.664 218.719 223.148C218.318 222.628 217.674 222.367 216.789 222.367C216.029 222.367 215.445 222.664 215.039 223.258C214.638 223.846 214.438 224.68 214.438 225.758C214.438 226.852 214.638 227.677 215.039 228.234C215.44 228.792 216.029 229.07 216.805 229.07ZM227 230.156C225.734 230.156 224.734 229.771 224 229C223.271 228.229 222.906 227.159 222.906 225.789C222.906 224.409 223.245 223.312 223.922 222.5C224.604 221.688 225.518 221.281 226.664 221.281C227.737 221.281 228.586 221.635 229.211 222.344C229.836 223.047 230.148 223.977 230.148 225.133V225.953H224.25C224.276 226.958 224.529 227.721 225.008 228.242C225.492 228.763 226.172 229.023 227.047 229.023C227.969 229.023 228.88 228.831 229.781 228.445V229.602C229.323 229.799 228.888 229.94 228.477 230.023C228.07 230.112 227.578 230.156 227 230.156ZM226.648 222.367C225.961 222.367 225.411 222.591 225 223.039C224.594 223.487 224.354 224.107 224.281 224.898H228.758C228.758 224.081 228.576 223.456 228.211 223.023C227.846 222.586 227.326 222.367 226.648 222.367ZM233.664 230H232.367V217.844H233.664V230ZM245.836 230L245.578 228.781H245.516C245.089 229.318 244.661 229.682 244.234 229.875C243.812 230.062 243.284 230.156 242.648 230.156C241.799 230.156 241.133 229.938 240.648 229.5C240.169 229.062 239.93 228.44 239.93 227.633C239.93 225.904 241.312 224.997 244.078 224.914L245.531 224.867V224.336C245.531 223.664 245.385 223.169 245.094 222.852C244.807 222.529 244.346 222.367 243.711 222.367C242.997 222.367 242.19 222.586 241.289 223.023L240.891 222.031C241.312 221.802 241.773 221.622 242.273 221.492C242.779 221.362 243.284 221.297 243.789 221.297C244.81 221.297 245.565 221.523 246.055 221.977C246.549 222.43 246.797 223.156 246.797 224.156V230H245.836ZM242.906 229.086C243.714 229.086 244.346 228.865 244.805 228.422C245.268 227.979 245.5 227.359 245.5 226.562V225.789L244.203 225.844C243.172 225.88 242.427 226.042 241.969 226.328C241.516 226.609 241.289 227.049 241.289 227.648C241.289 228.117 241.43 228.474 241.711 228.719C241.997 228.964 242.396 229.086 242.906 229.086ZM255.336 230V224.461C255.336 223.763 255.177 223.242 254.859 222.898C254.542 222.555 254.044 222.383 253.367 222.383C252.471 222.383 251.815 222.625 251.398 223.109C250.982 223.594 250.773 224.393 250.773 225.508V230H249.477V221.438H250.531L250.742 222.609H250.805C251.07 222.188 251.443 221.862 251.922 221.633C252.401 221.398 252.935 221.281 253.523 221.281C254.555 221.281 255.331 221.531 255.852 222.031C256.372 222.526 256.633 223.32 256.633 224.414V230H255.336ZM265.133 228.852H265.062C264.464 229.721 263.568 230.156 262.375 230.156C261.255 230.156 260.383 229.773 259.758 229.008C259.138 228.242 258.828 227.154 258.828 225.742C258.828 224.331 259.141 223.234 259.766 222.453C260.391 221.672 261.26 221.281 262.375 221.281C263.536 221.281 264.427 221.703 265.047 222.547H265.148L265.094 221.93L265.062 221.328V217.844H266.359V230H265.305L265.133 228.852ZM262.539 229.07C263.424 229.07 264.065 228.831 264.461 228.352C264.862 227.867 265.062 227.089 265.062 226.016V225.742C265.062 224.529 264.859 223.664 264.453 223.148C264.052 222.628 263.409 222.367 262.523 222.367C261.763 222.367 261.18 222.664 260.773 223.258C260.372 223.846 260.172 224.68 260.172 225.758C260.172 226.852 260.372 227.677 260.773 228.234C261.174 228.792 261.763 229.07 262.539 229.07ZM271.914 221.438H273.305L275.18 226.32C275.591 227.435 275.846 228.24 275.945 228.734H276.008C276.076 228.469 276.216 228.016 276.43 227.375C276.648 226.729 277.357 224.75 278.555 221.438H279.945L276.266 231.188C275.901 232.151 275.474 232.833 274.984 233.234C274.5 233.641 273.904 233.844 273.195 233.844C272.799 233.844 272.409 233.799 272.023 233.711V232.672C272.31 232.734 272.63 232.766 272.984 232.766C273.875 232.766 274.51 232.266 274.891 231.266L275.367 230.047L271.914 221.438ZM284.953 230.156C283.688 230.156 282.688 229.771 281.953 229C281.224 228.229 280.859 227.159 280.859 225.789C280.859 224.409 281.198 223.312 281.875 222.5C282.557 221.688 283.471 221.281 284.617 221.281C285.69 221.281 286.539 221.635 287.164 222.344C287.789 223.047 288.102 223.977 288.102 225.133V225.953H282.203C282.229 226.958 282.482 227.721 282.961 228.242C283.445 228.763 284.125 229.023 285 229.023C285.922 229.023 286.833 228.831 287.734 228.445V229.602C287.276 229.799 286.841 229.94 286.43 230.023C286.023 230.112 285.531 230.156 284.953 230.156ZM284.602 222.367C283.914 222.367 283.365 222.591 282.953 223.039C282.547 223.487 282.307 224.107 282.234 224.898H286.711C286.711 224.081 286.529 223.456 286.164 223.023C285.799 222.586 285.279 222.367 284.602 222.367ZM295.586 230L295.328 228.781H295.266C294.839 229.318 294.411 229.682 293.984 229.875C293.562 230.062 293.034 230.156 292.398 230.156C291.549 230.156 290.883 229.938 290.398 229.5C289.919 229.062 289.68 228.44 289.68 227.633C289.68 225.904 291.062 224.997 293.828 224.914L295.281 224.867V224.336C295.281 223.664 295.135 223.169 294.844 222.852C294.557 222.529 294.096 222.367 293.461 222.367C292.747 222.367 291.94 222.586 291.039 223.023L290.641 222.031C291.062 221.802 291.523 221.622 292.023 221.492C292.529 221.362 293.034 221.297 293.539 221.297C294.56 221.297 295.315 221.523 295.805 221.977C296.299 222.43 296.547 223.156 296.547 224.156V230H295.586ZM292.656 229.086C293.464 229.086 294.096 228.865 294.555 228.422C295.018 227.979 295.25 227.359 295.25 226.562V225.789L293.953 225.844C292.922 225.88 292.177 226.042 291.719 226.328C291.266 226.609 291.039 227.049 291.039 227.648C291.039 228.117 291.18 228.474 291.461 228.719C291.747 228.964 292.146 229.086 292.656 229.086ZM303.133 221.281C303.513 221.281 303.854 221.312 304.156 221.375L303.977 222.578C303.622 222.5 303.31 222.461 303.039 222.461C302.346 222.461 301.753 222.742 301.258 223.305C300.768 223.867 300.523 224.568 300.523 225.406V230H299.227V221.438H300.297L300.445 223.023H300.508C300.826 222.466 301.208 222.036 301.656 221.734C302.104 221.432 302.596 221.281 303.133 221.281ZM317.305 225.711C317.305 227.107 316.953 228.198 316.25 228.984C315.547 229.766 314.576 230.156 313.336 230.156C312.57 230.156 311.891 229.977 311.297 229.617C310.703 229.258 310.245 228.742 309.922 228.07C309.599 227.398 309.438 226.612 309.438 225.711C309.438 224.315 309.786 223.229 310.484 222.453C311.182 221.672 312.151 221.281 313.391 221.281C314.589 221.281 315.539 221.68 316.242 222.477C316.951 223.273 317.305 224.352 317.305 225.711ZM310.781 225.711C310.781 226.805 311 227.638 311.438 228.211C311.875 228.784 312.518 229.07 313.367 229.07C314.216 229.07 314.859 228.786 315.297 228.219C315.74 227.646 315.961 226.81 315.961 225.711C315.961 224.622 315.74 223.797 315.297 223.234C314.859 222.667 314.211 222.383 313.352 222.383C312.503 222.383 311.862 222.661 311.43 223.219C310.997 223.776 310.781 224.607 310.781 225.711ZM323.445 222.445H321.266V230H319.969V222.445H318.438V221.859L319.969 221.391V220.914C319.969 218.81 320.888 217.758 322.727 217.758C323.18 217.758 323.711 217.849 324.32 218.031L323.984 219.07C323.484 218.909 323.057 218.828 322.703 218.828C322.214 218.828 321.852 218.992 321.617 219.32C321.383 219.643 321.266 220.164 321.266 220.883V221.438H323.445V222.445ZM195.062 251.086C195.292 251.086 195.513 251.07 195.727 251.039C195.94 251.003 196.109 250.966 196.234 250.93V251.922C196.094 251.99 195.885 252.044 195.609 252.086C195.339 252.133 195.094 252.156 194.875 252.156C193.219 252.156 192.391 251.284 192.391 249.539V244.445H191.164V243.82L192.391 243.281L192.938 241.453H193.688V243.438H196.172V244.445H193.688V249.484C193.688 250 193.81 250.396 194.055 250.672C194.299 250.948 194.635 251.086 195.062 251.086ZM203.812 252V246.461C203.812 245.763 203.654 245.242 203.336 244.898C203.018 244.555 202.521 244.383 201.844 244.383C200.943 244.383 200.284 244.628 199.867 245.117C199.456 245.607 199.25 246.409 199.25 247.523V252H197.953V239.844H199.25V243.523C199.25 243.966 199.229 244.333 199.188 244.625H199.266C199.521 244.214 199.883 243.891 200.352 243.656C200.826 243.417 201.365 243.297 201.969 243.297C203.016 243.297 203.799 243.547 204.32 244.047C204.846 244.542 205.109 245.331 205.109 246.414V252H203.812ZM211.398 252.156C210.133 252.156 209.133 251.771 208.398 251C207.669 250.229 207.305 249.159 207.305 247.789C207.305 246.409 207.643 245.312 208.32 244.5C209.003 243.688 209.917 243.281 211.062 243.281C212.135 243.281 212.984 243.635 213.609 244.344C214.234 245.047 214.547 245.977 214.547 247.133V247.953H208.648C208.674 248.958 208.927 249.721 209.406 250.242C209.891 250.763 210.57 251.023 211.445 251.023C212.367 251.023 213.279 250.831 214.18 250.445V251.602C213.721 251.799 213.286 251.94 212.875 252.023C212.469 252.112 211.977 252.156 211.398 252.156ZM211.047 244.367C210.359 244.367 209.81 244.591 209.398 245.039C208.992 245.487 208.753 246.107 208.68 246.898H213.156C213.156 246.081 212.974 245.456 212.609 245.023C212.245 244.586 211.724 244.367 211.047 244.367ZM222.797 252L219.547 243.438H220.938L222.781 248.516C223.198 249.703 223.443 250.474 223.516 250.828H223.578C223.635 250.552 223.815 249.982 224.117 249.117C224.424 248.247 225.109 246.354 226.172 243.438H227.562L224.312 252H222.797ZM232.555 252.156C231.289 252.156 230.289 251.771 229.555 251C228.826 250.229 228.461 249.159 228.461 247.789C228.461 246.409 228.799 245.312 229.477 244.5C230.159 243.688 231.073 243.281 232.219 243.281C233.292 243.281 234.141 243.635 234.766 244.344C235.391 245.047 235.703 245.977 235.703 247.133V247.953H229.805C229.831 248.958 230.083 249.721 230.562 250.242C231.047 250.763 231.727 251.023 232.602 251.023C233.523 251.023 234.435 250.831 235.336 250.445V251.602C234.878 251.799 234.443 251.94 234.031 252.023C233.625 252.112 233.133 252.156 232.555 252.156ZM232.203 244.367C231.516 244.367 230.966 244.591 230.555 245.039C230.148 245.487 229.909 246.107 229.836 246.898H234.312C234.312 246.081 234.13 245.456 233.766 245.023C233.401 244.586 232.88 244.367 232.203 244.367ZM243.781 252V246.461C243.781 245.763 243.622 245.242 243.305 244.898C242.987 244.555 242.49 244.383 241.812 244.383C240.911 244.383 240.253 244.628 239.836 245.117C239.424 245.607 239.219 246.409 239.219 247.523V252H237.922V239.844H239.219V243.523C239.219 243.966 239.198 244.333 239.156 244.625H239.234C239.49 244.214 239.852 243.891 240.32 243.656C240.794 243.417 241.333 243.297 241.938 243.297C242.984 243.297 243.768 243.547 244.289 244.047C244.815 244.542 245.078 245.331 245.078 246.414V252H243.781ZM249.047 252H247.75V243.438H249.047V252ZM247.641 241.117C247.641 240.82 247.714 240.604 247.859 240.469C248.005 240.328 248.188 240.258 248.406 240.258C248.615 240.258 248.794 240.328 248.945 240.469C249.096 240.609 249.172 240.826 249.172 241.117C249.172 241.409 249.096 241.628 248.945 241.773C248.794 241.914 248.615 241.984 248.406 241.984C248.188 241.984 248.005 241.914 247.859 241.773C247.714 241.628 247.641 241.409 247.641 241.117ZM255.219 252.156C253.979 252.156 253.018 251.776 252.336 251.016C251.659 250.25 251.32 249.169 251.32 247.773C251.32 246.341 251.664 245.234 252.352 244.453C253.044 243.672 254.029 243.281 255.305 243.281C255.716 243.281 256.128 243.326 256.539 243.414C256.951 243.503 257.273 243.607 257.508 243.727L257.109 244.828C256.823 244.714 256.51 244.62 256.172 244.547C255.833 244.469 255.534 244.43 255.273 244.43C253.534 244.43 252.664 245.539 252.664 247.758C252.664 248.81 252.875 249.617 253.297 250.18C253.724 250.742 254.354 251.023 255.188 251.023C255.901 251.023 256.633 250.87 257.383 250.562V251.711C256.81 252.008 256.089 252.156 255.219 252.156ZM260.719 252H259.422V239.844H260.719V252ZM267.086 252.156C265.82 252.156 264.82 251.771 264.086 251C263.357 250.229 262.992 249.159 262.992 247.789C262.992 246.409 263.331 245.312 264.008 244.5C264.69 243.688 265.604 243.281 266.75 243.281C267.823 243.281 268.672 243.635 269.297 244.344C269.922 245.047 270.234 245.977 270.234 247.133V247.953H264.336C264.362 248.958 264.615 249.721 265.094 250.242C265.578 250.763 266.258 251.023 267.133 251.023C268.055 251.023 268.966 250.831 269.867 250.445V251.602C269.409 251.799 268.974 251.94 268.562 252.023C268.156 252.112 267.664 252.156 267.086 252.156ZM266.734 244.367C266.047 244.367 265.497 244.591 265.086 245.039C264.68 245.487 264.44 246.107 264.367 246.898H268.844C268.844 246.081 268.661 245.456 268.297 245.023C267.932 244.586 267.411 244.367 266.734 244.367Z" fill="#5C5C5D"/>
<g clip-path="url(#clip0)">
<path d="M261.351 120.016L236.329 88.6896C235.192 89.7306 233.792 90.4387 232.282 90.7367C227.571 91.6661 222.971 88.4433 222.006 83.5383C221.325 80.071 222.644 76.6931 225.139 74.6814L216.607 64L168 105.619L212.744 161.635L261.351 120.016Z" fill="#F2F2F2"/>
<path d="M178.67 161.921H294" stroke="#1B191B" stroke-width="2" stroke-miterlimit="10"/>
<path d="M248.449 73.3257C249.508 73.3257 250.366 72.4661 250.366 71.4057C250.366 70.3454 249.508 69.4858 248.449 69.4858C247.391 69.4858 246.533 70.3454 246.533 71.4057C246.533 72.4661 247.391 73.3257 248.449 73.3257Z" stroke="#1B191B" stroke-width="2" stroke-miterlimit="10"/>
<path d="M273.775 129.146C274.833 129.146 275.691 128.286 275.691 127.226C275.691 126.165 274.833 125.306 273.775 125.306C272.717 125.306 271.859 126.165 271.859 127.226C271.859 128.286 272.717 129.146 273.775 129.146Z" stroke="#1B191B" stroke-width="2" stroke-miterlimit="10"/>
<path d="M190.169 78.1399C191.228 78.1399 192.086 77.2803 192.086 76.22C192.086 75.1596 191.228 74.3 190.169 74.3C189.111 74.3 188.253 75.1596 188.253 76.22C188.253 77.2803 189.111 78.1399 190.169 78.1399Z" stroke="#1B191B" stroke-width="2" stroke-miterlimit="10"/>
<path d="M230.26 89.2483C234.156 89.2483 237.314 86.0842 237.314 82.1811C237.314 78.2779 234.156 75.1138 230.26 75.1138C226.364 75.1138 223.205 78.2779 223.205 82.1811C223.205 86.0842 226.364 89.2483 230.26 89.2483Z" fill="#F2F2F2"/>
<path d="M188.376 78.2321H219.626C221.134 78.2321 222.597 78.7461 223.775 79.6896C224.952 80.6331 225.775 81.95 226.106 83.4238L241.896 153.591C242.069 154.357 242.072 155.15 241.905 155.917C241.739 156.684 241.407 157.405 240.933 158.029C240.459 158.654 239.855 159.167 239.162 159.533C238.469 159.899 237.705 160.108 236.923 160.147L204.798 161.733C203.077 161.817 201.385 161.272 200.036 160.199C198.688 159.126 197.775 157.598 197.469 155.9L188.511 106.291L187.845 106.481L186.131 97.0785L186.817 96.9067L184.317 83.059C184.21 82.4659 184.235 81.8564 184.39 81.274C184.545 80.6916 184.826 80.1506 185.214 79.6897C185.601 79.2287 186.086 78.859 186.632 78.6071C187.179 78.3551 187.774 78.2271 188.376 78.2321Z" fill="#1B191B"/>
<path d="M215.512 79.7447H219.16C220.207 79.7447 221.223 80.1036 222.039 80.7619C222.855 81.4202 223.422 82.3383 223.645 83.3637L238.801 152.959C238.889 153.359 238.889 153.774 238.801 154.175C238.714 154.575 238.541 154.953 238.295 155.28C238.049 155.608 237.735 155.878 237.375 156.073C237.014 156.268 236.617 156.383 236.208 156.41L204.187 158.513C203.283 158.572 202.39 158.296 201.676 157.737C200.963 157.179 200.48 156.376 200.32 155.484L187.387 83.5506C187.303 83.085 187.322 82.6067 187.443 82.1494C187.564 81.6921 187.784 81.267 188.087 80.9041C188.39 80.5411 188.768 80.2492 189.196 80.0488C189.624 79.8485 190.09 79.7447 190.563 79.7447H194.023C194.358 79.7447 194.684 79.8553 194.949 80.0594C195.215 80.2635 195.407 80.5498 195.494 80.8738C195.57 81.1598 195.739 81.4125 195.974 81.5927C196.209 81.7729 196.496 81.8705 196.792 81.8705H213.22C213.799 81.8705 214.357 81.6516 214.782 81.2575C215.207 80.8633 215.467 80.3231 215.512 79.7447L215.512 79.7447Z" fill="#D80A49"/>
<path d="M225.713 97.7327H192.579V97.8962H225.713V97.7327Z" fill="#2F2E41"/>
<path d="M227.019 103.047H193.558V103.211H227.019V103.047Z" fill="#2F2E41"/>
<path d="M194.671 97.4737L195.424 96.468L195.293 96.3699L194.643 97.2391L192.135 95.1838L192.032 95.3105L194.671 97.4737Z" fill="#2F2E41"/>
<path d="M198.997 121.185L199.749 120.179L199.619 120.081L198.968 120.95L196.461 118.895L196.357 119.022L198.997 121.185Z" fill="#2F2E41"/>
<path d="M230.69 121.199L196.005 121.935L196.008 122.098L230.693 121.362L230.69 121.199Z" fill="#2F2E41"/>
<path d="M231.751 126.023L196.412 126.84L196.416 127.004L231.755 126.186L231.751 126.023Z" fill="#2F2E41"/>
<path opacity="0.1" d="M210.085 139.963C210.085 142.024 210.901 143.999 212.355 145.456C213.809 146.913 215.781 147.731 217.838 147.731C219.894 147.731 221.866 146.913 223.32 145.456C224.774 143.999 225.591 142.024 225.591 139.963C225.591 139.866 225.589 139.77 225.585 139.673C225.509 137.64 224.64 135.717 223.164 134.319C221.688 132.921 219.723 132.159 217.693 132.197C215.662 132.235 213.727 133.07 212.304 134.523C210.882 135.975 210.084 137.929 210.085 139.963H210.085Z" fill="black"/>
<path opacity="0.1" d="M210.819 142.989C210.819 143.086 210.821 143.182 210.825 143.279C211.577 144.875 212.849 146.167 214.432 146.942C216.015 147.717 217.814 147.929 219.533 147.543C221.252 147.157 222.788 146.196 223.889 144.818C224.991 143.441 225.591 141.728 225.591 139.963C225.591 139.866 225.589 139.77 225.585 139.673C224.833 138.077 223.561 136.785 221.978 136.01C220.395 135.235 218.596 135.023 216.877 135.409C215.158 135.795 213.622 136.756 212.521 138.134C211.419 139.511 210.819 141.224 210.819 142.989H210.819Z" fill="black"/>
<path d="M257.998 99.3547C260.638 99.3547 262.778 97.2109 262.778 94.5665C262.778 91.922 260.638 89.7782 257.998 89.7782C255.359 89.7782 253.219 91.922 253.219 94.5665C253.219 97.2109 255.359 99.3547 257.998 99.3547Z" fill="#1B191B"/>
<path d="M263.154 154.569L264.064 158.473H261.856L260.947 154.049L263.154 154.569Z" fill="#9F616A"/>
<path d="M252.505 154.569V158.213L250.297 158.473V154.569H252.505Z" fill="#9F616A"/>
<path d="M263.804 113.192C263.804 113.192 263.544 118.787 263.284 119.178C263.025 119.568 260.687 125.163 260.687 125.163L259.518 121.52C259.518 121.52 261.336 118.527 261.076 116.835C260.817 115.144 260.98 113.062 260.98 113.062L263.804 113.192Z" fill="#9F616A"/>
<path d="M256.401 99.6602C258.409 99.6602 260.037 98.029 260.037 96.0169C260.037 94.0048 258.409 92.3737 256.401 92.3737C254.392 92.3737 252.764 94.0048 252.764 96.0169C252.764 98.029 254.392 99.6602 256.401 99.6602Z" fill="#9F616A"/>
<path d="M259.388 96.4073C259.388 96.4073 259.258 101.612 260.167 102.393C261.076 103.173 254.972 102.523 254.972 102.523C254.972 102.523 256.271 98.8795 255.232 98.0988C254.193 97.3181 259.388 96.4073 259.388 96.4073Z" fill="#9F616A"/>
<path d="M254.583 102.262C254.583 102.262 255.362 100.831 256.401 100.961C257.44 101.091 260.817 101.352 260.946 101.612C261.076 101.872 261.466 102.783 261.726 103.043C261.985 103.303 263.934 103.694 264.064 105.255C264.193 106.817 259.388 116.315 259.388 116.315C259.388 116.315 260.037 118.527 259.907 119.047C259.778 119.568 260.557 121.129 260.427 121.78C260.297 122.43 262.375 126.334 261.336 131.409V139.606C261.336 139.606 264.843 153.789 263.804 154.829C262.765 155.87 259.258 155.22 258.609 154.829C257.959 154.439 255.232 134.792 255.232 134.792L253.933 128.156L253.803 142.729C253.803 142.729 254.063 154.96 253.154 155.35C252.245 155.74 248.738 155.87 248.478 155.09C248.276 154.481 247.283 138.28 246.856 131.179C246.708 128.727 246.901 126.268 247.428 123.869C247.968 121.413 248.753 118.527 249.647 117.356C251.336 115.144 252.375 108.118 252.375 108.118L250.167 104.084C250.167 104.084 251.466 102.783 252.245 102.783C253.024 102.783 254.583 102.262 254.583 102.262Z" fill="#1B191B"/>
<path d="M263.284 104.344L263.969 104.811C263.969 104.811 264.453 113.192 264.064 113.713C263.674 114.233 260.965 113.979 260.761 113.521C260.557 113.062 263.284 104.344 263.284 104.344Z" fill="#5C5C5D"/>
<path d="M251.702 111.964C252.082 114.607 252.416 116.959 250.472 119.087C248.518 121.24 246.315 123.152 243.909 124.782C243.67 125.415 240.17 130.061 239.992 128.208C239.814 126.354 241.023 124.901 242.742 123.334C244.46 121.767 246.864 118.366 248.221 116.5C249.577 114.634 249.019 113.471 248.972 111.912C248.925 110.354 251.169 111.983 251.702 111.964Z" fill="#9F616A"/>
<path d="M250.297 156.105C250.297 156.105 250.167 157.562 249.777 157.952C249.387 158.343 248.348 158.863 248.478 160.294C248.608 161.726 249.452 161.791 249.452 161.791L249.387 161.465L249.777 161.596L249.842 161.791H253.479C253.479 161.791 253.544 160.424 253.414 159.774C253.284 159.123 253.284 156.001 252.894 156.131C252.505 156.261 251.465 156.391 251.206 156.911C250.946 157.432 250.167 157.249 250.297 156.105Z" fill="#8A062E"/>
<path d="M263.544 156.105C263.544 156.105 263.674 157.562 264.064 157.952C264.453 158.343 265.492 158.863 265.362 160.294C265.232 161.726 264.388 161.791 264.388 161.791L264.453 161.465L264.064 161.596L263.999 161.791H260.362C260.362 161.791 260.297 160.424 260.427 159.774C260.557 159.123 260.557 156.001 260.946 156.131C261.336 156.261 262.375 156.391 262.635 156.911C262.895 157.432 263.674 157.249 263.544 156.105Z" fill="#8A062E"/>
<path d="M251.985 103.694L250.167 104.084C250.167 104.084 250.167 106.947 249.647 108.118C249.128 109.289 248.219 112.021 248.608 112.151C248.998 112.281 252.634 114.103 252.894 113.062C253.154 112.021 253.803 103.694 251.985 103.694Z" fill="#5C5C5D"/>
<path d="M263.176 93.0502C265.816 93.0502 267.955 90.9064 267.955 88.262C267.955 85.6175 265.816 83.4737 263.176 83.4737C260.536 83.4737 258.397 85.6175 258.397 88.262C258.397 90.9064 260.536 93.0502 263.176 93.0502Z" fill="#1B191B"/>
<path d="M267.299 92.2269C266.68 92.6748 265.963 92.9678 265.208 93.0814C264.454 93.1949 263.683 93.1257 262.96 92.8795C262.237 92.6334 261.584 92.2174 261.055 91.6664C260.526 91.1155 260.136 90.4455 259.918 89.7127C260 90.3694 260.218 91.0019 260.556 91.5703C260.895 92.1386 261.348 92.6304 261.886 93.0146C262.424 93.3988 263.036 93.6671 263.682 93.8025C264.329 93.9379 264.997 93.9375 265.643 93.8013C266.29 93.6651 266.901 93.3961 267.439 93.0113C267.977 92.6264 268.429 92.1341 268.767 91.5654C269.105 90.9966 269.322 90.3639 269.403 89.707C269.485 89.0501 269.43 88.3835 269.241 87.749C269.348 88.6014 269.224 89.4669 268.883 90.2548C268.541 91.0426 267.994 91.7238 267.299 92.2269Z" fill="#1B191B"/>
<path d="M259.273 98.8759C261.208 98.8759 262.778 97.3038 262.778 95.3645C262.778 93.4253 261.208 91.8531 259.273 91.8531C257.337 91.8531 255.768 93.4253 255.768 95.3645C255.768 97.3038 257.337 98.8759 259.273 98.8759Z" fill="#1B191B"/>
<path d="M256.325 96.4818C258.041 96.4818 259.432 95.392 259.432 94.0477C259.432 92.7035 258.041 91.6137 256.325 91.6137C254.61 91.6137 253.219 92.7035 253.219 94.0477C253.219 95.392 254.61 96.4818 256.325 96.4818Z" fill="#1B191B"/>
<path d="M255.497 97.587C255.822 97.587 256.086 97.1191 256.086 96.5419C256.086 95.9647 255.822 95.4968 255.497 95.4968C255.171 95.4968 254.907 95.9647 254.907 96.5419C254.907 97.1191 255.171 97.587 255.497 97.587Z" fill="#A0616A"/>
</g>
<path d="M243.6 94.6982H201.447V109.818H243.6V94.6982Z" fill="#E6E6E6"/>
<path d="M202.364 108.444H242.684V96.0728H202.364V108.444Z" fill="white"/>
<path d="M207.862 105.236C209.38 105.236 210.611 104.006 210.611 102.487C210.611 100.969 209.38 99.7382 207.862 99.7382C206.344 99.7382 205.113 100.969 205.113 102.487C205.113 104.006 206.344 105.236 207.862 105.236Z" fill="#D80A49"/>
<path d="M239.018 100.196H214.276V101.571H239.018V100.196Z" fill="#D80A49"/>
<path d="M239.018 102.945H214.276V104.32H239.018V102.945Z" fill="#D80A49"/>
<defs>
<filter id="filter0_d" x="0" y="0" width="462" height="418" filterUnits="userSpaceOnUse" color-interpolation-filters="sRGB">
<feFlood flood-opacity="0" result="BackgroundImageFix"/>
<feColorMatrix in="SourceAlpha" type="matrix" values="0 0 0 0 0 0 0 0 0 0 0 0 0 0 0 0 0 0 127 0"/>
<feOffset dy="50"/>
<feGaussianBlur stdDeviation="50"/>
<feColorMatrix type="matrix" values="0 0 0 0 0 0 0 0 0 0 0 0 0 0 0 0 0 0 0.1 0"/>
<feBlend mode="normal" in2="BackgroundImageFix" result="effect1_dropShadow"/>
<feBlend mode="normal" in="SourceGraphic" in2="effect1_dropShadow" result="shape"/>
</filter>
<clipPath id="clip0">
<rect width="126" height="98.0509" fill="white" transform="translate(168 64)"/>
</clipPath>
</defs>
</svg>
