<svg width="36" height="36" viewBox="0 0 36 36" fill="none" xmlns="http://www.w3.org/2000/svg">
<path d="M20.9883 4.5C18.6284 4.5 16.875 6.42041 16.875 8.61328V12.4102C13.7725 12.5728 10.96 13.3945 8.68362 14.6953C7.8135 13.856 6.65334 13.5 5.51955 13.5C4.29348 13.5 3.04543 13.8999 2.17971 14.8711V14.9062L2.14455 14.9414C1.31399 15.9785 0.975609 17.3628 1.19534 18.7383C1.39748 19.9995 2.13577 21.2827 3.41018 22.1133C3.40139 22.2407 3.37502 22.3682 3.37502 22.5C3.37502 25.4312 5.14602 27.9976 7.80471 29.7773C10.4634 31.5571 14.0493 32.625 18 32.625C21.9507 32.625 25.5366 31.5571 28.1953 29.7773C30.854 27.9976 32.625 25.4312 32.625 22.5C32.625 22.3682 32.5987 22.2407 32.5899 22.1133C33.8643 21.2827 34.6026 19.9995 34.8047 18.7383C35.0244 17.3628 34.6861 15.9785 33.8555 14.9414L33.8203 14.9062C32.9546 13.9351 31.7066 13.5 30.4805 13.5C29.3467 13.5 28.1865 13.856 27.3164 14.6953C25.0401 13.3945 22.2276 12.5728 19.125 12.4102V8.61328C19.125 7.51025 19.7534 6.75 20.9883 6.75C21.5728 6.75 22.2979 7.02686 23.4141 7.41797C24.3633 7.75195 25.5938 8.12109 27.1758 8.22656C27.5581 9.3252 28.5908 10.125 29.8125 10.125C31.3594 10.125 32.625 8.85938 32.625 7.3125C32.625 5.76562 31.3594 4.5 29.8125 4.5C28.749 4.5 27.8306 5.10205 27.3516 5.97656C26.0025 5.89746 25.0269 5.61621 24.1524 5.30859C23.1372 4.95264 22.2012 4.5 20.9883 4.5ZM18 14.625C21.5464 14.625 24.7105 15.6006 26.9297 17.0859C29.1489 18.5713 30.375 20.4785 30.375 22.5C30.375 24.5215 29.1489 26.4287 26.9297 27.9141C24.7105 29.3994 21.5464 30.375 18 30.375C14.4536 30.375 11.2896 29.3994 9.07033 27.9141C6.8511 26.4287 5.62502 24.5215 5.62502 22.5C5.62502 20.4785 6.8511 18.5713 9.07033 17.0859C11.2896 15.6006 14.4536 14.625 18 14.625ZM5.51955 15.75C5.94582 15.75 6.3677 15.8555 6.71487 16.0312C5.49319 17.0552 4.54397 18.2725 3.97268 19.6172C3.68703 19.2568 3.51565 18.8262 3.44534 18.3867C3.32229 17.6309 3.54202 16.8486 3.90237 16.3828C3.90676 16.374 3.89797 16.3564 3.90237 16.3477C4.24514 15.9873 4.85159 15.75 5.51955 15.75ZM30.4805 15.75C31.1485 15.75 31.7549 15.9873 32.0977 16.3477C32.1021 16.3521 32.0933 16.3784 32.0977 16.3828C32.458 16.8486 32.6778 17.6309 32.5547 18.3867C32.4844 18.8262 32.313 19.2568 32.0274 19.6172C31.4561 18.2725 30.5069 17.0552 29.2852 16.0312C29.6323 15.8555 30.0542 15.75 30.4805 15.75ZM12.375 18C11.1314 18 10.125 19.0063 10.125 20.25C10.125 21.4937 11.1314 22.5 12.375 22.5C13.6187 22.5 14.625 21.4937 14.625 20.25C14.625 19.0063 13.6187 18 12.375 18ZM23.625 18C22.3814 18 21.375 19.0063 21.375 20.25C21.375 21.4937 22.3814 22.5 23.625 22.5C24.8687 22.5 25.875 21.4937 25.875 20.25C25.875 19.0063 24.8687 18 23.625 18ZM23.9063 24.2227C22.6143 25.4224 20.4434 26.1914 18 26.1914C15.5567 26.1914 13.3858 25.4136 12.0938 24.3633C12.8145 26.3145 15.126 28.125 18 28.125C20.874 28.125 23.1856 26.3232 23.9063 24.2227Z" fill="white"/>
</svg>
