<svg width="462" height="418" viewBox="0 0 462 418" fill="none" xmlns="http://www.w3.org/2000/svg">
<g filter="url(#filter0_d)">
<rect x="100" y="50" width="262" height="218" rx="30" fill="white"/>
</g>
<path d="M174.164 194.961C174.164 195.966 173.799 196.75 173.07 197.312C172.341 197.875 171.352 198.156 170.102 198.156C168.747 198.156 167.706 197.982 166.977 197.633V196.352C167.445 196.549 167.956 196.706 168.508 196.82C169.06 196.935 169.607 196.992 170.148 196.992C171.034 196.992 171.701 196.826 172.148 196.492C172.596 196.154 172.82 195.685 172.82 195.086C172.82 194.69 172.74 194.367 172.578 194.117C172.422 193.862 172.156 193.628 171.781 193.414C171.411 193.201 170.846 192.958 170.086 192.688C169.023 192.307 168.263 191.857 167.805 191.336C167.352 190.815 167.125 190.135 167.125 189.297C167.125 188.417 167.456 187.716 168.117 187.195C168.779 186.674 169.654 186.414 170.742 186.414C171.878 186.414 172.922 186.622 173.875 187.039L173.461 188.195C172.518 187.799 171.602 187.602 170.711 187.602C170.008 187.602 169.458 187.753 169.062 188.055C168.667 188.357 168.469 188.776 168.469 189.312C168.469 189.708 168.542 190.034 168.688 190.289C168.833 190.539 169.078 190.771 169.422 190.984C169.771 191.193 170.302 191.424 171.016 191.68C172.214 192.107 173.036 192.565 173.484 193.055C173.938 193.544 174.164 194.18 174.164 194.961ZM179.727 198.156C178.487 198.156 177.526 197.776 176.844 197.016C176.167 196.25 175.828 195.169 175.828 193.773C175.828 192.341 176.172 191.234 176.859 190.453C177.552 189.672 178.536 189.281 179.812 189.281C180.224 189.281 180.635 189.326 181.047 189.414C181.458 189.503 181.781 189.607 182.016 189.727L181.617 190.828C181.331 190.714 181.018 190.62 180.68 190.547C180.341 190.469 180.042 190.43 179.781 190.43C178.042 190.43 177.172 191.539 177.172 193.758C177.172 194.81 177.383 195.617 177.805 196.18C178.232 196.742 178.862 197.023 179.695 197.023C180.409 197.023 181.141 196.87 181.891 196.562V197.711C181.318 198.008 180.596 198.156 179.727 198.156ZM189.195 198L188.938 196.781H188.875C188.448 197.318 188.021 197.682 187.594 197.875C187.172 198.062 186.643 198.156 186.008 198.156C185.159 198.156 184.492 197.938 184.008 197.5C183.529 197.062 183.289 196.44 183.289 195.633C183.289 193.904 184.672 192.997 187.438 192.914L188.891 192.867V192.336C188.891 191.664 188.745 191.169 188.453 190.852C188.167 190.529 187.706 190.367 187.07 190.367C186.357 190.367 185.549 190.586 184.648 191.023L184.25 190.031C184.672 189.802 185.133 189.622 185.633 189.492C186.138 189.362 186.643 189.297 187.148 189.297C188.169 189.297 188.924 189.523 189.414 189.977C189.909 190.43 190.156 191.156 190.156 192.156V198H189.195ZM186.266 197.086C187.073 197.086 187.706 196.865 188.164 196.422C188.628 195.979 188.859 195.359 188.859 194.562V193.789L187.562 193.844C186.531 193.88 185.786 194.042 185.328 194.328C184.875 194.609 184.648 195.049 184.648 195.648C184.648 196.117 184.789 196.474 185.07 196.719C185.357 196.964 185.755 197.086 186.266 197.086ZM198.695 198V192.461C198.695 191.763 198.536 191.242 198.219 190.898C197.901 190.555 197.404 190.383 196.727 190.383C195.831 190.383 195.174 190.625 194.758 191.109C194.341 191.594 194.133 192.393 194.133 193.508V198H192.836V189.438H193.891L194.102 190.609H194.164C194.43 190.188 194.802 189.862 195.281 189.633C195.76 189.398 196.294 189.281 196.883 189.281C197.914 189.281 198.69 189.531 199.211 190.031C199.732 190.526 199.992 191.32 199.992 192.414V198H198.695ZM205.461 189.438H206.852L208.727 194.32C209.138 195.435 209.393 196.24 209.492 196.734H209.555C209.622 196.469 209.763 196.016 209.977 195.375C210.195 194.729 210.904 192.75 212.102 189.438H213.492L209.812 199.188C209.448 200.151 209.021 200.833 208.531 201.234C208.047 201.641 207.451 201.844 206.742 201.844C206.346 201.844 205.956 201.799 205.57 201.711V200.672C205.857 200.734 206.177 200.766 206.531 200.766C207.422 200.766 208.057 200.266 208.438 199.266L208.914 198.047L205.461 189.438ZM222.273 193.711C222.273 195.107 221.922 196.198 221.219 196.984C220.516 197.766 219.544 198.156 218.305 198.156C217.539 198.156 216.859 197.977 216.266 197.617C215.672 197.258 215.214 196.742 214.891 196.07C214.568 195.398 214.406 194.612 214.406 193.711C214.406 192.315 214.755 191.229 215.453 190.453C216.151 189.672 217.12 189.281 218.359 189.281C219.557 189.281 220.508 189.68 221.211 190.477C221.919 191.273 222.273 192.352 222.273 193.711ZM215.75 193.711C215.75 194.805 215.969 195.638 216.406 196.211C216.844 196.784 217.487 197.07 218.336 197.07C219.185 197.07 219.828 196.786 220.266 196.219C220.708 195.646 220.93 194.81 220.93 193.711C220.93 192.622 220.708 191.797 220.266 191.234C219.828 190.667 219.18 190.383 218.32 190.383C217.471 190.383 216.831 190.661 216.398 191.219C215.966 191.776 215.75 192.607 215.75 193.711ZM225.773 189.438V194.992C225.773 195.69 225.932 196.211 226.25 196.555C226.568 196.898 227.065 197.07 227.742 197.07C228.638 197.07 229.292 196.826 229.703 196.336C230.12 195.846 230.328 195.047 230.328 193.938V189.438H231.625V198H230.555L230.367 196.852H230.297C230.031 197.273 229.661 197.596 229.188 197.82C228.719 198.044 228.182 198.156 227.578 198.156C226.536 198.156 225.755 197.909 225.234 197.414C224.719 196.919 224.461 196.128 224.461 195.039V189.438H225.773ZM238.289 189.281C238.669 189.281 239.01 189.312 239.312 189.375L239.133 190.578C238.779 190.5 238.466 190.461 238.195 190.461C237.503 190.461 236.909 190.742 236.414 191.305C235.924 191.867 235.68 192.568 235.68 193.406V198H234.383V189.438H235.453L235.602 191.023H235.664C235.982 190.466 236.365 190.036 236.812 189.734C237.26 189.432 237.753 189.281 238.289 189.281ZM246.367 198H245.07V185.844H246.367V198ZM250.414 198H249.117V189.438H250.414V198ZM249.008 187.117C249.008 186.82 249.081 186.604 249.227 186.469C249.372 186.328 249.555 186.258 249.773 186.258C249.982 186.258 250.161 186.328 250.312 186.469C250.464 186.609 250.539 186.826 250.539 187.117C250.539 187.409 250.464 187.628 250.312 187.773C250.161 187.914 249.982 187.984 249.773 187.984C249.555 187.984 249.372 187.914 249.227 187.773C249.081 187.628 249.008 187.409 249.008 187.117ZM256.586 198.156C255.346 198.156 254.385 197.776 253.703 197.016C253.026 196.25 252.688 195.169 252.688 193.773C252.688 192.341 253.031 191.234 253.719 190.453C254.411 189.672 255.396 189.281 256.672 189.281C257.083 189.281 257.495 189.326 257.906 189.414C258.318 189.503 258.641 189.607 258.875 189.727L258.477 190.828C258.19 190.714 257.878 190.62 257.539 190.547C257.201 190.469 256.901 190.43 256.641 190.43C254.901 190.43 254.031 191.539 254.031 193.758C254.031 194.81 254.242 195.617 254.664 196.18C255.091 196.742 255.721 197.023 256.555 197.023C257.268 197.023 258 196.87 258.75 196.562V197.711C258.177 198.008 257.456 198.156 256.586 198.156ZM264.406 198.156C263.141 198.156 262.141 197.771 261.406 197C260.677 196.229 260.312 195.159 260.312 193.789C260.312 192.409 260.651 191.312 261.328 190.5C262.01 189.688 262.924 189.281 264.07 189.281C265.143 189.281 265.992 189.635 266.617 190.344C267.242 191.047 267.555 191.977 267.555 193.133V193.953H261.656C261.682 194.958 261.935 195.721 262.414 196.242C262.898 196.763 263.578 197.023 264.453 197.023C265.375 197.023 266.286 196.831 267.188 196.445V197.602C266.729 197.799 266.294 197.94 265.883 198.023C265.477 198.112 264.984 198.156 264.406 198.156ZM264.055 190.367C263.367 190.367 262.818 190.591 262.406 191.039C262 191.487 261.76 192.107 261.688 192.898H266.164C266.164 192.081 265.982 191.456 265.617 191.023C265.253 190.586 264.732 190.367 264.055 190.367ZM275.633 198V192.461C275.633 191.763 275.474 191.242 275.156 190.898C274.839 190.555 274.341 190.383 273.664 190.383C272.768 190.383 272.112 190.625 271.695 191.109C271.279 191.594 271.07 192.393 271.07 193.508V198H269.773V189.438H270.828L271.039 190.609H271.102C271.367 190.188 271.74 189.862 272.219 189.633C272.698 189.398 273.232 189.281 273.82 189.281C274.852 189.281 275.628 189.531 276.148 190.031C276.669 190.526 276.93 191.32 276.93 192.414V198H275.633ZM285.125 195.664C285.125 196.461 284.828 197.076 284.234 197.508C283.641 197.94 282.807 198.156 281.734 198.156C280.599 198.156 279.714 197.977 279.078 197.617V196.414C279.49 196.622 279.93 196.786 280.398 196.906C280.872 197.026 281.328 197.086 281.766 197.086C282.443 197.086 282.964 196.979 283.328 196.766C283.693 196.547 283.875 196.216 283.875 195.773C283.875 195.44 283.729 195.156 283.438 194.922C283.151 194.682 282.589 194.401 281.75 194.078C280.953 193.781 280.385 193.523 280.047 193.305C279.714 193.081 279.464 192.828 279.297 192.547C279.135 192.266 279.055 191.93 279.055 191.539C279.055 190.841 279.339 190.292 279.906 189.891C280.474 189.484 281.253 189.281 282.242 189.281C283.164 189.281 284.065 189.469 284.945 189.844L284.484 190.898C283.625 190.544 282.846 190.367 282.148 190.367C281.534 190.367 281.07 190.464 280.758 190.656C280.445 190.849 280.289 191.115 280.289 191.453C280.289 191.682 280.346 191.878 280.461 192.039C280.581 192.201 280.771 192.354 281.031 192.5C281.292 192.646 281.792 192.857 282.531 193.133C283.547 193.503 284.232 193.875 284.586 194.25C284.945 194.625 285.125 195.096 285.125 195.664ZM290.859 198.156C289.594 198.156 288.594 197.771 287.859 197C287.13 196.229 286.766 195.159 286.766 193.789C286.766 192.409 287.104 191.312 287.781 190.5C288.464 189.688 289.378 189.281 290.523 189.281C291.596 189.281 292.445 189.635 293.07 190.344C293.695 191.047 294.008 191.977 294.008 193.133V193.953H288.109C288.135 194.958 288.388 195.721 288.867 196.242C289.352 196.763 290.031 197.023 290.906 197.023C291.828 197.023 292.74 196.831 293.641 196.445V197.602C293.182 197.799 292.747 197.94 292.336 198.023C291.93 198.112 291.438 198.156 290.859 198.156ZM290.508 190.367C289.82 190.367 289.271 190.591 288.859 191.039C288.453 191.487 288.214 192.107 288.141 192.898H292.617C292.617 192.081 292.435 191.456 292.07 191.023C291.706 190.586 291.185 190.367 290.508 190.367ZM162.133 220.156C161.576 220.156 161.065 220.055 160.602 219.852C160.143 219.643 159.758 219.326 159.445 218.898H159.352C159.414 219.398 159.445 219.872 159.445 220.32V223.844H158.148V211.438H159.203L159.383 212.609H159.445C159.779 212.141 160.167 211.802 160.609 211.594C161.052 211.385 161.56 211.281 162.133 211.281C163.268 211.281 164.143 211.669 164.758 212.445C165.378 213.221 165.688 214.31 165.688 215.711C165.688 217.117 165.372 218.211 164.742 218.992C164.117 219.768 163.247 220.156 162.133 220.156ZM161.945 212.383C161.07 212.383 160.438 212.625 160.047 213.109C159.656 213.594 159.456 214.365 159.445 215.422V215.711C159.445 216.914 159.646 217.776 160.047 218.297C160.448 218.812 161.091 219.07 161.977 219.07C162.716 219.07 163.294 218.771 163.711 218.172C164.133 217.573 164.344 216.747 164.344 215.695C164.344 214.628 164.133 213.81 163.711 213.242C163.294 212.669 162.706 212.383 161.945 212.383ZM169.258 220H167.961V207.844H169.258V220ZM177.273 220L177.016 218.781H176.953C176.526 219.318 176.099 219.682 175.672 219.875C175.25 220.062 174.721 220.156 174.086 220.156C173.237 220.156 172.57 219.938 172.086 219.5C171.607 219.062 171.367 218.44 171.367 217.633C171.367 215.904 172.75 214.997 175.516 214.914L176.969 214.867V214.336C176.969 213.664 176.823 213.169 176.531 212.852C176.245 212.529 175.784 212.367 175.148 212.367C174.435 212.367 173.628 212.586 172.727 213.023L172.328 212.031C172.75 211.802 173.211 211.622 173.711 211.492C174.216 211.362 174.721 211.297 175.227 211.297C176.247 211.297 177.003 211.523 177.492 211.977C177.987 212.43 178.234 213.156 178.234 214.156V220H177.273ZM174.344 219.086C175.151 219.086 175.784 218.865 176.242 218.422C176.706 217.979 176.938 217.359 176.938 216.562V215.789L175.641 215.844C174.609 215.88 173.865 216.042 173.406 216.328C172.953 216.609 172.727 217.049 172.727 217.648C172.727 218.117 172.867 218.474 173.148 218.719C173.435 218.964 173.833 219.086 174.344 219.086ZM183.68 219.086C183.909 219.086 184.13 219.07 184.344 219.039C184.557 219.003 184.727 218.966 184.852 218.93V219.922C184.711 219.99 184.503 220.044 184.227 220.086C183.956 220.133 183.711 220.156 183.492 220.156C181.836 220.156 181.008 219.284 181.008 217.539V212.445H179.781V211.82L181.008 211.281L181.555 209.453H182.305V211.438H184.789V212.445H182.305V217.484C182.305 218 182.427 218.396 182.672 218.672C182.917 218.948 183.253 219.086 183.68 219.086ZM190.188 220.156C188.922 220.156 187.922 219.771 187.188 219C186.458 218.229 186.094 217.159 186.094 215.789C186.094 214.409 186.432 213.312 187.109 212.5C187.792 211.688 188.706 211.281 189.852 211.281C190.924 211.281 191.773 211.635 192.398 212.344C193.023 213.047 193.336 213.977 193.336 215.133V215.953H187.438C187.464 216.958 187.716 217.721 188.195 218.242C188.68 218.763 189.359 219.023 190.234 219.023C191.156 219.023 192.068 218.831 192.969 218.445V219.602C192.51 219.799 192.076 219.94 191.664 220.023C191.258 220.112 190.766 220.156 190.188 220.156ZM189.836 212.367C189.148 212.367 188.599 212.591 188.188 213.039C187.781 213.487 187.542 214.107 187.469 214.898H191.945C191.945 214.081 191.763 213.456 191.398 213.023C191.034 212.586 190.513 212.367 189.836 212.367ZM204.977 220L204.719 218.781H204.656C204.229 219.318 203.802 219.682 203.375 219.875C202.953 220.062 202.424 220.156 201.789 220.156C200.94 220.156 200.273 219.938 199.789 219.5C199.31 219.062 199.07 218.44 199.07 217.633C199.07 215.904 200.453 214.997 203.219 214.914L204.672 214.867V214.336C204.672 213.664 204.526 213.169 204.234 212.852C203.948 212.529 203.487 212.367 202.852 212.367C202.138 212.367 201.331 212.586 200.43 213.023L200.031 212.031C200.453 211.802 200.914 211.622 201.414 211.492C201.919 211.362 202.424 211.297 202.93 211.297C203.951 211.297 204.706 211.523 205.195 211.977C205.69 212.43 205.938 213.156 205.938 214.156V220H204.977ZM202.047 219.086C202.854 219.086 203.487 218.865 203.945 218.422C204.409 217.979 204.641 217.359 204.641 216.562V215.789L203.344 215.844C202.312 215.88 201.568 216.042 201.109 216.328C200.656 216.609 200.43 217.049 200.43 217.648C200.43 218.117 200.57 218.474 200.852 218.719C201.138 218.964 201.536 219.086 202.047 219.086ZM214.477 220V214.461C214.477 213.763 214.318 213.242 214 212.898C213.682 212.555 213.185 212.383 212.508 212.383C211.612 212.383 210.956 212.625 210.539 213.109C210.122 213.594 209.914 214.393 209.914 215.508V220H208.617V211.438H209.672L209.883 212.609H209.945C210.211 212.188 210.583 211.862 211.062 211.633C211.542 211.398 212.076 211.281 212.664 211.281C213.695 211.281 214.471 211.531 214.992 212.031C215.513 212.526 215.773 213.32 215.773 214.414V220H214.477ZM224.273 218.852H224.203C223.604 219.721 222.708 220.156 221.516 220.156C220.396 220.156 219.523 219.773 218.898 219.008C218.279 218.242 217.969 217.154 217.969 215.742C217.969 214.331 218.281 213.234 218.906 212.453C219.531 211.672 220.401 211.281 221.516 211.281C222.677 211.281 223.568 211.703 224.188 212.547H224.289L224.234 211.93L224.203 211.328V207.844H225.5V220H224.445L224.273 218.852ZM221.68 219.07C222.565 219.07 223.206 218.831 223.602 218.352C224.003 217.867 224.203 217.089 224.203 216.016V215.742C224.203 214.529 224 213.664 223.594 213.148C223.193 212.628 222.549 212.367 221.664 212.367C220.904 212.367 220.32 212.664 219.914 213.258C219.513 213.846 219.312 214.68 219.312 215.758C219.312 216.852 219.513 217.677 219.914 218.234C220.315 218.792 220.904 219.07 221.68 219.07ZM239.422 211.438V212.258L237.836 212.445C237.982 212.628 238.112 212.867 238.227 213.164C238.341 213.456 238.398 213.786 238.398 214.156C238.398 214.995 238.112 215.664 237.539 216.164C236.966 216.664 236.18 216.914 235.18 216.914C234.924 216.914 234.685 216.893 234.461 216.852C233.909 217.143 233.633 217.51 233.633 217.953C233.633 218.188 233.729 218.362 233.922 218.477C234.115 218.586 234.445 218.641 234.914 218.641H236.43C237.357 218.641 238.068 218.836 238.562 219.227C239.062 219.617 239.312 220.185 239.312 220.93C239.312 221.878 238.932 222.599 238.172 223.094C237.411 223.594 236.302 223.844 234.844 223.844C233.724 223.844 232.859 223.635 232.25 223.219C231.646 222.802 231.344 222.214 231.344 221.453C231.344 220.932 231.51 220.482 231.844 220.102C232.177 219.721 232.646 219.464 233.25 219.328C233.031 219.229 232.846 219.076 232.695 218.867C232.549 218.659 232.477 218.417 232.477 218.141C232.477 217.828 232.56 217.555 232.727 217.32C232.893 217.086 233.156 216.859 233.516 216.641C233.073 216.458 232.711 216.148 232.43 215.711C232.154 215.273 232.016 214.773 232.016 214.211C232.016 213.273 232.297 212.552 232.859 212.047C233.422 211.536 234.219 211.281 235.25 211.281C235.698 211.281 236.102 211.333 236.461 211.438H239.422ZM232.594 221.438C232.594 221.901 232.789 222.253 233.18 222.492C233.57 222.732 234.13 222.852 234.859 222.852C235.948 222.852 236.753 222.688 237.273 222.359C237.799 222.036 238.062 221.596 238.062 221.039C238.062 220.576 237.919 220.253 237.633 220.07C237.346 219.893 236.807 219.805 236.016 219.805H234.461C233.872 219.805 233.414 219.945 233.086 220.227C232.758 220.508 232.594 220.911 232.594 221.438ZM233.297 214.18C233.297 214.779 233.466 215.232 233.805 215.539C234.143 215.846 234.615 216 235.219 216C236.484 216 237.117 215.385 237.117 214.156C237.117 212.87 236.477 212.227 235.195 212.227C234.586 212.227 234.117 212.391 233.789 212.719C233.461 213.047 233.297 213.534 233.297 214.18ZM244.797 220.156C243.531 220.156 242.531 219.771 241.797 219C241.068 218.229 240.703 217.159 240.703 215.789C240.703 214.409 241.042 213.312 241.719 212.5C242.401 211.688 243.315 211.281 244.461 211.281C245.534 211.281 246.383 211.635 247.008 212.344C247.633 213.047 247.945 213.977 247.945 215.133V215.953H242.047C242.073 216.958 242.326 217.721 242.805 218.242C243.289 218.763 243.969 219.023 244.844 219.023C245.766 219.023 246.677 218.831 247.578 218.445V219.602C247.12 219.799 246.685 219.94 246.273 220.023C245.867 220.112 245.375 220.156 244.797 220.156ZM244.445 212.367C243.758 212.367 243.208 212.591 242.797 213.039C242.391 213.487 242.151 214.107 242.078 214.898H246.555C246.555 214.081 246.372 213.456 246.008 213.023C245.643 212.586 245.122 212.367 244.445 212.367ZM252.93 219.086C253.159 219.086 253.38 219.07 253.594 219.039C253.807 219.003 253.977 218.966 254.102 218.93V219.922C253.961 219.99 253.753 220.044 253.477 220.086C253.206 220.133 252.961 220.156 252.742 220.156C251.086 220.156 250.258 219.284 250.258 217.539V212.445H249.031V211.82L250.258 211.281L250.805 209.453H251.555V211.438H254.039V212.445H251.555V217.484C251.555 218 251.677 218.396 251.922 218.672C252.167 218.948 252.503 219.086 252.93 219.086ZM265.242 220L264.984 218.781H264.922C264.495 219.318 264.068 219.682 263.641 219.875C263.219 220.062 262.69 220.156 262.055 220.156C261.206 220.156 260.539 219.938 260.055 219.5C259.576 219.062 259.336 218.44 259.336 217.633C259.336 215.904 260.719 214.997 263.484 214.914L264.938 214.867V214.336C264.938 213.664 264.792 213.169 264.5 212.852C264.214 212.529 263.753 212.367 263.117 212.367C262.404 212.367 261.596 212.586 260.695 213.023L260.297 212.031C260.719 211.802 261.18 211.622 261.68 211.492C262.185 211.362 262.69 211.297 263.195 211.297C264.216 211.297 264.971 211.523 265.461 211.977C265.956 212.43 266.203 213.156 266.203 214.156V220H265.242ZM262.312 219.086C263.12 219.086 263.753 218.865 264.211 218.422C264.674 217.979 264.906 217.359 264.906 216.562V215.789L263.609 215.844C262.578 215.88 261.833 216.042 261.375 216.328C260.922 216.609 260.695 217.049 260.695 217.648C260.695 218.117 260.836 218.474 261.117 218.719C261.404 218.964 261.802 219.086 262.312 219.086ZM270.18 220H268.883V207.844H270.18V220ZM274.227 220H272.93V207.844H274.227V220ZM283.898 219.086C284.128 219.086 284.349 219.07 284.562 219.039C284.776 219.003 284.945 218.966 285.07 218.93V219.922C284.93 219.99 284.721 220.044 284.445 220.086C284.174 220.133 283.93 220.156 283.711 220.156C282.055 220.156 281.227 219.284 281.227 217.539V212.445H280V211.82L281.227 211.281L281.773 209.453H282.523V211.438H285.008V212.445H282.523V217.484C282.523 218 282.646 218.396 282.891 218.672C283.135 218.948 283.471 219.086 283.898 219.086ZM292.648 220V214.461C292.648 213.763 292.49 213.242 292.172 212.898C291.854 212.555 291.357 212.383 290.68 212.383C289.779 212.383 289.12 212.628 288.703 213.117C288.292 213.607 288.086 214.409 288.086 215.523V220H286.789V207.844H288.086V211.523C288.086 211.966 288.065 212.333 288.023 212.625H288.102C288.357 212.214 288.719 211.891 289.188 211.656C289.661 211.417 290.201 211.297 290.805 211.297C291.852 211.297 292.635 211.547 293.156 212.047C293.682 212.542 293.945 213.331 293.945 214.414V220H292.648ZM300.234 220.156C298.969 220.156 297.969 219.771 297.234 219C296.505 218.229 296.141 217.159 296.141 215.789C296.141 214.409 296.479 213.312 297.156 212.5C297.839 211.688 298.753 211.281 299.898 211.281C300.971 211.281 301.82 211.635 302.445 212.344C303.07 213.047 303.383 213.977 303.383 215.133V215.953H297.484C297.51 216.958 297.763 217.721 298.242 218.242C298.727 218.763 299.406 219.023 300.281 219.023C301.203 219.023 302.115 218.831 303.016 218.445V219.602C302.557 219.799 302.122 219.94 301.711 220.023C301.305 220.112 300.812 220.156 300.234 220.156ZM299.883 212.367C299.195 212.367 298.646 212.591 298.234 213.039C297.828 213.487 297.589 214.107 297.516 214.898H301.992C301.992 214.081 301.81 213.456 301.445 213.023C301.081 212.586 300.56 212.367 299.883 212.367ZM188.922 242H187.625V233.438H188.922V242ZM187.516 231.117C187.516 230.82 187.589 230.604 187.734 230.469C187.88 230.328 188.062 230.258 188.281 230.258C188.49 230.258 188.669 230.328 188.82 230.469C188.971 230.609 189.047 230.826 189.047 231.117C189.047 231.409 188.971 231.628 188.82 231.773C188.669 231.914 188.49 231.984 188.281 231.984C188.062 231.984 187.88 231.914 187.734 231.773C187.589 231.628 187.516 231.409 187.516 231.117ZM197.531 242V236.461C197.531 235.763 197.372 235.242 197.055 234.898C196.737 234.555 196.24 234.383 195.562 234.383C194.667 234.383 194.01 234.625 193.594 235.109C193.177 235.594 192.969 236.393 192.969 237.508V242H191.672V233.438H192.727L192.938 234.609H193C193.266 234.188 193.638 233.862 194.117 233.633C194.596 233.398 195.13 233.281 195.719 233.281C196.75 233.281 197.526 233.531 198.047 234.031C198.568 234.526 198.828 235.32 198.828 236.414V242H197.531ZM205.359 234.445H203.18V242H201.883V234.445H200.352V233.859L201.883 233.391V232.914C201.883 230.81 202.802 229.758 204.641 229.758C205.094 229.758 205.625 229.849 206.234 230.031L205.898 231.07C205.398 230.909 204.971 230.828 204.617 230.828C204.128 230.828 203.766 230.992 203.531 231.32C203.297 231.643 203.18 232.164 203.18 232.883V233.438H205.359V234.445ZM214.312 237.711C214.312 239.107 213.961 240.198 213.258 240.984C212.555 241.766 211.583 242.156 210.344 242.156C209.578 242.156 208.898 241.977 208.305 241.617C207.711 241.258 207.253 240.742 206.93 240.07C206.607 239.398 206.445 238.612 206.445 237.711C206.445 236.315 206.794 235.229 207.492 234.453C208.19 233.672 209.159 233.281 210.398 233.281C211.596 233.281 212.547 233.68 213.25 234.477C213.958 235.273 214.312 236.352 214.312 237.711ZM207.789 237.711C207.789 238.805 208.008 239.638 208.445 240.211C208.883 240.784 209.526 241.07 210.375 241.07C211.224 241.07 211.867 240.786 212.305 240.219C212.747 239.646 212.969 238.81 212.969 237.711C212.969 236.622 212.747 235.797 212.305 235.234C211.867 234.667 211.219 234.383 210.359 234.383C209.51 234.383 208.87 234.661 208.438 235.219C208.005 235.776 207.789 236.607 207.789 237.711ZM220.5 233.281C220.88 233.281 221.221 233.312 221.523 233.375L221.344 234.578C220.99 234.5 220.677 234.461 220.406 234.461C219.714 234.461 219.12 234.742 218.625 235.305C218.135 235.867 217.891 236.568 217.891 237.406V242H216.594V233.438H217.664L217.812 235.023H217.875C218.193 234.466 218.576 234.036 219.023 233.734C219.471 233.432 219.964 233.281 220.5 233.281ZM234.039 242V236.43C234.039 235.747 233.893 235.237 233.602 234.898C233.31 234.555 232.857 234.383 232.242 234.383C231.435 234.383 230.839 234.615 230.453 235.078C230.068 235.542 229.875 236.255 229.875 237.219V242H228.578V236.43C228.578 235.747 228.432 235.237 228.141 234.898C227.849 234.555 227.393 234.383 226.773 234.383C225.961 234.383 225.365 234.628 224.984 235.117C224.609 235.602 224.422 236.398 224.422 237.508V242H223.125V233.438H224.18L224.391 234.609H224.453C224.698 234.193 225.042 233.867 225.484 233.633C225.932 233.398 226.432 233.281 226.984 233.281C228.323 233.281 229.198 233.766 229.609 234.734H229.672C229.927 234.286 230.297 233.932 230.781 233.672C231.266 233.411 231.818 233.281 232.438 233.281C233.406 233.281 234.13 233.531 234.609 234.031C235.094 234.526 235.336 235.32 235.336 236.414V242H234.039ZM243.281 242L243.023 240.781H242.961C242.534 241.318 242.107 241.682 241.68 241.875C241.258 242.062 240.729 242.156 240.094 242.156C239.245 242.156 238.578 241.938 238.094 241.5C237.615 241.062 237.375 240.44 237.375 239.633C237.375 237.904 238.758 236.997 241.523 236.914L242.977 236.867V236.336C242.977 235.664 242.831 235.169 242.539 234.852C242.253 234.529 241.792 234.367 241.156 234.367C240.443 234.367 239.635 234.586 238.734 235.023L238.336 234.031C238.758 233.802 239.219 233.622 239.719 233.492C240.224 233.362 240.729 233.297 241.234 233.297C242.255 233.297 243.01 233.523 243.5 233.977C243.995 234.43 244.242 235.156 244.242 236.156V242H243.281ZM240.352 241.086C241.159 241.086 241.792 240.865 242.25 240.422C242.714 239.979 242.945 239.359 242.945 238.562V237.789L241.648 237.844C240.617 237.88 239.872 238.042 239.414 238.328C238.961 238.609 238.734 239.049 238.734 239.648C238.734 240.117 238.875 240.474 239.156 240.719C239.443 240.964 239.841 241.086 240.352 241.086ZM249.688 241.086C249.917 241.086 250.138 241.07 250.352 241.039C250.565 241.003 250.734 240.966 250.859 240.93V241.922C250.719 241.99 250.51 242.044 250.234 242.086C249.964 242.133 249.719 242.156 249.5 242.156C247.844 242.156 247.016 241.284 247.016 239.539V234.445H245.789V233.82L247.016 233.281L247.562 231.453H248.312V233.438H250.797V234.445H248.312V239.484C248.312 240 248.435 240.396 248.68 240.672C248.924 240.948 249.26 241.086 249.688 241.086ZM253.875 242H252.578V233.438H253.875V242ZM252.469 231.117C252.469 230.82 252.542 230.604 252.688 230.469C252.833 230.328 253.016 230.258 253.234 230.258C253.443 230.258 253.622 230.328 253.773 230.469C253.924 230.609 254 230.826 254 231.117C254 231.409 253.924 231.628 253.773 231.773C253.622 231.914 253.443 231.984 253.234 231.984C253.016 231.984 252.833 231.914 252.688 231.773C252.542 231.628 252.469 231.409 252.469 231.117ZM264.016 237.711C264.016 239.107 263.664 240.198 262.961 240.984C262.258 241.766 261.286 242.156 260.047 242.156C259.281 242.156 258.602 241.977 258.008 241.617C257.414 241.258 256.956 240.742 256.633 240.07C256.31 239.398 256.148 238.612 256.148 237.711C256.148 236.315 256.497 235.229 257.195 234.453C257.893 233.672 258.862 233.281 260.102 233.281C261.299 233.281 262.25 233.68 262.953 234.477C263.661 235.273 264.016 236.352 264.016 237.711ZM257.492 237.711C257.492 238.805 257.711 239.638 258.148 240.211C258.586 240.784 259.229 241.07 260.078 241.07C260.927 241.07 261.57 240.786 262.008 240.219C262.451 239.646 262.672 238.81 262.672 237.711C262.672 236.622 262.451 235.797 262.008 235.234C261.57 234.667 260.922 234.383 260.062 234.383C259.214 234.383 258.573 234.661 258.141 235.219C257.708 235.776 257.492 236.607 257.492 237.711ZM272.156 242V236.461C272.156 235.763 271.997 235.242 271.68 234.898C271.362 234.555 270.865 234.383 270.188 234.383C269.292 234.383 268.635 234.625 268.219 235.109C267.802 235.594 267.594 236.393 267.594 237.508V242H266.297V233.438H267.352L267.562 234.609H267.625C267.891 234.188 268.263 233.862 268.742 233.633C269.221 233.398 269.755 233.281 270.344 233.281C271.375 233.281 272.151 233.531 272.672 234.031C273.193 234.526 273.453 235.32 273.453 236.414V242H272.156Z" fill="#5C5C5D"/>
<g clip-path="url(#clip0)">
<path opacity="0.18" d="M220.01 88.4686C213.308 94.0643 207.907 101.201 200.779 106.264C194.186 110.928 186.228 113.725 180.554 119.471C175.709 124.377 172.994 131.001 173 137.902C173.005 144.802 175.731 151.422 180.583 156.32C187.369 163.168 197.401 165.749 207.019 166.256C216.638 166.763 226.282 165.502 235.901 166.019C245.003 166.51 254.054 168.587 263.144 167.9C272.234 167.213 281.859 162.921 285.449 154.532C289.423 145.247 284.869 134.801 281.728 125.205C279.357 117.949 277.792 110.454 277.061 102.854C275.971 91.4864 273.965 75.7009 259.683 75.0717C245.497 74.4264 230.885 79.3736 220.01 88.4686Z" fill="#D80A49"/>
<path d="M258.253 151.651C258.843 151.953 258.929 152.82 258.596 153.388C258.263 153.956 257.635 154.296 257.048 154.576C255.636 155.232 254.155 155.724 252.631 156.043C251.942 156.191 251.029 156.582 251.202 157.269C251.327 157.818 252.035 157.95 252.596 157.959C260.929 158.088 269.17 155.847 277.5 156.033C278.051 156.033 278.663 156.094 279.042 156.499C279.519 157.009 279.391 157.831 279.122 158.476C277.635 162.059 273.353 163.456 269.526 164.075C260.811 165.491 251.92 165.086 243.093 164.987C225.513 164.794 207.885 165.831 190.369 164.297C189.998 164.298 189.634 164.195 189.317 164.001C189.005 163.724 188.813 163.336 188.782 162.919C188.484 160.785 190.189 158.778 192.196 157.998C194.202 157.218 196.429 157.356 198.577 157.513C207.676 158.155 216.814 158.701 225.91 158.014C231.868 157.615 237.76 156.538 243.474 154.804C246.099 153.985 248.756 152.373 251.439 151.882C252.266 151.731 253.106 151.834 253.939 151.792C255.151 151.731 257.125 151.076 258.253 151.651Z" fill="url(#paint0_linear)"/>
<path d="M173 136.312C173.032 137.387 173.561 138.376 174.09 139.314C176.497 143.567 179.189 147.754 182.907 150.913C188.381 155.552 195.551 157.549 202.474 159.423C201.853 159.122 201.109 155.927 200.833 155.224C200.298 153.847 199.798 152.457 199.282 151.076C198.471 148.89 196.76 147.131 195.115 145.522C191.347 141.893 186.777 139.207 181.776 137.683C178.929 136.814 175.975 136.353 173 136.312Z" fill="#D80A49"/>
<path d="M173 136.312C173.032 137.387 173.561 138.376 174.09 139.314C176.497 143.567 179.189 147.754 182.907 150.913C188.381 155.552 195.551 157.549 202.474 159.423C201.853 159.122 201.109 155.927 200.833 155.224C200.298 153.847 199.798 152.457 199.282 151.076C198.471 148.89 196.76 147.131 195.115 145.522C191.347 141.893 186.777 139.207 181.776 137.683C178.929 136.814 175.975 136.353 173 136.312Z" fill="url(#paint1_linear)"/>
<path d="M200.087 138.688C199.522 134.732 198.942 130.723 197.353 127.056C195.763 123.39 193.01 120.067 189.269 118.661L188.949 135.66C188.885 138.932 188.83 142.267 189.766 145.404C191.413 150.9 197.119 157.349 202.619 159.167C203.433 156.524 202.064 152.528 201.657 149.786L200.087 138.688Z" fill="#D80A49"/>
<path d="M268.276 133.583C268.247 134.655 267.715 135.647 267.186 136.582C264.785 140.835 262.09 145.025 258.365 148.181C252.891 152.82 245.724 154.82 238.814 156.691C239.433 156.39 240.176 153.195 240.452 152.492C240.987 151.115 241.487 149.728 242.003 148.344C242.814 146.158 244.526 144.402 246.189 142.794C249.95 139.165 254.514 136.478 259.51 134.954C262.352 134.083 265.304 133.621 268.276 133.583Z" fill="#D80A49"/>
<path d="M268.276 133.583C268.247 134.655 267.715 135.647 267.186 136.582C264.785 140.835 262.09 145.025 258.365 148.181C252.891 152.82 245.724 154.82 238.814 156.691C239.433 156.39 240.176 153.195 240.452 152.492C240.987 151.115 241.487 149.728 242.003 148.344C242.814 146.158 244.526 144.402 246.189 142.794C249.95 139.165 254.514 136.478 259.51 134.954C262.352 134.083 265.304 133.621 268.276 133.583Z" fill="url(#paint2_linear)"/>
<path d="M241.189 135.962C241.753 132.007 242.333 127.994 243.923 124.331C245.513 120.668 248.266 117.326 252.006 115.932C252.115 121.6 252.222 127.265 252.327 132.928C252.388 136.203 252.446 139.538 251.506 142.675C249.862 148.171 244.154 154.621 238.657 156.435C237.84 153.796 239.208 149.795 239.599 147.054L241.189 135.962Z" fill="#D80A49"/>
<path d="M235.494 80.5989L205.824 83.5235C202.76 83.8253 200.272 86.4129 200.272 89.2862V155.918C200.272 158.807 202.76 160.887 205.824 160.586L235.494 157.661C238.561 157.359 241.048 154.772 241.048 151.901V85.27C241.048 82.3871 238.561 80.2971 235.494 80.5989ZM238.215 152.043C238.215 153.818 236.683 155.407 234.795 155.593L205.965 158.435C204.074 158.621 202.542 157.333 202.542 155.545V89.0903C202.542 87.315 204.074 85.7259 205.965 85.5397L210.285 85.1127V85.5076C210.285 86.644 211.266 87.4691 212.474 87.3503L228.42 85.7997C228.998 85.7507 229.539 85.4934 229.942 85.0754C230.345 84.6574 230.583 84.1072 230.612 83.5268V83.1479L234.779 82.737C236.667 82.5508 238.199 83.8382 238.199 85.6263L238.215 152.043Z" fill="#D80A49"/>
<path d="M236.891 81.8285L207.218 84.7531C204.154 85.0549 201.667 87.6425 201.667 90.5318V157.147C201.667 160.037 204.154 162.117 207.218 161.815L236.891 158.894C239.955 158.592 242.442 156.004 242.442 153.131V86.4996C242.442 83.6199 239.958 81.5428 236.891 81.8285ZM239.612 153.272C239.612 155.048 238.08 156.637 236.189 156.823L207.343 159.664C205.452 159.85 203.92 158.563 203.92 156.775V90.3199C203.92 88.5446 205.452 86.9523 207.343 86.7661L211.679 86.3583V86.75C211.679 87.8865 212.66 88.7115 213.869 88.5928L229.817 87.0229C230.394 86.9719 230.933 86.7143 231.335 86.2973C231.737 85.8804 231.975 85.3321 232.006 84.7531V84.3647L236.189 83.9505C238.08 83.7643 239.612 85.0549 239.612 86.8399V153.272Z" fill="white"/>
<path d="M239.612 86.8303V153.285C239.612 155.06 238.08 156.65 236.189 156.836L207.343 159.677C205.452 159.863 203.92 158.576 203.92 156.788V90.3328C203.92 88.5574 205.452 86.9651 207.343 86.7789L211.679 86.3583V86.75C211.679 87.8865 212.66 88.7115 213.869 88.5928L229.817 87.0229C230.394 86.9719 230.933 86.7143 231.335 86.2973C231.737 85.8804 231.975 85.3321 232.006 84.7531V84.3647L236.189 83.9505C238.08 83.7643 239.612 85.0549 239.612 86.8303Z" stroke="url(#paint3_linear)" stroke-width="0.63" stroke-miterlimit="10"/>
<path d="M239.612 86.8303V153.285C239.612 155.06 238.08 156.65 236.189 156.836L207.343 159.677C205.452 159.863 203.92 158.576 203.92 156.788V90.3328C203.92 88.5574 205.452 86.9651 207.343 86.7789L211.679 86.3583V86.75C211.679 87.8865 212.66 88.7115 213.869 88.5928L229.817 87.0229C230.394 86.9719 230.933 86.7143 231.335 86.2973C231.737 85.8804 231.975 85.3321 232.006 84.7531V84.3647L236.189 83.9505C238.08 83.7643 239.612 85.0549 239.612 86.8303Z" fill="#D80A49"/>
<path d="M229.766 149.885L215.279 151.275C215.075 151.292 214.869 151.267 214.675 151.2C214.482 151.133 214.304 151.027 214.153 150.888C214.003 150.749 213.883 150.58 213.8 150.392C213.718 150.204 213.676 150.001 213.676 149.795V146.165C213.676 145.791 213.815 145.431 214.066 145.154C214.316 144.878 214.661 144.704 215.032 144.668L229.513 143.278C229.719 143.259 229.926 143.282 230.122 143.348C230.318 143.413 230.498 143.519 230.651 143.658C230.804 143.798 230.926 143.968 231.009 144.157C231.092 144.347 231.135 144.551 231.135 144.758V148.389C231.134 148.765 230.993 149.126 230.74 149.403C230.487 149.68 230.139 149.852 229.766 149.885Z" fill="url(#paint4_linear)"/>
<path d="M224.016 86.1593L218.535 86.6986V86.2428L224.016 85.7034V86.1593Z" fill="url(#paint5_linear)"/>
<path d="M225.735 86.1883C226.027 86.0173 226.141 85.6678 225.989 85.4076C225.837 85.1474 225.477 85.075 225.186 85.2459C224.894 85.4168 224.78 85.7663 224.932 86.0266C225.084 86.2868 225.444 86.3592 225.735 86.1883Z" fill="url(#paint6_linear)"/>
<path d="M211.112 137.118L232.013 135.111C232.718 135.048 233.373 134.721 233.848 134.195C234.323 133.67 234.583 132.985 234.577 132.276V108.658C234.574 108.228 234.482 107.804 234.307 107.412C234.133 107.02 233.879 106.668 233.563 106.378C233.246 106.089 232.874 105.868 232.468 105.729C232.062 105.59 231.632 105.537 231.205 105.572L210.305 107.579C209.6 107.642 208.945 107.968 208.47 108.493C207.995 109.018 207.734 109.702 207.74 110.411V134.033C207.744 134.462 207.836 134.886 208.01 135.278C208.185 135.67 208.438 136.022 208.755 136.312C209.071 136.601 209.444 136.822 209.849 136.961C210.255 137.1 210.685 137.153 211.112 137.118Z" fill="#C9D9DF"/>
<path d="M212.346 137.452L233.247 135.445C233.951 135.382 234.606 135.056 235.081 134.531C235.556 134.006 235.817 133.322 235.811 132.614V108.992C235.808 108.562 235.716 108.138 235.541 107.746C235.367 107.354 235.113 107.002 234.797 106.712C234.48 106.423 234.108 106.202 233.702 106.063C233.296 105.924 232.866 105.871 232.439 105.906L211.538 107.913C210.834 107.977 210.179 108.303 209.704 108.829C209.229 109.354 208.968 110.039 208.974 110.748V134.366C208.978 134.796 209.07 135.22 209.244 135.612C209.419 136.004 209.672 136.356 209.988 136.646C210.305 136.935 210.678 137.156 211.083 137.295C211.489 137.434 211.919 137.487 212.346 137.452Z" fill="url(#paint7_linear)"/>
<path d="M230.49 149.404L216.01 150.791C215.804 150.811 215.597 150.788 215.401 150.723C215.205 150.658 215.024 150.552 214.871 150.413C214.719 150.274 214.597 150.104 214.513 149.915C214.43 149.725 214.387 149.521 214.388 149.314V145.683C214.388 145.309 214.526 144.949 214.777 144.673C215.028 144.396 215.372 144.223 215.744 144.187L230.224 142.797C230.43 142.777 230.638 142.801 230.834 142.866C231.03 142.932 231.21 143.037 231.363 143.177C231.515 143.316 231.637 143.486 231.721 143.676C231.804 143.865 231.847 144.07 231.846 144.277V147.908C231.846 148.281 231.707 148.642 231.457 148.918C231.206 149.195 230.862 149.368 230.49 149.404Z" fill="white"/>
<path d="M218.689 147.834L219.285 147.776C219.286 147.807 219.294 147.837 219.308 147.864C219.322 147.891 219.341 147.915 219.365 147.933C219.43 147.974 219.508 147.99 219.583 147.978C219.659 147.973 219.732 147.947 219.795 147.905C219.823 147.887 219.846 147.862 219.862 147.833C219.878 147.804 219.886 147.771 219.885 147.738C219.887 147.722 219.887 147.705 219.885 147.689C219.866 147.666 219.843 147.646 219.817 147.632C219.765 147.601 219.707 147.579 219.647 147.567L219.362 147.503C219.25 147.485 219.142 147.449 219.042 147.397C218.963 147.359 218.896 147.302 218.846 147.23C218.773 147.126 218.734 147.001 218.734 146.874C218.732 146.772 218.753 146.67 218.794 146.576C218.836 146.483 218.897 146.399 218.974 146.331C219.144 146.182 219.358 146.093 219.583 146.078C219.795 146.045 220.011 146.096 220.186 146.219C220.263 146.279 220.325 146.356 220.366 146.445C220.407 146.534 220.425 146.632 220.42 146.73L219.83 146.784C219.83 146.64 219.747 146.575 219.577 146.591C219.508 146.593 219.442 146.617 219.388 146.659C219.367 146.676 219.35 146.697 219.338 146.722C219.326 146.746 219.32 146.773 219.32 146.8C219.32 146.884 219.394 146.941 219.545 146.97L219.824 147.031C220.272 147.121 220.497 147.352 220.497 147.673C220.5 147.828 220.449 147.979 220.353 148.1C220.263 148.216 220.147 148.306 220.013 148.364C219.881 148.422 219.74 148.458 219.596 148.47C219.373 148.503 219.145 148.454 218.955 148.332C218.873 148.277 218.805 148.204 218.759 148.117C218.712 148.03 218.688 147.933 218.689 147.834Z" fill="#D80A49"/>
<path d="M222.532 147.356L223.016 147.635C222.904 147.811 222.752 147.96 222.574 148.068C222.395 148.18 222.193 148.248 221.984 148.267C221.827 148.287 221.668 148.273 221.518 148.226C221.367 148.18 221.228 148.102 221.109 147.998C220.992 147.897 220.899 147.772 220.836 147.631C220.773 147.49 220.743 147.337 220.747 147.182C220.747 146.852 220.877 146.535 221.109 146.299C221.335 146.049 221.648 145.895 221.984 145.869C222.186 145.847 222.39 145.876 222.577 145.956C222.753 146.032 222.906 146.154 223.019 146.309L222.529 146.681C222.472 146.596 222.392 146.529 222.298 146.489C222.198 146.443 222.087 146.425 221.978 146.437C221.802 146.452 221.639 146.534 221.522 146.665C221.402 146.789 221.336 146.955 221.337 147.128C221.333 147.208 221.349 147.288 221.381 147.362C221.413 147.436 221.461 147.502 221.522 147.555C221.584 147.61 221.656 147.651 221.735 147.675C221.813 147.699 221.896 147.707 221.978 147.696C222.091 147.688 222.202 147.651 222.298 147.59C222.393 147.531 222.473 147.451 222.532 147.356Z" fill="#D80A49"/>
<path d="M224.869 147.956L224.663 147.439L223.901 147.51L223.696 148.065L223.054 148.123L223.952 145.702L224.593 145.644L225.484 147.892L224.869 147.956ZM224.276 146.216L224.058 147.006L224.513 146.964L224.276 146.216Z" fill="#D80A49"/>
<path d="M226.984 145.429L227.571 145.375V147.715L227.058 147.76L226.314 146.553V147.837L225.724 147.892V145.551L226.256 145.503L226.984 146.694V145.429Z" fill="#D80A49"/>
<path d="M250.482 112.384L234.761 105.096L209.024 108.213L209.678 135.72L211.819 136.654L235.28 134.77L236.514 132.15L250.248 113.462L250.482 112.384Z" fill="url(#paint8_linear)"/>
<path d="M249.163 114.533V112.228C249.163 112.151 249.183 112.076 249.222 112.01C249.26 111.944 249.315 111.89 249.381 111.852L250.663 111.136C250.798 111.059 251.33 111.37 251.33 111.525L250.968 115.48L250.067 116.176L249.167 115.647L249.163 114.533Z" fill="white"/>
<path d="M249.163 114.533V112.228C249.163 112.151 249.183 112.076 249.222 112.01C249.26 111.944 249.315 111.89 249.381 111.852L250.663 111.136C250.798 111.059 251.33 111.37 251.33 111.525L250.968 115.48L250.067 116.176L249.167 115.647L249.163 114.533Z" fill="url(#paint9_linear)"/>
<path d="M249.542 114.818V112.51C249.541 112.434 249.561 112.36 249.6 112.294C249.638 112.228 249.693 112.174 249.76 112.138L251.042 111.419C251.073 111.401 251.108 111.392 251.143 111.393C251.178 111.393 251.213 111.403 251.244 111.42C251.275 111.438 251.3 111.464 251.318 111.494C251.336 111.525 251.346 111.56 251.346 111.595V115.769L250.446 116.462L249.545 115.936L249.542 114.818Z" fill="white"/>
<path d="M249.776 114.722V112.847L251.234 111.926V115.027L250.913 116.07L250.234 116.295C250.234 116.295 249.872 116.141 249.872 116.093" fill="#D80A49"/>
<path d="M270.16 131.798L269.968 132.058L270.66 122.183L270.798 120.199L270.865 119.236L271.228 120.016C271.907 121.451 273.317 124.453 273.712 125.275C274.163 126.218 270.984 130.662 270.16 131.798Z" fill="white"/>
<path opacity="0.1" d="M270.16 131.798C270.08 131.609 270.051 131.402 270.074 131.198C270.158 130.747 270.352 130.323 270.638 129.965C271.401 128.841 272.356 127.65 272.795 126.347C273.372 124.623 271.481 123.554 270.66 122.173C270.45 121.85 270.326 121.479 270.298 121.095C270.284 120.911 270.324 120.728 270.413 120.567C270.502 120.406 270.636 120.275 270.798 120.189C270.931 120.107 271.076 120.044 271.228 120.003C271.907 121.438 273.317 124.44 273.712 125.262C274.163 126.218 270.984 130.662 270.16 131.798Z" fill="#020202"/>
<path d="M265.465 158.968C265.16 159.107 264.908 159.341 264.747 159.635C264.713 159.701 264.703 159.775 264.718 159.847C264.741 159.9 264.776 159.948 264.82 159.986C264.864 160.024 264.915 160.053 264.971 160.069C265.779 160.39 266.692 160.329 267.535 160.175C268.381 159.967 269.245 159.841 270.115 159.799C270.189 159.811 270.264 159.807 270.336 159.787C270.408 159.767 270.475 159.732 270.532 159.683C270.586 159.603 270.612 159.507 270.606 159.411C270.641 158.653 270.509 157.897 270.221 157.195C270.24 157.24 267.936 157.333 267.737 157.468C267.372 157.722 267.067 158.046 266.676 158.281C266.285 158.515 265.872 158.736 265.465 158.968Z" fill="#282328"/>
<path d="M268.529 142.444C268.513 145.399 268.745 148.35 269.221 151.266C269.298 151.773 269.381 152.277 269.484 152.781C270.24 156.505 270.301 157.452 270.301 157.452H267.263C267.263 157.452 265.019 146.906 264.186 144.505C263.556 142.685 263.064 140.82 262.715 138.925C262.579 138.027 262.69 137.109 263.035 136.27C263.152 135.939 263.32 135.628 263.532 135.349C263.945 134.892 264.462 134.542 265.038 134.328C266.265 133.772 267.593 133.473 268.939 133.448C269.093 133.435 269.247 133.469 269.381 133.545C269.467 133.615 269.536 133.706 269.58 133.808C269.974 134.61 269.901 135.554 269.779 136.44C269.726 136.932 269.618 137.417 269.458 137.885C269.279 138.363 268.997 138.797 268.833 139.281C268.694 139.748 268.612 140.23 268.59 140.716C268.571 141.291 268.542 141.866 268.529 142.444Z" fill="#282328"/>
<path d="M260.913 140.113C260.977 140.497 261.002 140.886 260.987 141.275C260.974 141.972 260.997 142.67 261.055 143.365C261.224 146.675 261.724 149.972 261.728 153.285C261.728 156.11 261.635 159.064 261.635 159.064C261.635 159.064 264.093 159.821 264.66 159.253L265.606 145.609C265.75 144.579 265.971 143.532 266.045 142.495C266.109 141.593 266.128 140.829 266.465 139.962C266.843 138.999 267.381 138.09 267.673 137.089C267.862 136.447 267.943 135.779 267.913 135.111C267.923 134.906 267.867 134.704 267.753 134.533C267.641 134.417 267.504 134.328 267.353 134.273C265.651 133.516 263.885 132.745 262.022 132.761C261.872 132.749 261.722 132.781 261.59 132.854C261.464 132.958 261.374 133.098 261.33 133.256C260.645 135.066 260.434 137.023 260.718 138.938C260.792 139.352 260.856 139.731 260.913 140.113Z" fill="#473F47"/>
<path d="M251.734 116.857C251.66 116.424 251.67 115.971 251.631 115.531C251.63 115.358 251.583 115.189 251.497 115.04C251.451 114.967 251.381 114.912 251.299 114.885C251.217 114.857 251.129 114.859 251.048 114.889C250.849 114.989 250.843 115.261 250.849 115.483C250.856 115.704 250.798 115.987 250.58 116.029C250.498 116.037 250.415 116.02 250.343 115.981C250.234 115.922 250.141 115.839 250.069 115.738C249.998 115.638 249.951 115.522 249.933 115.399C249.913 115.255 249.933 115.104 249.907 114.96C249.824 114.542 249.285 114.613 249.035 114.831C248.888 114.974 248.768 115.142 248.683 115.329C248.502 115.644 248.369 115.985 248.288 116.34C248.022 117.788 249.766 118.099 250.503 119.024C250.609 119.167 250.727 119.302 250.856 119.425C250.981 119.533 251.132 119.605 251.294 119.636C251.456 119.666 251.623 119.653 251.779 119.599C251.934 119.542 252.07 119.444 252.175 119.317C252.28 119.189 252.349 119.036 252.375 118.873C252.462 118.334 252.071 117.849 251.878 117.335C251.815 117.181 251.767 117.021 251.734 116.857Z" fill="#FFBBAB"/>
<path d="M264.269 113.094C264.299 113.135 264.322 113.181 264.337 113.229C264.359 113.327 264.359 113.43 264.337 113.528C264.207 114.108 264.118 114.697 264.071 115.29C264.046 115.456 264.077 115.626 264.16 115.772C264.293 115.913 264.474 115.998 264.667 116.009C264.947 116.054 265.232 116.074 265.516 116.067C265.628 116.067 265.766 116.067 265.837 116.16C265.86 116.203 265.874 116.25 265.875 116.298C265.888 116.52 265.845 116.74 265.75 116.94C265.692 117.037 265.663 117.149 265.667 117.261C265.689 117.467 265.987 117.448 266.141 117.457C266.724 117.486 267.311 117.489 267.894 117.457C267.995 117.462 268.095 117.441 268.186 117.396C268.343 117.303 268.378 117.095 268.423 116.918C268.622 116.099 269.253 115.464 269.593 114.693C269.768 114.283 269.86 113.842 269.864 113.395C269.868 112.949 269.783 112.506 269.615 112.093C269.454 111.699 269.224 111.337 268.936 111.024C268.673 110.732 268.167 110.671 267.801 110.593C267.16 110.459 266.449 110.42 265.878 110.764C265.237 111.149 264.942 111.939 264.298 112.308C264.186 112.372 264.048 112.436 264.01 112.561C264 112.625 264.005 112.69 264.026 112.751C264.047 112.812 264.082 112.867 264.128 112.911C264.17 112.976 264.224 113.03 264.269 113.094Z" fill="#FFBBAB"/>
<path d="M266.054 110.539C266.069 110.638 266.099 110.735 266.144 110.825C266.349 111.252 266.619 111.146 266.987 111.2C267.436 111.281 267.728 111.785 267.821 112.195C267.901 112.694 267.884 113.203 267.772 113.695C267.871 113.613 267.993 113.565 268.12 113.556C268.248 113.548 268.375 113.579 268.484 113.647C268.59 113.72 268.672 113.823 268.721 113.943C268.77 114.063 268.783 114.194 268.76 114.321C268.733 114.448 268.672 114.566 268.582 114.661C268.493 114.755 268.379 114.823 268.253 114.857C268.128 114.889 267.981 114.895 267.904 114.998C267.862 115.072 267.844 115.157 267.853 115.242C267.853 115.788 267.875 116.382 268.221 116.806C268.702 116.757 269.067 116.372 269.426 116.051C269.936 115.595 270.519 115.223 271.01 114.745C271.529 114.288 271.852 113.647 271.91 112.956C271.926 111.849 270.949 110.995 270.59 109.951C270.526 109.716 270.441 109.488 270.337 109.268C270.24 109.117 270.114 108.987 269.965 108.888C269.816 108.789 269.648 108.722 269.472 108.692C269.295 108.662 269.115 108.669 268.941 108.713C268.768 108.756 268.606 108.836 268.465 108.947C268.206 108.776 267.904 108.686 267.595 108.686C267.285 108.686 266.983 108.776 266.724 108.947C266.488 109.134 266.302 109.378 266.185 109.656C266.068 109.935 266.023 110.238 266.054 110.539Z" fill="#1B191B"/>
<path d="M270.747 122.719C270.614 123.754 270.571 124.798 270.619 125.84C270.647 126.857 270.696 127.869 270.737 128.886C270.542 129.763 270.324 130.639 270.096 131.506C269.952 132.214 269.713 132.9 269.388 133.545C269.224 133.855 269.007 134.134 268.747 134.37C268.491 134.595 268.2 134.776 267.885 134.906C267.145 135.18 266.354 135.29 265.567 135.227C265.013 135.205 264.462 135.121 263.926 134.976C263.238 134.804 262.598 134.474 262.058 134.013C261.786 133.77 261.549 133.492 261.353 133.185C260.882 132.429 260.597 131.572 260.522 130.684C260.361 129.227 260.549 127.752 261.071 126.382C261.099 126.302 261.131 126.225 261.163 126.145C261.385 125.58 261.606 125.015 261.833 124.449C261.833 124.449 261.833 124.433 261.833 124.427C261.869 124.337 261.904 124.254 261.936 124.167L261.955 124.119L261.83 124.17L261.699 124.218C261.657 124.235 261.614 124.249 261.571 124.26C261.478 124.295 261.378 124.321 261.285 124.347L260.965 124.427C260.782 124.466 260.596 124.501 260.41 124.523L260.157 124.552C257.827 124.758 255.285 123.814 253.337 122.77C252.701 122.446 252.119 122.025 251.612 121.522C251.507 121.409 251.407 121.291 251.314 121.168C251.081 120.861 250.909 120.511 250.808 120.138C250.737 119.912 250.737 119.67 250.808 119.445C250.812 119.436 250.818 119.427 250.824 119.419C250.894 119.264 250.992 119.124 251.112 119.005C251.408 118.68 251.722 118.371 252.051 118.08L252.154 117.99C252.242 117.913 252.346 117.855 252.458 117.82C252.569 117.795 252.684 117.795 252.795 117.819C252.905 117.844 253.009 117.892 253.099 117.961C253.263 118.076 253.416 118.206 253.554 118.35C254.444 119.199 255.5 119.856 256.655 120.278C257.81 120.7 259.039 120.879 260.266 120.802C260.94 120.774 261.602 120.615 262.215 120.334C262.753 120.042 263.252 119.684 263.702 119.268C264.108 118.935 264.496 118.579 264.862 118.202C264.958 118.099 265.058 117.993 265.144 117.881C265.231 117.769 265.285 117.708 265.353 117.621L265.436 117.512C265.509 117.401 265.605 117.306 265.718 117.236C265.88 117.161 266.056 117.126 266.234 117.133C266.929 117.104 267.686 116.973 268.372 116.989H268.446C268.512 116.991 268.579 116.999 268.644 117.011C268.882 117.048 269.104 117.152 269.285 117.31C269.508 117.524 269.712 117.759 269.894 118.009C270.321 118.478 270.656 119.022 270.881 119.615C271.215 120.597 270.901 121.673 270.747 122.719Z" fill="white"/>
<path d="M271.548 122.613C271.546 123.727 271.461 124.838 271.295 125.939C271.151 126.931 270.974 127.91 270.737 128.886C270.696 127.869 270.647 126.857 270.619 125.84C270.571 124.798 270.614 123.754 270.747 122.719C270.901 121.676 271.215 120.597 270.891 119.595C270.665 119.003 270.331 118.458 269.904 117.99C269.722 117.739 269.518 117.505 269.295 117.29C269.936 117.775 270.442 118.677 270.865 119.217C271.587 120.164 271.542 121.483 271.548 122.613Z" fill="white"/>
<path opacity="0.1" d="M271.548 122.613C271.546 123.727 271.461 124.838 271.295 125.939C271.151 126.931 270.974 127.91 270.737 128.886C270.696 127.869 270.647 126.857 270.619 125.84C270.571 124.798 270.614 123.754 270.747 122.719C270.901 121.676 271.215 120.597 270.891 119.595C270.665 119.003 270.331 118.458 269.904 117.99C269.722 117.739 269.518 117.505 269.295 117.29C269.936 117.775 270.442 118.677 270.865 119.217C271.587 120.164 271.542 121.483 271.548 122.613Z" fill="#020202"/>
<path opacity="0.1" d="M270.747 122.719C270.614 123.754 270.571 124.798 270.619 125.84C270.647 126.857 270.696 127.869 270.737 128.886C270.542 129.763 270.324 130.639 270.096 131.506C269.952 132.214 269.713 132.9 269.388 133.545C269.224 133.855 269.007 134.134 268.747 134.37C268.491 134.595 268.2 134.776 267.885 134.906C267.145 135.18 266.354 135.29 265.567 135.227C265.013 135.205 264.462 135.121 263.926 134.976C263.238 134.804 262.598 134.474 262.058 134.013C261.786 133.77 261.549 133.492 261.353 133.185C260.882 132.429 260.597 131.572 260.522 130.684C260.361 129.227 260.549 127.752 261.071 126.382C261.099 126.302 261.131 126.225 261.163 126.145C261.417 125.592 261.64 125.026 261.833 124.449C261.833 124.449 261.833 124.433 261.833 124.427C261.859 124.331 261.881 124.241 261.904 124.148C261.88 124.158 261.856 124.166 261.83 124.17L261.699 124.218C261.657 124.235 261.614 124.249 261.571 124.26C261.478 124.295 261.378 124.321 261.285 124.347L260.965 124.427C260.782 124.466 260.596 124.501 260.41 124.523L260.157 124.552C257.795 124.793 255.372 123.868 253.337 122.77C252.701 122.446 252.119 122.025 251.612 121.522C251.507 121.409 251.407 121.291 251.314 121.168C251.081 120.861 250.909 120.511 250.808 120.138C250.737 119.912 250.737 119.67 250.808 119.445C250.812 119.436 250.818 119.427 250.824 119.419C250.894 119.264 250.992 119.124 251.112 119.005C251.408 118.68 251.722 118.371 252.051 118.08L252.154 117.99C252.242 117.913 252.346 117.855 252.458 117.82C252.569 117.795 252.684 117.795 252.795 117.819C252.905 117.844 253.009 117.892 253.099 117.961C253.263 118.076 253.416 118.206 253.554 118.35C254.444 119.199 255.5 119.856 256.655 120.278C257.81 120.7 259.039 120.879 260.266 120.802C260.94 120.774 261.602 120.615 262.215 120.334C262.753 120.042 263.252 119.684 263.702 119.268C264.108 118.935 264.496 118.579 264.862 118.202C264.958 118.099 265.058 117.993 265.144 117.881C265.231 117.769 265.285 117.708 265.353 117.621L265.436 117.512C265.509 117.401 265.605 117.306 265.718 117.236C265.88 117.161 266.056 117.126 266.234 117.133C266.929 117.104 267.686 116.973 268.372 116.989H268.446C268.512 116.991 268.579 116.999 268.644 117.011C268.877 117.063 269.096 117.165 269.285 117.31C269.508 117.524 269.712 117.759 269.894 118.009C270.321 118.478 270.656 119.022 270.881 119.615C271.215 120.597 270.901 121.673 270.747 122.719Z" fill="#020202"/>
<path d="M259.798 160.762C259.493 160.901 259.241 161.135 259.08 161.43C259.047 161.495 259.036 161.57 259.051 161.642C259.074 161.695 259.109 161.742 259.153 161.78C259.197 161.818 259.249 161.845 259.304 161.86C260.112 162.181 261.026 162.123 261.885 161.969C262.732 161.761 263.597 161.636 264.468 161.594C264.541 161.605 264.616 161.601 264.687 161.581C264.759 161.561 264.825 161.526 264.881 161.478C264.935 161.398 264.961 161.302 264.955 161.205C264.99 160.447 264.859 159.691 264.571 158.99C264.59 159.035 262.285 159.125 262.09 159.263C261.721 159.516 261.417 159.841 261.026 160.075C260.635 160.309 260.205 160.518 259.798 160.762Z" fill="#282328"/>
<path d="M255.939 121.785C254.404 121.236 252.84 120.693 251.615 119.589C251.474 119.488 251.377 119.336 251.343 119.165C251.354 119.059 251.388 118.958 251.444 118.867C251.499 118.776 251.574 118.7 251.663 118.642C251.883 118.421 252.132 118.231 252.404 118.08C252.54 118.004 252.691 117.958 252.846 117.944C253.001 117.93 253.157 117.949 253.305 118C253.51 118.103 253.694 118.244 253.849 118.414C254.977 119.43 256.364 120.113 257.856 120.385C259.308 120.706 260.907 120.725 262.301 120.16C263.109 119.839 264.865 117.711 265.651 118.022C266.436 118.334 266.09 119.904 265.708 120.392C264.885 121.441 262.798 121.939 261.542 122.177C259.673 122.547 257.739 122.412 255.939 121.785Z" fill="white"/>
<path d="M268.163 118.314C268.34 118.231 268.497 118.111 268.623 117.961C268.749 117.811 268.842 117.636 268.894 117.448C268.473 117.361 268.04 117.339 267.612 117.383L266.385 117.444L265.577 117.486C265.074 117.515 265.064 117.737 265.256 118.083C265.346 118.247 265.577 118.379 265.673 118.555C265.769 118.732 265.785 118.921 265.901 119.056C266.221 119.441 266.311 119.223 266.724 118.973C267.138 118.722 267.692 118.571 268.163 118.314Z" fill="white"/>
<path d="M248.26 88.7629L262.667 87.2476L252.365 91.2895L248.26 88.7629Z" fill="#D80A49"/>
<path d="M262.667 87.2476L254.08 95.5689L252.365 91.2895L262.667 87.2476Z" fill="#D80A49"/>
<path d="M262.667 87.2476L254.08 95.5689L252.365 91.2895L262.667 87.2476Z" fill="url(#paint10_linear)"/>
<path d="M250.667 95.8546L252.365 91.2895L262.667 87.2476L250.667 95.8546Z" fill="#D80A49"/>
<path d="M262.667 87.2476L252.365 90.4066L248.26 88.7629L252.365 91.2895L262.667 87.2476Z" fill="url(#paint11_linear)"/>
<path opacity="0.1" d="M220.9 117.525H218.625V119.93H220.9V117.525Z" fill="#D80A49"/>
<path opacity="0.1" d="M220.9 122.208H218.625V124.486H220.9V122.208Z" fill="#D80A49"/>
<path opacity="0.1" d="M220.9 127.018V128.663C220.139 128.617 219.381 128.543 218.625 128.441V127.018H220.9Z" fill="#D80A49"/>
<path opacity="0.1" d="M226.208 116.892H224.692V118.411H226.208V116.892Z" fill="#D80A49"/>
<path opacity="0.1" d="M226.208 120.436H224.692V121.955H226.208V120.436Z" fill="#D80A49"/>
<path opacity="0.1" d="M231.769 120.436H230.253V121.955H231.769V120.436Z" fill="#D80A49"/>
<path opacity="0.1" d="M226.208 124.233H224.692V125.625H226.208V124.233Z" fill="#D80A49"/>
<path opacity="0.1" d="M231.769 124.233H230.253V125.625H231.769V124.233Z" fill="#D80A49"/>
<path opacity="0.1" d="M224.692 128.663V127.777H226.208V128.537L224.692 128.663Z" fill="#D80A49"/>
<path opacity="0.1" d="M199.901 112.474C199.901 112.474 199.458 113.718 200.373 113.832C200.415 113.853 200.463 113.86 200.509 113.852C200.555 113.844 200.597 113.821 200.63 113.787C200.63 113.787 200.566 113.765 200.625 113.644C200.646 113.601 200.661 113.555 200.671 113.508C200.685 113.445 200.679 113.379 200.652 113.319C200.652 113.319 200.611 112.92 200.08 112.609C200.08 112.609 199.985 112.469 199.952 112.463L199.979 112.704C199.979 112.704 200.152 112.677 200.261 112.772C200.261 112.772 199.989 112.697 199.982 112.74C199.982 112.749 200.002 112.867 200.002 112.867C200.002 112.867 200.302 112.821 200.467 112.973C200.467 112.973 200.152 112.839 200.009 112.912L200.052 113.088C200.052 113.088 200.368 113.024 200.561 113.19C200.561 113.19 200.227 113.062 200.064 113.126L200.129 113.293C200.129 113.293 200.437 113.237 200.597 113.375C200.597 113.375 200.197 113.264 200.146 113.33C200.174 113.395 200.21 113.456 200.252 113.512C200.252 113.512 200.474 113.476 200.56 113.567C200.56 113.567 200.285 113.523 200.276 113.552C200.276 113.552 200.416 113.724 200.533 113.774C200.423 113.734 200.326 113.667 200.251 113.577C200.243 113.65 200.257 113.723 200.29 113.787C200.29 113.787 200.172 113.732 200.217 113.535C200.217 113.535 200.112 113.397 200.112 113.369C200.112 113.369 200.04 113.556 200.057 113.687C200.057 113.687 199.97 113.55 200.093 113.325L200.025 113.159C200.025 113.159 199.916 113.401 199.923 113.519C199.923 113.519 199.856 113.365 200.01 113.115L199.967 112.942C199.91 113.047 199.867 113.159 199.838 113.275C199.838 113.275 199.806 113.118 199.957 112.89L199.941 112.772C199.941 112.772 199.864 112.92 199.846 112.965C199.828 113.01 199.814 113.008 199.814 113.008C199.827 112.903 199.868 112.804 199.933 112.722C199.933 112.722 199.916 112.474 199.901 112.474Z" fill="#D80A49"/>
<path d="M232.528 126.838L233.016 127.397L233.792 125.918L233.722 125.752L232.528 126.838Z" fill="#D80A49"/>
<path opacity="0.2" d="M232.528 126.838L233.016 127.397L233.792 125.918L233.722 125.752L232.528 126.838Z" fill="black"/>
<path d="M208.894 118.491L212.269 127.903V125.521L213.208 122.854L215.811 121.709L219.111 123.197L220.292 123.564L220.395 121.393L216.471 119.47L214.644 118.599L210.463 118.236L209.31 118.032L208.894 118.491Z" fill="#D80A49"/>
<path d="M210.449 119.448L213.55 119.803C213.409 118.567 214.328 118.567 214.328 118.567L211.226 118.032H209.778" fill="#D80A49"/>
<path d="M212.325 129.312H214.514L220.853 129.103C220.853 129.103 220.99 130.292 222.659 130.012C222.659 130.012 223.579 130.07 223.677 129.579C223.776 129.087 221.584 124.545 221.584 124.545L218.595 122.349L215.886 121.702L213.941 122.265L212.705 124.2L211.927 126.848L212.325 129.312Z" fill="#636780"/>
<path opacity="0.2" d="M212.325 129.312H214.514L220.853 129.103C220.853 129.103 220.99 130.292 222.659 130.012C222.659 130.012 223.579 130.07 223.677 129.579C223.776 129.087 221.584 124.545 221.584 124.545L218.595 122.349L215.886 121.702L213.941 122.265L212.705 124.2L211.927 126.848L212.325 129.312Z" fill="black"/>
<path d="M209.775 111.933C211.294 111.905 215.318 111.789 217.32 111.324C217.32 111.324 220.756 113.935 221.785 115.904C221.785 115.904 216.43 117.219 212.731 117.397C212.457 117.41 212.185 117.341 211.949 117.199C211.713 117.058 211.524 116.849 211.405 116.6L209.438 112.488C209.41 112.43 209.396 112.365 209.4 112.3C209.403 112.235 209.422 112.172 209.455 112.117C209.489 112.061 209.536 112.016 209.592 111.983C209.648 111.951 209.711 111.934 209.775 111.933Z" fill="#D80A49"/>
<path opacity="0.2" d="M209.775 111.933C211.294 111.905 215.318 111.789 217.32 111.324C217.32 111.324 220.756 113.935 221.785 115.904C221.785 115.904 216.43 117.219 212.731 117.397C212.457 117.41 212.185 117.341 211.949 117.199C211.713 117.058 211.524 116.849 211.405 116.6L209.438 112.488C209.41 112.43 209.396 112.365 209.4 112.3C209.403 112.235 209.422 112.172 209.455 112.117C209.489 112.061 209.536 112.016 209.592 111.983C209.648 111.951 209.711 111.934 209.775 111.933Z" fill="white"/>
<path opacity="0.1" d="M211.69 112.488C212.324 112.477 213.562 112.444 214.77 112.353C215.66 112.285 216.553 112.424 217.381 112.761C218.208 113.097 218.947 113.621 219.539 114.292L219.579 114.337C219.664 114.436 219.723 114.557 219.748 114.686C219.774 114.815 219.765 114.948 219.724 115.073C219.682 115.198 219.609 115.31 219.512 115.398C219.414 115.485 219.295 115.546 219.167 115.573C217.834 115.861 215.563 116.3 213.811 116.385C213.613 116.395 213.418 116.346 213.248 116.245C213.078 116.144 212.941 115.994 212.856 115.815L211.448 112.883C211.429 112.841 211.419 112.795 211.422 112.749C211.424 112.703 211.438 112.658 211.462 112.619C211.486 112.58 211.519 112.547 211.559 112.524C211.599 112.501 211.644 112.489 211.69 112.488Z" fill="white"/>
<path d="M234.148 124.376C234.188 124.527 234.281 124.942 234.134 125.054C234.077 125.096 234.029 125.201 233.991 125.325C233.932 125.536 233.889 125.751 233.862 125.968L232.323 127.706L229.72 128.735L223.495 129.169L219.737 122.996L211.295 117.981L213.6 117.852C215.905 117.723 222.45 116.26 222.45 116.26L229.853 117.912C231.05 118.177 232.108 118.88 232.822 119.887C233.723 121.161 234.136 122.541 234.136 122.541C234.247 122.676 234.29 122.896 234.297 123.138C234.305 123.533 234.216 123.982 234.167 124.196C234.148 124.277 234.136 124.324 234.136 124.324C234.136 124.324 234.14 124.342 234.148 124.376Z" fill="#D80A49"/>
<path opacity="0.1" d="M211.568 127.589C211.568 127.589 211.117 122.746 214.498 121.431C214.498 121.431 219.255 119.415 222.05 124.895L223.47 128.02C223.47 128.02 223.875 128.79 224.98 128.767C224.98 128.767 230.187 128.609 232.935 126.842L233.792 125.844C233.792 125.844 233.363 127.247 232.935 127.564C232.935 127.564 231.244 129.557 225.09 129.919C225.09 129.919 222.574 130.19 221.815 127.791C221.815 127.791 220.785 122.357 215.556 122.402C215.556 122.402 212.483 122.462 212.408 127.775L211.568 127.589Z" fill="black"/>
<path d="M211.568 127.714C211.568 127.714 211.117 122.872 214.498 121.558C214.498 121.558 219.254 119.542 222.049 125.02L223.468 128.144C223.468 128.144 223.874 128.914 224.978 128.891C224.978 128.891 230.185 128.733 232.932 126.967L233.792 125.971C233.792 125.971 233.364 127.374 232.935 127.691C232.935 127.691 231.245 129.684 225.091 130.046C225.091 130.046 222.575 130.317 221.816 127.918C221.816 127.918 220.787 122.485 215.558 122.53C215.558 122.53 212.485 122.591 212.41 127.903L211.568 127.714Z" fill="#D80A49"/>
<path opacity="0.2" d="M211.568 127.714C211.568 127.714 211.117 122.872 214.498 121.558C214.498 121.558 219.254 119.542 222.049 125.02L223.468 128.144C223.468 128.144 223.874 128.914 224.978 128.891C224.978 128.891 230.185 128.733 232.932 126.967L233.792 125.971C233.792 125.971 233.364 127.374 232.935 127.691C232.935 127.691 231.245 129.684 225.091 130.046C225.091 130.046 222.575 130.317 221.816 127.918C221.816 127.918 220.787 122.485 215.558 122.53C215.558 122.53 212.485 122.591 212.41 127.903L211.568 127.714Z" fill="black"/>
<path opacity="0.2" d="M214.834 122.58L214.788 122.588C214.788 122.583 214.69 122.02 214.368 121.573C213.693 120.636 213.472 120 213.447 119.576C213.435 119.428 213.453 119.28 213.502 119.141C213.607 118.854 213.889 118.643 214.273 118.538L214.354 118.551C213.986 118.652 213.645 118.884 213.544 119.156C213.496 119.294 213.477 119.44 213.489 119.585C213.516 120.001 213.738 120.624 214.402 121.547C214.735 122.002 214.833 122.575 214.834 122.58Z" fill="black"/>
<path opacity="0.2" d="M229.471 120.31C226.539 118.635 220.331 117.077 220.268 117.062L220.28 117.019C220.343 117.035 226.557 118.594 229.494 120.272L229.471 120.31Z" fill="black"/>
<path opacity="0.2" d="M233.626 122.841C232.541 120.895 229.621 119.291 227.362 118.287C225.834 117.613 224.267 117.035 222.67 116.557L222.682 116.513C224.281 116.991 225.85 117.57 227.38 118.245C229.645 119.251 232.574 120.861 233.665 122.818L233.626 122.841Z" fill="black"/>
<path opacity="0.1" d="M233.698 122.208C233.929 122.034 233.517 121.096 232.778 120.114C232.039 119.131 231.252 118.476 231.021 118.65C230.79 118.825 231.202 119.762 231.942 120.745C232.681 121.727 233.467 122.382 233.698 122.208Z" fill="black"/>
<path d="M233.698 122.117C233.929 121.942 233.517 121.005 232.778 120.022C232.039 119.04 231.252 118.385 231.021 118.559C230.791 118.733 231.203 119.671 231.942 120.654C232.681 121.636 233.468 122.291 233.698 122.117Z" fill="#DCE0ED"/>
<path opacity="0.1" d="M233.526 121.812C233.676 121.699 233.302 120.949 232.692 120.138C232.081 119.327 231.465 118.761 231.315 118.874C231.165 118.987 231.538 119.736 232.149 120.548C232.759 121.359 233.376 121.925 233.526 121.812Z" fill="black"/>
<path d="M233.526 121.766C233.676 121.653 233.302 120.904 232.692 120.093C232.081 119.281 231.465 118.715 231.315 118.828C231.165 118.942 231.538 119.691 232.149 120.502C232.759 121.314 233.376 121.879 233.526 121.766Z" fill="#F0F0F4"/>
<path opacity="0.1" d="M226.81 123.842C226.81 123.842 226.96 122.734 227.844 122.485C227.844 122.485 230.85 121.629 231.505 121.617C231.505 121.617 232.181 121.413 232.629 121.91L233.088 122.52C233.088 122.52 233.408 123.017 232.698 123.107C232.698 123.107 229.064 124.419 227.488 124.555C227.399 124.563 227.31 124.576 227.222 124.595C226.992 124.642 226.508 124.656 226.81 123.842Z" fill="black"/>
<path d="M226.937 123.747C226.937 123.747 227.086 122.686 227.97 122.448C227.97 122.448 230.976 121.627 231.631 121.615C231.631 121.615 232.307 121.419 232.755 121.896L233.214 122.48C233.214 122.48 233.534 122.956 232.824 123.043C232.824 123.043 229.191 124.3 227.615 124.431C227.525 124.438 227.436 124.451 227.348 124.469C227.118 124.514 226.634 124.527 226.937 123.747Z" fill="#F0F0F4"/>
<path opacity="0.1" d="M227.184 123.685C227.184 123.685 227.325 122.716 228.155 122.499C228.155 122.499 230.986 121.747 231.601 121.738C231.601 121.738 232.239 121.559 232.66 121.994L233.092 122.529C233.092 122.529 233.394 122.964 232.724 123.043C232.724 123.043 229.304 124.192 227.821 124.31C227.737 124.317 227.654 124.329 227.572 124.345C227.354 124.383 226.9 124.397 227.184 123.685Z" fill="black"/>
<path d="M227.309 123.589C227.309 123.589 227.446 122.67 228.26 122.46C228.26 122.46 231.031 121.745 231.634 121.737C231.634 121.737 232.258 121.566 232.67 121.98L233.093 122.491C233.093 122.491 233.389 122.905 232.733 122.98C232.733 122.98 229.384 124.073 227.932 124.186C227.85 124.193 227.769 124.204 227.689 124.219C227.475 124.256 227.03 124.267 227.309 123.589Z" fill="#636780"/>
<path d="M227.604 122.967L227.599 122.925C227.639 122.921 231.639 122.453 232.5 121.828L232.528 121.862C231.657 122.493 227.769 122.947 227.604 122.967Z" fill="#F0F0F4"/>
<path d="M227.354 123.6L227.346 123.554C227.39 123.546 231.804 122.694 232.756 122.082L232.78 122.121C231.821 122.739 227.398 123.592 227.354 123.6Z" fill="#F0F0F4"/>
<path d="M227.228 124.107L227.22 124.061C227.272 124.05 232.372 123.048 233.003 122.461L233.033 122.496C232.395 123.092 227.438 124.065 227.228 124.107Z" fill="#F0F0F4"/>
<path opacity="0.1" d="M232.584 124.019C232.584 124.019 230.631 124.817 228.578 125.175C228.396 125.207 228.217 125.246 228.039 125.294C227.831 125.349 227.535 125.412 227.374 125.371C227.11 125.303 226.963 125.619 227.249 125.867L227.267 125.882C227.37 125.971 227.491 126.039 227.622 126.081C227.752 126.123 227.89 126.139 228.027 126.128L228.467 126.092C228.467 126.092 232.033 125.326 233.028 124.729C233.028 124.729 233.482 124.424 233.517 124.081C233.552 123.738 233.593 123.467 233.233 123.67C232.873 123.873 232.584 124.019 232.584 124.019Z" fill="black"/>
<path d="M232.583 124.015C232.511 124.044 230.594 124.82 228.578 125.172C228.397 125.204 228.217 125.243 228.039 125.291C227.832 125.347 227.535 125.41 227.375 125.369C227.108 125.301 226.964 125.617 227.25 125.865L227.258 125.873C227.364 125.965 227.489 126.035 227.623 126.079C227.758 126.123 227.9 126.14 228.042 126.128L228.465 126.093H228.471C228.594 126.067 232.049 125.317 233.026 124.73H233.03C233.061 124.709 233.484 124.413 233.517 124.082C233.551 123.738 233.593 123.467 233.233 123.67C232.89 123.863 232.613 124.006 232.588 124.019L232.583 124.015Z" fill="#F0F0F4"/>
<path opacity="0.1" d="M232.372 124.309C232.372 124.309 230.798 124.951 229.108 125.316C228.941 125.352 228.774 125.394 228.609 125.441C228.444 125.488 228.208 125.544 228.077 125.527C227.852 125.498 227.745 125.718 227.997 125.865L228.005 125.87C228.195 125.982 228.419 126.026 228.639 125.996L229.028 125.944C229.028 125.944 231.976 125.217 232.778 124.758C232.778 124.758 233.145 124.527 233.155 124.295C233.164 124.063 233.187 123.883 232.896 124.038C232.605 124.192 232.372 124.309 232.372 124.309Z" fill="black"/>
<path d="M232.375 124.182C232.341 124.195 230.782 124.828 229.11 125.19C228.942 125.226 228.775 125.268 228.609 125.315C228.444 125.362 228.208 125.418 228.077 125.401C227.852 125.372 227.745 125.591 227.997 125.74C228.193 125.854 228.423 125.9 228.648 125.869L229.027 125.817C229.088 125.802 231.983 125.085 232.779 124.633C232.791 124.624 233.146 124.397 233.155 124.169C233.164 123.941 233.188 123.754 232.896 123.912C232.605 124.069 232.384 124.177 232.371 124.184L232.375 124.182Z" fill="#636780"/>
<path opacity="0.1" d="M225.918 126.158C225.935 125.828 225.751 125.551 225.507 125.538C225.263 125.526 225.051 125.784 225.035 126.114C225.018 126.444 225.203 126.722 225.447 126.734C225.691 126.746 225.902 126.488 225.918 126.158Z" fill="black"/>
<path d="M225.906 126.155C225.922 125.826 225.738 125.549 225.494 125.536C225.25 125.524 225.04 125.782 225.023 126.111C225.007 126.441 225.191 126.718 225.435 126.73C225.678 126.743 225.889 126.485 225.906 126.155Z" fill="#F0F0F4"/>
<path opacity="0.1" d="M228.083 126.658C228.083 126.658 225.769 126.998 225.155 127.031C224.541 127.064 224.449 127.393 224.449 127.393C224.449 127.393 224.301 128.228 225.153 127.986L228.176 127.657C228.176 127.657 228.586 127.668 228.586 127.13V127.009C228.587 126.941 228.594 126.874 228.607 126.807C228.623 126.723 228.579 126.587 228.083 126.658Z" fill="black"/>
<path d="M228.081 126.533C228.081 126.533 225.767 126.904 225.153 126.94C224.54 126.975 224.449 127.335 224.449 127.335C224.449 127.335 224.301 128.246 225.153 127.982L228.177 127.623C228.177 127.623 228.586 127.635 228.586 127.048V126.916C228.587 126.842 228.594 126.769 228.607 126.696C228.624 126.605 228.577 126.455 228.081 126.533Z" fill="#F0F0F4"/>
<path d="M234.211 125.048C234.151 125.091 234.098 125.198 234.058 125.324L233.262 125.867C233.253 125.874 233.241 125.877 233.229 125.878C233.217 125.879 233.206 125.877 233.195 125.872C233.184 125.866 233.176 125.858 233.169 125.849C233.163 125.839 233.16 125.828 233.16 125.816V125.246C233.16 125.165 233.182 125.084 233.223 125.013C233.265 124.942 233.325 124.883 233.398 124.841L234.226 124.36C234.269 124.512 234.37 124.933 234.211 125.048Z" fill="#F0F0F4"/>
<path d="M228.898 126.592L228.864 127.134C228.859 127.188 228.867 127.242 228.887 127.292C228.907 127.343 228.938 127.388 228.978 127.426C229.018 127.463 229.066 127.49 229.118 127.507C229.171 127.523 229.226 127.528 229.281 127.52C230.526 127.325 231.723 126.901 232.81 126.271L232.906 125.164C232.909 125.137 232.904 125.11 232.893 125.085C232.882 125.06 232.864 125.039 232.842 125.023C232.82 125.007 232.794 124.997 232.767 124.993C232.739 124.99 232.711 124.994 232.686 125.005C232.068 125.277 230.412 125.972 229.361 126.105C229.238 126.121 229.125 126.178 229.041 126.267C228.956 126.356 228.906 126.47 228.898 126.592Z" fill="#636780"/>
<path d="M229.242 126.268V127.144C229.242 127.144 232.035 126.507 232.654 126.077V125.246C231.566 125.725 230.42 126.069 229.242 126.268Z" fill="#D80A49"/>
<path d="M234.129 124.233C233.942 124.223 233.792 123.971 233.792 123.664C233.792 123.356 233.948 123.094 234.137 123.094C234.168 123.095 234.198 123.101 234.225 123.112C234.252 123.122 234.276 123.137 234.296 123.155C234.311 123.557 234.193 124.014 234.129 124.233Z" fill="#D80A49"/>
<path d="M234.17 124.233C234.03 124.223 233.918 123.972 233.918 123.664C233.918 123.357 234.035 123.094 234.177 123.094C234.2 123.095 234.222 123.101 234.243 123.112C234.263 123.123 234.281 123.137 234.296 123.156C234.307 123.557 234.219 124.015 234.17 124.233Z" fill="#F0F0F4"/>
<path d="M221.279 128.09C221.279 133.11 219.135 133.219 216.339 133.219C214.105 133.219 213.191 130.923 213.191 128.09C213.191 125.257 213.908 122.967 216.142 122.967C218.375 122.967 221.279 125.258 221.279 128.09Z" fill="#636780"/>
<path opacity="0.2" d="M221.279 128.09C221.279 133.11 219.135 133.219 216.339 133.219C214.105 133.219 213.191 130.923 213.191 128.09C213.191 125.257 213.908 122.967 216.142 122.967C218.375 122.967 221.279 125.258 221.279 128.09Z" fill="black"/>
<path d="M215.971 133.219C217.507 133.219 218.752 130.924 218.752 128.093C218.752 125.262 217.507 122.967 215.971 122.967C214.436 122.967 213.191 125.262 213.191 128.093C213.191 130.924 214.436 133.219 215.971 133.219Z" fill="#636780"/>
<path d="M216.477 128.301C216.477 130.118 216.095 131.574 215.303 131.574C214.512 131.574 213.57 130.101 213.57 128.282C213.57 126.462 213.899 124.866 214.691 124.866C215.483 124.866 216.477 126.484 216.477 128.301Z" fill="#F0F0F4"/>
<path d="M216.477 128.285C216.477 128.424 216.474 128.558 216.469 128.689C216.458 129.033 216.422 129.375 216.361 129.714C216.237 130.378 216.011 130.838 215.676 130.926C215.638 130.936 215.598 130.941 215.558 130.941C215.397 130.941 215.229 130.861 215.067 130.716C214.748 130.431 214.458 129.897 214.307 129.235C214.252 128.988 214.219 128.736 214.208 128.482C214.204 128.413 214.202 128.342 214.202 128.27C214.198 127.781 214.233 127.293 214.306 126.81C214.346 126.524 214.423 126.245 214.534 125.98C214.669 125.678 214.85 125.499 215.08 125.499C215.236 125.499 215.401 125.581 215.562 125.728C215.754 125.904 215.939 126.171 216.092 126.499C216.345 127.058 216.477 127.668 216.477 128.285Z" fill="#636780"/>
<path d="M216.477 128.644C216.466 128.995 216.429 129.345 216.368 129.69C216.353 129.663 215.916 128.94 215.586 129.404C215.345 129.745 215.547 130.519 215.68 130.926C215.641 130.936 215.601 130.941 215.561 130.941C215.399 130.941 215.229 130.86 215.066 130.711V130.659C215.066 130.659 215.261 129.792 214.742 129.257C214.742 129.257 214.491 129.114 214.302 129.2C214.247 128.948 214.213 128.691 214.202 128.433C214.246 128.383 214.549 128.01 214.425 127.31C214.378 127.045 214.336 126.857 214.301 126.728C214.342 126.437 214.419 126.152 214.53 125.882C214.53 125.882 214.63 126.656 215.011 126.702C215.392 126.747 215.559 125.655 215.564 125.625C215.757 125.805 215.943 126.077 216.097 126.412C216.097 126.412 215.488 126.775 215.665 127.739C215.791 128.425 216.232 128.6 216.477 128.644Z" fill="#F0F0F4"/>
<path d="M215.07 128.881C215.236 128.867 215.345 128.541 215.313 128.152C215.281 127.763 215.121 127.459 214.955 127.472C214.789 127.486 214.68 127.812 214.711 128.201C214.743 128.59 214.904 128.895 215.07 128.881Z" fill="#636780"/>
<path opacity="0.2" d="M222.67 120.269L222.651 120.31C222.633 120.301 221.073 119.644 215.288 118.685C215.018 118.64 214.739 118.595 214.45 118.548C214.423 118.545 214.398 118.54 214.37 118.536C213.444 118.389 212.422 118.236 211.295 118.076L211.301 118.032C212.828 118.246 214.162 118.451 215.324 118.646C221.095 119.604 222.651 120.262 222.67 120.269Z" fill="black"/>
<path opacity="0.1" d="M211.678 116.693L209.72 112.614C209.692 112.556 209.679 112.492 209.683 112.428C209.686 112.364 209.705 112.301 209.739 112.247C209.772 112.192 209.819 112.147 209.874 112.115C209.929 112.083 209.992 112.066 210.056 112.064C211.547 112.037 215.468 111.925 217.488 111.479C217.361 111.379 217.288 111.324 217.288 111.324C215.293 111.785 211.285 111.9 209.773 111.928C209.709 111.929 209.647 111.946 209.591 111.978C209.536 112.01 209.489 112.055 209.456 112.11C209.422 112.165 209.403 112.227 209.4 112.291C209.396 112.355 209.409 112.419 209.437 112.477L211.396 116.555C211.476 116.721 211.587 116.871 211.725 116.994C211.862 117.117 212.023 117.211 212.197 117.272C211.973 117.132 211.793 116.931 211.678 116.693Z" fill="black"/>
<path d="M212.306 127.777H211.548V128.03H212.306V127.777Z" fill="#D80A49"/>
<path opacity="0.2" d="M212.306 127.777H211.548V128.03H212.306V127.777Z" fill="black"/>
<path opacity="0.1" d="M215.453 131.373C214.659 131.373 213.716 129.905 213.716 128.094C213.716 126.852 213.868 125.713 214.224 125.119C213.766 125.623 213.57 126.893 213.57 128.294C213.57 130.106 214.514 131.574 215.307 131.574C215.575 131.574 215.796 131.407 215.971 131.118C215.824 131.283 215.651 131.373 215.453 131.373Z" fill="black"/>
<path opacity="0.1" d="M225.298 124.272C225.828 123.741 225.419 122.469 224.383 121.432C223.347 120.395 222.077 119.985 221.547 120.516C221.016 121.048 221.426 122.319 222.462 123.356C223.497 124.393 224.767 124.804 225.298 124.272Z" fill="black"/>
<path d="M225.343 124.227C225.874 123.696 225.464 122.424 224.428 121.387C223.393 120.35 222.123 119.94 221.592 120.471C221.062 121.002 221.471 122.274 222.507 123.311C223.543 124.348 224.813 124.758 225.343 124.227Z" fill="#DCE0ED"/>
<path opacity="0.1" d="M225.189 123.903C225.578 123.514 225.181 122.484 224.302 121.604C223.423 120.724 222.395 120.326 222.007 120.716C221.618 121.105 222.015 122.135 222.894 123.015C223.773 123.895 224.8 124.293 225.189 123.903Z" fill="black"/>
<path d="M225.189 123.857C225.578 123.468 225.181 122.439 224.302 121.558C223.423 120.678 222.396 120.281 222.007 120.67C221.618 121.06 222.015 122.089 222.894 122.969C223.773 123.849 224.8 124.247 225.189 123.857Z" fill="#F0F0F4"/>
<g opacity="0.1">
<path opacity="0.1" d="M216.039 118.278C216.018 118.318 215.863 118.411 215.674 118.513C215.656 118.375 215.644 118.271 215.641 118.239C215.63 118.121 215.881 117.593 215.881 117.593C215.881 117.593 216.362 116.947 216.351 116.85C216.34 116.753 216.537 116.473 216.537 116.473L216.973 115.766C216.948 115.82 216.94 115.879 216.948 115.938C216.956 115.996 216.98 116.052 217.017 116.097C217.149 116.269 217.039 116.614 217.039 116.614L217.066 117.049V117.092C217.051 117.107 216.98 117.174 216.825 117.314C216.682 117.443 216.708 117.483 216.724 117.494C216.691 117.552 216.731 117.562 216.731 117.562C216.744 117.562 216.757 117.561 216.769 117.559L216.735 117.591C216.468 117.84 216.078 118.208 216.039 118.278Z" fill="url(#paint12_linear)"/>
</g>
<path opacity="0.03" d="M210.537 122.967C210.537 122.967 209.588 123.09 209.399 123.297C209.399 123.297 210.232 123.359 210.267 123.474C210.267 123.474 209.79 123.133 209.658 123.219L210.537 122.967Z" fill="black"/>
<path opacity="0.3" d="M214.075 129.559C214.082 129.6 214.085 129.641 214.088 129.677C214.089 129.722 214.119 129.766 214.171 129.8L214.175 129.802C214.194 129.718 214.203 129.633 214.202 129.549C214.189 129.56 214.134 129.561 214.075 129.559Z" fill="white"/>
</g>
<defs>
<filter id="filter0_d" x="0" y="0" width="462" height="418" filterUnits="userSpaceOnUse" color-interpolation-filters="sRGB">
<feFlood flood-opacity="0" result="BackgroundImageFix"/>
<feColorMatrix in="SourceAlpha" type="matrix" values="0 0 0 0 0 0 0 0 0 0 0 0 0 0 0 0 0 0 127 0"/>
<feOffset dy="50"/>
<feGaussianBlur stdDeviation="50"/>
<feColorMatrix type="matrix" values="0 0 0 0 0 0 0 0 0 0 0 0 0 0 0 0 0 0 0.1 0"/>
<feBlend mode="normal" in2="BackgroundImageFix" result="effect1_dropShadow"/>
<feBlend mode="normal" in="SourceGraphic" in2="effect1_dropShadow" result="shape"/>
</filter>
<linearGradient id="paint0_linear" x1="246.215" y1="114.995" x2="220.595" y2="209.15" gradientUnits="userSpaceOnUse">
<stop offset="0.01"/>
<stop offset="0.13" stop-opacity="0.69"/>
<stop offset="0.25" stop-opacity="0.32"/>
<stop offset="1" stop-opacity="0"/>
</linearGradient>
<linearGradient id="paint1_linear" x1="3621.5" y1="4769.48" x2="494.511" y2="8166.8" gradientUnits="userSpaceOnUse">
<stop offset="0.01"/>
<stop offset="0.13" stop-opacity="0.69"/>
<stop offset="0.25" stop-opacity="0.32"/>
<stop offset="1" stop-opacity="0"/>
</linearGradient>
<linearGradient id="paint2_linear" x1="-33010.9" y1="4569.69" x2="-29884.2" y2="7965.39" gradientUnits="userSpaceOnUse">
<stop offset="0.01"/>
<stop offset="0.13" stop-opacity="0.69"/>
<stop offset="0.25" stop-opacity="0.32"/>
<stop offset="1" stop-opacity="0"/>
</linearGradient>
<linearGradient id="paint3_linear" x1="192.936" y1="102.99" x2="246.921" y2="145.639" gradientUnits="userSpaceOnUse">
<stop stop-color="white"/>
<stop offset="1" stop-color="#CBCBCB"/>
</linearGradient>
<linearGradient id="paint4_linear" x1="3461.45" y1="1864.13" x2="3364.07" y2="2574.29" gradientUnits="userSpaceOnUse">
<stop offset="0.01"/>
<stop offset="0.13" stop-opacity="0.69"/>
<stop offset="0.25" stop-opacity="0.32"/>
<stop offset="1" stop-opacity="0"/>
</linearGradient>
<linearGradient id="paint5_linear" x1="566.203" y1="223.718" x2="567.229" y2="234.84" gradientUnits="userSpaceOnUse">
<stop stop-color="white"/>
<stop offset="1" stop-color="#CBCBCB"/>
</linearGradient>
<linearGradient id="paint6_linear" x1="352.335" y1="270.282" x2="353.721" y2="279.076" gradientUnits="userSpaceOnUse">
<stop stop-color="white"/>
<stop offset="1" stop-color="#CBCBCB"/>
</linearGradient>
<linearGradient id="paint7_linear" x1="4999.75" y1="4128.78" x2="7468.87" y2="4861.75" gradientUnits="userSpaceOnUse">
<stop stop-color="white"/>
<stop offset="1" stop-color="#CBCBCB"/>
</linearGradient>
<linearGradient id="paint8_linear" x1="225.543" y1="81.3508" x2="190.225" y2="88.2762" gradientUnits="userSpaceOnUse">
<stop offset="0.01" stop-color="white"/>
<stop offset="1" stop-color="white" stop-opacity="0"/>
</linearGradient>
<linearGradient id="paint9_linear" x1="811.523" y1="746.812" x2="836.221" y2="758.008" gradientUnits="userSpaceOnUse">
<stop stop-color="white"/>
<stop offset="1" stop-color="#CBCBCB"/>
</linearGradient>
<linearGradient id="paint10_linear" x1="2851.59" y1="385.816" x2="3149.08" y2="785.188" gradientUnits="userSpaceOnUse">
<stop offset="0.01"/>
<stop offset="0.13" stop-opacity="0.69"/>
<stop offset="0.25" stop-opacity="0.32"/>
<stop offset="1" stop-opacity="0"/>
</linearGradient>
<linearGradient id="paint11_linear" x1="3954.91" y1="192.134" x2="3954.91" y2="367.066" gradientUnits="userSpaceOnUse">
<stop offset="0.01"/>
<stop offset="0.13" stop-opacity="0.69"/>
<stop offset="0.25" stop-opacity="0.32"/>
<stop offset="1" stop-opacity="0"/>
</linearGradient>
<linearGradient id="paint12_linear" x1="1132.85" y1="1574.55" x2="1172.22" y2="1574.55" gradientUnits="userSpaceOnUse">
<stop stop-color="#808080" stop-opacity="0.25"/>
<stop offset="0.54" stop-color="#808080" stop-opacity="0.12"/>
<stop offset="1" stop-color="#808080" stop-opacity="0.1"/>
</linearGradient>
<clipPath id="clip0">
<rect width="114" height="93.024" fill="white" transform="translate(173 75)"/>
</clipPath>
</defs>
</svg>
