<svg width="114" height="94" viewBox="0 0 114 94" fill="none" xmlns="http://www.w3.org/2000/svg">
<g clip-path="url(#clip0)">
<path opacity="0.18" d="M47.0096 13.4686C40.3077 19.0643 34.907 26.201 27.7788 31.2638C21.1859 35.9284 13.2276 38.7247 7.55447 44.4713C2.70935 49.3771 -0.00582126 56.0009 -0.000419201 62.9016C0.00498286 69.8023 2.73052 76.4218 7.58332 81.32C14.3686 88.1678 24.4006 90.7489 34.0192 91.2561C43.6378 91.7634 53.282 90.5017 62.9006 91.0186C72.0032 91.5098 81.0545 93.5869 90.1442 92.8999C99.2339 92.2128 108.859 87.9206 112.449 79.5318C116.423 70.2474 111.869 59.8008 108.728 50.205C106.357 42.9492 104.792 35.4537 104.061 27.8543C102.971 16.4864 100.965 0.700921 86.6827 0.0716866C72.4968 -0.5736 57.8846 4.3736 47.0096 13.4686Z" fill="#D80A49"/>
<path d="M85.2532 76.651C85.8429 76.9528 85.9295 77.8196 85.5961 78.3879C85.2628 78.9561 84.6346 79.2964 84.0481 79.5757C82.6365 80.2318 81.1546 80.724 79.6314 81.0428C78.9423 81.1905 78.0288 81.5822 78.2019 82.2692C78.3269 82.8182 79.0352 82.9498 79.5961 82.9594C87.9295 83.0878 96.1699 80.847 104.5 81.0332C105.051 81.0332 105.663 81.0942 106.042 81.4987C106.519 82.0092 106.391 82.831 106.122 83.4763C104.635 87.0591 100.353 88.4556 96.5256 89.0752C87.8109 90.491 78.9199 90.0865 70.0929 89.987C52.5128 89.7943 34.8846 90.8313 17.3686 89.2967C16.9976 89.2975 16.6337 89.1953 16.3173 89.0014C16.0051 88.7243 15.8131 88.3361 15.782 87.9195C15.484 85.7846 17.1891 83.7781 19.1955 82.998C21.2019 82.2178 23.4295 82.3559 25.5769 82.5132C34.6763 83.1553 43.8141 83.701 52.9103 83.014C58.8677 82.6153 64.7603 81.5383 70.4743 79.8036C73.0993 78.985 75.7564 77.3734 78.4391 76.8822C79.266 76.7313 80.1058 76.834 80.9391 76.7923C82.1506 76.7313 84.125 76.0764 85.2532 76.651Z" fill="url(#paint0_linear)"/>
<path d="M0 61.3119C0.0320513 62.3873 0.560897 63.3761 1.08974 64.3136C3.49679 68.5673 6.1891 72.7537 9.90705 75.9127C15.3814 80.5517 22.5513 82.5485 29.4744 84.4234C28.8526 84.1216 28.109 80.9273 27.8333 80.2242C27.2981 78.847 26.7981 77.4569 26.2821 76.0764C25.4712 73.8901 23.7596 72.1308 22.1154 70.5224C18.3473 66.8933 13.7766 64.2071 8.77564 62.6827C5.92942 61.8143 2.97505 61.3528 0 61.3119Z" fill="#D80A49"/>
<path d="M0 61.3119C0.0320513 62.3873 0.560897 63.3761 1.08974 64.3136C3.49679 68.5673 6.1891 72.7537 9.90705 75.9127C15.3814 80.5517 22.5513 82.5485 29.4744 84.4234C28.8526 84.1216 28.109 80.9273 27.8333 80.2242C27.2981 78.847 26.7981 77.4569 26.2821 76.0764C25.4712 73.8901 23.7596 72.1308 22.1154 70.5224C18.3473 66.8933 13.7766 64.2071 8.77564 62.6827C5.92942 61.8143 2.97505 61.3528 0 61.3119Z" fill="url(#paint1_linear)"/>
<path d="M27.0865 63.6876C26.5224 59.7324 25.9423 55.7226 24.3526 52.0563C22.7628 48.3901 20.0096 45.0673 16.2692 43.6612L15.9487 60.6602C15.8846 63.9315 15.8301 67.2671 16.766 70.4037C18.4135 75.8998 24.1186 82.3495 29.6186 84.1666C30.4327 81.5244 29.0641 77.5275 28.657 74.7858L27.0865 63.6876Z" fill="#D80A49"/>
<path d="M95.2756 58.583C95.2468 59.6553 94.7147 60.6473 94.1859 61.5815C91.7852 65.8353 89.0897 70.0248 85.3654 73.1806C79.891 77.8197 72.7243 79.8197 65.8141 81.6914C66.4327 81.3896 67.1763 78.1953 67.4519 77.4922C67.9872 76.1149 68.4872 74.7281 69.0032 73.3444C69.8141 71.1581 71.5256 69.402 73.1891 67.7936C76.9498 64.1646 81.5143 61.4782 86.5096 59.9539C89.3519 59.0828 92.3035 58.6212 95.2756 58.583Z" fill="#D80A49"/>
<path d="M95.2756 58.583C95.2468 59.6553 94.7147 60.6473 94.1859 61.5815C91.7852 65.8353 89.0897 70.0248 85.3654 73.1806C79.891 77.8197 72.7243 79.8197 65.8141 81.6914C66.4327 81.3896 67.1763 78.1953 67.4519 77.4922C67.9872 76.1149 68.4872 74.7281 69.0032 73.3444C69.8141 71.1581 71.5256 69.402 73.1891 67.7936C76.9498 64.1646 81.5143 61.4782 86.5096 59.9539C89.3519 59.0828 92.3035 58.6212 95.2756 58.583Z" fill="url(#paint2_linear)"/>
<path d="M68.1891 60.9619C68.7532 57.0067 69.3333 52.9938 70.9231 49.3307C72.5128 45.6677 75.266 42.3257 79.0064 40.9324C79.1154 46.5998 79.2222 52.265 79.3269 57.9281C79.3878 61.2027 79.4455 64.5383 78.5064 67.6748C76.8622 73.171 71.1539 79.6207 65.6571 81.4345C64.8398 78.7956 66.2083 74.7955 66.5994 72.0538L68.1891 60.9619Z" fill="#D80A49"/>
<path d="M62.4936 5.59889L32.8237 8.52354C29.7596 8.82532 27.2725 11.4129 27.2725 14.2862V80.9176C27.2725 83.807 29.7596 85.8873 32.8237 85.5855L62.4936 82.6609C65.5609 82.3591 68.0481 79.7715 68.0481 76.9015V10.27C68.0481 7.38707 65.5609 5.29711 62.4936 5.59889ZM65.2148 77.0427C65.2148 78.818 63.6827 80.4072 61.7949 80.5934L32.9648 83.4346C31.0737 83.6208 29.5417 82.3334 29.5417 80.5452V14.0903C29.5417 12.315 31.0737 10.7259 32.9648 10.5397L37.2853 10.1127V10.5076C37.2853 11.644 38.2661 12.4691 39.4744 12.3503L55.4199 10.7997C55.998 10.7507 56.5388 10.4934 56.942 10.0754C57.3451 9.65742 57.5832 9.10719 57.6122 8.52676V8.14793L61.7789 7.737C63.6667 7.5508 65.1987 8.83816 65.1987 10.6263L65.2148 77.0427Z" fill="#D80A49"/>
<path d="M63.891 6.82848L34.2179 9.75314C31.1538 10.0549 28.6667 12.6425 28.6667 15.5318V82.1472C28.6667 85.0366 31.1538 87.1169 34.2179 86.8151L63.891 83.8937C66.9551 83.5919 69.4423 81.0043 69.4423 78.1311V11.4996C69.4423 8.61988 66.9583 6.54276 63.891 6.82848ZM66.6122 78.2723C66.6122 80.0477 65.0801 81.6368 63.1891 81.823L34.3429 84.6642C32.4519 84.8504 30.9199 83.563 30.9199 81.7748V15.3199C30.9199 13.5446 32.4519 11.9523 34.3429 11.7661L38.6795 11.3583V11.75C38.6795 12.8865 39.6602 13.7115 40.8686 13.5928L56.8173 12.0229C57.3939 11.9719 57.9327 11.7143 58.3349 11.2973C58.737 10.8804 58.9755 10.3321 59.0064 9.75314V9.36469L63.1891 8.95055C65.0801 8.76434 66.6122 10.0549 66.6122 11.8399V78.2723Z" fill="white"/>
<path d="M66.6122 11.8303V78.2851C66.6122 80.0605 65.0801 81.6496 63.1891 81.8358L34.3429 84.677C32.4519 84.8632 30.9199 83.5759 30.9199 81.7877V15.3328C30.9199 13.5574 32.4519 11.9651 34.3429 11.7789L38.6795 11.3583V11.75C38.6795 12.8865 39.6602 13.7115 40.8686 13.5928L56.8173 12.0229C57.3939 11.9719 57.9327 11.7143 58.3349 11.2973C58.737 10.8804 58.9755 10.3321 59.0064 9.75314V9.36468L63.1891 8.95054C65.0801 8.76434 66.6122 10.0549 66.6122 11.8303Z" stroke="url(#paint3_linear)" stroke-width="0.63" stroke-miterlimit="10"/>
<path d="M66.6122 11.8303V78.2851C66.6122 80.0605 65.0801 81.6496 63.1891 81.8358L34.3429 84.677C32.4519 84.8632 30.9199 83.5759 30.9199 81.7877V15.3328C30.9199 13.5574 32.4519 11.9651 34.3429 11.7789L38.6795 11.3583V11.75C38.6795 12.8865 39.6602 13.7115 40.8686 13.5928L56.8173 12.0229C57.3939 11.9719 57.9327 11.7143 58.3349 11.2973C58.737 10.8804 58.9755 10.3321 59.0064 9.75314V9.36468L63.1891 8.95054C65.0801 8.76434 66.6122 10.0549 66.6122 11.8303Z" fill="#D80A49"/>
<path d="M56.766 74.8854L42.2788 76.2754C42.0747 76.2923 41.8692 76.2666 41.6755 76.1998C41.4817 76.1331 41.3039 76.0268 41.1533 75.8877C41.0027 75.7486 40.8825 75.5797 40.8004 75.3917C40.7183 75.2037 40.676 75.0007 40.6763 74.7955V71.1645C40.6761 70.791 40.8149 70.4307 41.0656 70.1542C41.3163 69.8776 41.6608 69.7044 42.032 69.6685L56.5128 68.2784C56.7185 68.2587 56.9261 68.2823 57.1221 68.3478C57.3182 68.4132 57.4983 68.5191 57.6511 68.6585C57.8039 68.7978 57.9258 68.9677 58.0091 69.1572C58.0923 69.3466 58.1351 69.5514 58.1346 69.7584V73.3893C58.1337 73.7647 57.9929 74.1262 57.7397 74.4029C57.4865 74.6797 57.1393 74.8517 56.766 74.8854Z" fill="url(#paint4_linear)"/>
<path d="M51.016 11.1593L45.5353 11.6986V11.2428L51.016 10.7034V11.1593Z" fill="url(#paint5_linear)"/>
<path d="M52.7355 11.1883C53.0274 11.0173 53.1409 10.6678 52.989 10.4076C52.8372 10.1474 52.4774 10.075 52.1855 10.2459C51.8937 10.4168 51.7802 10.7663 51.932 11.0266C52.0839 11.2868 52.4436 11.3592 52.7355 11.1883Z" fill="url(#paint6_linear)"/>
<path d="M38.1122 62.1177L59.0128 60.1112C59.7175 60.0475 60.3725 59.7206 60.8476 59.1954C61.3227 58.6702 61.583 57.9851 61.5769 57.2764V33.6577C61.5735 33.2283 61.4817 32.8043 61.3072 32.4121C61.1327 32.0199 60.8793 31.668 60.5628 31.3785C60.2463 31.0889 59.8736 30.8678 59.4679 30.7292C59.0622 30.5905 58.6323 30.5371 58.2051 30.5725L37.3045 32.579C36.6001 32.6419 35.9451 32.9681 35.47 33.4928C34.9949 34.0175 34.7344 34.7022 34.7404 35.4105V59.0325C34.7438 59.4619 34.8356 59.8859 35.0101 60.2781C35.1846 60.6702 35.438 61.0221 35.7545 61.3117C36.071 61.6013 36.4437 61.8223 36.8494 61.961C37.2551 62.0997 37.685 62.153 38.1122 62.1177Z" fill="#C9D9DF"/>
<path d="M39.3462 62.4515L60.2468 60.4451C60.9512 60.3821 61.6062 60.0559 62.0813 59.5312C62.5564 59.0065 62.8169 58.3218 62.8109 57.6135V33.9915C62.8075 33.5622 62.7157 33.1382 62.5412 32.746C62.3667 32.3538 62.1133 32.0019 61.7968 31.7123C61.4803 31.4227 61.1076 31.2017 60.7019 31.063C60.2962 30.9243 59.8663 30.871 59.4391 30.9063L38.5385 32.9128C37.8338 32.9765 37.1788 33.3034 36.7037 33.8287C36.2287 34.3539 35.9683 35.0389 35.9744 35.7476V59.3664C35.9778 59.7957 36.0696 60.2197 36.2441 60.6119C36.4186 61.0041 36.672 61.356 36.9885 61.6456C37.305 61.9351 37.6777 62.1562 38.0834 62.2949C38.4891 62.4336 38.919 62.4869 39.3462 62.4515Z" fill="url(#paint7_linear)"/>
<path d="M57.4904 74.4038L43.0096 75.7907C42.8041 75.8109 42.5966 75.7877 42.4006 75.7226C42.2045 75.6575 42.0243 75.552 41.8715 75.4129C41.7186 75.2737 41.5967 75.104 41.5134 74.9147C41.43 74.7254 41.3873 74.5208 41.3878 74.3139V70.683C41.3877 70.3094 41.5265 69.9492 41.7772 69.6726C42.0278 69.396 42.3724 69.2228 42.7436 69.1869L57.2244 67.7968C57.4301 67.7771 57.6376 67.8007 57.8337 67.8662C58.0297 67.9317 58.2099 68.0375 58.3627 68.1769C58.5154 68.3163 58.6373 68.4862 58.7206 68.6756C58.8039 68.865 58.8467 69.0698 58.8462 69.2768V72.9078C58.8463 73.2813 58.7075 73.6415 58.4568 73.9181C58.2062 74.1947 57.8616 74.3679 57.4904 74.4038Z" fill="white"/>
<path d="M45.6891 72.8339L46.2853 72.7761C46.2863 72.8066 46.294 72.8365 46.3079 72.8637C46.3217 72.8909 46.3414 72.9147 46.3654 72.9334C46.4303 72.974 46.5077 72.99 46.5833 72.9784C46.659 72.9725 46.7319 72.9471 46.7949 72.9045C46.8232 72.8871 46.8463 72.8624 46.8621 72.8331C46.8779 72.8038 46.8856 72.7709 46.8846 72.7376C46.8866 72.7216 46.8866 72.7054 46.8846 72.6894C46.8663 72.6658 46.8434 72.6462 46.8173 72.6317C46.7647 72.6008 46.7073 72.5791 46.6474 72.5675L46.3622 72.5032C46.2505 72.4848 46.1424 72.4491 46.0417 72.3973C45.9634 72.3592 45.8961 72.3017 45.8462 72.2304C45.7732 72.1259 45.7341 72.0015 45.734 71.874C45.7323 71.7715 45.753 71.6699 45.7945 71.5762C45.836 71.4825 45.8974 71.399 45.9744 71.3315C46.1438 71.1819 46.3579 71.0927 46.5833 71.0778C46.7949 71.0454 47.0107 71.096 47.1859 71.2191C47.2635 71.2786 47.3254 71.3562 47.3662 71.4452C47.4069 71.5342 47.4254 71.6318 47.4199 71.7295L46.8301 71.7841C46.8301 71.6397 46.7468 71.5754 46.5769 71.5915C46.5083 71.5931 46.442 71.6167 46.3878 71.6589C46.3667 71.6759 46.3497 71.6974 46.338 71.7218C46.3264 71.7463 46.3204 71.7731 46.3205 71.8002C46.3205 71.8836 46.3942 71.9414 46.5449 71.9703L46.8237 72.0313C47.2724 72.1212 47.4968 72.3524 47.4968 72.6734C47.4996 72.8282 47.4486 72.9791 47.3526 73.1004C47.2635 73.2156 47.1466 73.3062 47.0128 73.3636C46.8809 73.4222 46.74 73.458 46.5962 73.4696C46.3728 73.5034 46.1449 73.4543 45.9551 73.3315C45.8728 73.2774 45.8054 73.2035 45.7589 73.1166C45.7125 73.0297 45.6885 72.9325 45.6891 72.8339Z" fill="#D80A49"/>
<path d="M49.5321 72.3556L50.016 72.6349C49.9038 72.8115 49.7525 72.9598 49.5737 73.0683C49.3954 73.1799 49.1934 73.248 48.984 73.2673C48.8274 73.2867 48.6685 73.2727 48.5177 73.2263C48.3669 73.1798 48.2276 73.1019 48.109 72.9976C47.992 72.8972 47.8988 72.7719 47.8361 72.6308C47.7735 72.4898 47.743 72.3365 47.7468 72.1822C47.7471 71.8517 47.8772 71.5346 48.109 71.2994C48.335 71.0492 48.6481 70.8952 48.984 70.8692C49.1858 70.8466 49.39 70.8764 49.5769 70.9558C49.7534 71.0316 49.9062 71.1536 50.0192 71.309L49.5289 71.6814C49.4723 71.5961 49.3921 71.5291 49.2981 71.4888C49.1979 71.4429 49.0871 71.4252 48.9776 71.4374C48.8023 71.4521 48.6394 71.5337 48.5224 71.6653C48.4024 71.7891 48.3356 71.9551 48.3366 72.1276C48.3335 72.2082 48.3486 72.2885 48.3808 72.3624C48.413 72.4363 48.4614 72.502 48.5224 72.5546C48.5837 72.6096 48.656 72.6507 48.7346 72.6751C48.8131 72.6995 48.896 72.7066 48.9776 72.6959C49.0915 72.6876 49.2016 72.6512 49.2981 72.5899C49.3929 72.5308 49.473 72.4506 49.5321 72.3556Z" fill="#D80A49"/>
<path d="M51.8686 72.9559L51.6635 72.439L50.9006 72.5097L50.6955 73.0651L50.0545 73.1229L50.9519 70.7022L51.5929 70.6444L52.484 72.8917L51.8686 72.9559ZM51.2756 71.2159L51.0577 72.0056L51.5128 71.9639L51.2756 71.2159Z" fill="#D80A49"/>
<path d="M53.984 70.4293L54.5705 70.3748V72.7151L54.0577 72.7601L53.3141 71.553V72.8371L52.7244 72.8917V70.5513L53.2564 70.5032L53.984 71.6942V70.4293Z" fill="#D80A49"/>
<path d="M77.4823 37.3836L61.7612 30.096L36.024 33.2133L36.6778 60.7198L38.8189 61.6541L62.2804 59.7696L63.5144 57.1499L77.2483 38.4623L77.4823 37.3836Z" fill="url(#paint8_linear)"/>
<path d="M76.1635 39.5326V37.2276C76.1632 37.1512 76.1833 37.0762 76.2216 37.0102C76.2599 36.9442 76.3151 36.8896 76.3814 36.852L77.6635 36.1361C77.7981 36.059 78.3301 36.3704 78.3301 36.5245L77.9679 40.4797L77.0673 41.1764L76.1667 40.6466L76.1635 39.5326Z" fill="white"/>
<path d="M76.1635 39.5326V37.2276C76.1632 37.1512 76.1833 37.0762 76.2216 37.0102C76.2599 36.9442 76.3151 36.8896 76.3814 36.852L77.6635 36.1361C77.7981 36.059 78.3301 36.3704 78.3301 36.5245L77.9679 40.4797L77.0673 41.1764L76.1667 40.6466L76.1635 39.5326Z" fill="url(#paint9_linear)"/>
<path d="M76.5417 39.8184V37.5101C76.5413 37.4342 76.5614 37.3595 76.5998 37.294C76.6381 37.2285 76.6933 37.1745 76.7596 37.1377L78.0417 36.4186C78.0727 36.4014 78.1076 36.3925 78.143 36.3928C78.1784 36.3932 78.2132 36.4027 78.2438 36.4205C78.2745 36.4383 78.3 36.4637 78.318 36.4943C78.3359 36.5249 78.3456 36.5597 78.3462 36.5951V40.7686L77.4455 41.4621L76.5449 40.9356L76.5417 39.8184Z" fill="white"/>
<path d="M76.7756 39.722V37.8472L78.234 36.9258V40.027L77.9135 41.0704L77.234 41.2951C77.234 41.2951 76.8718 41.141 76.8718 41.0929" fill="#D80A49"/>
<path d="M97.1603 56.7981L96.968 57.0581L97.6603 47.183L97.7981 45.199L97.8654 44.2359L98.2276 45.016C98.9071 46.451 100.317 49.4527 100.712 50.2746C101.163 51.2184 97.984 55.6616 97.1603 56.7981Z" fill="white"/>
<path opacity="0.1" d="M97.1603 56.7981C97.0803 56.6087 97.0505 56.402 97.0737 56.1977C97.1583 55.7468 97.352 55.3235 97.6378 54.9649C98.4007 53.8413 99.3558 52.6503 99.7949 51.3468C100.372 49.6229 98.4808 48.5538 97.6603 47.1733C97.4503 46.8503 97.3257 46.4791 97.2981 46.0947C97.2844 45.9114 97.3244 45.7281 97.4132 45.5673C97.502 45.4064 97.6358 45.2751 97.7981 45.1893C97.9314 45.1065 98.0761 45.0438 98.2276 45.0031C98.9071 46.4382 100.317 49.4399 100.712 50.2617C101.163 51.2184 97.984 55.6616 97.1603 56.7981Z" fill="#020202"/>
<path d="M92.4647 83.9675C92.1601 84.1072 91.9084 84.3413 91.7468 84.6353C91.7133 84.7005 91.7031 84.7753 91.718 84.8472C91.7414 84.9004 91.7763 84.9478 91.82 84.9861C91.8638 85.0243 91.9154 85.0525 91.9712 85.0687C92.7789 85.3897 93.6923 85.3287 94.5353 85.1746C95.3813 84.9671 96.2453 84.8413 97.1154 84.799C97.1891 84.8109 97.2644 84.8067 97.3363 84.7867C97.4082 84.7668 97.475 84.7316 97.5321 84.6834C97.5857 84.603 97.6116 84.5071 97.6058 84.4106C97.6408 83.6529 97.5095 82.8967 97.2212 82.1954C97.2404 82.2403 94.9359 82.3335 94.7372 82.4683C94.3718 82.7219 94.0673 83.0462 93.6763 83.2805C93.2853 83.5149 92.8718 83.7364 92.4647 83.9675Z" fill="#282328"/>
<path d="M95.5289 67.4437C95.5133 70.3986 95.7449 73.3496 96.2212 76.2658C96.2981 76.773 96.3814 77.2771 96.484 77.7811C97.2404 81.5051 97.3013 82.4522 97.3013 82.4522H94.2628C94.2628 82.4522 92.0192 71.9061 91.1859 69.5047C90.5556 67.6847 90.0638 65.8195 89.7148 63.9251C89.5787 63.0274 89.6895 62.1095 90.0353 61.2701C90.1525 60.9392 90.3201 60.6284 90.5321 60.3487C90.9449 59.892 91.4617 59.5418 92.0385 59.3278C93.2655 58.7721 94.5927 58.4727 95.9391 58.4482C96.0929 58.4351 96.247 58.4687 96.3814 58.5445C96.4675 58.6153 96.5356 58.7055 96.5801 58.8078C96.9744 59.6103 96.9007 60.5542 96.7789 61.4403C96.7258 61.9322 96.6183 62.4168 96.4583 62.8849C96.2789 63.3633 95.9968 63.7967 95.8333 64.2815C95.6942 64.7481 95.6124 65.23 95.5898 65.7165C95.5705 66.2912 95.5417 66.8658 95.5289 67.4437Z" fill="#282328"/>
<path d="M87.9135 65.1129C87.9774 65.4968 88.0021 65.8862 87.9872 66.2751C87.9744 66.9724 87.9969 67.67 88.0545 68.3651C88.2244 71.675 88.7244 74.972 88.7276 78.2851C88.7276 81.1103 88.6346 84.0638 88.6346 84.0638C88.6346 84.0638 91.093 84.8215 91.6603 84.2532L92.6058 70.6091C92.75 69.5786 92.9712 68.532 93.0449 67.495C93.109 66.5929 93.1282 65.8288 93.4647 64.962C93.843 63.9989 94.3814 63.0904 94.6731 62.0888C94.8618 61.4474 94.943 60.7791 94.9135 60.1112C94.9228 59.9064 94.8667 59.7039 94.7532 59.5333C94.6412 59.4172 94.5041 59.3282 94.3526 59.2732C92.6506 58.5156 90.8846 57.7451 89.0224 57.7612C88.8722 57.7487 88.7216 57.7811 88.5897 57.8543C88.4642 57.9582 88.3736 58.0983 88.3301 58.2556C87.6452 60.0663 87.4344 62.0225 87.718 63.9379C87.7917 64.3521 87.8558 64.7309 87.9135 65.1129Z" fill="#473F47"/>
<path d="M78.734 41.8569C78.6603 41.4235 78.6699 40.9709 78.6314 40.5311C78.6297 40.3584 78.5833 40.1892 78.4968 40.0399C78.4507 39.9669 78.3809 39.912 78.2992 39.8846C78.2175 39.8571 78.1288 39.8586 78.0481 39.889C77.8494 39.9885 77.843 40.2614 77.8494 40.4829C77.8558 40.7044 77.7981 40.9869 77.5801 41.0287C77.4981 41.0367 77.4154 41.0199 77.343 40.9805C77.2343 40.9222 77.1406 40.8393 77.0694 40.7385C76.9982 40.6376 76.9514 40.5215 76.9327 40.3994C76.9135 40.255 76.9327 40.1041 76.9071 39.9596C76.8237 39.5423 76.2853 39.6129 76.0353 39.8312C75.8879 39.9737 75.7684 40.1425 75.6827 40.3288C75.5016 40.6443 75.3687 40.9851 75.2885 41.3401C75.0224 42.788 76.766 43.0994 77.5032 44.024C77.6092 44.1675 77.7271 44.3017 77.8558 44.4253C77.9809 44.5328 78.1321 44.6054 78.2941 44.6358C78.4562 44.6662 78.6233 44.6534 78.7789 44.5986C78.9335 44.5415 79.0703 44.4442 79.175 44.3167C79.2798 44.1892 79.3488 44.0361 79.375 43.8731C79.4615 43.3337 79.0705 42.849 78.8782 42.3353C78.8151 42.1808 78.7668 42.0206 78.734 41.8569Z" fill="#FFBBAB"/>
<path d="M91.2692 38.0944C91.2992 38.1351 91.322 38.1808 91.3365 38.2292C91.3588 38.3275 91.3588 38.4295 91.3365 38.5278C91.2065 39.1083 91.1176 39.6972 91.0705 40.2903C91.0456 40.4563 91.0772 40.626 91.1603 40.7718C91.2926 40.9129 91.4738 40.9979 91.6667 41.0094C91.9474 41.0544 92.2317 41.0738 92.516 41.0672C92.6282 41.0672 92.766 41.0672 92.8365 41.1603C92.8604 41.2025 92.8735 41.2499 92.875 41.2983C92.8882 41.5195 92.8452 41.7404 92.75 41.9404C92.6917 42.0371 92.6627 42.1486 92.6667 42.2615C92.6891 42.4669 92.9872 42.4477 93.141 42.4573C93.7244 42.4862 94.3109 42.4894 94.8942 42.4573C94.995 42.4616 95.0953 42.4406 95.1859 42.3963C95.3429 42.3032 95.3782 42.0945 95.4231 41.918C95.6218 41.0993 96.2532 40.4636 96.5929 39.6932C96.7679 39.2827 96.8599 38.8415 96.8638 38.3952C96.8676 37.9489 96.7832 37.5062 96.6154 37.0927C96.454 36.6988 96.224 36.3368 95.9359 36.0237C95.6731 35.7315 95.1667 35.6705 94.8013 35.5935C94.1602 35.4587 93.4487 35.4201 92.8782 35.7636C92.2372 36.1489 91.9423 36.9386 91.2981 37.3078C91.1859 37.3721 91.0481 37.4363 91.0096 37.5615C90.9997 37.625 91.0053 37.6901 91.0259 37.751C91.0466 37.812 91.0817 37.867 91.1282 37.9114C91.1699 37.9756 91.2244 38.0302 91.2692 38.0944Z" fill="#FFBBAB"/>
<path d="M93.0545 35.5389C93.0688 35.6384 93.0991 35.7349 93.1442 35.8246C93.3494 36.2516 93.6186 36.1457 93.9872 36.2003C94.4359 36.2805 94.7276 36.7845 94.8205 37.1955C94.9006 37.6937 94.8843 38.2027 94.7724 38.6947C94.8711 38.6132 94.9929 38.5648 95.1205 38.5561C95.2481 38.5475 95.3752 38.5791 95.484 38.6466C95.5899 38.7204 95.6722 38.8233 95.7211 38.9429C95.77 39.0625 95.7834 39.1937 95.7596 39.3207C95.7331 39.4483 95.6717 39.5661 95.5823 39.6607C95.4929 39.7554 95.3789 39.8233 95.2532 39.8569C95.1282 39.889 94.9808 39.8954 94.9038 39.9981C94.8621 40.0723 94.8442 40.1575 94.8526 40.2421C94.8526 40.7879 94.875 41.3818 95.2211 41.8056C95.7019 41.7574 96.0673 41.3722 96.4263 41.0511C96.9359 40.5953 97.5192 40.2229 98.0096 39.7445C98.5295 39.2876 98.8523 38.6467 98.9103 37.9563C98.9263 36.8488 97.9487 35.9948 97.5897 34.9514C97.5255 34.7165 97.4408 34.4877 97.3365 34.2676C97.2404 34.1165 97.1139 33.9872 96.9649 33.8881C96.8159 33.7889 96.6479 33.7221 96.4716 33.6918C96.2953 33.6616 96.1147 33.6686 95.9413 33.7125C95.7679 33.7564 95.6055 33.8361 95.4647 33.9466C95.2064 33.7763 94.9038 33.6856 94.5946 33.6856C94.2853 33.6856 93.9827 33.7763 93.7244 33.9466C93.4877 34.1339 93.3022 34.3781 93.1851 34.6565C93.068 34.9349 93.023 35.2385 93.0545 35.5389Z" fill="#1B191B"/>
<path d="M97.7468 47.7191C97.6143 48.7536 97.5714 49.7977 97.6186 50.8396C97.6474 51.8573 97.6955 52.8685 97.7372 53.8862C97.5417 54.7627 97.3237 55.6391 97.0961 56.5059C96.9516 57.214 96.7134 57.8996 96.3878 58.5445C96.2236 58.8547 96.0067 59.1339 95.7468 59.3696C95.4909 59.5948 95.1996 59.7759 94.8846 59.9057C94.1446 60.1801 93.3538 60.2897 92.5673 60.2267C92.0127 60.2048 91.4622 60.1208 90.9263 59.9763C90.2375 59.8041 89.5979 59.4745 89.0577 59.0132C88.7864 58.7703 88.5492 58.4916 88.3526 58.1849C87.8817 57.4291 87.5971 56.5718 87.5224 55.6841C87.3614 54.2268 87.5493 52.7522 88.0705 51.3821C88.0994 51.3019 88.1314 51.2248 88.1635 51.1446C88.3846 50.5795 88.6058 50.0145 88.8333 49.4495C88.8333 49.4495 88.8333 49.4334 88.8333 49.427C88.8686 49.3371 88.9038 49.2537 88.9359 49.167L88.9551 49.1188L88.8301 49.1702L88.6987 49.2183C88.657 49.2351 88.6141 49.2491 88.5705 49.2601C88.4776 49.2954 88.3782 49.3211 88.2853 49.3468L87.9647 49.427C87.782 49.4655 87.5961 49.5009 87.4102 49.5233L87.157 49.5522C84.8269 49.7577 82.2852 48.8138 80.3365 47.7705C79.7005 47.4464 79.1187 47.0251 78.6122 46.5216C78.5066 46.4093 78.4071 46.2914 78.3141 46.1685C78.0808 45.8607 77.9088 45.5109 77.8077 45.1379C77.7372 44.9122 77.7372 44.6703 77.8077 44.4445C77.8123 44.4355 77.8177 44.4269 77.8237 44.4188C77.8939 44.2644 77.9917 44.124 78.1122 44.0047C78.4083 43.6797 78.7218 43.3711 79.0513 43.0801L79.1538 42.9902C79.2422 42.9125 79.346 42.8545 79.4583 42.8201C79.569 42.7952 79.6837 42.795 79.7945 42.8194C79.9052 42.8438 80.0093 42.8923 80.0994 42.9613C80.2631 43.0759 80.4155 43.206 80.5545 43.3498C81.4443 44.1995 82.4997 44.856 83.6546 45.278C84.8095 45.7001 86.039 45.8786 87.266 45.8025C87.9398 45.7741 88.6016 45.6149 89.2147 45.3338C89.7527 45.0417 90.2523 44.6837 90.7019 44.2679C91.1083 43.9347 91.4956 43.5788 91.8622 43.2021C91.9583 43.0994 92.0577 42.9934 92.1442 42.8811C92.2308 42.7687 92.2853 42.7077 92.3526 42.621L92.4359 42.5119C92.5089 42.4005 92.6052 42.3064 92.7179 42.2358C92.8795 42.1615 93.0563 42.1263 93.234 42.133C93.9295 42.1041 94.6859 41.9725 95.3718 41.9886H95.4455C95.5122 41.9911 95.5786 41.9986 95.6442 42.011C95.8816 42.0484 96.1037 42.1519 96.2852 42.3096C96.5084 42.5245 96.7122 42.7587 96.8942 43.0095C97.3209 43.4778 97.6558 44.0223 97.8814 44.6147C98.2147 45.597 97.9006 46.6725 97.7468 47.7191Z" fill="white"/>
<path d="M98.5481 47.6131C98.5457 48.7265 98.461 49.8382 98.2949 50.9391C98.1506 51.9311 97.9744 52.9103 97.7372 53.8862C97.6955 52.8685 97.6474 51.8573 97.6186 50.8396C97.5714 49.7977 97.6143 48.7536 97.7468 47.7191C97.9006 46.6757 98.2147 45.597 97.891 44.5954C97.6654 44.003 97.3305 43.4585 96.9039 42.9902C96.7219 42.7394 96.5181 42.5052 96.2949 42.2903C96.9359 42.7751 97.4423 43.6772 97.8654 44.2166C98.5865 45.1636 98.5417 46.4831 98.5481 47.6131Z" fill="white"/>
<path opacity="0.1" d="M98.5481 47.6131C98.5457 48.7265 98.461 49.8382 98.2949 50.9391C98.1506 51.9311 97.9744 52.9103 97.7372 53.8862C97.6955 52.8685 97.6474 51.8573 97.6186 50.8396C97.5714 49.7977 97.6143 48.7536 97.7468 47.7191C97.9006 46.6757 98.2147 45.597 97.891 44.5954C97.6654 44.003 97.3305 43.4585 96.9039 42.9902C96.7219 42.7394 96.5181 42.5052 96.2949 42.2903C96.9359 42.7751 97.4423 43.6772 97.8654 44.2166C98.5865 45.1636 98.5417 46.4831 98.5481 47.6131Z" fill="#020202"/>
<path opacity="0.1" d="M97.7468 47.7191C97.6143 48.7536 97.5714 49.7977 97.6186 50.8396C97.6474 51.8573 97.6955 52.8685 97.7372 53.8862C97.5417 54.7627 97.3237 55.6391 97.0961 56.5059C96.9516 57.214 96.7134 57.8996 96.3878 58.5445C96.2236 58.8547 96.0067 59.1339 95.7468 59.3696C95.4909 59.5948 95.1996 59.7759 94.8846 59.9057C94.1446 60.1801 93.3538 60.2897 92.5673 60.2267C92.0127 60.2048 91.4622 60.1208 90.9263 59.9763C90.2375 59.8041 89.5979 59.4745 89.0577 59.0132C88.7864 58.7703 88.5492 58.4916 88.3526 58.1849C87.8817 57.4291 87.5971 56.5718 87.5224 55.6841C87.3614 54.2268 87.5493 52.7522 88.0705 51.3821C88.0994 51.3019 88.1314 51.2248 88.1635 51.1446C88.4165 50.5918 88.6401 50.026 88.8333 49.4495C88.8333 49.4495 88.8333 49.4334 88.8333 49.427C88.859 49.3307 88.8814 49.2408 88.9038 49.1477C88.8803 49.1582 88.8555 49.1657 88.8301 49.1702L88.6987 49.2183C88.657 49.2351 88.6141 49.2491 88.5705 49.2601C88.4776 49.2954 88.3782 49.3211 88.2853 49.3468L87.9647 49.427C87.782 49.4655 87.5961 49.5009 87.4102 49.5233L87.157 49.5522C84.7949 49.793 82.3718 48.8684 80.3365 47.7705C79.7005 47.4464 79.1187 47.0251 78.6122 46.5216C78.5066 46.4093 78.4071 46.2914 78.3141 46.1685C78.0808 45.8607 77.9088 45.5109 77.8077 45.1379C77.7372 44.9122 77.7372 44.6703 77.8077 44.4445C77.8123 44.4355 77.8177 44.4269 77.8237 44.4188C77.8939 44.2644 77.9917 44.124 78.1122 44.0047C78.4083 43.6797 78.7218 43.3711 79.0513 43.0801L79.1538 42.9902C79.2422 42.9125 79.346 42.8545 79.4583 42.8201C79.569 42.7952 79.6837 42.795 79.7945 42.8194C79.9052 42.8438 80.0093 42.8923 80.0994 42.9613C80.2631 43.0759 80.4155 43.206 80.5545 43.3498C81.4443 44.1995 82.4997 44.856 83.6546 45.278C84.8095 45.7001 86.039 45.8786 87.266 45.8025C87.9398 45.7741 88.6016 45.6149 89.2147 45.3338C89.7527 45.0417 90.2523 44.6837 90.7019 44.2679C91.1083 43.9347 91.4956 43.5788 91.8622 43.2021C91.9583 43.0994 92.0577 42.9934 92.1442 42.8811C92.2308 42.7687 92.2853 42.7077 92.3526 42.621L92.4359 42.5119C92.5089 42.4005 92.6052 42.3064 92.7179 42.2358C92.8795 42.1615 93.0563 42.1263 93.234 42.133C93.9295 42.1041 94.6859 41.9725 95.3718 41.9886H95.4455C95.5122 41.9911 95.5786 41.9986 95.6442 42.011C95.877 42.0628 96.0957 42.1647 96.2852 42.3096C96.5084 42.5245 96.7122 42.7587 96.8942 43.0095C97.3209 43.4778 97.6558 44.0223 97.8814 44.6147C98.2147 45.597 97.9006 46.6725 97.7468 47.7191Z" fill="#020202"/>
<path d="M86.7981 85.7621C86.4928 85.9008 86.2408 86.1352 86.0801 86.4299C86.0466 86.4951 86.0365 86.5699 86.0513 86.6418C86.0744 86.6949 86.1092 86.7421 86.153 86.7799C86.1968 86.8177 86.2486 86.8451 86.3045 86.8601C87.1122 87.1811 88.0256 87.1233 88.8846 86.9692C89.7317 86.7614 90.5968 86.6356 91.468 86.5936C91.5411 86.6052 91.6159 86.6009 91.6872 86.5809C91.7586 86.561 91.8248 86.5259 91.8814 86.478C91.9351 86.3976 91.961 86.3017 91.9551 86.2052C91.9901 85.4475 91.8588 84.6913 91.5705 83.99C91.5897 84.0349 89.2853 84.1248 89.0897 84.2629C88.7212 84.5165 88.4167 84.8407 88.0257 85.0751C87.6346 85.3094 87.2051 85.5181 86.7981 85.7621Z" fill="#282328"/>
<path d="M82.9391 46.7849C81.4039 46.2359 79.8398 45.6933 78.6154 44.589C78.474 44.4876 78.3766 44.3361 78.343 44.1652C78.3538 44.0595 78.3883 43.9576 78.4438 43.867C78.4993 43.7765 78.5743 43.6995 78.6635 43.6419C78.8825 43.4205 79.1318 43.2314 79.4039 43.0801C79.54 43.0043 79.6905 42.958 79.8457 42.9442C80.0008 42.9303 80.1571 42.9493 80.3045 42.9998C80.5098 43.1035 80.6944 43.2439 80.8494 43.414C81.9768 44.4301 83.3638 45.1125 84.8558 45.3852C86.3077 45.7062 87.9071 45.7255 89.3013 45.1604C90.109 44.8394 91.8654 42.7109 92.6507 43.0223C93.4359 43.3337 93.0898 44.9036 92.7083 45.3916C91.8846 46.4414 89.7981 46.939 88.5417 47.1765C86.6726 47.5473 84.7386 47.4121 82.9391 46.7849Z" fill="white"/>
<path d="M95.1635 43.3145C95.3403 43.2311 95.4972 43.1105 95.6233 42.961C95.7494 42.8114 95.8418 42.6363 95.8942 42.4477C95.4727 42.3608 95.0403 42.3391 94.6122 42.3835L93.3846 42.4445L92.5769 42.4862C92.0737 42.5151 92.0641 42.7366 92.2564 43.0833C92.3461 43.247 92.5769 43.3787 92.6731 43.5552C92.7692 43.7318 92.7853 43.9212 92.9006 44.0561C93.2212 44.4413 93.3109 44.223 93.7244 43.9726C94.1378 43.7222 94.6923 43.5713 95.1635 43.3145Z" fill="white"/>
<path d="M75.2596 13.7629L89.6667 12.2476L79.3654 16.2895L75.2596 13.7629Z" fill="#D80A49"/>
<path d="M89.6667 12.2476L81.0801 20.5689L79.3654 16.2895L89.6667 12.2476Z" fill="#D80A49"/>
<path d="M89.6667 12.2476L81.0801 20.5689L79.3654 16.2895L89.6667 12.2476Z" fill="url(#paint10_linear)"/>
<path d="M77.6667 20.8546L79.3654 16.2895L89.6667 12.2476L77.6667 20.8546Z" fill="#D80A49"/>
<path d="M89.6667 12.2476L79.3654 15.4066L75.2596 13.7629L79.3654 16.2895L89.6667 12.2476Z" fill="url(#paint11_linear)"/>
<path opacity="0.1" d="M47.9002 42.5253H45.6253V44.93H47.9002V42.5253Z" fill="#D80A49"/>
<path opacity="0.1" d="M47.9002 47.2081H45.6253V49.4862H47.9002V47.2081Z" fill="#D80A49"/>
<path opacity="0.1" d="M47.9002 52.0175V53.6628C47.1392 53.6168 46.3809 53.5427 45.6253 53.4406V52.0175H47.9002Z" fill="#D80A49"/>
<path opacity="0.1" d="M53.2084 41.8925H51.6918V43.4112H53.2084V41.8925Z" fill="#D80A49"/>
<path opacity="0.1" d="M53.2084 45.4362H51.6918V46.955H53.2084V45.4362Z" fill="#D80A49"/>
<path opacity="0.1" d="M58.7694 45.4362H57.2528V46.955H58.7694V45.4362Z" fill="#D80A49"/>
<path opacity="0.1" d="M53.2084 49.2331H51.6918V50.6253H53.2084V49.2331Z" fill="#D80A49"/>
<path opacity="0.1" d="M58.7694 49.2331H57.2528V50.6253H58.7694V49.2331Z" fill="#D80A49"/>
<path opacity="0.1" d="M51.6918 53.6628V52.7769H53.2084V53.5368L51.6918 53.6628Z" fill="#D80A49"/>
<path opacity="0.1" d="M26.9011 37.4738C26.9011 37.4738 26.4579 38.7185 27.373 38.8316C27.415 38.8527 27.4625 38.8598 27.5087 38.8517C27.5549 38.8436 27.5973 38.8209 27.63 38.7867C27.63 38.7867 27.5658 38.765 27.6251 38.6442C27.6458 38.601 27.6613 38.5553 27.6714 38.5084C27.6853 38.4449 27.6787 38.3785 27.6523 38.3193C27.6523 38.3193 27.6115 37.9196 27.0802 37.6085C27.0802 37.6085 26.9849 37.4688 26.9517 37.4627L26.9794 37.7039C26.9794 37.7039 27.152 37.6767 27.2614 37.7721C27.2614 37.7721 26.9892 37.6967 26.9816 37.7399C26.9816 37.7488 27.0018 37.8669 27.0018 37.8669C27.0018 37.8669 27.3023 37.8209 27.4667 37.9733C27.4667 37.9733 27.152 37.8392 27.0094 37.9118L27.0524 38.0881C27.0524 38.0881 27.3676 38.0238 27.5609 38.1901C27.5609 38.1901 27.2271 38.0621 27.0638 38.1264L27.1286 38.2927C27.1286 38.2927 27.4373 38.2372 27.5973 38.3753C27.5973 38.3753 27.1972 38.2644 27.146 38.3298C27.1739 38.3947 27.2096 38.4558 27.2522 38.5117C27.2522 38.5117 27.4743 38.4756 27.5603 38.5671C27.5603 38.5671 27.2854 38.5233 27.2756 38.5522C27.2756 38.5522 27.416 38.724 27.5325 38.7739C27.4233 38.7344 27.3261 38.6666 27.2506 38.5771C27.2433 38.6495 27.2569 38.7225 27.2897 38.7872C27.2897 38.7872 27.1716 38.7318 27.2168 38.535C27.2168 38.535 27.1123 38.3969 27.1117 38.3686C27.1117 38.3686 27.0404 38.556 27.0573 38.6874C27.0573 38.6874 26.9702 38.5499 27.0932 38.3248L27.0246 38.1585C27.0246 38.1585 26.9158 38.4008 26.9234 38.5194C26.9234 38.5194 26.8559 38.3648 27.0105 38.1153L26.9669 37.9423C26.91 38.047 26.8666 38.1588 26.8379 38.2749C26.8379 38.2749 26.8058 38.1181 26.9566 37.8902L26.9408 37.7715C26.9408 37.7715 26.864 37.9201 26.8461 37.965C26.8281 38.0099 26.8145 38.0083 26.8145 38.0083C26.8274 37.9034 26.8685 37.8042 26.9332 37.7216C26.9332 37.7216 26.9163 37.4738 26.9011 37.4738Z" fill="#D80A49"/>
<path d="M59.5277 51.8384L60.0165 52.3972L60.7916 50.918L60.7217 50.7519L59.5277 51.8384Z" fill="#D80A49"/>
<path opacity="0.2" d="M59.5277 51.8384L60.0165 52.3972L60.7916 50.918L60.7217 50.7519L59.5277 51.8384Z" fill="black"/>
<path d="M35.8936 43.4911L39.2688 52.9035V50.5212L40.2083 47.8543L42.811 46.7089L46.1112 48.1973L47.2916 48.5638L47.3947 46.3927L43.471 44.47L41.6444 43.5987L37.4634 43.2363L36.3099 43.0315L35.8936 43.4911Z" fill="#D80A49"/>
<path d="M37.4489 44.4482L40.5497 44.8034C40.4089 43.5673 41.3282 43.5673 41.3282 43.5673L38.2262 43.0315H36.7783" fill="#D80A49"/>
<path d="M39.3248 54.3118H41.5138L47.853 54.1026C47.853 54.1026 47.99 55.2922 49.6594 55.0124C49.6594 55.0124 50.5786 55.0705 50.6775 54.579C50.7763 54.0875 48.5841 49.5452 48.5841 49.5452L45.5954 47.3492L42.8857 46.7018L40.9405 47.265L39.7047 49.1996L38.9268 51.848L39.3248 54.3118Z" fill="#636780"/>
<path opacity="0.2" d="M39.3248 54.3118H41.5138L47.853 54.1026C47.853 54.1026 47.99 55.2922 49.6594 55.0124C49.6594 55.0124 50.5786 55.0705 50.6775 54.579C50.7763 54.0875 48.5841 49.5452 48.5841 49.5452L45.5954 47.3492L42.8857 46.7018L40.9405 47.265L39.7047 49.1996L38.9268 51.848L39.3248 54.3118Z" fill="black"/>
<path d="M36.7754 36.9325C38.2939 36.9048 42.3182 36.7889 44.32 36.3237C44.32 36.3237 47.7555 38.9345 48.7849 40.9041C48.7849 40.9041 43.4298 42.2191 39.7313 42.3972C39.457 42.4099 39.185 42.3412 38.9492 42.1994C38.7133 42.0576 38.524 41.849 38.4046 41.5996L36.4381 37.4882C36.4097 37.4298 36.3965 37.3652 36.3995 37.3003C36.4026 37.2354 36.4218 37.1723 36.4554 37.1169C36.4891 37.0615 36.536 37.0155 36.592 36.9833C36.6479 36.951 36.711 36.9336 36.7754 36.9325Z" fill="#D80A49"/>
<path opacity="0.2" d="M36.7754 36.9325C38.2939 36.9048 42.3182 36.7889 44.32 36.3237C44.32 36.3237 47.7555 38.9345 48.7849 40.9041C48.7849 40.9041 43.4298 42.2191 39.7313 42.3972C39.457 42.4099 39.185 42.3412 38.9492 42.1994C38.7133 42.0576 38.524 41.849 38.4046 41.5996L36.4381 37.4882C36.4097 37.4298 36.3965 37.3652 36.3995 37.3003C36.4026 37.2354 36.4218 37.1723 36.4554 37.1169C36.4891 37.0615 36.536 37.0155 36.592 36.9833C36.6479 36.951 36.711 36.9336 36.7754 36.9325Z" fill="white"/>
<path opacity="0.1" d="M38.6901 37.488C39.3243 37.4768 40.5617 37.4439 41.7701 37.353C42.6599 37.2848 43.5534 37.4243 44.3807 37.7608C45.2081 38.0972 45.9469 38.6214 46.5394 39.2924L46.5785 39.3371C46.6643 39.4365 46.7228 39.5566 46.7483 39.6857C46.7738 39.8148 46.7654 39.9484 46.7239 40.0732C46.6824 40.1981 46.6092 40.3098 46.5116 40.3975C46.414 40.4852 46.2953 40.5458 46.1673 40.5733C44.8342 40.8608 42.5635 41.2999 40.8107 41.3849C40.6134 41.3949 40.4176 41.3462 40.2477 41.2448C40.0778 41.1435 39.9414 40.994 39.8556 40.8151L38.4485 37.8829C38.4285 37.8413 38.4193 37.7954 38.4217 37.7492C38.424 37.7031 38.4378 37.6584 38.4619 37.619C38.4859 37.5797 38.5194 37.5471 38.5593 37.5242C38.5992 37.5013 38.6441 37.4888 38.6901 37.488Z" fill="white"/>
<path d="M61.1483 49.3763C61.1883 49.5266 61.2813 49.9417 61.1336 50.0537C61.0774 50.0961 61.0285 50.2007 60.9907 50.3249C60.9315 50.5357 60.8886 50.7508 60.8625 50.9683L59.3227 52.7056L56.7198 53.7349L50.4949 54.1691L46.7374 47.9962L38.2949 42.9811L40.5998 42.8521C42.9053 42.7226 49.4497 41.2596 49.4497 41.2596L56.8527 42.9115C58.0501 43.1768 59.1078 43.8804 59.8219 44.8867C60.7232 46.1607 61.1357 47.5408 61.1357 47.5408C61.2471 47.6756 61.2902 47.8964 61.2965 48.1385C61.305 48.5329 61.2156 48.9819 61.1667 49.1964C61.1483 49.2766 61.1357 49.3243 61.1357 49.3243C61.1357 49.3243 61.1399 49.3424 61.1483 49.3763Z" fill="#D80A49"/>
<path opacity="0.1" d="M38.5676 52.5889C38.5676 52.5889 38.117 47.7457 41.4984 46.4315C41.4984 46.4315 46.2545 44.415 49.0497 49.8947L50.4696 53.0199C50.4696 53.0199 50.8752 53.7895 51.98 53.7669C51.98 53.7669 57.1868 53.6092 59.9348 51.8424L60.7916 50.8436C60.7916 50.8436 60.3635 52.2472 59.9348 52.5642C59.9348 52.5642 58.2444 54.5565 52.0904 54.9192C52.0904 54.9192 49.5736 55.1905 48.8148 52.7907C48.8148 52.7907 47.7853 47.3567 42.5555 47.4019C42.5555 47.4019 39.483 47.4624 39.4076 52.7755L38.5676 52.5889Z" fill="black"/>
<path d="M38.5676 52.7138C38.5676 52.7138 38.1171 47.8723 41.498 46.5578C41.498 46.5578 46.2536 44.5422 49.0485 50.0203L50.4682 53.1442C50.4682 53.1442 50.8737 53.9137 51.9784 53.8911C51.9784 53.8911 57.1846 53.7334 59.9323 51.967L60.7916 50.971C60.7916 50.971 60.3635 52.3743 59.9349 52.6912C59.9349 52.6912 58.2447 54.6836 52.0914 55.0458C52.0914 55.0458 49.5749 55.3175 48.8162 52.9177C48.8162 52.9177 47.7869 47.4849 42.5577 47.5301C42.5577 47.5301 39.4855 47.5911 39.4101 52.903L38.5676 52.7138Z" fill="#D80A49"/>
<path opacity="0.2" d="M38.5676 52.7138C38.5676 52.7138 38.1171 47.8723 41.498 46.5578C41.498 46.5578 46.2536 44.5422 49.0485 50.0203L50.4682 53.1442C50.4682 53.1442 50.8737 53.9137 51.9784 53.8911C51.9784 53.8911 57.1846 53.7334 59.9323 51.967L60.7916 50.971C60.7916 50.971 60.3635 52.3743 59.9349 52.6912C59.9349 52.6912 58.2447 54.6836 52.0914 55.0458C52.0914 55.0458 49.5749 55.3175 48.8162 52.9177C48.8162 52.9177 47.7869 47.4849 42.5577 47.5301C42.5577 47.5301 39.4855 47.5911 39.4101 52.903L38.5676 52.7138Z" fill="black"/>
<path opacity="0.2" d="M41.8337 47.5804L41.7878 47.5878C41.7878 47.5825 41.6901 47.02 41.368 46.5728C40.6928 45.6356 40.4722 45 40.4471 44.5756C40.4348 44.4285 40.4534 44.2805 40.5017 44.1405C40.6071 43.8542 40.8893 43.6426 41.2725 43.5378L41.3544 43.551C40.9859 43.6516 40.6447 43.8844 40.5437 44.1559C40.4955 44.2939 40.477 44.4399 40.4892 44.5851C40.5165 45.0005 40.7375 45.6239 41.4019 46.5474C41.7349 47.0025 41.8331 47.5746 41.8337 47.5804Z" fill="black"/>
<path opacity="0.2" d="M56.4709 45.3097C53.5386 43.6349 47.3308 42.0773 47.2683 42.062L47.28 42.019C47.3426 42.0349 53.5567 43.594 56.4944 45.2718L56.4709 45.3097Z" fill="black"/>
<path opacity="0.2" d="M60.6259 47.8409C59.5414 45.8949 56.6214 44.2906 54.3624 43.2868C52.8344 42.6127 51.2672 42.035 49.6696 41.5571L49.6817 41.5127C51.2812 41.9912 52.8503 42.5696 54.3802 43.2447C56.6455 44.2511 59.5744 45.8607 60.6652 47.818L60.6259 47.8409Z" fill="black"/>
<path opacity="0.1" d="M60.6982 47.2078C60.9292 47.0336 60.5171 46.0959 59.7779 45.1135C59.0386 44.1311 58.2521 43.476 58.0212 43.6503C57.7903 43.8246 58.2023 44.7622 58.9416 45.7446C59.6808 46.727 60.4673 47.3821 60.6982 47.2078Z" fill="black"/>
<path d="M60.6985 47.1167C60.9294 46.9425 60.5174 46.0048 59.7781 45.0224C59.0389 44.04 58.2524 43.3849 58.0214 43.5592C57.7905 43.7335 58.2026 44.6711 58.9418 45.6535C59.6811 46.6359 60.4676 47.291 60.6985 47.1167Z" fill="#DCE0ED"/>
<path opacity="0.1" d="M60.5257 46.8116C60.6756 46.6985 60.3022 45.9491 59.6917 45.1379C59.0813 44.3266 58.4648 43.7606 58.3149 43.8738C58.165 43.9869 58.5383 44.7363 59.1488 45.5475C59.7593 46.3588 60.3757 46.9248 60.5257 46.8116Z" fill="black"/>
<path d="M60.5257 46.7664C60.6757 46.6532 60.3023 45.9038 59.6918 45.0926C59.0814 44.2813 58.4649 43.7153 58.315 43.8285C58.1651 43.9416 58.5384 44.691 59.1489 45.5023C59.7594 46.3135 60.3758 46.8795 60.5257 46.7664Z" fill="#F0F0F4"/>
<path opacity="0.1" d="M53.8104 48.8415C53.8104 48.8415 53.9597 47.7342 54.8437 47.4855C54.8437 47.4855 57.8502 46.6294 58.5046 46.6168C58.5046 46.6168 59.1814 46.4127 59.629 46.9095L60.0878 47.5196C60.0878 47.5196 60.4076 48.0169 59.6978 48.1071C59.6978 48.1071 56.064 49.4186 54.4883 49.555C54.3987 49.5629 54.3097 49.5763 54.2218 49.5948C53.9916 49.642 53.5083 49.6557 53.8104 48.8415Z" fill="black"/>
<path d="M53.9371 48.7472C53.9371 48.7472 54.0863 47.686 54.9698 47.4477C54.9698 47.4477 57.9762 46.6273 58.6306 46.6152C58.6306 46.6152 59.3073 46.4192 59.755 46.8957L60.2143 47.4804C60.2143 47.4804 60.534 47.9564 59.8237 48.0434C59.8237 48.0434 56.1906 49.3001 54.6149 49.4308C54.5254 49.4385 54.4364 49.4512 54.3485 49.4691C54.1178 49.5143 53.6345 49.5274 53.9371 48.7472Z" fill="#F0F0F4"/>
<path opacity="0.1" d="M54.1839 48.6855C54.1839 48.6855 54.3248 47.7164 55.1552 47.499C55.1552 47.499 57.9857 46.7474 58.6014 46.7382C58.6014 46.7382 59.2386 46.5595 59.66 46.9943L60.0917 47.5285C60.0917 47.5285 60.3938 47.9639 59.7242 48.0429C59.7242 48.0429 56.3039 49.1918 54.8206 49.3104C54.7371 49.3175 54.6541 49.3291 54.5719 49.3453C54.3544 49.3834 53.8996 49.3974 54.1839 48.6855Z" fill="black"/>
<path d="M54.3087 48.5891C54.3087 48.5891 54.446 47.6698 55.2596 47.4604C55.2596 47.4604 58.0311 46.7453 58.6339 46.7366C58.6339 46.7366 59.2578 46.5661 59.6704 46.9803L60.0931 47.491C60.0931 47.491 60.3889 47.9047 59.7333 47.9803C59.7333 47.9803 56.3839 49.0733 54.9316 49.1862C54.8502 49.193 54.7692 49.204 54.6891 49.2194C54.4751 49.2562 54.0297 49.2674 54.3087 48.5891Z" fill="#636780"/>
<path d="M54.6044 47.9675L54.5987 47.9252C54.6389 47.9208 58.6391 47.4534 59.5 46.8284L59.5277 46.8618C58.6569 47.4927 54.7694 47.9473 54.6044 47.9675Z" fill="#F0F0F4"/>
<path d="M54.3537 48.6003L54.3459 48.5539C54.3899 48.5458 58.8043 47.6945 59.7564 47.0815L59.7805 47.1213C58.821 47.7392 54.3983 48.5916 54.3537 48.6003Z" fill="#F0F0F4"/>
<path d="M54.2279 49.1066L54.2195 49.0606C54.2721 49.0502 59.3723 48.0483 60.0033 47.4612L60.0333 47.4962C59.3955 48.0921 54.4382 49.0655 54.2279 49.1066Z" fill="#F0F0F4"/>
<path opacity="0.1" d="M59.5842 49.0191C59.5842 49.0191 57.6313 49.8167 55.578 50.1745C55.3964 50.2066 55.2167 50.2464 55.039 50.2938C54.8307 50.3492 54.5348 50.412 54.374 50.3712C54.1096 50.3032 53.9632 50.6186 54.249 50.8665L54.2671 50.8822C54.3704 50.9712 54.491 51.0388 54.6216 51.0811C54.7522 51.1233 54.8902 51.1393 55.0272 51.1281L55.4669 51.092C55.4669 51.092 59.0335 50.3262 60.0281 49.7289C60.0281 49.7289 60.4821 49.4239 60.5168 49.0808C60.5515 48.7377 60.5927 48.4672 60.2326 48.6702C59.8726 48.8731 59.5842 49.0191 59.5842 49.0191Z" fill="black"/>
<path d="M59.5833 49.0148C59.5107 49.0441 57.5941 49.82 55.5783 50.1718C55.3967 50.2036 55.2171 50.2434 55.0394 50.2913C54.8317 50.3468 54.5353 50.4098 54.3746 50.3689C54.1076 50.3007 53.964 50.6168 54.2497 50.8653L54.2582 50.8727C54.3644 50.965 54.4886 51.0352 54.6233 51.0791C54.7579 51.1229 54.9002 51.1396 55.0416 51.128L55.4645 51.0934H55.4715C55.5937 51.0672 59.0493 50.317 60.0265 49.7303H60.0302C60.0607 49.7089 60.4836 49.4132 60.5167 49.0819C60.5514 48.738 60.5931 48.4669 60.2326 48.6703C59.8903 48.8633 59.6132 49.0058 59.5876 49.019L59.5833 49.0148Z" fill="#F0F0F4"/>
<path opacity="0.1" d="M59.3717 49.3093C59.3717 49.3093 57.798 49.9513 56.1084 50.3161C55.9405 50.3521 55.7743 50.3943 55.609 50.4411C55.4438 50.4879 55.2077 50.544 55.0766 50.5275C54.8521 50.4982 54.745 50.7178 54.9968 50.8655L55.0047 50.8701C55.1953 50.9818 55.4191 51.0261 55.6389 50.9957L56.0281 50.9442C56.0281 50.9442 58.9757 50.2168 59.7783 49.7579C59.7783 49.7579 60.1455 49.5269 60.1549 49.2948C60.1644 49.0628 60.1874 48.8833 59.8963 49.0376C59.6052 49.192 59.3717 49.3093 59.3717 49.3093Z" fill="black"/>
<path d="M59.3745 49.1815C59.3409 49.1954 57.7818 49.8279 56.1098 50.1895C55.9418 50.2256 55.7748 50.2678 55.6095 50.3147C55.4441 50.3615 55.2084 50.4177 55.0766 50.4012C54.852 50.3718 54.7449 50.5913 54.9974 50.7396C55.1929 50.8544 55.4227 50.9 55.6483 50.8689L56.0273 50.8174C56.0882 50.8024 58.9829 50.0849 59.7787 49.6327C59.7913 49.6245 60.1462 49.3973 60.1551 49.1691C60.1641 48.9409 60.1877 48.7545 59.8963 48.9116C59.605 49.0687 59.3845 49.1774 59.3714 49.1835L59.3745 49.1815Z" fill="#636780"/>
<path opacity="0.1" d="M52.9185 51.1582C52.935 50.8281 52.7505 50.5506 52.5066 50.5384C52.2626 50.5261 52.0514 50.7839 52.0349 51.114C52.0185 51.4441 52.2029 51.7217 52.4469 51.7339C52.6908 51.7461 52.902 51.4884 52.9185 51.1582Z" fill="black"/>
<path d="M52.9057 51.1554C52.922 50.8257 52.7378 50.5485 52.4941 50.5364C52.2504 50.5242 52.0396 50.7817 52.0232 51.1114C52.0068 51.4412 52.1911 51.7183 52.4348 51.7305C52.6784 51.7426 52.8893 51.4852 52.9057 51.1554Z" fill="#F0F0F4"/>
<path opacity="0.1" d="M55.083 51.6575C55.083 51.6575 52.7688 51.9981 52.155 52.0312C51.5412 52.0644 51.4488 52.3932 51.4488 52.3932C51.4488 52.3932 51.301 53.2278 52.1534 52.9861L55.1764 52.6568C55.1764 52.6568 55.586 52.668 55.586 52.1296V52.0088C55.5872 51.9412 55.5943 51.8739 55.6071 51.8074C55.6234 51.7233 55.5786 51.5867 55.083 51.6575Z" fill="black"/>
<path d="M55.0814 51.5328C55.0814 51.5328 52.7672 51.9043 52.1534 51.9399C51.5396 51.9755 51.4488 52.3353 51.4488 52.3353C51.4488 52.3353 51.301 53.2457 52.1534 52.9821L55.1769 52.6228C55.1769 52.6228 55.5859 52.6351 55.5859 52.0478V51.916C55.5871 51.8422 55.5942 51.7688 55.607 51.6963C55.6239 51.6045 55.5769 51.4555 55.0814 51.5328Z" fill="#F0F0F4"/>
<path d="M61.2105 50.0483C61.1506 50.0914 61.0985 50.1978 61.0581 50.324L60.2622 50.8669C60.2525 50.8735 60.2411 50.8775 60.2293 50.8783C60.2174 50.8791 60.2056 50.8767 60.195 50.8715C60.1844 50.8663 60.1755 50.8584 60.1693 50.8486C60.1631 50.8389 60.1597 50.8276 60.1597 50.8162V50.2463C60.1596 50.1646 60.1815 50.0843 60.2233 50.0132C60.265 49.9421 60.3252 49.8826 60.3979 49.8405L61.2262 49.3597C61.2688 49.5124 61.3697 49.9333 61.2105 50.0483Z" fill="#F0F0F4"/>
<path d="M55.8977 51.5918L55.8637 52.1336C55.8594 52.1876 55.8674 52.2419 55.8872 52.2924C55.907 52.3429 55.9381 52.3884 55.9781 52.4255C56.0181 52.4626 56.0661 52.4904 56.1185 52.5068C56.1709 52.5232 56.2263 52.5278 56.2807 52.5202C57.5259 52.3245 58.7229 51.9008 59.8098 51.2711L59.9061 50.164C59.9089 50.137 59.9044 50.1098 59.8933 50.085C59.8821 50.0602 59.8645 50.0387 59.8423 50.0226C59.8201 50.0066 59.794 49.9965 59.7666 49.9935C59.7392 49.9904 59.7115 49.9945 59.6862 50.0052C59.0684 50.2767 57.412 50.9723 56.3605 51.1052C56.2382 51.1211 56.1253 51.1783 56.0409 51.267C55.9565 51.3557 55.9059 51.4704 55.8977 51.5918Z" fill="#636780"/>
<path d="M56.2417 51.2676V52.1441C56.2417 52.1441 59.0349 51.5069 59.6541 51.0772V50.2456C58.5664 50.7253 57.4196 51.0687 56.2417 51.2676Z" fill="#D80A49"/>
<path d="M61.1291 49.2331C60.9417 49.2228 60.7916 48.9715 60.7916 48.6639C60.7916 48.3563 60.9479 48.0941 61.1374 48.0941C61.1678 48.0951 61.1975 48.1011 61.2248 48.1116C61.252 48.1221 61.2762 48.137 61.2958 48.1551C61.311 48.5568 61.1934 49.0142 61.1291 49.2331Z" fill="#D80A49"/>
<path d="M61.1704 49.2331C61.0299 49.2234 60.918 48.972 60.918 48.6644C60.918 48.3568 61.0346 48.0941 61.1771 48.0941C61.1999 48.0953 61.2223 48.1014 61.2428 48.112C61.2633 48.1226 61.2815 48.1375 61.2963 48.1557C61.3066 48.5574 61.2185 49.0147 61.1704 49.2331Z" fill="#F0F0F4"/>
<path d="M48.2794 53.0901C48.2794 58.1104 46.1354 58.2191 43.3391 58.2191C41.1051 58.2191 40.1907 55.923 40.1907 53.0901C40.1907 50.2572 40.9084 47.9675 43.1419 47.9675C45.3753 47.9675 48.2794 50.2578 48.2794 53.0901Z" fill="#636780"/>
<path opacity="0.2" d="M48.2794 53.0901C48.2794 58.1104 46.1354 58.2191 43.3391 58.2191C41.1051 58.2191 40.1907 55.923 40.1907 53.0901C40.1907 50.2572 40.9084 47.9675 43.1419 47.9675C45.3753 47.9675 48.2794 50.2578 48.2794 53.0901Z" fill="black"/>
<path d="M42.9712 58.2191C44.5068 58.2191 45.7516 55.9242 45.7516 53.0933C45.7516 50.2624 44.5068 47.9675 42.9712 47.9675C41.4355 47.9675 40.1907 50.2624 40.1907 53.0933C40.1907 55.9242 41.4355 58.2191 42.9712 58.2191Z" fill="#636780"/>
<path d="M43.4767 53.3014C43.4767 55.1184 43.0954 56.5738 42.3035 56.5738C41.5115 56.5738 40.5699 55.1006 40.5699 53.2815C40.5699 51.4624 40.8992 49.8659 41.6911 49.8659C42.4831 49.8659 43.4767 51.4844 43.4767 53.3014Z" fill="#F0F0F4"/>
<path d="M43.4767 53.2855C43.4767 53.4238 43.4741 53.5582 43.4687 53.6885C43.4577 54.0326 43.4216 54.3752 43.3609 54.7136C43.2366 55.3776 43.0114 55.8382 42.6764 55.9264C42.6377 55.936 42.5979 55.9409 42.5581 55.941C42.3973 55.941 42.2286 55.8611 42.0668 55.7158C41.7483 55.431 41.4577 54.8967 41.3075 54.2348C41.2524 53.9875 41.219 53.7356 41.2076 53.4821C41.2041 53.4126 41.2021 53.342 41.2021 53.2704C41.1979 52.7814 41.2327 52.2928 41.306 51.8096C41.3465 51.5238 41.423 51.2447 41.5336 50.9796C41.6694 50.6782 41.8497 50.4987 42.0803 50.4987C42.2356 50.4987 42.4008 50.5812 42.5616 50.728C42.7538 50.9039 42.939 51.171 43.0918 51.4994C43.3455 52.0579 43.4769 52.6679 43.4767 53.2855Z" fill="#636780"/>
<path d="M43.4767 53.6444C43.4656 53.9951 43.4293 54.3445 43.3682 54.6895C43.3526 54.6631 42.9161 53.9395 42.5856 54.4039C42.3445 54.7445 42.5475 55.5194 42.6796 55.9262C42.6406 55.936 42.6006 55.9409 42.5605 55.941C42.3988 55.941 42.229 55.8595 42.0662 55.7114V55.6585C42.0662 55.6585 42.2606 54.7916 41.7418 54.2574C41.7418 54.2574 41.4906 54.1141 41.3022 54.2003C41.2468 53.9482 41.2132 53.6913 41.2018 53.4328C41.246 53.3826 41.5494 53.0097 41.4253 52.3099C41.3781 52.0455 41.3359 51.8566 41.3007 51.7281C41.3415 51.4367 41.4185 51.1521 41.5298 50.8818C41.5298 50.8818 41.6302 51.6562 42.011 51.7017C42.3917 51.7471 42.559 50.6555 42.5635 50.6253C42.7569 50.8046 42.9433 51.077 43.097 51.4118C43.097 51.4118 42.4877 51.7747 42.6655 52.7389C42.7906 53.4249 43.2321 53.6005 43.4767 53.6444Z" fill="#F0F0F4"/>
<path d="M42.0699 53.881C42.236 53.8673 42.345 53.541 42.3132 53.152C42.2814 52.763 42.1209 52.4588 41.9547 52.4724C41.7885 52.486 41.6796 52.8124 41.7114 53.2013C41.7432 53.5903 41.9037 53.8946 42.0699 53.881Z" fill="#636780"/>
<path opacity="0.2" d="M49.6696 45.2692L49.6513 45.3097C49.6335 45.3015 48.0734 44.6443 42.2883 43.6851C42.018 43.6404 41.7386 43.5949 41.4501 43.5485C41.4234 43.5449 41.3978 43.5403 41.37 43.5362C40.4443 43.3888 39.4223 43.2357 38.2949 43.0755L38.3012 43.0315C39.8282 43.2465 41.1615 43.4512 42.3245 43.6457C48.0949 44.6039 49.6513 45.2616 49.6696 45.2692Z" fill="black"/>
<path opacity="0.1" d="M38.6781 41.6928L36.7199 37.6136C36.6921 37.5558 36.6793 37.4919 36.6826 37.4278C36.6858 37.3637 36.7051 37.3014 36.7385 37.2467C36.772 37.192 36.8186 37.1467 36.874 37.1148C36.9295 37.083 36.992 37.0656 37.0559 37.0644C38.5474 37.0369 42.4676 36.9246 44.4878 36.4788C44.3608 36.3791 44.2878 36.3237 44.2878 36.3237C42.2928 36.7853 38.2854 36.9003 36.7729 36.9277C36.709 36.929 36.6465 36.9463 36.5911 36.9782C36.5356 37.01 36.489 37.0554 36.4556 37.1101C36.4221 37.1648 36.4029 37.227 36.3996 37.2911C36.3963 37.3552 36.4092 37.4191 36.4369 37.4769L38.3957 41.5546C38.4756 41.7214 38.5875 41.8706 38.725 41.9937C38.8625 42.1169 39.0228 42.2115 39.1968 42.2721C38.9729 42.1322 38.7931 41.9313 38.6781 41.6928Z" fill="black"/>
<path d="M39.306 52.7769H38.5477V53.03H39.306V52.7769Z" fill="#D80A49"/>
<path opacity="0.2" d="M39.306 52.7769H38.5477V53.03H39.306V52.7769Z" fill="black"/>
<path opacity="0.1" d="M42.4526 56.3732C41.6593 56.3732 40.7156 54.9049 40.7156 53.0936C40.7156 51.8519 40.868 50.7126 41.2235 50.119C40.7664 50.6227 40.5699 51.8929 40.5699 53.2942C40.5699 55.1055 41.5135 56.5738 42.3069 56.5738C42.575 56.5738 42.796 56.4075 42.9712 56.1185C42.8239 56.2827 42.6512 56.3732 42.4526 56.3732Z" fill="black"/>
<path opacity="0.1" d="M52.2977 49.2722C52.8282 48.7409 52.4187 47.4694 51.3829 46.4322C50.3472 45.395 49.0775 44.9849 48.5469 45.5162C48.0164 46.0475 48.4259 47.319 49.4617 48.3562C50.4974 49.3934 51.7671 49.8035 52.2977 49.2722Z" fill="black"/>
<path d="M52.3431 49.227C52.8736 48.6957 52.4641 47.4242 51.4284 46.387C50.3926 45.3498 49.1229 44.9397 48.5924 45.471C48.0618 46.0023 48.4713 47.2738 49.5071 48.311C50.5428 49.3482 51.8126 49.7583 52.3431 49.227Z" fill="#DCE0ED"/>
<path opacity="0.1" d="M52.1892 48.9031C52.5782 48.5136 52.181 47.4844 51.3021 46.6043C50.4232 45.7242 49.3955 45.3264 49.0065 45.7159C48.6176 46.1054 49.0148 47.1346 49.8936 48.0147C50.7725 48.8949 51.8003 49.2926 52.1892 48.9031Z" fill="black"/>
<path d="M52.1893 48.8572C52.5783 48.4677 52.1811 47.4385 51.3022 46.5584C50.4233 45.6783 49.3956 45.2806 49.0066 45.67C48.6177 46.0595 49.0148 47.0888 49.8937 47.9689C50.7726 48.849 51.8004 49.2467 52.1893 48.8572Z" fill="#F0F0F4"/>
<g opacity="0.1">
<path opacity="0.1" d="M43.0394 43.2779C43.0178 43.3175 42.8626 43.4105 42.6736 43.5131C42.6562 43.3751 42.6436 43.271 42.6409 43.2388C42.6298 43.1209 42.8811 42.5929 42.8811 42.5929C42.8811 42.5929 43.3619 41.947 43.3508 41.8498C43.3397 41.7525 43.5366 41.4735 43.5366 41.4735L43.9726 40.7657C43.9485 40.8197 43.9399 40.8793 43.9478 40.9378C43.9557 40.9964 43.9799 41.0516 44.0174 41.0971C44.1488 41.2694 44.0391 41.614 44.0391 41.614L44.066 42.0485V42.0918C44.0507 42.1072 43.9805 42.1743 43.8253 42.3144C43.6823 42.4433 43.7076 42.483 43.724 42.4935C43.6912 42.5517 43.7314 42.5617 43.7314 42.5617C43.744 42.5617 43.7567 42.5607 43.7694 42.5585L43.7345 42.5908C43.4685 42.8403 43.0785 43.2076 43.0394 43.2779Z" fill="url(#paint12_linear)"/>
</g>
<path opacity="0.03" d="M37.5366 47.9675C37.5366 47.9675 36.5876 48.0904 36.3991 48.2973C36.3991 48.2973 37.2325 48.3585 37.2667 48.4737C37.2667 48.4737 36.7905 48.1327 36.6579 48.2188L37.5366 47.9675Z" fill="black"/>
<path opacity="0.3" d="M41.0754 54.5587C41.0821 54.6003 41.0852 54.6411 41.0876 54.6766C41.0893 54.7221 41.1188 54.7658 41.1709 54.7998L41.1746 54.8019C41.1943 54.718 41.2034 54.6334 41.2015 54.5488C41.1887 54.5598 41.1336 54.5609 41.0754 54.5587Z" fill="white"/>
</g>
<defs>
<linearGradient id="paint0_linear" x1="73.2147" y1="39.9949" x2="47.5951" y2="134.15" gradientUnits="userSpaceOnUse">
<stop offset="0.01"/>
<stop offset="0.13" stop-opacity="0.69"/>
<stop offset="0.25" stop-opacity="0.32"/>
<stop offset="1" stop-opacity="0"/>
</linearGradient>
<linearGradient id="paint1_linear" x1="3448.5" y1="4694.48" x2="321.511" y2="8091.8" gradientUnits="userSpaceOnUse">
<stop offset="0.01"/>
<stop offset="0.13" stop-opacity="0.69"/>
<stop offset="0.25" stop-opacity="0.32"/>
<stop offset="1" stop-opacity="0"/>
</linearGradient>
<linearGradient id="paint2_linear" x1="-33183.9" y1="4494.69" x2="-30057.2" y2="7890.39" gradientUnits="userSpaceOnUse">
<stop offset="0.01"/>
<stop offset="0.13" stop-opacity="0.69"/>
<stop offset="0.25" stop-opacity="0.32"/>
<stop offset="1" stop-opacity="0"/>
</linearGradient>
<linearGradient id="paint3_linear" x1="19.9362" y1="27.9903" x2="73.9214" y2="70.6393" gradientUnits="userSpaceOnUse">
<stop stop-color="white"/>
<stop offset="1" stop-color="#CBCBCB"/>
</linearGradient>
<linearGradient id="paint4_linear" x1="3288.45" y1="1789.13" x2="3191.07" y2="2499.29" gradientUnits="userSpaceOnUse">
<stop offset="0.01"/>
<stop offset="0.13" stop-opacity="0.69"/>
<stop offset="0.25" stop-opacity="0.32"/>
<stop offset="1" stop-opacity="0"/>
</linearGradient>
<linearGradient id="paint5_linear" x1="393.203" y1="148.718" x2="394.229" y2="159.84" gradientUnits="userSpaceOnUse">
<stop stop-color="white"/>
<stop offset="1" stop-color="#CBCBCB"/>
</linearGradient>
<linearGradient id="paint6_linear" x1="179.335" y1="195.282" x2="180.721" y2="204.076" gradientUnits="userSpaceOnUse">
<stop stop-color="white"/>
<stop offset="1" stop-color="#CBCBCB"/>
</linearGradient>
<linearGradient id="paint7_linear" x1="4826.75" y1="4053.78" x2="7295.87" y2="4786.75" gradientUnits="userSpaceOnUse">
<stop stop-color="white"/>
<stop offset="1" stop-color="#CBCBCB"/>
</linearGradient>
<linearGradient id="paint8_linear" x1="52.5433" y1="6.35082" x2="17.2249" y2="13.2762" gradientUnits="userSpaceOnUse">
<stop offset="0.01" stop-color="white"/>
<stop offset="1" stop-color="white" stop-opacity="0"/>
</linearGradient>
<linearGradient id="paint9_linear" x1="638.523" y1="671.812" x2="663.221" y2="683.008" gradientUnits="userSpaceOnUse">
<stop stop-color="white"/>
<stop offset="1" stop-color="#CBCBCB"/>
</linearGradient>
<linearGradient id="paint10_linear" x1="2678.59" y1="310.816" x2="2976.08" y2="710.188" gradientUnits="userSpaceOnUse">
<stop offset="0.01"/>
<stop offset="0.13" stop-opacity="0.69"/>
<stop offset="0.25" stop-opacity="0.32"/>
<stop offset="1" stop-opacity="0"/>
</linearGradient>
<linearGradient id="paint11_linear" x1="3781.91" y1="117.134" x2="3781.91" y2="292.066" gradientUnits="userSpaceOnUse">
<stop offset="0.01"/>
<stop offset="0.13" stop-opacity="0.69"/>
<stop offset="0.25" stop-opacity="0.32"/>
<stop offset="1" stop-opacity="0"/>
</linearGradient>
<linearGradient id="paint12_linear" x1="959.853" y1="1499.55" x2="999.22" y2="1499.55" gradientUnits="userSpaceOnUse">
<stop stop-color="#808080" stop-opacity="0.25"/>
<stop offset="0.54" stop-color="#808080" stop-opacity="0.12"/>
<stop offset="1" stop-color="#808080" stop-opacity="0.1"/>
</linearGradient>
<clipPath id="clip0">
<rect width="114" height="93.024" fill="white"/>
</clipPath>
</defs>
</svg>
