<svg width="575" height="469" viewBox="0 0 575 469" fill="none" xmlns="http://www.w3.org/2000/svg">
<path opacity="0.18" d="M237.112 67.8263C203.308 96.0382 176.068 132.019 140.115 157.544C106.861 181.062 66.7201 195.16 38.1059 224.133C13.6678 248.867 -0.0272066 282.262 4.05801e-05 317.053C0.0272878 351.844 13.7745 385.218 38.2514 409.913C72.4753 444.438 123.076 457.451 171.59 460.009C220.105 462.566 268.749 456.205 317.264 458.811C363.176 461.287 408.83 471.759 454.677 468.296C500.524 464.832 549.071 443.191 567.178 400.898C587.224 354.089 564.252 301.42 548.409 253.041C536.45 216.459 528.556 178.669 524.871 140.355C519.374 83.041 509.254 3.45537 437.217 0.282954C365.666 -2.97039 291.964 21.9719 237.112 67.8263Z" fill="#C2C2C2"/>
<path d="M430.007 386.38C432.982 387.901 433.418 392.271 431.737 395.136C430.056 398.001 426.887 399.717 423.929 401.125C416.809 404.433 409.335 406.914 401.652 408.522C398.176 409.266 393.568 411.241 394.441 414.705C395.072 417.473 398.645 418.136 401.474 418.185C443.506 418.832 485.069 407.535 527.085 408.473C529.866 408.473 532.954 408.781 534.861 410.82C537.27 413.394 536.623 417.537 535.265 420.791C527.764 438.854 506.166 445.895 486.864 449.019C442.908 456.157 398.063 454.117 353.541 453.616C264.869 452.644 175.955 457.872 87.6066 450.136C85.7356 450.14 83.9002 449.624 82.3041 448.647C80.7294 447.249 79.7609 445.293 79.6044 443.192C78.1009 432.428 86.7013 422.312 96.8214 418.379C106.941 414.446 118.177 415.142 129.008 415.935C174.904 419.172 220.994 421.924 266.874 418.46C296.922 416.45 326.644 411.02 355.465 402.274C368.705 398.147 382.107 390.022 395.638 387.545C399.809 386.784 404.044 387.302 408.247 387.092C414.358 386.784 424.317 383.482 430.007 386.38Z" fill="url(#paint0_linear)"/>
<path d="M0.00195312 309.044C0.163615 314.466 2.83104 319.452 5.49847 324.178C17.6393 345.624 31.2189 366.73 49.9717 382.657C77.5836 406.046 113.747 416.113 148.667 425.566C145.53 424.044 141.78 407.939 140.389 404.395C137.69 397.451 135.168 390.443 132.565 383.483C128.475 372.46 119.842 363.59 111.549 355.481C92.5432 337.184 69.4892 323.641 44.2651 315.955C29.9091 311.577 15.0077 309.251 0.00195312 309.044Z" fill="#D80A49"/>
<path d="M0.00195312 309.044C0.163615 314.466 2.83104 319.452 5.49847 324.178C17.6393 345.624 31.2189 366.73 49.9717 382.657C77.5836 406.046 113.747 416.113 148.667 425.566C145.53 424.044 141.78 407.939 140.389 404.395C137.69 397.451 135.168 390.443 132.565 383.483C128.475 372.46 119.842 363.59 111.549 355.481C92.5432 337.184 69.4892 323.641 44.2651 315.955C29.9091 311.577 15.0077 309.251 0.00195312 309.044Z" fill="url(#paint1_linear)"/>
<path d="M136.623 321.022C133.777 301.081 130.851 280.865 122.833 262.38C114.814 243.896 100.928 227.144 82.0617 220.054L80.445 305.758C80.1217 322.252 79.8469 339.069 84.5674 354.882C92.8769 382.592 121.653 415.11 149.394 424.271C153.5 410.95 146.597 390.799 144.544 376.976L136.623 321.022Z" fill="#D80A49"/>
<path d="M480.559 295.286C480.413 300.692 477.73 305.693 475.062 310.404C462.954 331.85 449.358 352.972 430.573 368.883C402.961 392.271 366.813 402.355 331.959 411.792C335.079 410.27 338.83 394.165 340.22 390.621C342.92 383.677 345.442 376.685 348.045 369.708C352.135 358.686 360.767 349.832 369.158 341.723C388.126 323.427 411.149 309.883 436.344 302.197C450.681 297.806 465.568 295.478 480.559 295.286Z" fill="#D80A49"/>
<path d="M480.559 295.286C480.413 300.692 477.73 305.693 475.062 310.404C462.954 331.85 449.358 352.972 430.573 368.883C402.961 392.271 366.813 402.355 331.959 411.792C335.079 410.27 338.83 394.165 340.22 390.621C342.92 383.677 345.442 376.685 348.045 369.708C352.135 358.686 360.767 349.832 369.158 341.723C388.126 323.427 411.149 309.883 436.344 302.197C450.681 297.806 465.568 295.478 480.559 295.286Z" fill="url(#paint2_linear)"/>
<path d="M343.938 307.28C346.784 287.339 349.71 267.107 357.728 248.639C365.746 230.171 379.633 213.321 398.499 206.297C399.049 234.87 399.588 263.432 400.116 291.984C400.423 308.494 400.714 325.311 395.977 341.124C387.684 368.834 358.892 401.352 331.167 410.497C327.045 397.192 333.948 377.024 335.92 363.202L343.938 307.28Z" fill="#D80A49"/>
<path d="M315.211 28.1555L165.56 42.9007C150.105 44.4222 137.56 57.468 137.56 71.9543V407.891C137.56 422.458 150.105 432.946 165.56 431.425L315.211 416.68C330.682 415.158 343.227 402.112 343.227 387.642V51.7058C343.227 37.171 330.682 26.634 315.211 28.1555ZM328.936 388.354C328.936 397.305 321.209 405.317 311.687 406.256L166.272 420.58C156.733 421.519 149.006 415.029 149.006 406.013V70.9669C149.006 62.0162 156.733 54.0042 166.272 53.0654L188.064 50.9127V52.9036C188.064 58.6333 193.01 62.7931 199.105 62.1942L279.532 54.3765C282.448 54.1294 285.176 52.832 287.209 50.7247C289.243 48.6174 290.444 45.8433 290.59 42.9169V41.007L311.606 38.9352C321.128 37.9964 328.855 44.487 328.855 53.5024L328.936 388.354Z" fill="#D80A49"/>
<path d="M322.259 34.3547L172.593 49.1C157.138 50.6215 144.593 63.6672 144.593 78.2345V414.09C144.593 428.657 157.138 439.146 172.593 437.624L322.259 422.895C337.714 421.374 350.259 408.328 350.259 393.842V57.9051C350.259 43.3864 337.73 32.9142 322.259 34.3547ZM335.984 394.554C335.984 403.504 328.257 411.516 318.719 412.455L173.223 426.78C163.685 427.718 155.957 421.228 155.957 412.212V77.1662C155.957 68.2154 163.685 60.1873 173.223 59.2485L195.096 57.1929V59.1676C195.096 64.8974 200.043 69.0571 206.137 68.4582L286.581 60.5434C289.489 60.2864 292.206 58.9876 294.235 56.8854C296.263 54.7832 297.466 52.0188 297.622 49.1V47.1415L318.719 45.0536C328.257 44.1148 335.984 50.6215 335.984 59.6208V394.554Z" fill="white"/>
<path d="M335.984 59.5722V394.618C335.984 403.569 328.257 411.581 318.719 412.52L173.223 426.844C163.685 427.783 155.957 421.293 155.957 412.277V77.231C155.957 68.2802 163.685 60.252 173.223 59.3133L195.096 57.1929V59.1676C195.096 64.8974 200.043 69.0571 206.137 68.4582L286.58 60.5434C289.489 60.2865 292.206 58.9876 294.235 56.8854C296.263 54.7832 297.466 52.0188 297.622 49.1V47.1415L318.719 45.0536C328.257 44.1148 335.984 50.6215 335.984 59.5722Z" stroke="url(#paint3_linear)" stroke-width="0.63" stroke-miterlimit="10"/>
<path d="M335.984 59.5722V394.618C335.984 403.569 328.257 411.581 318.719 412.52L173.223 426.844C163.685 427.783 155.957 421.293 155.957 412.277V77.231C155.957 68.2802 163.685 60.252 173.223 59.3133L195.096 57.1929V59.1676C195.096 64.8974 200.043 69.0571 206.137 68.4582L286.58 60.5434C289.489 60.2865 292.206 58.9876 294.235 56.8854C296.263 54.7832 297.466 52.0188 297.622 49.1V47.1415L318.719 45.0536C328.257 44.1148 335.984 50.6215 335.984 59.5722Z" fill="#D80A49"/>
<path d="M286.322 377.478L213.251 384.486C212.221 384.571 211.184 384.441 210.207 384.105C209.23 383.768 208.333 383.233 207.574 382.531C206.814 381.83 206.208 380.978 205.794 380.031C205.379 379.083 205.166 378.059 205.167 377.024V358.718C205.167 356.835 205.867 355.019 207.131 353.624C208.396 352.23 210.133 351.357 212.006 351.176L285.045 344.167C286.082 344.068 287.129 344.187 288.118 344.517C289.107 344.847 290.016 345.381 290.786 346.083C291.557 346.786 292.172 347.643 292.592 348.598C293.012 349.553 293.227 350.585 293.225 351.629V369.935C293.22 371.828 292.51 373.65 291.233 375.045C289.956 376.441 288.205 377.308 286.322 377.478Z" fill="url(#paint4_linear)"/>
<path d="M192.234 313.107L297.654 302.991C301.209 302.67 304.512 301.021 306.909 298.373C309.305 295.725 310.618 292.272 310.587 288.699V169.62C310.57 167.455 310.107 165.317 309.227 163.34C308.347 161.363 307.069 159.589 305.472 158.129C303.876 156.669 301.996 155.554 299.95 154.855C297.904 154.156 295.735 153.887 293.58 154.065L188.161 164.181C184.608 164.498 181.304 166.143 178.908 168.789C176.511 171.434 175.197 174.886 175.228 178.457V297.552C175.245 299.717 175.708 301.855 176.588 303.832C177.468 305.809 178.746 307.583 180.343 309.043C181.939 310.503 183.819 311.618 185.865 312.317C187.911 313.016 190.08 313.285 192.234 313.107Z" fill="#C9D9DF"/>
<path d="M198.459 314.79L303.878 304.674C307.431 304.357 310.735 302.712 313.131 300.066C315.528 297.421 316.842 293.969 316.811 290.398V171.303C316.794 169.138 316.331 167 315.451 165.023C314.571 163.046 313.293 161.272 311.696 159.812C310.1 158.352 308.22 157.237 306.174 156.538C304.128 155.839 301.959 155.57 299.804 155.748L194.385 165.864C190.83 166.185 187.527 167.834 185.13 170.482C182.734 173.13 181.421 176.583 181.452 180.156V299.235C181.469 301.4 181.932 303.538 182.812 305.515C183.692 307.492 184.97 309.266 186.567 310.726C188.163 312.186 190.043 313.301 192.089 314C194.135 314.699 196.304 314.968 198.459 314.79Z" fill="url(#paint5_linear)"/>
<path d="M289.975 375.05L216.936 382.042C215.9 382.144 214.853 382.027 213.864 381.699C212.876 381.371 211.967 380.839 211.196 380.137C210.425 379.436 209.81 378.58 209.39 377.626C208.969 376.671 208.754 375.639 208.756 374.597V356.29C208.756 354.407 209.456 352.591 210.72 351.196C211.984 349.802 213.722 348.929 215.595 348.748L288.634 341.739C289.671 341.64 290.718 341.759 291.707 342.089C292.696 342.419 293.605 342.953 294.375 343.655C295.145 344.358 295.761 345.215 296.181 346.17C296.601 347.125 296.816 348.157 296.814 349.201V367.507C296.814 369.39 296.114 371.207 294.85 372.601C293.586 373.996 291.848 374.869 289.975 375.05Z" fill="white"/>
<path d="M230.451 367.135L233.458 366.844C233.464 366.997 233.502 367.148 233.572 367.285C233.642 367.422 233.741 367.542 233.862 367.637C234.19 367.841 234.58 367.922 234.962 367.863C235.343 367.834 235.711 367.705 236.029 367.491C236.171 367.403 236.288 367.279 236.368 367.131C236.447 366.983 236.486 366.817 236.481 366.649C236.491 366.569 236.491 366.487 236.481 366.407C236.389 366.288 236.273 366.188 236.142 366.115C235.877 365.96 235.587 365.85 235.285 365.792L233.846 365.468C233.283 365.375 232.737 365.195 232.23 364.934C231.835 364.741 231.495 364.452 231.243 364.092C230.876 363.565 230.678 362.938 230.678 362.295C230.669 361.779 230.773 361.266 230.983 360.794C231.192 360.322 231.502 359.901 231.89 359.56C232.745 358.806 233.825 358.356 234.962 358.281C236.028 358.118 237.117 358.373 238.001 358.993C238.392 359.294 238.704 359.685 238.91 360.134C239.116 360.582 239.209 361.074 239.181 361.567L236.206 361.842C236.206 361.114 235.786 360.79 234.929 360.871C234.583 360.879 234.249 360.998 233.975 361.211C233.869 361.296 233.783 361.405 233.724 361.528C233.665 361.651 233.635 361.786 233.636 361.923C233.636 362.344 234.008 362.635 234.768 362.781L236.174 363.089C238.437 363.542 239.569 364.707 239.569 366.326C239.583 367.106 239.326 367.867 238.841 368.478C238.392 369.059 237.802 369.516 237.128 369.806C236.462 370.101 235.752 370.281 235.026 370.34C233.9 370.51 232.75 370.263 231.793 369.644C231.378 369.371 231.038 368.998 230.803 368.56C230.569 368.122 230.448 367.632 230.451 367.135Z" fill="#D80A49"/>
<path d="M249.835 364.723L252.276 366.131C251.71 367.022 250.947 367.77 250.045 368.316C249.145 368.879 248.127 369.223 247.07 369.32C246.281 369.418 245.479 369.347 244.718 369.113C243.958 368.879 243.255 368.486 242.657 367.96C242.067 367.454 241.597 366.822 241.281 366.111C240.965 365.4 240.811 364.627 240.83 363.849C240.832 362.183 241.488 360.584 242.657 359.398C243.797 358.137 245.376 357.361 247.07 357.229C248.088 357.115 249.118 357.266 250.061 357.666C250.951 358.048 251.722 358.663 252.292 359.447L249.819 361.324C249.533 360.894 249.129 360.556 248.655 360.353C248.149 360.122 247.59 360.032 247.038 360.094C246.154 360.168 245.332 360.58 244.742 361.243C244.137 361.867 243.8 362.704 243.805 363.574C243.789 363.98 243.866 364.385 244.028 364.758C244.19 365.13 244.434 365.462 244.742 365.727C245.051 366.004 245.416 366.211 245.812 366.334C246.209 366.457 246.627 366.493 247.038 366.439C247.613 366.397 248.168 366.214 248.655 365.905C249.133 365.606 249.537 365.202 249.835 364.723Z" fill="#D80A49"/>
<path d="M261.62 367.75L260.585 365.144L256.738 365.5L255.703 368.3L252.47 368.592L256.996 356.388L260.23 356.096L264.724 367.426L261.62 367.75ZM258.629 358.977L257.53 362.959L259.825 362.749L258.629 358.977Z" fill="#D80A49"/>
<path d="M272.29 355.012L275.248 354.737V366.536L272.661 366.763L268.911 360.677V367.151L265.936 367.426V355.627L268.62 355.384L272.29 361.389V355.012Z" fill="#D80A49"/>
<path d="M390.812 188.405L311.517 151.663L181.702 167.379L185 306.059L195.799 310.769L314.136 301.268L320.36 288.061L389.632 193.843L390.812 188.405Z" fill="url(#paint6_linear)"/>
<path d="M384.16 199.24V187.618C384.159 187.233 384.26 186.855 384.453 186.522C384.646 186.189 384.924 185.914 385.259 185.724L391.726 182.115C392.405 181.727 395.088 183.297 395.088 184.073L393.261 204.014L388.719 207.527L384.176 204.856L384.16 199.24Z" fill="white"/>
<path d="M384.16 199.24V187.618C384.159 187.233 384.26 186.855 384.453 186.522C384.646 186.189 384.924 185.914 385.259 185.724L391.726 182.115C392.405 181.727 395.088 183.297 395.088 184.073L393.261 204.014L388.719 207.527L384.176 204.856L384.16 199.24Z" fill="url(#paint7_linear)"/>
<path d="M386.067 200.68V189.042C386.066 188.66 386.167 188.283 386.36 187.953C386.554 187.623 386.832 187.351 387.167 187.165L393.633 183.539C393.79 183.453 393.966 183.408 394.144 183.41C394.323 183.411 394.498 183.459 394.653 183.549C394.808 183.639 394.936 183.767 395.027 183.921C395.117 184.075 395.166 184.251 395.169 184.429V205.471L390.626 208.967L386.084 206.313L386.067 200.68Z" fill="white"/>
<path d="M387.248 200.195V190.742L394.603 186.097V201.732L392.987 206.993L389.559 208.126C389.559 208.126 387.733 207.349 387.733 207.106" fill="#D80A49"/>
<path d="M490.065 286.287L489.095 287.598L492.587 237.81L493.282 227.808L493.621 222.952L495.448 226.885C498.875 234.12 505.988 249.254 507.977 253.397C510.256 258.156 494.219 280.557 490.065 286.287Z" fill="white"/>
<path opacity="0.1" d="M490.065 286.287C489.661 285.332 489.511 284.29 489.628 283.26C490.055 280.987 491.032 278.852 492.473 277.045C496.321 271.38 501.139 265.375 503.353 258.803C506.263 250.112 496.725 244.722 492.587 237.762C491.528 236.133 490.899 234.262 490.76 232.323C490.691 231.399 490.893 230.475 491.341 229.664C491.789 228.854 492.463 228.191 493.282 227.759C493.954 227.342 494.684 227.025 495.448 226.82C498.875 234.055 505.988 249.189 507.977 253.333C510.256 258.156 494.219 280.557 490.065 286.287Z" fill="#020202"/>
<path d="M466.381 423.267C464.844 423.971 463.575 425.152 462.76 426.634C462.591 426.963 462.54 427.34 462.614 427.702C462.733 427.97 462.909 428.209 463.129 428.402C463.35 428.595 463.61 428.738 463.892 428.819C467.965 430.438 472.573 430.13 476.825 429.353C481.092 428.307 485.45 427.672 489.838 427.459C490.21 427.519 490.59 427.498 490.953 427.397C491.315 427.297 491.652 427.119 491.94 426.877C492.211 426.471 492.341 425.988 492.312 425.501C492.488 421.681 491.826 417.869 490.372 414.333C490.469 414.559 478.845 415.029 477.843 415.709C476 416.987 474.464 418.622 472.492 419.804C470.52 420.985 468.434 422.102 466.381 423.267Z" fill="#282328"/>
<path d="M481.836 339.959C481.758 354.857 482.926 369.735 485.328 384.437C485.716 386.995 486.136 389.536 486.654 392.077C490.469 410.853 490.776 415.628 490.776 415.628H475.45C475.45 415.628 464.134 362.457 459.931 350.35C456.752 341.174 454.271 331.77 452.511 322.219C451.824 317.693 452.383 313.065 454.127 308.834C454.719 307.165 455.564 305.598 456.633 304.188C458.715 301.886 461.322 300.12 464.231 299.041C470.42 296.239 477.114 294.73 483.905 294.606C484.681 294.54 485.458 294.71 486.136 295.092C486.57 295.449 486.914 295.904 487.139 296.419C489.127 300.466 488.755 305.224 488.141 309.691C487.874 312.172 487.331 314.615 486.524 316.975C485.619 319.387 484.196 321.572 483.372 324.016C482.67 326.369 482.258 328.798 482.143 331.251C482.046 334.148 481.901 337.045 481.836 339.959Z" fill="#282328"/>
<path d="M443.425 328.208C443.748 330.143 443.872 332.107 443.797 334.067C443.732 337.583 443.846 341.1 444.137 344.604C444.993 361.292 447.515 377.915 447.531 394.618C447.531 408.862 447.063 423.753 447.063 423.753C447.063 423.753 459.462 427.573 462.324 424.708L467.093 355.918C467.82 350.723 468.936 345.446 469.307 340.218C469.631 335.67 469.728 331.818 471.425 327.447C473.333 322.592 476.049 318.011 477.52 312.961C478.472 309.728 478.881 306.358 478.732 302.991C478.779 301.958 478.496 300.937 477.924 300.077C477.359 299.492 476.668 299.043 475.903 298.766C467.319 294.946 458.411 291.062 449.019 291.143C448.261 291.08 447.501 291.243 446.836 291.612C446.203 292.136 445.746 292.842 445.527 293.635C442.072 302.764 441.009 312.627 442.439 322.284C442.811 324.372 443.134 326.282 443.425 328.208Z" fill="#473F47"/>
<path d="M397.125 210.958C396.753 208.773 396.802 206.491 396.608 204.273C396.599 203.403 396.365 202.55 395.929 201.797C395.696 201.429 395.344 201.152 394.932 201.014C394.52 200.875 394.073 200.883 393.666 201.036C392.663 201.538 392.631 202.914 392.663 204.031C392.696 205.147 392.405 206.572 391.305 206.782C390.891 206.822 390.475 206.738 390.109 206.539C389.561 206.245 389.088 205.827 388.729 205.319C388.37 204.81 388.134 204.225 388.04 203.61C387.943 202.881 388.04 202.121 387.91 201.392C387.49 199.288 384.774 199.644 383.513 200.745C382.77 201.463 382.167 202.314 381.735 203.254C380.821 204.844 380.151 206.563 379.746 208.352C378.405 215.652 387.199 217.222 390.917 221.884C391.452 222.607 392.047 223.284 392.696 223.907C393.327 224.449 394.089 224.815 394.907 224.968C395.724 225.122 396.567 225.057 397.351 224.781C398.132 224.493 398.821 224.002 399.35 223.359C399.878 222.717 400.226 221.945 400.358 221.123C400.795 218.404 398.823 215.96 397.853 213.37C397.535 212.591 397.291 211.783 397.125 210.958Z" fill="#FFBBAB"/>
<path d="M460.351 191.988C460.502 192.194 460.617 192.424 460.691 192.668C460.803 193.164 460.803 193.678 460.691 194.173C460.035 197.1 459.587 200.069 459.349 203.059C459.223 203.897 459.383 204.752 459.802 205.487C460.469 206.199 461.383 206.627 462.356 206.685C463.772 206.912 465.206 207.009 466.64 206.976C467.206 206.976 467.901 206.976 468.256 207.446C468.377 207.659 468.443 207.897 468.45 208.142C468.517 209.257 468.3 210.371 467.82 211.379C467.526 211.866 467.38 212.429 467.4 212.997C467.513 214.033 469.016 213.936 469.792 213.985C472.735 214.131 475.693 214.147 478.635 213.985C479.143 214.007 479.649 213.901 480.106 213.677C480.898 213.208 481.076 212.156 481.303 211.266C482.305 207.138 485.49 203.933 487.203 200.049C488.086 197.979 488.55 195.755 488.569 193.505C488.589 191.255 488.163 189.023 487.316 186.938C486.503 184.952 485.342 183.127 483.889 181.548C482.564 180.076 480.009 179.768 478.166 179.38C474.933 178.7 471.344 178.506 468.467 180.237C465.233 182.18 463.746 186.161 460.497 188.023C459.931 188.347 459.236 188.67 459.042 189.301C458.992 189.622 459.02 189.95 459.124 190.257C459.228 190.565 459.405 190.842 459.64 191.066C459.85 191.389 460.125 191.665 460.351 191.988Z" fill="#FFBBAB"/>
<path d="M469.356 179.104C469.428 179.606 469.581 180.092 469.808 180.545C470.843 182.698 472.201 182.163 474.06 182.439C476.323 182.843 477.795 185.384 478.263 187.456C478.667 189.968 478.585 192.534 478.021 195.015C478.519 194.604 479.133 194.36 479.776 194.316C480.42 194.273 481.061 194.432 481.61 194.772C482.144 195.145 482.559 195.663 482.806 196.266C483.052 196.869 483.12 197.531 483 198.171C482.866 198.815 482.557 199.408 482.106 199.885C481.655 200.363 481.08 200.705 480.446 200.874C479.815 201.036 479.072 201.069 478.684 201.586C478.473 201.96 478.383 202.39 478.425 202.817C478.425 205.568 478.538 208.563 480.284 210.699C482.709 210.456 484.552 208.514 486.363 206.895C488.933 204.597 491.875 202.719 494.349 200.308C496.971 198.004 498.599 194.773 498.891 191.292C498.972 185.708 494.042 181.403 492.231 176.142C491.907 174.958 491.48 173.804 490.954 172.695C490.469 171.933 489.831 171.281 489.079 170.781C488.328 170.281 487.481 169.944 486.591 169.792C485.702 169.639 484.791 169.675 483.916 169.896C483.042 170.117 482.223 170.519 481.513 171.076C480.21 170.218 478.684 169.76 477.124 169.76C475.564 169.76 474.038 170.218 472.735 171.076C471.541 172.021 470.605 173.252 470.014 174.655C469.424 176.059 469.197 177.589 469.356 179.104Z" fill="#1B191B"/>
<path d="M493.023 240.513C492.355 245.729 492.138 250.993 492.376 256.246C492.522 261.377 492.764 266.475 492.975 271.606C491.988 276.025 490.889 280.444 489.741 284.814C489.012 288.384 487.811 291.84 486.169 295.092C485.34 296.656 484.246 298.064 482.935 299.252C481.645 300.387 480.175 301.3 478.587 301.955C474.854 303.338 470.866 303.891 466.898 303.573C464.101 303.463 461.325 303.039 458.621 302.311C455.147 301.443 451.921 299.781 449.196 297.455C447.828 296.23 446.632 294.825 445.64 293.279C443.265 289.468 441.83 285.146 441.453 280.67C440.641 273.324 441.588 265.889 444.217 258.981C444.363 258.577 444.524 258.188 444.686 257.784C445.802 254.935 446.917 252.086 448.065 249.238C448.065 249.238 448.065 249.157 448.065 249.124C448.243 248.671 448.42 248.25 448.582 247.813L448.679 247.57L448.049 247.829L447.386 248.072C447.175 248.157 446.959 248.227 446.739 248.283C446.27 248.461 445.769 248.59 445.3 248.72L443.684 249.124C442.762 249.318 441.825 249.497 440.887 249.61L439.61 249.755C427.857 250.791 415.037 246.033 405.208 240.772C402 239.138 399.066 237.014 396.511 234.476C395.978 233.91 395.477 233.315 395.007 232.696C393.83 231.144 392.963 229.38 392.453 227.5C392.098 226.362 392.098 225.142 392.453 224.004C392.476 223.958 392.503 223.915 392.534 223.874C392.888 223.096 393.381 222.388 393.989 221.786C395.482 220.148 397.064 218.592 398.726 217.125L399.243 216.672C399.688 216.28 400.212 215.988 400.779 215.814C401.337 215.689 401.916 215.688 402.474 215.811C403.033 215.934 403.558 216.178 404.012 216.526C404.838 217.104 405.607 217.76 406.307 218.484C410.795 222.769 416.119 226.078 421.944 228.206C427.769 230.334 433.971 231.234 440.16 230.85C443.558 230.707 446.896 229.905 449.989 228.487C452.702 227.015 455.222 225.21 457.49 223.114C459.539 221.433 461.493 219.639 463.342 217.74C463.827 217.222 464.328 216.688 464.764 216.121C465.201 215.555 465.476 215.247 465.815 214.81L466.236 214.26C466.604 213.699 467.089 213.224 467.658 212.868C468.473 212.494 469.365 212.316 470.261 212.35C473.769 212.204 477.584 211.541 481.044 211.622H481.416C481.752 211.635 482.087 211.672 482.418 211.735C483.615 211.923 484.736 212.445 485.651 213.24C486.777 214.324 487.805 215.504 488.723 216.769C490.875 219.13 492.564 221.875 493.702 224.862C495.383 229.815 493.799 235.237 493.023 240.513Z" fill="white"/>
<path d="M497.065 239.979C497.052 245.592 496.626 251.197 495.787 256.748C495.06 261.749 494.171 266.686 492.975 271.606C492.764 266.475 492.522 261.377 492.376 256.246C492.138 250.993 492.355 245.729 493.023 240.513C493.799 235.253 495.383 229.814 493.751 224.764C492.613 221.778 490.923 219.033 488.771 216.672C487.853 215.407 486.826 214.226 485.7 213.143C488.933 215.587 491.487 220.135 493.621 222.855C497.259 227.629 497.032 234.282 497.065 239.979Z" fill="white"/>
<path opacity="0.1" d="M497.065 239.979C497.052 245.592 496.626 251.197 495.787 256.748C495.06 261.749 494.171 266.686 492.975 271.606C492.764 266.475 492.522 261.377 492.376 256.246C492.138 250.993 492.355 245.729 493.023 240.513C493.799 235.253 495.383 229.814 493.751 224.764C492.613 221.778 490.923 219.033 488.771 216.672C487.853 215.407 486.826 214.226 485.7 213.143C488.933 215.587 491.487 220.135 493.621 222.855C497.259 227.629 497.032 234.282 497.065 239.979Z" fill="#020202"/>
<path opacity="0.1" d="M493.023 240.513C492.355 245.729 492.138 250.993 492.376 256.246C492.522 261.377 492.764 266.475 492.975 271.606C491.988 276.025 490.889 280.444 489.741 284.814C489.012 288.384 487.811 291.84 486.169 295.092C485.34 296.656 484.246 298.064 482.935 299.252C481.645 300.387 480.175 301.3 478.587 301.955C474.854 303.338 470.866 303.891 466.898 303.573C464.101 303.463 461.325 303.039 458.621 302.311C455.147 301.443 451.921 299.781 449.196 297.455C447.828 296.23 446.632 294.825 445.64 293.279C443.265 289.468 441.83 285.146 441.453 280.67C440.641 273.324 441.588 265.889 444.217 258.981C444.363 258.577 444.524 258.188 444.686 257.784C445.962 254.997 447.09 252.144 448.065 249.238C448.065 249.238 448.065 249.157 448.065 249.124C448.194 248.639 448.307 248.185 448.42 247.716C448.302 247.769 448.177 247.807 448.049 247.829L447.386 248.072C447.175 248.157 446.959 248.227 446.739 248.283C446.27 248.461 445.769 248.59 445.3 248.72L443.684 249.124C442.762 249.318 441.825 249.497 440.887 249.61L439.61 249.755C427.695 250.969 415.474 246.308 405.208 240.772C402 239.138 399.066 237.014 396.511 234.476C395.978 233.91 395.477 233.315 395.007 232.696C393.83 231.144 392.963 229.38 392.453 227.5C392.098 226.362 392.098 225.142 392.453 224.004C392.476 223.958 392.503 223.915 392.534 223.874C392.888 223.096 393.381 222.388 393.989 221.786C395.482 220.148 397.064 218.592 398.726 217.125L399.243 216.672C399.688 216.28 400.212 215.988 400.779 215.814C401.337 215.689 401.916 215.688 402.474 215.811C403.033 215.934 403.558 216.178 404.012 216.526C404.838 217.104 405.607 217.76 406.307 218.484C410.795 222.769 416.119 226.078 421.944 228.206C427.769 230.334 433.971 231.234 440.16 230.85C443.558 230.707 446.896 229.905 449.989 228.487C452.702 227.015 455.222 225.21 457.49 223.114C459.539 221.433 461.493 219.639 463.342 217.74C463.827 217.222 464.328 216.688 464.764 216.121C465.201 215.555 465.476 215.247 465.815 214.81L466.236 214.26C466.604 213.699 467.089 213.224 467.658 212.868C468.473 212.494 469.365 212.316 470.261 212.35C473.769 212.204 477.584 211.541 481.044 211.622H481.416C481.752 211.635 482.087 211.672 482.418 211.735C483.592 211.996 484.695 212.51 485.651 213.24C486.777 214.324 487.805 215.504 488.723 216.769C490.875 219.13 492.564 221.875 493.702 224.862C495.383 229.815 493.799 235.237 493.023 240.513Z" fill="#020202"/>
<path d="M437.799 432.315C436.259 433.014 434.988 434.196 434.178 435.682C434.009 436.011 433.958 436.388 434.033 436.75C434.149 437.018 434.324 437.256 434.546 437.446C434.767 437.637 435.028 437.775 435.31 437.851C439.384 439.469 443.991 439.178 448.324 438.401C452.596 437.353 456.96 436.719 461.354 436.507C461.723 436.566 462.1 436.544 462.46 436.443C462.819 436.343 463.153 436.166 463.439 435.925C463.71 435.519 463.84 435.036 463.811 434.549C463.987 430.729 463.325 426.917 461.871 423.38C461.968 423.607 450.344 424.06 449.358 424.756C447.499 426.035 445.963 427.67 443.991 428.851C442.019 430.033 439.852 431.085 437.799 432.315Z" fill="#282328"/>
<path d="M418.335 235.803C410.592 233.036 402.703 230.3 396.527 224.732C395.814 224.221 395.323 223.457 395.153 222.596C395.208 222.063 395.382 221.549 395.662 221.092C395.941 220.636 396.32 220.248 396.77 219.957C397.874 218.841 399.132 217.888 400.504 217.125C401.191 216.743 401.95 216.509 402.732 216.439C403.515 216.37 404.303 216.465 405.047 216.72C406.082 217.243 407.013 217.95 407.795 218.808C413.481 223.931 420.477 227.372 428.003 228.746C435.326 230.365 443.393 230.462 450.425 227.613C454.499 225.995 463.358 215.263 467.319 216.834C471.28 218.404 469.534 226.318 467.61 228.779C463.455 234.071 452.931 236.58 446.594 237.778C437.167 239.647 427.412 238.965 418.335 235.803Z" fill="white"/>
<path d="M479.993 218.306C480.885 217.886 481.676 217.278 482.312 216.524C482.949 215.77 483.415 214.887 483.679 213.936C481.553 213.498 479.372 213.389 477.212 213.613L471.021 213.92L466.947 214.131C464.409 214.276 464.36 215.393 465.33 217.141C465.783 217.967 466.947 218.63 467.432 219.52C467.917 220.411 467.998 221.366 468.58 222.045C470.196 223.988 470.649 222.887 472.734 221.625C474.82 220.362 477.617 219.601 479.993 218.306Z" fill="white"/>
<path d="M379.601 69.3161L452.268 61.6764L400.31 82.0543L379.601 69.3161Z" fill="#D80A49"/>
<path d="M452.268 61.6764L408.959 103.63L400.31 82.0543L452.268 61.6764Z" fill="#D80A49"/>
<path d="M452.268 61.6764L408.959 103.63L400.31 82.0543L452.268 61.6764Z" fill="url(#paint8_linear)"/>
<path d="M391.742 105.071L400.31 82.0543L452.268 61.6764L391.742 105.071Z" fill="#D80A49"/>
<path d="M452.268 61.6764L400.31 77.6032L379.601 69.3161L400.31 82.0543L452.268 61.6764Z" fill="url(#paint9_linear)"/>
<path opacity="0.1" d="M241.604 214.328H230.129V226.451H241.604V214.328Z" fill="#D80A49"/>
<path opacity="0.1" d="M241.604 237.937H230.129V249.423H241.604V237.937Z" fill="#D80A49"/>
<path opacity="0.1" d="M241.604 262.185V270.48C237.766 270.248 233.941 269.874 230.129 269.36V262.185H241.604Z" fill="#D80A49"/>
<path opacity="0.1" d="M268.378 211.137H260.728V218.794H268.378V211.137Z" fill="#D80A49"/>
<path opacity="0.1" d="M268.378 229.004H260.728V236.661H268.378V229.004Z" fill="#D80A49"/>
<path opacity="0.1" d="M296.427 229.004H288.777V236.661H296.427V229.004Z" fill="#D80A49"/>
<path opacity="0.1" d="M268.378 248.146H260.728V255.166H268.378V248.146Z" fill="#D80A49"/>
<path opacity="0.1" d="M296.427 248.146H288.777V255.166H296.427V248.146Z" fill="#D80A49"/>
<path opacity="0.1" d="M260.728 270.48V266.013H268.378V269.844L260.728 270.48Z" fill="#D80A49"/>
<path opacity="0.1" d="M135.687 188.86C135.687 188.86 133.452 195.135 138.068 195.705C138.28 195.812 138.519 195.847 138.752 195.806C138.985 195.766 139.199 195.651 139.364 195.479C139.364 195.479 139.04 195.37 139.339 194.76C139.443 194.542 139.522 194.312 139.572 194.075C139.643 193.755 139.609 193.421 139.476 193.122C139.476 193.122 139.27 191.107 136.591 189.539C136.591 189.539 136.11 188.834 135.942 188.804L136.083 190.02C136.083 190.02 136.953 189.883 137.505 190.363C137.505 190.363 136.132 189.983 136.094 190.201C136.094 190.246 136.195 190.841 136.195 190.841C136.195 190.841 137.711 190.609 138.54 191.378C138.54 191.378 136.953 190.702 136.234 191.068L136.45 191.957C136.45 191.957 138.04 191.632 139.015 192.471C139.015 192.471 137.332 191.825 136.508 192.15L136.835 192.988C136.835 192.988 138.392 192.709 139.199 193.405C139.199 193.405 137.181 192.846 136.923 193.175C137.063 193.502 137.243 193.81 137.458 194.092C137.458 194.092 138.578 193.91 139.012 194.372C139.012 194.372 137.626 194.151 137.576 194.296C137.576 194.296 138.285 195.163 138.872 195.414C138.321 195.215 137.831 194.873 137.45 194.422C137.414 194.787 137.482 195.155 137.648 195.481C137.648 195.481 137.052 195.202 137.28 194.21C137.28 194.21 136.753 193.514 136.75 193.371C136.75 193.371 136.39 194.316 136.475 194.978C136.475 194.978 136.036 194.285 136.656 193.15L136.31 192.312C136.31 192.312 135.761 193.533 135.8 194.131C135.8 194.131 135.459 193.351 136.239 192.094L136.019 191.222C135.732 191.75 135.513 192.313 135.369 192.899C135.369 192.899 135.207 192.108 135.967 190.959L135.888 190.361C135.888 190.361 135.5 191.11 135.41 191.336C135.319 191.563 135.251 191.554 135.251 191.554C135.316 191.026 135.523 190.525 135.849 190.109C135.849 190.109 135.764 188.86 135.687 188.86Z" fill="#D80A49"/>
<path d="M300.251 261.282L302.717 264.099L306.626 256.641L306.274 255.804L300.251 261.282Z" fill="#D80A49"/>
<path opacity="0.2" d="M300.251 261.282L302.717 264.099L306.626 256.641L306.274 255.804L300.251 261.282Z" fill="black"/>
<path d="M181.044 219.197L198.068 266.651V254.641L202.807 241.195L215.935 235.42L232.581 242.924L238.534 244.772L239.054 233.826L219.264 224.132L210.05 219.74L188.962 217.913L183.144 216.88L181.044 219.197Z" fill="#D80A49"/>
<path d="M188.889 224.022L204.529 225.813C203.819 219.581 208.455 219.581 208.455 219.581L192.81 216.88H185.506" fill="#D80A49"/>
<path d="M198.351 273.752H209.392L241.366 272.697C241.366 272.697 242.057 278.695 250.477 277.284C250.477 277.284 255.114 277.577 255.612 275.099C256.11 272.621 245.053 249.72 245.053 249.72L229.979 238.648L216.311 235.385L206.5 238.224L200.267 247.978L196.343 261.33L198.351 273.752Z" fill="#636780"/>
<path opacity="0.2" d="M198.351 273.752H209.392L241.366 272.697C241.366 272.697 242.057 278.695 250.477 277.284C250.477 277.284 255.114 277.577 255.612 275.099C256.11 272.621 245.053 249.72 245.053 249.72L229.979 238.648L216.311 235.385L206.5 238.224L200.267 247.978L196.343 261.33L198.351 273.752Z" fill="black"/>
<path d="M185.492 186.13C193.151 185.991 213.449 185.407 223.546 183.061C223.546 183.061 240.874 196.224 246.066 206.154C246.066 206.154 219.056 212.784 200.401 213.682C199.018 213.746 197.646 213.399 196.456 212.684C195.267 211.969 194.312 210.918 193.709 209.66L183.79 188.932C183.648 188.638 183.581 188.312 183.596 187.985C183.611 187.657 183.708 187.339 183.878 187.06C184.048 186.781 184.285 186.549 184.567 186.386C184.849 186.224 185.167 186.136 185.492 186.13Z" fill="#D80A49"/>
<path opacity="0.2" d="M185.492 186.13C193.151 185.991 213.449 185.407 223.546 183.061C223.546 183.061 240.874 196.224 246.066 206.154C246.066 206.154 219.056 212.784 200.401 213.682C199.018 213.746 197.646 213.399 196.456 212.684C195.267 211.969 194.312 210.918 193.709 209.66L183.79 188.932C183.648 188.638 183.581 188.312 183.596 187.985C183.611 187.657 183.708 187.339 183.878 187.06C184.048 186.781 184.285 186.549 184.567 186.386C184.849 186.224 185.167 186.136 185.492 186.13Z" fill="white"/>
<path opacity="0.1" d="M195.149 188.931C198.348 188.875 204.59 188.709 210.684 188.25C215.173 187.907 219.679 188.61 223.852 190.306C228.025 192.002 231.751 194.645 234.74 198.028L234.937 198.253C235.37 198.755 235.665 199.361 235.794 200.011C235.923 200.662 235.88 201.336 235.671 201.965C235.461 202.594 235.092 203.158 234.6 203.6C234.107 204.042 233.509 204.348 232.863 204.486C226.139 205.936 214.686 208.149 205.845 208.578C204.85 208.629 203.863 208.383 203.006 207.872C202.149 207.361 201.461 206.607 201.028 205.706L193.931 190.922C193.83 190.712 193.784 190.481 193.795 190.248C193.807 190.016 193.877 189.79 193.998 189.592C194.12 189.393 194.289 189.229 194.49 189.114C194.691 188.998 194.918 188.935 195.149 188.931Z" fill="white"/>
<path d="M308.426 248.869C308.627 249.626 309.096 251.719 308.351 252.284C308.068 252.498 307.821 253.025 307.631 253.651C307.332 254.714 307.116 255.798 306.984 256.895L299.217 265.654L286.089 270.843L254.691 273.032L235.739 241.91L193.156 216.626L204.782 215.975C216.41 215.322 249.419 207.947 249.419 207.947L286.759 216.275C292.798 217.612 298.133 221.16 301.735 226.233C306.281 232.656 308.362 239.614 308.362 239.614C308.924 240.294 309.141 241.407 309.173 242.628C309.216 244.616 308.765 246.88 308.518 247.961C308.426 248.366 308.362 248.606 308.362 248.606C308.362 248.606 308.383 248.697 308.426 248.869Z" fill="#D80A49"/>
<path opacity="0.1" d="M194.532 265.065C194.532 265.065 192.259 240.648 209.314 234.022C209.314 234.022 233.303 223.855 247.402 251.482L254.563 267.239C254.563 267.239 256.609 271.119 262.182 271.005C262.182 271.005 288.444 270.21 302.305 261.302L306.626 256.266C306.626 256.266 304.467 263.343 302.305 264.941C302.305 264.941 293.779 274.986 262.739 276.814C262.739 276.814 250.044 278.182 246.217 266.083C246.217 266.083 241.025 238.686 214.646 238.914C214.646 238.914 199.148 239.219 198.768 266.006L194.532 265.065Z" fill="black"/>
<path d="M194.532 265.695C194.532 265.695 192.259 241.286 209.312 234.658C209.312 234.658 233.299 224.497 247.396 252.115L254.556 267.865C254.556 267.865 256.602 271.745 262.174 271.631C262.174 271.631 288.433 270.836 302.292 261.93L306.626 256.909C306.626 256.909 304.467 263.983 302.305 265.581C302.305 265.581 293.78 275.627 262.744 277.452C262.744 277.452 250.051 278.822 246.224 266.723C246.224 266.723 241.032 239.333 214.657 239.561C214.657 239.561 199.161 239.868 198.781 266.649L194.532 265.695Z" fill="#D80A49"/>
<path opacity="0.2" d="M194.532 265.695C194.532 265.695 192.259 241.286 209.312 234.658C209.312 234.658 233.299 224.497 247.396 252.115L254.556 267.865C254.556 267.865 256.602 271.745 262.174 271.631C262.174 271.631 288.433 270.836 302.292 261.93L306.626 256.909C306.626 256.909 304.467 263.983 302.305 265.581C302.305 265.581 293.78 275.627 262.744 277.452C262.744 277.452 250.051 278.822 246.224 266.723C246.224 266.723 241.032 239.333 214.657 239.561C214.657 239.561 199.161 239.868 198.781 266.649L194.532 265.695Z" fill="black"/>
<path opacity="0.2" d="M211.005 239.814L210.774 239.851C210.774 239.825 210.281 236.988 208.657 234.734C205.251 230.009 204.138 226.804 204.012 224.664C203.95 223.923 204.043 223.177 204.287 222.471C204.818 221.028 206.242 219.961 208.175 219.432L208.588 219.499C206.729 220.006 205.008 221.18 204.499 222.549C204.256 223.244 204.162 223.981 204.224 224.712C204.361 226.807 205.476 229.95 208.827 234.606C210.507 236.9 211.002 239.785 211.005 239.814Z" fill="black"/>
<path opacity="0.2" d="M284.833 228.366C270.043 219.922 238.732 212.069 238.417 211.992L238.476 211.775C238.791 211.855 270.135 219.716 284.952 228.175L284.833 228.366Z" fill="black"/>
<path opacity="0.2" d="M305.791 241.127C300.321 231.316 285.592 223.228 274.198 218.167C266.491 214.768 258.586 211.856 250.529 209.446L250.589 209.223C258.657 211.635 266.572 214.551 274.288 217.955C285.714 223.028 300.487 231.144 305.989 241.012L305.791 241.127Z" fill="black"/>
<path opacity="0.1" d="M306.155 237.936C307.32 237.057 305.242 232.33 301.513 227.377C297.784 222.424 293.817 219.121 292.653 220C291.488 220.878 293.566 225.606 297.295 230.558C301.024 235.511 304.99 238.814 306.155 237.936Z" fill="black"/>
<path d="M306.157 237.476C307.321 236.598 305.243 231.87 301.514 226.918C297.786 221.965 293.819 218.662 292.654 219.54C291.489 220.419 293.568 225.146 297.296 230.099C301.025 235.052 304.992 238.355 306.157 237.476Z" fill="#DCE0ED"/>
<path opacity="0.1" d="M305.285 235.938C306.041 235.368 304.158 231.59 301.079 227.5C298 223.409 294.89 220.556 294.134 221.126C293.378 221.697 295.261 225.475 298.34 229.565C301.42 233.655 304.529 236.509 305.285 235.938Z" fill="black"/>
<path d="M305.285 235.71C306.042 235.139 304.158 231.361 301.079 227.271C298 223.181 294.891 220.328 294.135 220.898C293.379 221.468 295.262 225.246 298.341 229.337C301.42 233.427 304.529 236.28 305.285 235.71Z" fill="#F0F0F4"/>
<path opacity="0.1" d="M271.414 246.172C271.414 246.172 272.167 240.589 276.626 239.336C276.626 239.336 291.791 235.019 295.091 234.956C295.091 234.956 298.505 233.927 300.762 236.432L303.077 239.508C303.077 239.508 304.689 242.015 301.109 242.47C301.109 242.47 282.781 249.082 274.833 249.769C274.382 249.809 273.933 249.877 273.489 249.97C272.328 250.208 269.89 250.277 271.414 246.172Z" fill="black"/>
<path d="M272.053 245.697C272.053 245.697 272.806 240.346 277.262 239.145C277.262 239.145 292.426 235.009 295.727 234.948C295.727 234.948 299.14 233.96 301.398 236.362L303.714 239.31C303.714 239.31 305.327 241.71 301.744 242.148C301.744 242.148 283.42 248.484 275.472 249.143C275.02 249.182 274.572 249.246 274.128 249.336C272.964 249.564 270.527 249.63 272.053 245.697Z" fill="#F0F0F4"/>
<path opacity="0.1" d="M273.298 245.386C273.298 245.386 274.008 240.5 278.197 239.404C278.197 239.404 292.474 235.614 295.579 235.568C295.579 235.568 298.793 234.667 300.919 236.859L303.096 239.553C303.096 239.553 304.62 241.748 301.243 242.146C301.243 242.146 283.991 247.938 276.509 248.536C276.088 248.572 275.669 248.631 275.255 248.712C274.158 248.904 271.864 248.975 273.298 245.386Z" fill="black"/>
<path d="M273.927 244.9C273.927 244.9 274.62 240.265 278.724 239.209C278.724 239.209 292.703 235.604 295.743 235.56C295.743 235.56 298.89 234.7 300.971 236.788L303.103 239.363C303.103 239.363 304.595 241.449 301.288 241.83C301.288 241.83 284.394 247.341 277.069 247.91C276.659 247.944 276.25 248 275.846 248.078C274.767 248.263 272.52 248.32 273.927 244.9Z" fill="#636780"/>
<path d="M275.419 241.766L275.39 241.553C275.593 241.53 295.77 239.174 300.112 236.023L300.251 236.191C295.859 239.372 276.251 241.664 275.419 241.766Z" fill="#F0F0F4"/>
<path d="M274.155 244.956L274.115 244.722C274.337 244.681 296.603 240.389 301.405 237.299L301.526 237.5C296.687 240.615 274.379 244.912 274.155 244.956Z" fill="#F0F0F4"/>
<path d="M273.52 247.508L273.478 247.277C273.743 247.224 299.468 242.173 302.65 239.213L302.801 239.39C299.584 242.394 274.581 247.301 273.52 247.508Z" fill="#F0F0F4"/>
<path opacity="0.1" d="M300.536 247.067C300.536 247.067 290.686 251.089 280.329 252.893C279.413 253.055 278.507 253.255 277.611 253.494C276.56 253.774 275.068 254.09 274.257 253.884C272.923 253.542 272.185 255.132 273.626 256.382L273.718 256.461C274.239 256.909 274.847 257.25 275.505 257.463C276.164 257.676 276.86 257.757 277.552 257.7L279.769 257.518C279.769 257.518 297.758 253.658 302.775 250.646C302.775 250.646 305.065 249.108 305.24 247.378C305.415 245.649 305.623 244.285 303.807 245.308C301.991 246.332 300.536 247.067 300.536 247.067Z" fill="black"/>
<path d="M300.532 247.046C300.165 247.194 290.499 251.105 280.331 252.879C279.415 253.039 278.509 253.24 277.613 253.481C276.565 253.762 275.071 254.079 274.26 253.873C272.913 253.529 272.189 255.123 273.63 256.376L273.673 256.413C274.208 256.878 274.835 257.232 275.514 257.453C276.193 257.674 276.911 257.758 277.624 257.7L279.757 257.525H279.792C280.409 257.393 297.838 253.611 302.767 250.653H302.786C302.94 250.545 305.073 249.054 305.24 247.384C305.415 245.65 305.625 244.284 303.807 245.309C302.08 246.282 300.682 247.001 300.553 247.067L300.532 247.046Z" fill="#F0F0F4"/>
<path opacity="0.1" d="M299.465 248.53C299.465 248.53 291.527 251.767 283.005 253.606C282.158 253.788 281.32 254.001 280.486 254.237C279.653 254.473 278.462 254.755 277.801 254.672C276.668 254.525 276.128 255.632 277.398 256.377L277.438 256.4C278.399 256.963 279.528 257.186 280.637 257.033L282.6 256.773C282.6 256.773 297.467 253.106 301.515 250.792C301.515 250.792 303.367 249.628 303.415 248.458C303.463 247.288 303.579 246.383 302.111 247.161C300.642 247.939 299.465 248.53 299.465 248.53Z" fill="black"/>
<path d="M299.479 247.886C299.309 247.956 291.445 251.145 283.012 252.968C282.165 253.15 281.323 253.363 280.488 253.6C279.654 253.836 278.466 254.119 277.801 254.036C276.668 253.888 276.127 254.994 277.401 255.742C278.387 256.321 279.546 256.551 280.684 256.394L282.596 256.134C282.903 256.059 297.504 252.441 301.518 250.161C301.581 250.12 303.371 248.974 303.416 247.824C303.461 246.674 303.58 245.734 302.111 246.526C300.641 247.318 299.529 247.866 299.463 247.897L299.479 247.886Z" fill="#636780"/>
<path opacity="0.1" d="M266.915 257.852C266.998 256.188 266.068 254.789 264.838 254.727C263.607 254.666 262.542 255.965 262.459 257.629C262.376 259.294 263.306 260.693 264.537 260.755C265.767 260.816 266.832 259.517 266.915 257.852Z" fill="black"/>
<path d="M266.851 257.838C266.933 256.176 266.004 254.778 264.775 254.717C263.546 254.656 262.482 255.954 262.4 257.616C262.317 259.279 263.246 260.676 264.475 260.737C265.705 260.799 266.768 259.501 266.851 257.838Z" fill="#F0F0F4"/>
<path opacity="0.1" d="M277.833 260.37C277.833 260.37 266.16 262.087 263.064 262.254C259.968 262.421 259.503 264.079 259.503 264.079C259.503 264.079 258.757 268.286 263.056 267.068L278.304 265.408C278.304 265.408 280.37 265.464 280.37 262.75V262.141C280.376 261.8 280.412 261.46 280.476 261.125C280.559 260.701 280.332 260.012 277.833 260.37Z" fill="black"/>
<path d="M277.824 259.741C277.824 259.741 266.152 261.614 263.056 261.793C259.96 261.973 259.503 263.787 259.503 263.787C259.503 263.787 258.757 268.377 263.056 267.048L278.306 265.237C278.306 265.237 280.369 265.298 280.369 262.337V261.673C280.375 261.301 280.411 260.931 280.476 260.565C280.561 260.102 280.324 259.351 277.824 259.741Z" fill="#F0F0F4"/>
<path d="M308.739 252.256C308.437 252.474 308.174 253.01 307.97 253.647L303.956 256.384C303.907 256.417 303.85 256.437 303.79 256.441C303.73 256.445 303.67 256.433 303.617 256.407C303.564 256.381 303.519 256.341 303.487 256.291C303.456 256.242 303.439 256.186 303.439 256.128V253.255C303.439 252.843 303.549 252.438 303.76 252.08C303.97 251.721 304.274 251.421 304.64 251.209L308.818 248.785C309.033 249.555 309.542 251.677 308.739 252.256Z" fill="#F0F0F4"/>
<path d="M281.942 260.038L281.77 262.77C281.749 263.042 281.789 263.316 281.889 263.57C281.989 263.825 282.146 264.055 282.348 264.242C282.55 264.429 282.792 264.569 283.056 264.651C283.32 264.734 283.6 264.757 283.874 264.719C290.154 263.733 296.192 261.597 301.674 258.421L302.16 252.84C302.174 252.704 302.152 252.566 302.095 252.441C302.039 252.316 301.95 252.208 301.838 252.127C301.726 252.046 301.594 251.995 301.456 251.98C301.318 251.965 301.178 251.985 301.051 252.039C297.934 253.408 289.58 256.915 284.277 257.585C283.66 257.665 283.09 257.953 282.664 258.401C282.239 258.848 281.983 259.427 281.942 260.038Z" fill="#636780"/>
<path d="M283.677 258.404V262.823C283.677 262.823 297.766 259.61 300.889 257.444V253.251C295.403 255.67 289.618 257.401 283.677 258.404Z" fill="#D80A49"/>
<path d="M308.329 248.147C307.383 248.095 306.626 246.827 306.626 245.276C306.626 243.726 307.415 242.404 308.37 242.404C308.524 242.409 308.674 242.439 308.811 242.492C308.949 242.545 309.071 242.62 309.169 242.712C309.246 244.737 308.653 247.043 308.329 248.147Z" fill="#D80A49"/>
<path d="M308.537 248.147C307.828 248.097 307.264 246.83 307.264 245.279C307.264 243.728 307.852 242.404 308.571 242.404C308.686 242.41 308.799 242.441 308.902 242.494C309.006 242.548 309.097 242.623 309.172 242.714C309.224 244.74 308.78 247.045 308.537 248.147Z" fill="#F0F0F4"/>
<path d="M243.516 267.592C243.516 292.903 232.702 293.451 218.598 293.451C207.33 293.451 202.718 281.875 202.718 267.592C202.718 253.31 206.338 241.766 217.603 241.766C228.869 241.766 243.516 253.313 243.516 267.592Z" fill="#636780"/>
<path opacity="0.2" d="M243.516 267.592C243.516 292.903 232.702 293.451 218.598 293.451C207.33 293.451 202.718 281.875 202.718 267.592C202.718 253.31 206.338 241.766 217.603 241.766C228.869 241.766 243.516 253.313 243.516 267.592Z" fill="black"/>
<path d="M216.743 293.451C224.488 293.451 230.767 281.881 230.767 267.608C230.767 253.336 224.488 241.766 216.743 241.766C208.997 241.766 202.718 253.336 202.718 267.608C202.718 281.881 208.997 293.451 216.743 293.451Z" fill="#636780"/>
<path d="M219.292 268.658C219.292 277.818 217.369 285.156 213.375 285.156C209.38 285.156 204.631 277.729 204.631 268.557C204.631 259.386 206.292 251.337 210.286 251.337C214.281 251.337 219.292 259.497 219.292 268.658Z" fill="#F0F0F4"/>
<path d="M219.292 268.577C219.292 269.275 219.279 269.952 219.252 270.61C219.196 272.344 219.014 274.072 218.708 275.778C218.081 279.125 216.946 281.448 215.256 281.892C215.06 281.941 214.86 281.965 214.659 281.966C213.848 281.966 212.997 281.563 212.181 280.831C210.575 279.395 209.109 276.701 208.351 273.364C208.073 272.117 207.905 270.847 207.847 269.569C207.83 269.218 207.82 268.862 207.82 268.502C207.799 266.036 207.974 263.572 208.343 261.137C208.548 259.695 208.934 258.288 209.492 256.952C210.177 255.432 211.086 254.527 212.249 254.527C213.032 254.527 213.866 254.943 214.677 255.683C215.646 256.57 216.58 257.917 217.351 259.573C218.63 262.388 219.293 265.464 219.292 268.577Z" fill="#636780"/>
<path d="M219.292 270.387C219.236 272.155 219.053 273.917 218.745 275.656C218.667 275.523 216.465 271.875 214.798 274.216C213.582 275.934 214.605 279.84 215.272 281.891C215.075 281.94 214.873 281.965 214.671 281.966C213.855 281.966 212.999 281.555 212.178 280.808V280.542C212.178 280.542 213.159 276.171 210.542 273.478C210.542 273.478 209.275 272.755 208.325 273.19C208.045 271.919 207.876 270.623 207.818 269.32C208.041 269.067 209.571 267.187 208.945 263.659C208.707 262.326 208.494 261.374 208.317 260.726C208.523 259.256 208.911 257.822 209.472 256.459C209.472 256.459 209.979 260.363 211.9 260.592C213.82 260.822 214.664 255.318 214.686 255.166C215.662 256.07 216.602 257.443 217.377 259.131C217.377 259.131 214.304 260.96 215.201 265.822C215.832 269.28 218.059 270.166 219.292 270.387Z" fill="#F0F0F4"/>
<path d="M212.196 271.58C213.035 271.511 213.584 269.866 213.424 267.904C213.263 265.943 212.454 264.409 211.616 264.478C210.777 264.547 210.228 266.192 210.388 268.153C210.549 270.114 211.358 271.648 212.196 271.58Z" fill="#636780"/>
<path opacity="0.2" d="M250.529 228.162L250.436 228.366C250.346 228.324 242.477 225.011 213.298 220.175C211.935 219.95 210.526 219.72 209.071 219.486C208.936 219.468 208.806 219.445 208.666 219.424C203.997 218.681 198.842 217.909 193.156 217.102L193.188 216.88C200.89 217.964 207.615 218.996 213.481 219.976C242.586 224.807 250.436 228.123 250.529 228.162Z" fill="black"/>
<path opacity="0.1" d="M195.089 210.131L185.212 189.564C185.072 189.273 185.007 188.951 185.024 188.627C185.04 188.304 185.137 187.99 185.306 187.715C185.475 187.439 185.71 187.21 185.989 187.05C186.269 186.889 186.584 186.802 186.907 186.795C194.43 186.657 214.203 186.09 224.392 183.843C223.751 183.34 223.383 183.061 223.383 183.061C213.321 185.388 193.108 185.968 185.479 186.106C185.157 186.113 184.842 186.2 184.562 186.361C184.282 186.521 184.047 186.75 183.879 187.026C183.71 187.301 183.613 187.615 183.597 187.938C183.58 188.262 183.645 188.584 183.785 188.875L193.664 209.434C194.067 210.274 194.632 211.027 195.325 211.648C196.019 212.268 196.828 212.745 197.705 213.051C196.576 212.346 195.669 211.333 195.089 210.131Z" fill="black"/>
<path d="M198.256 266.013H194.431V267.289H198.256V266.013Z" fill="#D80A49"/>
<path opacity="0.2" d="M198.256 266.013H194.431V267.289H198.256V266.013Z" fill="black"/>
<path opacity="0.1" d="M214.127 284.145C210.126 284.145 205.366 276.742 205.366 267.61C205.366 261.35 206.134 255.606 207.928 252.613C205.622 255.152 204.631 261.557 204.631 268.621C204.631 277.753 209.39 285.156 213.392 285.156C214.744 285.156 215.859 284.317 216.743 282.861C216 283.689 215.129 284.145 214.127 284.145Z" fill="black"/>
<path opacity="0.1" d="M263.784 248.344C266.46 245.665 264.395 239.255 259.17 234.025C253.946 228.796 247.542 226.729 244.866 229.407C242.19 232.086 244.256 238.496 249.48 243.726C254.704 248.955 261.108 251.022 263.784 248.344Z" fill="black"/>
<path d="M264.013 248.116C266.689 245.437 264.624 239.027 259.399 233.797C254.175 228.568 247.771 226.5 245.095 229.179C242.419 231.858 244.485 238.268 249.709 243.497C254.933 248.727 261.337 250.794 264.013 248.116Z" fill="#DCE0ED"/>
<path opacity="0.1" d="M263.237 246.483C265.199 244.519 263.196 239.33 258.763 234.893C254.33 230.455 249.146 228.45 247.184 230.414C245.222 232.378 247.225 237.567 251.658 242.004C256.091 246.441 261.275 248.447 263.237 246.483Z" fill="black"/>
<path d="M263.238 246.251C265.199 244.288 263.196 239.099 258.763 234.661C254.33 230.224 249.146 228.219 247.184 230.183C245.223 232.146 247.226 237.335 251.659 241.773C256.092 246.21 261.276 248.215 263.238 246.251Z" fill="#F0F0F4"/>
<g opacity="0.1">
<path opacity="0.1" d="M217.087 218.122C216.978 218.322 216.195 218.791 215.242 219.308C215.154 218.612 215.09 218.087 215.077 217.925C215.021 217.331 216.288 214.669 216.288 214.669C216.288 214.669 218.713 211.412 218.657 210.922C218.601 210.432 219.594 209.025 219.594 209.025L221.793 205.457C221.672 205.728 221.629 206.029 221.669 206.324C221.709 206.619 221.83 206.898 222.02 207.127C222.682 207.996 222.129 209.733 222.129 209.733L222.265 211.924V212.142C222.187 212.22 221.833 212.558 221.051 213.264C220.329 213.914 220.457 214.114 220.539 214.168C220.374 214.461 220.577 214.511 220.577 214.511C220.641 214.511 220.704 214.506 220.768 214.495L220.593 214.658C219.251 215.916 217.284 217.768 217.087 218.122Z" fill="url(#paint10_linear)"/>
</g>
<path opacity="0.03" d="M189.331 241.766C189.331 241.766 184.545 242.385 183.594 243.429C183.594 243.429 187.797 243.737 187.97 244.318C187.97 244.318 185.568 242.598 184.899 243.033L189.331 241.766Z" fill="black"/>
<path opacity="0.3" d="M207.181 274.997C207.215 275.206 207.23 275.412 207.242 275.591C207.251 275.82 207.4 276.04 207.662 276.212L207.681 276.223C207.781 275.8 207.826 275.373 207.817 274.947C207.752 275.002 207.474 275.007 207.181 274.997Z" fill="white"/>
<defs>
<linearGradient id="paint0_linear" x1="369.287" y1="201.57" x2="240.167" y2="676.302" gradientUnits="userSpaceOnUse">
<stop offset="0.01"/>
<stop offset="0.13" stop-opacity="0.69"/>
<stop offset="0.25" stop-opacity="0.32"/>
<stop offset="1" stop-opacity="0"/>
</linearGradient>
<linearGradient id="paint1_linear" x1="17393.8" y1="23668.1" x2="1628.94" y2="40803.1" gradientUnits="userSpaceOnUse">
<stop offset="0.01"/>
<stop offset="0.13" stop-opacity="0.69"/>
<stop offset="0.25" stop-opacity="0.32"/>
<stop offset="1" stop-opacity="0"/>
</linearGradient>
<linearGradient id="paint2_linear" x1="-167375" y1="22660.9" x2="-151612" y2="39787.7" gradientUnits="userSpaceOnUse">
<stop offset="0.01"/>
<stop offset="0.13" stop-opacity="0.69"/>
<stop offset="0.25" stop-opacity="0.32"/>
<stop offset="1" stop-opacity="0"/>
</linearGradient>
<linearGradient id="paint3_linear" x1="100.558" y1="141.047" x2="372.762" y2="356.184" gradientUnits="userSpaceOnUse">
<stop stop-color="white"/>
<stop offset="1" stop-color="#CBCBCB"/>
</linearGradient>
<linearGradient id="paint4_linear" x1="16586.5" y1="9020.19" x2="16095.7" y2="12600.7" gradientUnits="userSpaceOnUse">
<stop offset="0.01"/>
<stop offset="0.13" stop-opacity="0.69"/>
<stop offset="0.25" stop-opacity="0.32"/>
<stop offset="1" stop-opacity="0"/>
</linearGradient>
<linearGradient id="paint5_linear" x1="24345.4" y1="20437.9" x2="36798.5" y2="24136.2" gradientUnits="userSpaceOnUse">
<stop stop-color="white"/>
<stop offset="1" stop-color="#CBCBCB"/>
</linearGradient>
<linearGradient id="paint6_linear" x1="265.023" y1="31.9465" x2="86.8876" y2="66.891" gradientUnits="userSpaceOnUse">
<stop offset="0.01" stop-color="white"/>
<stop offset="1" stop-color="white" stop-opacity="0"/>
</linearGradient>
<linearGradient id="paint7_linear" x1="3220.63" y1="3387.01" x2="3345.18" y2="3443.49" gradientUnits="userSpaceOnUse">
<stop stop-color="white"/>
<stop offset="1" stop-color="#CBCBCB"/>
</linearGradient>
<linearGradient id="paint8_linear" x1="13510.4" y1="1566.97" x2="15010.1" y2="3581.1" gradientUnits="userSpaceOnUse">
<stop offset="0.01"/>
<stop offset="0.13" stop-opacity="0.69"/>
<stop offset="0.25" stop-opacity="0.32"/>
<stop offset="1" stop-opacity="0"/>
</linearGradient>
<linearGradient id="paint9_linear" x1="19075.4" y1="590.484" x2="19075.4" y2="1472.44" gradientUnits="userSpaceOnUse">
<stop offset="0.01"/>
<stop offset="0.13" stop-opacity="0.69"/>
<stop offset="0.25" stop-opacity="0.32"/>
<stop offset="1" stop-opacity="0"/>
</linearGradient>
<linearGradient id="paint10_linear" x1="4841.35" y1="7560.21" x2="5039.91" y2="7560.21" gradientUnits="userSpaceOnUse">
<stop stop-color="#808080" stop-opacity="0.25"/>
<stop offset="0.54" stop-color="#808080" stop-opacity="0.12"/>
<stop offset="1" stop-color="#808080" stop-opacity="0.1"/>
</linearGradient>
</defs>
</svg>
