<svg width="531" height="370" viewBox="0 0 531 370" fill="none" xmlns="http://www.w3.org/2000/svg">
<g clip-path="url(#clip0)">
<path d="M53.1839 62.9345C67.5383 62.9345 79.1748 51.2927 79.1748 36.9318C79.1748 22.5709 67.5383 10.9291 53.1839 10.9291C38.8295 10.9291 27.1929 22.5709 27.1929 36.9318C27.1929 51.2927 38.8295 62.9345 53.1839 62.9345Z" fill="#D80A49"/>
<path opacity="0.1" d="M50.0084 89.8656C60.9213 114.526 47.0006 142.922 30.6144 164.305C25.13 171.476 19.0753 178.993 18.315 187.987C17.3981 198.989 24.8449 209.101 33.6781 215.712C49.7903 227.76 71.7951 231.485 90.9711 225.405C107.542 220.153 121.474 208.29 138.19 203.508C166.143 195.498 195.773 208.777 219.713 225.321C236.658 237.017 254.805 251.268 275.233 248.762C289.607 247 301.806 236.905 310.085 225.019C314.083 219.281 317.56 212.848 323.38 208.978C326.841 206.674 330.905 205.454 334.969 204.582C372.086 196.645 411.477 216.014 448.102 206.053C472.84 199.341 492.564 179.765 504.83 157.241C517.096 134.717 522.821 109.285 527.59 84.0878C530.978 66.1897 533.79 46.8541 526.002 30.3933C517.761 12.965 498.686 2.39947 479.516 0.419483C460.345 -1.5605 441.119 3.90403 423.458 11.6114C401.392 21.2653 379.762 34.7784 355.677 34.8231C339.274 34.8567 323.632 28.5588 307.95 23.7542C281.73 15.728 254.464 11.7401 227.293 8.05976C201.28 4.53606 175.01 1.25846 148.84 3.33912C130.324 4.81013 113.971 11.8911 96.0027 15.1687C84.2902 17.3053 72.5219 15.728 61.0275 19.3076C46.872 23.7374 32.314 34.0009 31.5313 50.1652C30.7933 65.552 44.2221 76.7832 50.0084 89.8656Z" fill="#D80A49"/>
<path d="M336.501 111.824C334.114 105.599 327.959 90.9675 323.906 93.8703C318.785 97.5395 329.027 113.748 329.027 113.748C329.317 116.724 323.559 122.916 320.473 126.003C320.473 125.757 320.473 125.617 320.473 125.617C320.444 125.735 320.398 125.847 320.339 125.953L320.082 125.813C320.013 126.06 319.888 126.287 319.718 126.479C319.718 126.059 319.69 125.813 319.69 125.813C319.098 128.324 308.755 131.507 308.755 131.507C308.755 131.507 308.475 131.507 307.995 131.507C305.121 131.507 297.641 130.858 294.174 125.31C292.382 122.304 290.088 119.627 287.393 117.395C286.47 116.672 285.349 116.246 284.178 116.176C274.602 115.561 266.847 110.711 265.299 109.677L265.014 109.481L264.952 109.66C264.589 109.14 264.237 108.586 263.907 108.015L263.739 107.708C266.057 106.544 268.008 104.76 269.374 102.554C270.741 100.349 271.471 97.8077 271.482 95.2127C271.482 95.1176 271.482 95.0169 271.482 94.9219C272.325 93.465 272.768 91.8116 272.768 90.1285V88.4505L274.954 86.5041C275.955 85.6148 276.989 84.6751 277.498 83.4502C277.702 82.9545 277.794 82.4196 277.766 81.8842C277.815 81.4254 277.746 80.9617 277.566 80.537C277.386 80.1122 277.101 79.7404 276.737 79.4567C275.06 78.2989 272.265 79.4567 271.052 77.8459C270.492 77.1188 270.593 76.1288 270.319 75.273C269.76 73.5335 267.747 72.5939 265.886 72.5659C264.024 72.5379 262.241 73.2147 260.452 73.7237C256.693 74.7912 252.77 75.159 248.879 74.8088C247.826 74.6213 246.746 74.6595 245.709 74.9206C245.076 75.1825 244.513 75.5899 244.066 76.1097C243.62 76.6295 243.301 77.2473 243.137 77.913C242.999 78.4132 242.917 78.9272 242.891 79.4455C241.332 81.2055 240.469 83.4752 240.465 85.8273V90.1285C240.468 92.4247 241.291 94.6441 242.785 96.3873C242.962 98.4111 243.577 100.372 244.587 102.134C245.598 103.896 246.981 105.416 248.639 106.589C248.639 106.701 248.639 106.815 248.639 106.93L248.711 106.975C248.621 108.309 248.415 109.632 248.096 110.93V110.644C248.096 110.644 240.269 114.811 231.883 114.912H230.961C229.307 114.856 227.698 115.46 226.488 116.59C224.006 118.928 219.657 122.625 216.984 122.625C216.425 122.625 202.314 125.382 199.978 125.841L195.611 121.562L195.477 121.814L195.22 121.562C194.743 121.599 194.268 121.668 193.8 121.769C191.564 119.118 187.091 112.954 186.057 104.682C186.057 104.682 195.712 93.6802 192.162 83.4279C189.132 74.6913 180.785 93.4173 178.414 99.0608C178 100.046 177.948 101.146 178.269 102.165L186.113 127.457C185.366 129.417 185.152 131.54 185.492 133.61H185.403L191.116 140.943C191.116 140.943 195.416 142.777 202.141 142.744C207.07 142.752 211.955 141.814 216.532 139.981H217.857L217.605 140.076H224.409L228.736 153.169C228.591 154.361 226.5 170.989 224.822 174.709C224.325 175.951 224.1 177.286 224.163 178.624C224.251 181.193 224.67 183.74 225.409 186.203L229.2 186.063L229.055 186.359C225.846 192.942 220.484 204.671 217.314 215.634L211.796 226.82L215.933 276.991H216.101L216.42 277.041C216.867 277.108 217.538 277.209 218.421 277.321L218.097 277.88L208.979 292.982C208.979 292.982 202.477 306.299 216.861 303.788C216.861 303.788 222.178 302.244 224.347 293.161L233.807 284.285C233.807 284.285 234.248 278.389 231.57 276.035C231.403 273.311 230.978 265.357 231.632 263.444C232.42 261.129 228.277 234.5 228.277 234.5C228.277 234.5 243.249 203.43 252.317 202.658C252.982 202.611 253.649 202.698 254.28 202.915C261.732 205.342 270.761 223.369 273.416 228.979L273.539 229.236V229.287L273.64 229.505V229.566L273.729 229.757V229.807L273.808 229.98V230.02L273.875 230.159V230.215L273.925 230.322V230.366L273.959 230.445V230.489V230.54L273.987 230.607L275.166 265.536L275.284 265.598H275.34L275.239 266.319L274.725 269.927C274.725 269.927 281.227 283.63 280.83 285.364C280.433 287.098 285.162 294.05 291.86 292.121C298.558 290.191 294.571 279.312 294.571 279.312L288.12 266.012L287.835 265.419C288.477 265.024 289.084 264.573 289.646 264.071C289.646 264.071 287.678 249.791 289.646 246.704C291.614 243.617 292.207 229.527 292.207 229.527C292.207 229.527 290.826 219.879 288.461 215.634L278.554 180.257C281.523 183.02 283.832 184.1 285.761 184.027H286.079C286.927 184.043 287.764 183.834 288.506 183.423C288.904 183.198 289.278 182.934 289.624 182.634C289.69 182.577 289.751 182.515 289.808 182.45C292.564 180.134 286.655 171.062 283.306 165.67C280.08 160.468 284.525 146.334 284.86 145.283C285.159 145.064 285.479 144.876 285.816 144.724C286.51 144.426 287.254 144.265 288.008 144.248C291.217 144.36 295.164 146.206 300.05 147.134C303.446 147.712 306.887 147.98 310.331 147.934H310.533C311.902 147.934 313.144 147.906 314.15 147.867C315.068 147.831 315.966 147.588 316.777 147.157C317.473 146.751 318.103 146.242 318.645 145.646L327.221 135.953L326.997 136.06C327.413 134.96 327.413 133.747 326.997 132.648L336.06 116.987C336.517 116.215 336.794 115.35 336.871 114.456C336.947 113.562 336.821 112.663 336.501 111.824Z" fill="url(#paint0_linear)"/>
<path d="M234.684 282.959L225.555 291.712C223.464 300.661 218.326 302.177 218.326 302.177C204.444 304.649 210.717 291.55 210.717 291.55L219.522 276.644L220.607 274.804C220.607 274.804 226.885 272.902 231.067 274.043C231.595 274.188 232.083 274.452 232.493 274.815C235.115 277.092 234.684 282.959 234.684 282.959Z" fill="#1B191B"/>
<path d="M290.977 290.761C284.508 292.663 279.946 285.817 280.354 284.1C280.762 282.383 274.445 268.898 274.445 268.898L274.937 265.34L275.395 262.046L286.018 262.807L287.018 264.91L293.246 278.026C293.246 278.026 297.445 288.86 290.977 290.761Z" fill="#1B191B"/>
<path opacity="0.1" d="M232.593 276.303C231.593 278.02 223.481 277.153 219.528 276.616L220.613 274.776C220.613 274.776 226.891 272.874 231.073 274.015C231.601 274.16 232.088 274.424 232.498 274.787C232.554 275.716 232.593 276.303 232.593 276.303Z" fill="black"/>
<path opacity="0.1" d="M287.03 264.899C281.59 268.523 275.798 265.782 274.926 265.329L275.384 262.035L286.006 262.796L287.03 264.899Z" fill="black"/>
<path d="M288.506 245.859C286.605 248.902 288.506 262.986 288.506 262.986C282.227 268.696 274.814 264.507 274.814 264.507L273.696 230.07C273.696 230.07 261.335 201.718 252.586 202.479C243.836 203.239 229.384 233.873 229.384 233.873C229.384 233.873 233.376 260.128 232.616 262.398C231.855 264.669 232.616 275.716 232.616 275.716C231.285 277.998 217.404 275.716 217.404 275.716L213.412 226.244L218.712 215.203C221.759 204.397 226.936 192.83 230.033 186.342C231.57 183.115 232.599 181.146 232.599 181.146L242.718 179.038L275.563 172.225L287.365 215.203C289.646 219.387 290.977 228.901 290.977 228.901C290.977 228.901 290.406 242.817 288.506 245.859Z" fill="#57041D"/>
<g opacity="0.1">
<path opacity="0.1" d="M277.855 264.507L276.737 230.07C276.737 230.07 264.376 201.718 255.627 202.479C255.236 202.517 254.851 202.603 254.481 202.736C263.012 205.572 273.696 230.07 273.696 230.07L274.814 264.507C277.147 265.696 279.776 266.176 282.378 265.889C280.801 265.699 279.27 265.231 277.855 264.507Z" fill="black"/>
<path opacity="0.1" d="M220.423 275.733L216.431 226.261L221.753 215.203C224.8 204.397 229.977 192.83 233.074 186.342C234.612 183.115 235.64 181.146 235.64 181.146L245.759 179.038L275.742 172.801L275.58 172.203L242.718 179.038L232.599 181.146C232.599 181.146 231.57 183.115 230.033 186.342C226.925 192.83 221.759 204.42 218.712 215.203L213.39 226.239L217.381 275.71C217.381 275.71 224.962 276.957 229.457 276.683C226.432 276.519 223.416 276.202 220.423 275.733Z" fill="black"/>
</g>
<path d="M197.294 122.474C197.294 122.474 186.454 123.033 187.974 134.46L191.016 134.84L195.578 129.896L197.859 125.712V124.761L197.294 122.474Z" fill="#CED2DF"/>
<path opacity="0.1" d="M197.294 122.474C197.294 122.474 186.454 123.033 187.974 134.46L191.016 134.84L195.578 129.896L197.859 125.712V124.761L197.294 122.474Z" fill="black"/>
<path d="M317.89 126.658C317.89 126.658 326.835 131.412 324.548 136.932L321.697 138.051L317.896 135.959L317.337 131.015L317.717 127.592L317.89 126.658Z" fill="#CED2DF"/>
<path opacity="0.1" d="M317.89 126.658C317.89 126.658 326.835 131.412 324.548 136.932L321.697 138.051L317.896 135.959L317.337 131.015L317.717 127.592L317.89 126.658Z" fill="black"/>
<path d="M260.457 77.5663H252.848C246.337 77.5663 241.058 82.8475 241.058 89.3623C241.058 95.8771 246.337 101.158 252.848 101.158H260.457C266.969 101.158 272.248 95.8771 272.248 89.3623C272.248 82.8475 266.969 77.5663 260.457 77.5663Z" fill="#88455E"/>
<path d="M197.221 124.09L190.563 134.717L190.004 132.827L180.958 103.34C180.649 102.334 180.698 101.253 181.098 100.28C183.385 94.7205 191.446 76.2295 194.37 84.8709C197.792 94.9387 188.472 105.801 188.472 105.801C189.534 114.615 194.482 121.003 196.428 123.218C196.92 123.794 197.221 124.09 197.221 124.09Z" fill="#EC8C9C"/>
<path d="M316.464 128.654C316.464 128.654 326.924 118.76 326.528 114.766C326.528 114.766 316.638 98.7867 321.585 95.1903C325.499 92.3266 331.442 106.757 333.745 112.893C334.05 113.71 334.172 114.584 334.103 115.454C334.035 116.323 333.777 117.167 333.348 117.927L320.847 140.07L316.464 128.654Z" fill="#EC8C9C"/>
<path d="M248.756 101.069C248.756 101.069 250.657 113.245 245.144 117.815C239.632 122.384 260.932 122.356 260.932 122.356L268.541 115.315C268.541 115.315 259.792 107.132 262.453 101.046L248.756 101.069Z" fill="#EC8C9C"/>
<path opacity="0.1" d="M248.376 114.957C248.376 114.957 256.555 121.048 264.729 114.196L278.04 141.787L277.28 175.464C277.28 175.464 249.701 189.732 238.29 180.984C226.88 172.236 236.389 167.667 236.389 167.667L233.728 141.793L236.58 125.047C236.58 125.047 241.712 117.054 242.098 117.054C242.483 117.054 248.376 114.957 248.376 114.957Z" fill="black"/>
<path d="M248.376 114.576C248.376 114.576 256.555 120.678 264.734 113.816L278.045 141.407L277.285 175.083C277.285 175.083 249.706 189.351 238.296 180.604C226.885 171.856 236.395 167.286 236.395 167.286L233.734 141.412L236.585 124.666C236.585 124.666 241.717 116.674 242.103 116.674C242.489 116.674 248.376 114.576 248.376 114.576Z" fill="#EBF1F6"/>
<path opacity="0.1" d="M248.376 111.729C248.376 111.729 240.622 116.148 232.202 115.93C231.412 115.905 230.625 116.038 229.887 116.32C229.149 116.602 228.475 117.029 227.903 117.574C225.504 119.879 221.306 123.525 218.706 123.525C218.147 123.525 201.968 126.758 201.968 126.758L197.691 122.479C197.691 122.479 191.318 134.941 188.276 134.371L193.794 141.603C193.794 141.603 204.254 146.167 217.946 140.652H225.935L230.117 153.589C230.117 153.589 228.026 171.095 226.315 174.899C224.604 178.702 226.874 186.124 226.874 186.124L241.896 185.565C241.896 185.565 242.657 178.143 243.797 177.175C244.938 176.208 239.805 143.499 239.805 143.499C239.805 143.499 236.384 125.041 248.935 118.385L248.376 111.729Z" fill="black"/>
<path opacity="0.1" d="M242.713 179.06C242.159 181.317 241.765 183.61 241.533 185.923L230.033 186.359C231.57 183.132 232.599 181.163 232.599 181.163L242.713 179.06Z" fill="black"/>
<path opacity="0.1" d="M197.221 124.09L190.563 134.717L190.004 132.827C192.447 130.399 195.309 125.326 196.45 123.212C196.919 123.794 197.221 124.09 197.221 124.09Z" fill="black"/>
<path d="M248.376 111.729C248.376 111.729 240.236 116.148 231.822 115.93C231.032 115.905 230.245 116.038 229.507 116.32C228.769 116.602 228.095 117.029 227.523 117.574C225.124 119.879 220.926 123.525 218.326 123.525C217.767 123.525 201.588 126.758 201.588 126.758L197.294 122.474C197.294 122.474 190.921 134.935 187.879 134.365L193.397 141.597C193.397 141.597 203.857 146.161 217.549 140.646H225.538L229.72 153.578C229.72 153.578 227.629 171.084 225.918 174.888C224.207 178.691 226.477 186.113 226.477 186.113L241.499 185.554C241.499 185.554 242.26 178.132 243.4 177.164C244.541 176.196 239.408 143.487 239.408 143.487C239.408 143.487 235.987 125.03 248.538 118.374L248.376 111.729Z" fill="#CED2DF"/>
<path opacity="0.1" d="M264.734 110.577C264.734 110.577 272.494 116.495 282.853 117.177C283.987 117.248 285.071 117.668 285.956 118.38C288.569 120.597 290.783 123.245 292.503 126.21C296.685 133.062 306.955 132.301 306.955 132.301C306.955 132.301 316.94 129.163 317.51 126.708C317.51 126.708 317.795 140.132 324.073 136.887L315.816 146.407C315.295 147.008 314.657 147.497 313.941 147.842C313.225 148.187 312.445 148.382 311.651 148.415C308.548 148.538 303.159 148.577 298.608 147.693C291.759 146.362 286.817 143.129 283.206 145.982C283.206 145.982 278.454 160.821 281.685 166.151C284.916 171.481 290.63 180.419 287.963 182.707C285.297 184.994 282.065 184.799 276.743 179.284C271.421 173.769 270.845 164.445 270.845 164.445L272.175 140.473C272.175 140.473 267.043 122.396 262.112 118.782L264.734 110.577Z" fill="black"/>
<path opacity="0.1" d="M324.828 136.647L316.548 146.206C315.998 146.84 315.317 147.347 314.552 147.693C313.872 148 313.14 148.173 312.394 148.202C309.292 148.331 303.902 148.37 299.351 147.481C292.944 146.234 288.204 143.325 284.659 145.288C284.408 145.427 284.169 145.586 283.944 145.764C283.944 145.764 279.191 160.603 282.423 165.933C285.654 171.263 291.368 180.201 288.701 182.489C288.255 182.881 287.754 183.207 287.214 183.456C284.821 184.536 281.853 183.602 277.481 179.066C272.158 173.545 271.583 164.227 271.583 164.227L272.913 140.255C272.913 140.255 267.781 122.177 262.85 118.564L265.025 110.762C266.523 111.78 274.003 116.562 283.25 117.172C284.384 117.243 285.468 117.663 286.353 118.374C288.965 120.592 291.18 123.24 292.9 126.204C297.082 133.056 307.352 132.295 307.352 132.295C309.814 131.51 312.218 130.553 314.547 129.432C316.006 128.716 317.292 127.933 317.901 127.194C318.072 127.002 318.197 126.772 318.265 126.523C318.265 126.523 318.555 139.88 324.828 136.647Z" fill="black"/>
<path d="M324.448 136.837L316.174 146.407C315.719 146.932 315.173 147.372 314.564 147.705C313.782 148.129 312.914 148.368 312.025 148.404C308.923 148.532 303.533 148.572 298.982 147.682C292.805 146.48 288.17 143.728 284.676 145.3C284.277 145.473 283.901 145.697 283.558 145.965C283.558 145.965 278.806 160.804 282.037 166.134C285.269 171.465 290.982 180.402 288.315 182.69C287.971 182.987 287.596 183.248 287.197 183.467C284.737 184.827 281.696 184.027 277.084 179.267C271.762 173.747 271.186 164.428 271.186 164.428L272.516 140.456C272.516 140.456 267.384 122.379 262.453 118.766L264.734 110.583L265.008 110.773C266.506 111.791 273.987 116.573 283.234 117.183C284.367 117.254 285.451 117.674 286.336 118.385C288.949 120.603 291.163 123.251 292.883 126.216C297.065 133.067 307.335 132.307 307.335 132.307C309.797 131.521 312.201 130.564 314.53 129.443C316.258 128.559 317.666 127.592 317.884 126.708C317.884 126.708 317.884 126.881 317.884 127.189C318.052 129.499 318.891 139.695 324.448 136.837Z" fill="#CED2DF"/>
<path opacity="0.1" d="M262.621 101.354H248.644C248.952 103.577 249.04 105.825 248.907 108.066C251.041 109.568 253.543 110.46 256.145 110.648C258.747 110.835 261.351 110.31 263.677 109.129C262.336 106.645 261.519 103.826 262.621 101.354Z" fill="black"/>
<path d="M257.125 110.387C264.792 110.387 271.007 104.169 271.007 96.4992C271.007 88.8291 264.792 82.6113 257.125 82.6113C249.459 82.6113 243.244 88.8291 243.244 96.4992C243.244 104.169 249.459 110.387 257.125 110.387Z" fill="#EC8C9C"/>
<path opacity="0.1" d="M254.24 94.0269C255.789 93.8424 257.338 93.2942 258.864 93.6019C260.25 93.8815 261.43 94.838 262.816 95.1288C265.489 95.6881 267.971 93.7193 269.989 91.8847L274.35 87.9136C275.317 87.0355 276.312 86.1126 276.81 84.9045C277.307 83.6963 277.134 82.1079 276.072 81.3472C274.479 80.2286 271.734 81.3472 270.582 79.7587C270.062 79.0428 270.14 78.0808 269.872 77.225C269.313 75.5135 267.39 74.5794 265.589 74.5571C263.789 74.5347 262.067 75.1947 260.345 75.6757C256.718 76.7284 252.925 77.0908 249.164 76.744C248.149 76.5581 247.106 76.5943 246.106 76.8503C245.491 77.1131 244.945 77.5167 244.514 78.0286C244.083 78.5406 243.778 79.1466 243.624 79.7979C242.763 82.8406 244.233 87.7458 245.709 90.4697C247.185 93.1935 251.294 94.3905 254.24 94.0269Z" fill="black"/>
<path d="M254.24 93.6466C255.789 93.462 257.338 92.9139 258.864 93.2215C260.25 93.5011 261.43 94.4576 262.816 94.7484C265.489 95.3078 267.971 93.3389 269.989 91.5044L274.35 87.5332C275.317 86.6551 276.312 85.7322 276.81 84.5241C277.307 83.316 277.134 81.7275 276.072 80.9668C274.479 79.8482 271.734 80.9668 270.582 79.3784C270.062 78.6624 270.14 77.7004 269.872 76.8447C269.313 75.1331 267.39 74.1991 265.589 74.1767C263.789 74.1543 262.067 74.8143 260.345 75.2953C256.718 76.3481 252.925 76.7104 249.164 76.3636C248.149 76.1777 247.106 76.214 246.106 76.4699C245.491 76.7327 244.945 77.1363 244.514 77.6482C244.083 78.1602 243.778 78.7662 243.624 79.4175C242.763 82.4602 244.233 87.3654 245.709 90.0893C247.185 92.8132 251.294 93.9822 254.24 93.6466Z" fill="#88455E"/>
<path opacity="0.1" d="M230.027 153.678C230.027 153.678 233.069 154.059 234.589 155.96C236.11 157.862 238.771 158.432 238.771 158.432" fill="black"/>
<path opacity="0.1" d="M202.639 128.559C202.639 128.559 205.121 134.102 203.589 134.661C202.057 135.221 202.639 139.225 202.639 139.225" fill="black"/>
<g opacity="0.1">
<path opacity="0.1" d="M203.494 126.658C203.494 126.658 219.657 123.425 220.216 123.425C222.821 123.425 227.014 119.778 229.412 117.474C230.142 116.774 231.039 116.275 232.018 116.025H231.811C231.021 116 230.234 116.133 229.496 116.415C228.758 116.697 228.083 117.124 227.512 117.669C225.113 119.974 220.915 123.62 218.315 123.62C217.862 123.62 207.519 125.673 203.321 126.507L203.494 126.658Z" fill="black"/>
<path opacity="0.1" d="M248.398 112.529V111.819C244.51 113.802 240.326 115.142 236.009 115.784C240.292 115.403 244.481 114.303 248.398 112.529Z" fill="black"/>
<path opacity="0.1" d="M228.412 186.018C228.412 186.018 226.131 178.596 227.853 174.792C229.574 170.989 231.654 153.482 231.654 153.482L227.484 140.545H219.472L218.986 140.736H225.555L229.72 153.678C229.72 153.678 227.629 171.185 225.918 174.988C224.207 178.792 226.477 186.214 226.477 186.214L241.499 185.654V185.537L228.412 186.018Z" fill="black"/>
</g>
<g opacity="0.1">
<path opacity="0.1" d="M288.506 179.647C288.161 179.944 287.786 180.205 287.387 180.425C284.928 181.784 281.886 180.984 277.274 176.224C273.047 171.845 271.817 165.038 271.488 162.459L271.376 164.428C271.376 164.428 271.935 173.752 277.274 179.267C281.886 184.044 284.928 184.827 287.387 183.467C287.786 183.248 288.161 182.987 288.506 182.69C289.305 182.002 289.35 180.71 288.93 179.099C288.827 179.308 288.682 179.495 288.506 179.647Z" fill="black"/>
<path opacity="0.1" d="M321.759 137.122L316.375 143.348C315.92 143.873 315.375 144.312 314.765 144.645C313.983 145.07 313.115 145.309 312.227 145.344C309.124 145.473 303.734 145.512 299.184 144.623C293.006 143.42 288.371 140.668 284.877 142.24C284.478 142.414 284.102 142.638 283.759 142.906C283.759 142.906 280.69 152.492 281.159 159.02C281.523 152.917 283.759 145.948 283.759 145.948C284.102 145.68 284.478 145.457 284.877 145.283C288.377 143.711 293.006 146.463 299.184 147.665C303.734 148.549 309.118 148.51 312.227 148.387C313.115 148.352 313.983 148.112 314.765 147.688C315.373 147.36 315.919 146.926 316.375 146.407L324.655 136.848C324.226 137.115 323.742 137.279 323.239 137.326C322.736 137.374 322.23 137.304 321.759 137.122Z" fill="black"/>
</g>
<path d="M78.6269 205.633C78.6933 205.698 78.7786 205.739 78.8702 205.751C78.9618 205.763 79.0549 205.745 79.1356 205.7C78.9637 205.703 78.7922 205.681 78.6269 205.633Z" fill="url(#paint1_linear)"/>
<path d="M135.601 112.982C134.595 112.691 133.158 112.216 131.431 111.612C133.226 109.301 134.539 106.654 135.294 103.826L135.148 103.882C135.199 103.709 135.249 103.541 135.294 103.362C131.979 104.71 128.311 102.428 125.974 99.4971C123.637 96.5663 122.061 92.9307 119.5 90.2348C118.433 89.1623 117.286 88.1732 116.068 87.276C115.313 86.7167 114.502 86.0847 113.58 86.0567C112.087 86.0119 110.919 87.4774 109.482 87.908C108.536 88.1209 107.552 88.0843 106.625 87.8018C102.918 86.9516 99.3571 85.3799 95.5722 84.966C93.5472 84.7158 91.4919 84.9477 89.5734 85.6428C87.6726 86.3643 86.8061 87.8018 85.2686 88.954C83.5914 90.19 80.3153 90.1621 78.3642 90.3802C75.9965 90.6508 73.6124 90.7498 71.2305 90.6766C69.8617 90.5579 68.4834 90.6086 67.127 90.8277C64.2925 91.4485 62.0171 93.7026 59.8927 95.8615C59.3128 96.3499 58.8955 97.0035 58.6963 97.7353C58.669 97.9413 58.669 98.15 58.6963 98.3561C58.6749 98.92 58.772 99.4821 58.9814 100.006C59.6354 101.948 60.5594 103.787 61.7264 105.471C62.593 106.712 63.6049 107.881 64.0968 109.352C64.3301 110.075 64.4526 110.83 64.4602 111.59C64.4361 112.396 64.352 113.2 64.2087 113.995C63.8335 116.191 63.2167 118.338 62.3693 120.399C61.8433 121.456 61.4814 122.588 61.2959 123.755C61.2799 123.993 61.2799 124.232 61.2959 124.471C61.1562 128.162 64.8795 130.819 65.6007 134.488C65.66 134.792 65.6955 135.101 65.707 135.411C65.6287 137.699 64.3261 139.936 62.4029 140.825C62.5706 140.892 62.7439 140.948 62.9172 141.004C62.7518 141.108 62.58 141.201 62.4029 141.284C62.7551 141.418 63.1129 141.535 63.4763 141.631C61.2906 143.535 59.4536 145.806 58.0478 148.342C51.5794 160.39 7.77104 183.988 7.77104 183.988L8.41956 184.357L7.89404 184.698C4.10358 187.221 -4.79115 194.576 3.24821 203.877C3.24821 203.877 9.52651 193.966 13.9263 189.743C14.122 189.553 14.3177 189.379 14.4854 189.217C14.5821 189.366 14.6469 189.534 14.6757 189.709C14.7046 189.884 14.6969 190.063 14.6531 190.235L43.4562 174.043C43.4562 174.043 53.6926 166.873 56.5495 165.256C58.5602 164.003 60.7484 163.06 63.0402 162.46L62.7048 162.599C63.7817 162.303 64.892 162.145 66.0089 162.13C71.1075 162.208 76.6311 165.944 78.4481 180.738C80.8856 200.549 79.7562 204.123 78.9736 204.61C78.8771 204.603 78.7816 204.586 78.6884 204.559C78.7126 204.581 78.7388 204.599 78.7667 204.615C78.6607 204.608 78.5557 204.589 78.4536 204.559C78.51 204.611 78.5786 204.647 78.653 204.665C78.7273 204.683 78.805 204.681 78.8785 204.66C78.9314 204.676 78.9871 204.681 79.042 204.674C79.0969 204.667 79.1497 204.649 79.1972 204.621C79.3257 204.628 79.4545 204.628 79.583 204.621C79.583 204.804 79.5699 204.99 79.5438 205.18C79.5047 205.18 79.3146 205.286 79.5438 205.298C79.4823 206.416 79.4879 207.63 79.5438 208.9C77.0113 209.04 74.4787 209.191 72.276 209.325L72.4716 208.279L72.5611 207.809C74.5066 207.652 76.3516 207.082 76.5696 205.505C77.0448 202.037 72.2872 200.186 68.2395 199.956C64.1919 199.727 39.9173 201.343 39.9173 201.343C39.9173 201.343 36.2778 206.058 47.8225 207.496C48.1654 207.675 48.5213 207.861 48.8903 208.055C53.4131 210.634 59.5461 215.382 62.4867 217.72L62.8949 218.045L61.5755 219.118C68.7147 220.735 75.6192 248.03 79.4264 260.508C83.2337 272.986 91.5637 272.533 98.4682 270.682C104.937 268.948 105.736 250.155 105.842 247.795V247.554L117.348 261.772L118.22 262.852C118.555 263.027 118.887 263.191 119.215 263.344C127.925 267.488 137.547 259.54 134.813 250.479C132.046 241.346 127.752 227.838 124.89 222.128C122.491 217.345 119.394 209.403 117.516 204.431C117.759 204.333 117.997 204.219 118.226 204.09C118.226 204.09 118.181 203.866 118.108 203.458L118.226 203.396C118.226 203.396 115.43 189.01 115.307 178.786C115.307 178.607 115.307 178.421 115.307 178.227C115.307 178.115 115.307 178.003 115.307 177.897C117.387 177.421 118.706 177.237 118.706 177.237L118.745 176.789L118.505 176.84L119.662 163.589C119.662 163.589 123.911 154.545 120.657 150.781C119.668 149.68 119.008 148.324 118.751 146.866C118.192 143.404 118.751 137.626 126.326 132.827C137.988 125.427 142.539 119.403 142.539 119.403C142.539 119.403 142.741 115.085 135.601 112.982ZM112.439 122.177V116.053C114.603 115.947 116.811 116.198 118.986 116.053C120.053 115.978 121.111 115.8 122.145 115.522L122.67 115.885C119.488 118.334 116.059 120.442 112.439 122.177ZM79.3705 218.179C80.2259 218.772 81.0868 219.387 81.931 220.008C82.4565 223.028 82.9206 225.159 82.9541 225.31C81.9893 222.824 80.7893 220.436 79.3705 218.179Z" fill="url(#paint2_linear)"/>
<path d="M97.8532 213.145L97.35 215.88L96.9642 217.972L96.2598 221.797L89.428 226.58C89.428 226.58 88.8131 226.054 87.7956 225.221C85.0003 222.916 79.1133 218.24 74.7917 215.712C73.6812 215.003 72.4794 214.448 71.2193 214.062L97.8532 213.145Z" fill="#FFBDC6"/>
<path opacity="0.1" d="M97.8531 213.145L97.35 215.88C95.8441 215.964 94.3335 215.887 92.8439 215.651L76.905 215.88C76.1502 215.835 75.4458 215.774 74.7861 215.707C73.6756 214.997 72.4737 214.442 71.2137 214.057L97.8531 213.145Z" fill="black"/>
<path d="M92.844 215.203C92.844 215.203 100.816 216.568 101.269 213.15C101.722 209.733 97.1711 207.932 93.308 207.675C89.4448 207.417 66.2045 209.051 66.2045 209.051C66.2045 209.051 62.1066 214.515 76.905 215.427L92.844 215.203Z" fill="#F1366F"/>
<path opacity="0.1" d="M97.8532 213.145L97.35 215.88L96.9642 217.972L96.2598 221.797L89.428 226.58C89.428 226.58 88.8131 226.054 87.7956 225.221C85.0003 222.916 79.1133 218.24 74.7917 215.712C73.6812 215.003 72.4794 214.448 71.2193 214.062L97.8532 213.145Z" fill="black"/>
<path opacity="0.1" d="M97.8531 213.145L97.35 215.88C95.8441 215.964 94.3335 215.887 92.8439 215.651L76.905 215.88C76.1502 215.835 75.4458 215.774 74.7861 215.707C73.6756 214.997 72.4737 214.442 71.2137 214.057L97.8531 213.145Z" fill="black"/>
<path d="M110.259 102.887H68.5917V152.319H110.259V102.887Z" fill="#A66477"/>
<path opacity="0.1" d="M110.259 102.887H68.5917V152.319H110.259V102.887Z" fill="black"/>
<path d="M19.7518 187.517C19.0641 187.69 18.192 188.35 17.2136 189.312C13.0039 193.474 6.99951 203.234 6.99951 203.234C-0.693228 194.072 7.82133 186.829 11.472 184.34C12.3554 183.736 12.948 183.411 12.948 183.411L19.7518 187.517Z" fill="#FFBDC6"/>
<path d="M97.4003 118.491C97.4003 118.491 99.4521 132.844 106.507 136.261C113.563 139.678 97.4003 146.055 97.4003 146.055L75.3116 137.855C75.3116 137.855 87.8347 133.755 85.3301 121.68L97.4003 118.491Z" fill="#FFBDC6"/>
<path d="M73.7407 204.828L73.2375 207.563L72.8518 209.655L72.1473 213.481L65.3156 218.263C65.3156 218.263 64.7006 217.737 63.6831 216.904C60.8878 214.599 55.0008 209.923 50.6792 207.395C49.5687 206.686 48.3669 206.131 47.1068 205.745L73.7407 204.828Z" fill="#FFBDC6"/>
<path opacity="0.1" d="M73.7407 204.828L73.2376 207.563C71.7317 207.647 70.2211 207.57 68.7315 207.334L52.7925 207.563C52.0378 207.518 51.3334 207.457 50.6737 207.39C49.5631 206.68 48.3613 206.125 47.1013 205.74L73.7407 204.828Z" fill="black"/>
<path d="M68.7091 206.881C68.7091 206.881 76.6814 208.245 77.1342 204.828C77.5871 201.41 73.0363 199.587 69.1619 199.363C65.2876 199.14 42.0641 200.728 42.0641 200.728C42.0641 200.728 37.9661 206.193 52.7646 207.104L68.7091 206.881Z" fill="#F1366F"/>
<path opacity="0.1" d="M72.8294 209.66L72.125 213.486L65.2932 218.268C65.2932 218.268 64.6783 217.742 63.6608 216.909L72.6953 209.498L72.8294 209.66Z" fill="black"/>
<path d="M117.907 261.811C117.594 261.658 117.277 261.496 116.956 261.325L116.123 260.262L105.121 246.279V246.525C105.048 248.846 104.254 267.36 98.0712 269.066C91.4686 270.889 83.4964 271.342 79.8568 259.043C76.2173 246.743 69.6092 219.862 62.7774 218.268L72.9077 209.951C72.9077 209.951 79.6164 217.782 82.3559 225.321C82.2552 224.84 77.6206 203.189 81.4446 199.363H114.687C114.687 199.363 119.808 213.984 123.341 221.233C126.08 226.859 130.189 240.16 132.845 249.159C135.473 258.064 126.293 265.894 117.907 261.811Z" fill="#5C5C5D"/>
<path opacity="0.1" d="M116.979 203.457C111.852 206.495 89.3106 205.258 81.9645 204.766L79.9687 204.621C79.7506 204.621 80.0022 204.498 80.0022 204.498L80.2091 202.428L85.6711 188.535L114.933 171.576C114.34 173.361 114.139 176.096 114.189 179.233C114.334 189.29 116.979 203.457 116.979 203.457Z" fill="black"/>
<path d="M116.979 202.781C111.852 205.818 89.3106 204.582 81.9645 204.09L79.9687 203.944H79.6388L80.0022 203.849L81.8024 203.374L85.6711 187.88L114.933 170.911C114.34 172.695 114.139 175.43 114.189 178.568C114.334 188.608 116.979 202.781 116.979 202.781Z" fill="#F2F1F2"/>
<path opacity="0.1" d="M114.189 178.545C108.241 179.916 95.1473 183.948 90.1157 193.647C86.7613 200.124 83.966 202.904 81.9701 204.067L79.9742 203.922L80.0078 203.799L81.808 203.323L85.6767 187.83L114.938 170.86C114.334 172.695 114.139 175.408 114.189 178.545Z" fill="black"/>
<path opacity="0.1" d="M12.92 183.417L19.7517 187.517C19.0641 187.69 18.1919 188.35 17.2136 189.312C16.6545 187.634 13.0653 185.33 11.444 184.346C12.3274 183.742 12.92 183.417 12.92 183.417Z" fill="black"/>
<path opacity="0.1" d="M78.7722 204.207C78.696 204.249 78.6082 204.266 78.5217 204.255C78.4352 204.244 78.3545 204.206 78.2914 204.145C78.4478 204.19 78.6098 204.21 78.7722 204.207Z" fill="black"/>
<path d="M94.208 135.349C94.208 135.349 88.0583 136.032 83.7311 131.479C83.7311 131.479 65.5168 136.72 59.3671 148.566C53.2174 160.412 11.321 183.646 11.321 183.646C11.321 183.646 18.5889 187.746 17.9236 189.799L45.4743 173.853C45.4743 173.853 55.2636 166.789 57.9974 165.195C60.7312 163.601 75.7589 153.807 78.9455 180.458C82.1322 207.11 78.9455 203.95 78.9455 203.95C78.9455 203.95 83.5019 205.544 90.1268 192.763C96.7518 179.983 117.225 177.047 117.225 177.047L118.343 163.623C118.343 163.623 122.407 154.719 119.293 151.005C118.344 149.912 117.713 148.579 117.471 147.151C116.951 143.739 117.471 138.051 124.739 133.325C135.92 126.054 140.225 120.114 140.225 120.114C140.225 120.114 140.454 115.784 133.622 113.737C126.79 111.69 99.0104 100.526 99.0104 100.526L98.0991 104.397L119.959 119.89C119.959 119.89 109.029 128.772 100.391 128.548C100.358 128.509 101.951 135.12 94.208 135.349Z" fill="#57041D"/>
<path opacity="0.1" d="M98.429 124.739C97.8906 122.903 97.4704 121.035 97.1711 119.146L85.1009 122.356C85.6292 124.661 85.5347 127.064 84.8269 129.32C87.2937 129.978 89.8998 129.894 92.3192 129.079C94.7385 128.263 96.8638 126.751 98.429 124.733V124.739Z" fill="black"/>
<path d="M88.405 129.085C95.5744 129.085 101.386 123.27 101.386 116.098C101.386 108.925 95.5744 103.11 88.405 103.11C81.2355 103.11 75.4235 108.925 75.4235 116.098C75.4235 123.27 81.2355 129.085 88.405 129.085Z" fill="#FFBDC6"/>
<path opacity="0.1" d="M95.3038 86.5601C98.9042 86.9684 102.331 88.5177 105.876 89.3566C106.761 89.6345 107.705 89.6712 108.61 89.4629C109.985 89.0378 111.103 87.5948 112.523 87.6395C113.401 87.6395 114.2 88.266 114.905 88.8421C116.072 89.7278 117.169 90.7021 118.186 91.7561C120.629 94.4129 122.15 97.9925 124.381 100.879C126.611 103.765 130.128 106.013 133.298 104.688C131.145 113.077 124.079 119.493 116.442 120.013C113.395 120.22 110.292 119.588 107.324 120.483C106.588 120.783 105.812 120.971 105.02 121.042C103.343 121.042 101.957 119.482 100.894 117.966C98.4122 114.397 96.4219 110.348 93.6266 107.098C92.7042 106.024 91.614 105.001 90.3114 104.805C89.0087 104.609 87.8067 105.23 86.6439 105.834C84.7263 106.83 82.764 107.859 81.2769 109.559C79.7898 111.26 78.8505 113.804 79.4655 116.109C79.7953 117.351 80.5557 118.469 80.5836 119.772C80.5836 121.842 78.7834 123.358 78.42 125.366C78.34 126.213 78.3101 127.065 78.3306 127.916C78.1685 130.679 76.3683 132.95 74.4786 134.678C73.7463 135.355 72.93 136.076 72.7176 137.122C72.5722 137.833 72.7176 138.588 72.6225 139.309C72.3486 141.105 70.5596 142.011 68.9774 142.246C67.1296 142.517 65.243 142.293 63.5098 141.597C65.746 140.551 67.0822 137.57 66.5679 134.885C65.8634 131.188 62.1513 128.537 62.4643 124.767C62.6394 123.613 62.9861 122.491 63.493 121.439C64.3031 119.405 64.8917 117.29 65.2485 115.13C65.6142 113.468 65.5778 111.742 65.1422 110.096C64.667 108.648 63.6999 107.495 62.8724 106.27C61.7519 104.605 60.8676 102.792 60.2448 100.884C60.0192 100.32 59.9329 99.71 59.9933 99.1056C60.1735 98.3925 60.563 97.7497 61.1114 97.2598C63.1464 95.1288 65.3267 92.9083 68.0326 92.2931C69.3255 92.0776 70.6404 92.0269 71.9461 92.1421C74.2255 92.2146 76.5072 92.1174 78.7723 91.8512C80.6395 91.6331 83.8038 91.661 85.3804 90.4417C86.8508 89.3231 87.6838 87.8968 89.5007 87.1809C91.3551 86.5017 93.3478 86.2885 95.3038 86.5601Z" fill="black"/>
<path opacity="0.1" d="M102.521 220.662C102.521 220.662 110.035 235.467 107.76 240.026L102.521 220.662Z" fill="black"/>
<path opacity="0.1" d="M116.146 260.262L105.143 246.279V246.525C105.143 246.525 104.506 242.006 106.603 243.527C111.192 246.849 118.539 252.297 118.695 253.237C118.852 254.176 117.208 257.946 116.146 260.262Z" fill="black"/>
<g opacity="0.1">
<path opacity="0.1" d="M100.576 128.509C100.576 128.509 101.504 132.357 98.5017 134.281C103.125 133.487 103.326 129.89 103.187 128.324C102.324 128.464 101.45 128.526 100.576 128.509Z" fill="black"/>
<path opacity="0.1" d="M14.0605 182.735C14.0605 182.735 55.9568 159.501 62.1066 147.654C66.5176 139.153 77.1454 134.057 82.792 131.854C78.6717 133.235 64.8068 138.532 59.5963 148.566C53.4466 160.412 11.5503 183.646 11.5503 183.646L14.0605 182.735Z" fill="black"/>
<path opacity="0.1" d="M108.727 126.702C115.855 124.465 122.67 118.945 122.67 118.945L100.811 103.451L101.308 101.326L99.2173 100.487L98.306 104.358L120.165 119.851C116.658 122.609 112.814 124.912 108.727 126.702Z" fill="black"/>
<path opacity="0.1" d="M108.867 179.2C111.66 178.246 114.526 177.522 117.437 177.035L117.476 176.593C114.543 177.238 111.665 178.109 108.867 179.2Z" fill="black"/>
<path opacity="0.1" d="M82.3727 203.066H82.1714C82.0952 203.109 82.0074 203.125 81.9209 203.114C81.8344 203.103 81.7537 203.065 81.6906 203.004C81.8471 203.048 82.009 203.069 82.1714 203.066C82.9206 202.63 84.0443 199.229 81.6906 179.541C79.1748 158.522 69.3017 160.172 63.8956 162.588C69.4191 161.067 77.0224 162.381 79.186 180.453C81.5397 200.141 80.416 203.547 79.6668 203.978C80.6378 203.942 81.5776 203.625 82.3727 203.066Z" fill="black"/>
<path opacity="0.1" d="M79.6668 203.983C79.5044 203.986 79.3424 203.965 79.186 203.922C79.249 203.982 79.3297 204.021 79.4163 204.032C79.5028 204.043 79.5906 204.026 79.6668 203.983Z" fill="black"/>
</g>
<path d="M95.3038 86.1182C98.9042 86.5265 102.331 88.0758 105.876 88.9147C106.761 89.1926 107.705 89.2293 108.61 89.021C109.985 88.5959 111.103 87.1529 112.523 87.1977C113.401 87.1977 114.2 87.8241 114.905 88.4002C116.072 89.2859 117.169 90.2602 118.186 91.3142C120.629 93.971 122.15 97.5506 124.381 100.437C126.611 103.323 130.128 105.571 133.298 104.246C131.145 112.635 124.079 119.051 116.442 119.571C113.395 119.778 110.292 119.146 107.324 120.041C106.588 120.341 105.812 120.529 105.02 120.6C103.343 120.6 101.957 119.04 100.894 117.524C98.4122 113.955 96.4219 109.906 93.6266 106.656C92.7042 105.582 91.614 104.559 90.3114 104.363C89.0087 104.167 87.8067 104.788 86.6439 105.392C84.7263 106.388 82.764 107.417 81.2769 109.117C79.7898 110.818 78.8505 113.363 79.4655 115.667C79.7953 116.909 80.5557 118.027 80.5836 119.33C80.5836 121.4 78.7834 122.916 78.42 124.924C78.34 125.771 78.3101 126.623 78.3306 127.474C78.1685 130.237 76.3683 132.508 74.4786 134.236C73.7463 134.913 72.93 135.635 72.7176 136.68C72.5722 137.391 72.7176 138.146 72.6225 138.867C72.3486 140.663 70.5596 141.569 68.9774 141.804C67.1296 142.075 65.243 141.851 63.5098 141.155C65.746 140.109 67.0822 137.128 66.5679 134.443C65.8634 130.746 62.1513 128.095 62.4643 124.325C62.6394 123.171 62.9861 122.049 63.493 120.997C64.3031 118.963 64.8917 116.848 65.2485 114.688C65.6142 113.026 65.5778 111.3 65.1422 109.654C64.667 108.206 63.6999 107.053 62.8724 105.829C61.7519 104.163 60.8676 102.351 60.2448 100.442C60.0192 99.8783 59.9329 99.2682 59.9933 98.6637C60.1735 97.9506 60.563 97.3078 61.1114 96.8179C63.1464 94.6869 65.3267 92.4664 68.0326 91.8512C69.3255 91.6357 70.6404 91.585 71.9461 91.7002C74.2255 91.7727 76.5072 91.6755 78.7723 91.4093C80.6395 91.1912 83.8038 91.2191 85.3804 89.9998C86.8508 88.8812 87.6838 87.4549 89.5007 86.739C91.3551 86.0598 93.3478 85.8466 95.3038 86.1182Z" fill="#A66477"/>
<path d="M465.981 56.9666C465.981 56.8938 465.981 56.8267 465.981 56.7596C465.981 56.6925 465.981 56.6142 465.947 56.5471H465.858C465.858 56.3961 465.858 56.245 465.858 56.0828C465.634 50.898 458.467 39.8626 455.593 43.0843C453.078 45.9144 456.874 53.0737 458.808 56.2954L458.981 56.5862L458.886 56.5247C458.886 56.5247 450.886 80.3964 449.941 81.3249C448.996 82.2533 442.411 101.024 433.728 103.138C432.012 103.547 430.586 103.916 429.39 104.257L429.485 103.938C430.044 102.109 430.732 100.381 431.011 98.3449C431.291 96.309 431.011 93.8424 429.983 92.8524C429.479 92.3602 428.864 92.2931 428.451 91.51C428.182 90.8233 428.038 90.094 428.026 89.3567L427.288 80.3069L427.802 80.1503C430.911 79.1547 433.924 76.7944 434.276 73.6175C434.168 73.6585 434.058 73.694 433.946 73.7237C433.987 73.539 434.019 73.3523 434.041 73.1644C431.43 74.1936 429.01 71.4865 426.494 70.2727C422.351 68.2424 417.616 70.1553 413.339 70.6195C408.492 71.1509 403.891 69.1373 398.938 69.5009C396.243 69.7078 393.246 71.5368 393.392 74.1936C393.476 75.6534 394.51 76.8895 394.935 78.2878C396.008 81.6716 393.621 85.0667 391.53 87.9528C390.155 89.8489 388.835 92.1588 388.601 94.3849C383.787 89.3511 378.582 83.5342 377.978 81.3472L364.052 57.4755C364.052 57.4755 363.722 57.8279 363.191 58.3481C363.107 58.0908 363.007 57.7888 362.895 57.4867C361.117 52.5032 356.085 40.4275 349.706 42.6424C343.327 44.8573 352.351 57.235 356.275 62.1682L356.834 62.8506C356.505 62.9315 356.16 62.9159 355.839 62.8058L371.37 89.4573C371.37 89.4573 374.193 94.5583 376.782 95.9454C376.782 95.9454 396.075 120.281 396.31 125.147C396.545 130.013 404.987 142.995 404.987 142.995C404.987 142.995 407.81 164.087 402.868 167.795H402.929H402.969H403.03H403.086H403.198H403.27H403.343H403.438H403.516H403.628H403.684C403.449 168.025 403.209 168.276 402.963 168.55C399.301 172.611 394.622 181.314 401.017 196.114C410.426 217.927 411.841 226.473 411.841 226.473C411.841 226.473 393.951 227.402 390.429 228.095C387.309 228.711 375.183 229.141 372.41 229.214C371.42 228.062 368.497 225.511 364.55 229.214C359.607 233.851 356.08 249.35 356.08 249.35C356.08 249.35 354.196 261.867 360.552 258.617C360.552 258.617 368.083 248.186 370.196 247.722C371.247 247.493 372.36 245.943 373.209 244.45L373.254 244.478C373.305 244.478 373.511 244.366 373.847 244.232C375.412 243.611 379.723 242.118 383.122 242.861C384.983 243.27 392.967 243.365 401.336 243.342C399.446 247.873 396.058 259.563 396.058 259.563C396.058 259.563 394.644 270.464 399.34 270.016C402.695 269.686 407.838 261.112 410.521 256.218C412.467 254.792 418.041 249.68 422.161 250.065L449.924 239.405C449.924 239.405 456.51 235.697 452.982 223.414C450.187 213.648 442.232 193.658 439.09 185.867L438.995 185.666C438.234 183.781 437.776 182.662 437.776 182.662C436.485 179.105 435.638 175.402 435.255 171.638C435.227 171.341 435.204 171.039 435.182 170.743C435.571 170.58 435.937 170.367 436.272 170.111C436.272 170.111 433.684 143.924 436.272 141.138L436.317 141.088V141.054L436.361 140.998L436.462 140.87L436.585 140.713C436.725 140.529 436.893 140.299 437.083 140.02C438.564 137.85 441.326 132.894 440.532 127.044C440.499 126.79 440.458 126.535 440.409 126.277C440.105 124.691 439.562 123.159 438.799 121.736C438.687 121.143 438.618 120.543 438.592 119.94C438.592 119.599 438.592 119.224 438.592 118.822V118.754C438.592 118.646 438.592 118.538 438.592 118.43V118.352C438.592 118.089 438.637 117.792 438.676 117.546V117.446C438.676 117.345 438.693 117.242 438.726 117.138V117.009C438.726 116.909 438.771 116.808 438.793 116.707V116.601C438.827 116.467 438.86 116.333 438.905 116.198V116.131C438.939 116.019 438.976 115.909 439.017 115.801L439.067 115.673L439.179 115.404L439.235 115.27C439.28 115.169 439.33 115.069 439.38 114.968L439.42 114.884C439.487 114.761 439.557 114.64 439.632 114.52L439.693 114.425L439.878 114.162L439.967 114.045L440.163 113.81L440.253 113.709C440.353 113.603 440.454 113.497 440.566 113.396C443.624 110.6 457.27 89.9887 457.27 89.9887C457.27 89.9887 460.563 85.3519 460.563 82.3428C460.748 82.2757 466.568 62.8674 465.981 56.9666ZM429.345 230.215C429.01 227.038 428.674 223.101 428.367 219.029L433.689 227.329C433.689 227.329 433.186 229.857 429.345 230.215Z" fill="url(#paint3_linear)"/>
<path d="M373.852 228.459C373.852 228.459 370.666 223.425 365.88 228.006C361.095 232.587 357.684 247.823 357.684 247.823C357.684 247.823 355.862 260.128 362.011 256.934C362.011 256.934 369.279 246.682 371.348 246.229C373.416 245.776 375.675 240.076 375.675 240.076L373.852 228.459Z" fill="#1B191B"/>
<path d="M408.006 240.758C408.006 240.758 403.679 238.706 402.314 240.305C400.95 241.905 396.394 257.846 396.394 257.846C396.394 257.846 395.03 268.327 399.581 267.869C404.131 267.41 412.104 251 412.104 251L408.006 240.758Z" fill="#1B191B"/>
<path d="M423.033 209.778L432.823 225.042C432.823 225.042 432.141 228.459 426.22 227.777L405.954 240.535C405.954 240.535 404.193 256.067 409.823 254.657C410.734 254.428 417.09 247.823 421.664 248.281L448.538 237.8C448.538 237.8 454.911 234.153 451.495 222.083C448.079 210.013 436.786 182.024 436.786 182.024L418.935 192.014L423.033 209.778Z" fill="#57041D"/>
<path d="M429.183 232.329C430.547 240.988 422.81 241.67 422.81 241.67C422.81 241.67 387.969 242.352 383.871 241.441C379.773 240.529 374.305 243.035 374.305 243.035C367.244 238.706 372.941 228 372.941 228C372.941 228 387.516 227.547 390.932 226.882C394.348 226.216 411.651 225.271 411.651 225.271C411.651 225.271 410.287 216.842 401.174 195.431C394.985 180.889 399.497 172.331 403.058 168.343C403.967 167.285 405.019 166.359 406.183 165.592L434.192 166.956C434.162 168.37 434.214 169.783 434.349 171.19C434.828 176.021 436.083 180.743 438.067 185.173C436.473 185.173 426.226 194.743 426.226 194.743C426.226 194.743 427.813 223.677 429.183 232.329Z" fill="#57041D"/>
<path opacity="0.1" d="M374.987 228.912C374.987 228.912 389.562 228.459 392.978 227.793C396.394 227.128 413.697 226.199 413.697 226.199C413.697 226.199 412.333 217.77 403.22 196.36C397.031 181.817 401.543 173.26 405.104 169.272C406.013 168.214 407.065 167.288 408.229 166.52L434.181 167.784C434.181 167.516 434.181 167.225 434.181 166.973L406.172 165.608C405.007 166.376 403.956 167.302 403.047 168.36C399.502 172.354 394.974 180.906 401.163 195.448C410.298 216.842 411.651 225.271 411.651 225.271C411.651 225.271 394.32 226.183 390.932 226.865C387.544 227.547 372.941 227.984 372.941 227.984C372.941 227.984 367.25 238.695 374.305 243.04C374.305 243.04 374.518 242.94 374.864 242.794C370.174 237.967 374.987 228.912 374.987 228.912Z" fill="black"/>
<path d="M416.654 81.9792H402.538V117.742H416.654V81.9792Z" fill="#493545"/>
<path opacity="0.1" d="M416.654 81.9792H402.538V117.742H416.654V81.9792Z" fill="black"/>
<path d="M424.727 76.7329C425.214 76.8671 425.762 76.8839 426.092 77.5551C426.296 78.0915 426.408 78.659 426.421 79.233L427.31 90.2852C427.323 91.0088 427.463 91.7245 427.724 92.3994C428.099 93.1489 428.719 93.2383 429.206 93.7194C430.184 94.6926 430.469 97.1312 430.201 99.1168C429.932 101.102 429.256 102.803 428.725 104.598C427.964 107.171 427.461 110.063 426.393 112.233C425.326 114.403 423.386 115.589 422.133 113.765C420.881 111.942 421.049 108.262 420.814 105.247C420.423 100.213 418.46 95.8727 418.326 90.8053C418.214 86.7055 419.316 82.8798 420.003 78.9925C420.495 76.3246 420.523 73.0861 421.239 70.6866C421.837 73.5392 422.978 76.2519 424.727 76.7329Z" fill="#493545"/>
<path opacity="0.1" d="M424.727 76.7329C425.214 76.8671 425.762 76.8839 426.092 77.5551C426.296 78.0915 426.408 78.659 426.421 79.233L427.31 90.2852C427.323 91.0088 427.463 91.7245 427.724 92.3994C428.099 93.1489 428.719 93.2383 429.206 93.7194C430.184 94.6926 430.469 97.1312 430.201 99.1168C429.932 101.102 429.256 102.803 428.725 104.598C427.964 107.171 427.461 110.063 426.393 112.233C425.326 114.403 423.386 115.589 422.133 113.765C420.881 111.942 421.049 108.262 420.814 105.247C420.423 100.213 418.46 95.8727 418.326 90.8053C418.214 86.7055 419.316 82.8798 420.003 78.9925C420.495 76.3246 420.523 73.0861 421.239 70.6866C421.837 73.5392 422.978 76.2519 424.727 76.7329Z" fill="black"/>
<path d="M364.969 61.0216L359.507 65.58C359.507 65.58 358.858 64.8193 357.891 63.5888C354.095 58.7396 345.368 46.5744 351.535 44.3986C357.701 42.2229 362.576 54.086 364.298 58.9857C364.734 60.2273 364.969 61.0216 364.969 61.0216Z" fill="#C77485"/>
<path d="M463.566 59.4276C461.29 62.845 458.104 59.4276 458.104 59.4276C458.104 59.4276 457.695 58.8179 457.12 57.8335C455.247 54.6622 451.574 47.6316 454.006 44.8462C456.801 41.6636 463.728 52.5256 463.94 57.621C464.006 58.2475 463.875 58.8789 463.566 59.4276Z" fill="#C77485"/>
<path d="M407.547 96.3313C407.547 96.3313 412.104 110.913 410.734 115.236C409.364 119.56 420.529 124.594 420.529 124.594H433.281C433.281 124.594 437.837 115.253 436.697 112.518C435.556 109.783 425.767 107.736 425.767 107.736C425.767 107.736 420.076 107.736 420.305 92.472L407.547 96.3313Z" fill="#C77485"/>
<path opacity="0.1" d="M364.969 61.0216L359.507 65.5801C359.507 65.5801 358.858 64.8194 357.891 63.5889C359.876 63.2365 362.956 60.3393 364.304 58.9857C364.734 60.2274 364.969 61.0216 364.969 61.0216Z" fill="black"/>
<path opacity="0.1" d="M463.566 59.4275C461.29 62.8449 458.104 59.4275 458.104 59.4275C458.104 59.4275 457.695 58.8178 457.12 57.8334L457.192 57.6041C458.668 58.6612 463.258 57.7607 463.94 57.6041C464.01 58.2362 463.878 58.8741 463.566 59.4275Z" fill="black"/>
<path opacity="0.1" d="M434.338 171.185C427.293 174.401 404.405 168.673 403.03 168.332C403.939 167.274 404.991 166.348 406.155 165.58L434.164 166.945C434.14 168.361 434.197 169.776 434.338 171.185Z" fill="black"/>
<path d="M410.51 108.86C410.51 108.86 405.048 110.683 397.305 103.619C397.305 103.619 379.974 86.5321 378.856 82.4323L365.438 58.9409C365.438 58.9409 359.747 65.0934 357.466 64.1817L372.494 90.3802C372.494 90.3802 375.228 95.4141 377.732 96.7564C377.732 96.7564 396.405 120.678 396.629 125.461C396.852 130.243 405.043 143.051 405.043 143.051C405.043 143.051 407.776 163.779 402.991 167.426C402.991 167.426 429.63 174.261 435.322 169.703C435.322 169.703 432.817 143.974 435.322 141.228C435.322 141.228 443.065 132.116 437.826 122.094C437.826 122.094 436.708 116.629 439.649 113.894C442.589 111.159 455.817 90.8836 455.817 90.8836C455.817 90.8836 459.004 86.3251 459.004 83.3664C459.004 83.3664 464.924 63.3204 464.035 58.0796C464.035 58.0796 458.797 59.1982 457.203 58.0796C457.203 58.0796 449.46 81.5709 448.549 82.4547C447.638 83.3384 441.281 101.818 432.839 103.871C424.397 105.924 423.05 106.83 423.05 106.83C423.05 106.83 439.442 117.082 431.475 121.635C423.509 126.188 410.51 108.86 410.51 108.86Z" fill="#FFAAC4"/>
<path opacity="0.1" d="M420.859 99.8382C420.588 97.6923 420.478 95.5292 420.529 93.3669L407.776 97.2374C408.112 98.0873 408.379 98.9626 408.576 99.855C410.035 100.498 412.003 102.02 413.697 102.02C416.259 102.103 418.778 101.336 420.859 99.8382Z" fill="black"/>
<path d="M413.468 101.343C420.007 101.343 425.309 96.0391 425.309 89.4965C425.309 82.9539 420.007 77.6501 413.468 77.6501C406.928 77.6501 401.627 82.9539 401.627 89.4965C401.627 96.0391 406.928 101.343 413.468 101.343Z" fill="#C77485"/>
<path opacity="0.1" d="M399.379 71.2459C396.774 71.4473 393.867 73.2483 394.012 75.8603C394.091 77.2978 395.075 78.5115 395.505 79.8874C396.539 83.2154 394.236 86.5545 392.212 89.3958C390.188 92.2371 388.299 96.0014 390.032 99.0105C390.526 99.735 391.06 100.431 391.631 101.097C393.772 103.988 393.744 107.892 394.694 111.366C395.908 115.809 398.777 119.619 402.712 122.012C406.647 124.404 411.348 125.198 415.849 124.23C414.155 122.066 413.31 119.357 413.473 116.612C413.602 114.621 414.245 112.54 413.473 110.7C412.478 108.334 409.56 107.4 408.056 105.331C406.552 103.261 406.653 100.392 407.38 97.9254C408.106 95.4588 409.364 93.1712 409.968 90.6543C410.117 89.9199 410.304 89.1937 410.527 88.4785C411.578 85.4918 414.72 83.7579 417.795 83.014C420.87 82.2701 424.101 82.2254 427.103 81.2465C430.106 80.2677 433.024 77.9745 433.371 74.8256C430.844 75.8379 428.501 73.198 426.064 71.9842C422.049 69.9931 417.471 71.8668 413.334 72.3254C408.621 72.8512 404.148 70.8992 399.379 71.2459Z" fill="black"/>
<path d="M399.15 70.7929C396.545 70.9943 393.638 72.7953 393.783 75.4073C393.861 76.8448 394.845 78.0585 395.276 79.4344C396.31 82.7623 394.007 86.1015 391.983 88.9428C389.959 91.7841 388.069 95.5484 389.803 98.5575C390.297 99.282 390.83 99.9784 391.401 100.644C393.543 103.535 393.515 107.439 394.465 110.913C395.679 115.356 398.548 119.166 402.483 121.559C406.417 123.951 411.119 124.745 415.62 123.777C413.925 121.613 413.08 118.904 413.244 116.159C413.373 114.168 414.016 112.087 413.244 110.247C412.249 107.881 409.331 106.947 407.827 104.878C406.323 102.808 406.424 99.939 407.15 97.4724C407.877 95.0058 409.135 92.7182 409.739 90.2013C409.888 89.4669 410.074 88.7407 410.298 88.0255C411.349 85.0388 414.491 83.3049 417.566 82.561C420.641 81.8171 423.872 81.7724 426.874 80.7935C429.876 79.8147 432.795 77.5215 433.141 74.3726C430.614 75.3849 428.272 72.745 425.834 71.5312C421.82 69.5401 417.241 71.4138 413.104 71.8724C408.403 72.3926 403.947 70.4182 399.15 70.7929Z" fill="#493545"/>
<path opacity="0.1" d="M425.197 115.812C425.197 115.812 429.938 120.046 430.871 121.915L425.197 115.812Z" fill="black"/>
<path opacity="0.1" d="M435.456 141.099C435.456 141.099 429.535 141.099 426.801 141.781C424.068 142.464 417.465 141.781 417.465 141.781" fill="black"/>
<g opacity="0.1">
<path opacity="0.1" d="M431.458 121.618C430.948 121.91 430.396 122.122 429.82 122.244C431.305 122.574 432.859 122.351 434.192 121.618C442.165 117.06 425.767 106.813 425.767 106.813H423.033C423.033 106.813 439.431 117.065 431.458 121.618Z" fill="black"/>
<path opacity="0.1" d="M464.074 58.4766C464.074 58.3312 464.041 58.1914 464.018 58.0627C463.082 58.2569 462.136 58.4007 461.184 58.4934C462.145 58.5992 463.115 58.5935 464.074 58.4766Z" fill="black"/>
<path opacity="0.1" d="M405.73 167.409C410.51 163.763 407.782 143.034 407.782 143.034C407.782 143.034 399.586 130.276 399.357 125.494C399.128 120.712 380.461 96.7899 380.461 96.7899C377.956 95.4252 375.222 90.4137 375.222 90.4137C375.222 90.4137 359.736 65.1269 357.461 64.2152L372.488 90.4137C372.488 90.4137 375.222 95.4475 377.727 96.7899C377.727 96.7899 396.4 120.712 396.623 125.494C396.847 130.276 405.043 143.051 405.043 143.051C405.043 143.051 407.776 163.779 402.991 167.426C402.991 167.426 419.366 171.627 429.183 171.246C419.344 170.9 405.73 167.409 405.73 167.409Z" fill="black"/>
<path opacity="0.1" d="M410.644 109.039L410.51 108.866C410.354 108.912 410.196 108.947 410.035 108.972C410.248 109 410.449 109.022 410.644 109.039Z" fill="black"/>
</g>
<g opacity="0.1">
<path opacity="0.1" d="M464.018 58.0348L463.879 58.0628C463.638 65.0598 458.786 81.4982 458.786 81.4982C458.786 84.457 455.599 89.0154 455.599 89.0154C455.599 89.0154 442.394 109.291 439.431 112.026C436.468 114.761 437.608 120.225 437.608 120.225L437.636 120.281C437.547 118.441 437.77 115.589 439.654 113.844C442.612 111.108 455.823 90.8332 455.823 90.8332C455.823 90.8332 459.009 86.2748 459.009 83.316C459.009 83.3495 464.93 63.3036 464.018 58.0348Z" fill="black"/>
<path opacity="0.1" d="M435.104 139.388C435.445 141.323 435.215 139.276 435.333 141.211C435.333 141.211 440.923 134.65 439.397 126.54C439.856 133.789 435.104 139.388 435.104 139.388Z" fill="black"/>
</g>
<path opacity="0.1" d="M262.643 370C394.692 370 501.739 359.713 501.739 347.023C501.739 334.333 394.692 324.046 262.643 324.046C130.594 324.046 23.5479 334.333 23.5479 347.023C23.5479 359.713 130.594 370 262.643 370Z" fill="#D80A49"/>
<path d="M169.961 323.711C169.961 323.711 161.821 296.053 171.488 275.699C175.599 267.187 176.839 257.57 175.021 248.292C174.123 243.895 172.824 239.589 171.141 235.428" stroke="#535461" stroke-width="2" stroke-miterlimit="10"/>
<path d="M177.168 222.575C177.168 225.964 171.018 235.792 171.018 235.792C171.018 235.792 164.868 225.964 164.868 222.575C164.806 221.731 164.918 220.883 165.198 220.085C165.478 219.286 165.92 218.554 166.495 217.934C167.071 217.314 167.768 216.819 168.543 216.481C169.319 216.143 170.155 215.968 171.001 215.968C171.847 215.968 172.684 216.143 173.459 216.481C174.234 216.819 174.932 217.314 175.507 217.934C176.083 218.554 176.525 219.286 176.804 220.085C177.084 220.883 177.197 221.731 177.134 222.575H177.168Z" fill="#D80A49"/>
<path d="M187.292 241.346C185.453 244.193 174.965 249.103 174.965 249.103C174.965 249.103 175.155 237.52 176.994 234.673C177.402 233.934 177.958 233.287 178.627 232.772C179.296 232.257 180.063 231.885 180.882 231.68C181.7 231.474 182.552 231.44 183.385 231.578C184.217 231.716 185.013 232.024 185.721 232.483C186.429 232.942 187.035 233.542 187.502 234.246C187.969 234.949 188.286 235.741 188.433 236.573C188.58 237.404 188.555 238.257 188.359 239.078C188.163 239.899 187.8 240.671 187.292 241.346Z" fill="#D80A49"/>
<path d="M186.851 273.434C183.826 274.961 172.315 273.904 172.315 273.904C172.315 273.904 178.325 263.998 181.35 262.471C182.075 262.036 182.882 261.754 183.72 261.645C184.559 261.536 185.411 261.601 186.223 261.836C187.036 262.071 187.791 262.471 188.442 263.011C189.093 263.551 189.625 264.22 190.006 264.975C190.387 265.731 190.608 266.557 190.655 267.401C190.703 268.246 190.575 269.092 190.281 269.885C189.987 270.678 189.533 271.402 188.946 272.012C188.36 272.622 187.654 273.104 186.873 273.428L186.851 273.434Z" fill="#D80A49"/>
<path d="M181.053 297.63C178.331 299.643 166.78 300.555 166.78 300.555C166.78 300.555 171.029 289.777 173.757 287.758C175.07 286.96 176.634 286.682 178.142 286.98C179.649 287.277 180.99 288.128 181.901 289.366C182.813 290.603 183.228 292.137 183.066 293.665C182.904 295.194 182.176 296.606 181.025 297.624L181.053 297.63Z" fill="#D80A49"/>
<path d="M162.073 249.763C164.505 252.124 175.826 254.574 175.826 254.574C175.826 254.574 173.031 243.326 170.621 240.96C170.059 240.329 169.373 239.821 168.606 239.468C167.839 239.114 167.007 238.922 166.163 238.904C165.318 238.886 164.479 239.043 163.698 239.363C162.916 239.684 162.209 240.162 161.621 240.769C161.032 241.375 160.575 242.095 160.277 242.886C159.979 243.677 159.848 244.521 159.89 245.364C159.932 246.208 160.148 247.034 160.524 247.791C160.899 248.548 161.427 249.219 162.073 249.763Z" fill="#D80A49"/>
<path d="M155.66 278.154C158.685 279.681 170.196 278.624 170.196 278.624C170.196 278.624 164.209 268.719 161.184 267.22C159.75 266.624 158.144 266.593 156.688 267.133C155.232 267.673 154.034 268.744 153.335 270.131C152.636 271.518 152.487 273.119 152.918 274.611C153.35 276.103 154.329 277.377 155.66 278.177V278.154Z" fill="#D80A49"/>
<path d="M153.201 306.601C155.923 308.615 167.474 309.527 167.474 309.527C167.474 309.527 163.225 298.748 160.496 296.729C159.857 296.163 159.107 295.737 158.293 295.477C157.48 295.217 156.622 295.13 155.773 295.22C154.924 295.31 154.103 295.576 153.363 296.001C152.622 296.426 151.978 297 151.471 297.688C150.965 298.375 150.607 299.161 150.421 299.994C150.234 300.828 150.223 301.691 150.389 302.529C150.554 303.367 150.892 304.161 151.381 304.861C151.87 305.562 152.499 306.152 153.229 306.596L153.201 306.601Z" fill="#D80A49"/>
<path opacity="0.1" d="M177.168 222.575C177.168 225.964 171.018 235.792 171.018 235.792C171.018 235.792 164.868 225.964 164.868 222.575C164.806 221.731 164.918 220.883 165.198 220.085C165.478 219.286 165.92 218.554 166.495 217.934C167.071 217.314 167.768 216.819 168.543 216.481C169.319 216.143 170.155 215.968 171.001 215.968C171.847 215.968 172.684 216.143 173.459 216.481C174.234 216.819 174.932 217.314 175.507 217.934C176.083 218.554 176.525 219.286 176.804 220.085C177.084 220.883 177.197 221.731 177.134 222.575H177.168Z" fill="#D80A49"/>
<path opacity="0.1" d="M187.292 241.346C185.453 244.193 174.965 249.103 174.965 249.103C174.965 249.103 175.155 237.52 176.994 234.673C177.402 233.934 177.958 233.287 178.627 232.772C179.296 232.257 180.063 231.885 180.882 231.68C181.7 231.474 182.552 231.44 183.385 231.578C184.217 231.716 185.013 232.024 185.721 232.483C186.429 232.942 187.035 233.542 187.502 234.246C187.969 234.949 188.286 235.741 188.433 236.573C188.58 237.404 188.555 238.257 188.359 239.078C188.163 239.899 187.8 240.671 187.292 241.346Z" fill="#D80A49"/>
<path opacity="0.1" d="M186.851 273.434C183.826 274.961 172.315 273.904 172.315 273.904C172.315 273.904 178.325 263.998 181.35 262.471C182.075 262.036 182.882 261.754 183.72 261.645C184.559 261.536 185.411 261.601 186.223 261.836C187.036 262.071 187.791 262.471 188.442 263.011C189.093 263.551 189.625 264.22 190.006 264.975C190.387 265.731 190.608 266.557 190.655 267.401C190.703 268.246 190.575 269.092 190.281 269.885C189.987 270.678 189.533 271.402 188.946 272.012C188.36 272.622 187.654 273.104 186.873 273.428L186.851 273.434Z" fill="#D80A49"/>
<path opacity="0.1" d="M181.053 297.63C178.331 299.643 166.78 300.555 166.78 300.555C166.78 300.555 171.029 289.777 173.757 287.758C175.07 286.96 176.634 286.682 178.142 286.98C179.649 287.277 180.99 288.128 181.901 289.366C182.813 290.603 183.228 292.137 183.066 293.665C182.904 295.194 182.176 296.606 181.025 297.624L181.053 297.63Z" fill="#D80A49"/>
<path opacity="0.1" d="M162.073 249.763C164.505 252.124 175.826 254.574 175.826 254.574C175.826 254.574 173.031 243.326 170.621 240.96C170.059 240.329 169.373 239.821 168.606 239.468C167.839 239.114 167.007 238.922 166.163 238.904C165.318 238.886 164.479 239.043 163.698 239.363C162.916 239.684 162.209 240.162 161.621 240.769C161.032 241.375 160.575 242.095 160.277 242.886C159.979 243.677 159.848 244.521 159.89 245.364C159.932 246.208 160.148 247.034 160.524 247.791C160.899 248.548 161.427 249.219 162.073 249.763Z" fill="#D80A49"/>
<path opacity="0.1" d="M155.66 278.154C158.685 279.681 170.196 278.624 170.196 278.624C170.196 278.624 164.209 268.719 161.184 267.22C159.75 266.624 158.144 266.593 156.688 267.133C155.232 267.673 154.034 268.744 153.335 270.131C152.636 271.518 152.487 273.119 152.918 274.611C153.35 276.103 154.329 277.377 155.66 278.177V278.154Z" fill="#D80A49"/>
<path opacity="0.1" d="M153.201 306.601C155.923 308.615 167.474 309.527 167.474 309.527C167.474 309.527 163.225 298.748 160.496 296.729C159.857 296.163 159.107 295.737 158.293 295.477C157.48 295.217 156.622 295.13 155.773 295.22C154.924 295.31 154.103 295.576 153.363 296.001C152.622 296.426 151.978 297 151.471 297.688C150.965 298.375 150.607 299.161 150.421 299.994C150.234 300.828 150.223 301.691 150.389 302.529C150.554 303.367 150.892 304.161 151.381 304.861C151.87 305.562 152.499 306.152 153.229 306.596L153.201 306.601Z" fill="#D80A49"/>
<path d="M334.684 324.108C334.684 324.108 326.544 296.45 336.211 276.096C340.322 267.584 341.561 257.967 339.744 248.69C338.846 244.292 337.547 239.986 335.864 235.825" stroke="#535461" stroke-width="2" stroke-miterlimit="10"/>
<path d="M341.879 222.966C341.879 226.356 335.73 236.183 335.73 236.183C335.73 236.183 329.58 226.356 329.58 222.966C329.695 221.418 330.391 219.969 331.528 218.912C332.666 217.855 334.161 217.268 335.713 217.268C337.265 217.268 338.76 217.855 339.898 218.912C341.035 219.969 341.731 221.418 341.846 222.966H341.879Z" fill="#D80A49"/>
<path d="M352.021 241.737C350.182 244.584 339.694 249.495 339.694 249.495C339.694 249.495 339.884 237.911 341.723 235.065C342.131 234.325 342.687 233.678 343.355 233.163C344.024 232.648 344.792 232.277 345.61 232.071C346.429 231.866 347.281 231.831 348.113 231.969C348.946 232.108 349.741 232.416 350.449 232.875C351.158 233.334 351.764 233.934 352.231 234.637C352.697 235.341 353.014 236.133 353.161 236.964C353.309 237.795 353.284 238.648 353.087 239.469C352.891 240.291 352.528 241.062 352.021 241.737Z" fill="#D80A49"/>
<path d="M351.596 273.825C348.571 275.352 337.06 274.295 337.06 274.295C337.06 274.295 343.07 264.39 346.095 262.863C346.821 262.423 347.63 262.139 348.471 262.027C349.312 261.915 350.167 261.979 350.982 262.214C351.798 262.449 352.555 262.851 353.208 263.393C353.861 263.935 354.394 264.607 354.775 265.366C355.156 266.124 355.375 266.954 355.42 267.801C355.465 268.649 355.334 269.497 355.035 270.291C354.737 271.086 354.277 271.81 353.685 272.418C353.093 273.026 352.382 273.505 351.596 273.825Z" fill="#D80A49"/>
<path d="M345.776 298.021C343.054 300.035 331.503 300.947 331.503 300.947C331.503 300.947 335.752 290.169 338.48 288.149C339.793 287.351 341.357 287.074 342.865 287.371C344.372 287.669 345.713 288.52 346.624 289.757C347.536 290.995 347.951 292.528 347.789 294.057C347.627 295.585 346.899 296.998 345.748 298.016L345.776 298.021Z" fill="#D80A49"/>
<path d="M326.807 250.155C329.239 252.515 340.56 254.965 340.56 254.965C340.56 254.965 337.765 243.717 335.355 241.351C334.793 240.721 334.107 240.213 333.34 239.859C332.573 239.506 331.741 239.314 330.897 239.296C330.052 239.278 329.213 239.434 328.432 239.755C327.651 240.076 326.944 240.554 326.355 241.16C325.767 241.766 325.309 242.487 325.011 243.278C324.714 244.068 324.582 244.912 324.624 245.756C324.667 246.6 324.882 247.426 325.258 248.183C325.633 248.94 326.161 249.611 326.807 250.155Z" fill="#D80A49"/>
<path d="M320.383 278.546C323.408 280.073 334.919 279.016 334.919 279.016C334.919 279.016 328.909 269.11 325.885 267.583C324.451 266.988 322.844 266.957 321.389 267.497C319.933 268.037 318.735 269.108 318.036 270.495C317.337 271.882 317.188 273.482 317.619 274.975C318.05 276.467 319.03 277.741 320.361 278.54L320.383 278.546Z" fill="#D80A49"/>
<path d="M317.929 306.993C320.652 309.006 332.202 309.918 332.202 309.918C332.202 309.918 327.953 299.14 325.225 297.121C323.912 296.323 322.348 296.045 320.841 296.343C319.334 296.64 317.992 297.491 317.081 298.729C316.169 299.966 315.754 301.5 315.916 303.028C316.078 304.557 316.806 305.969 317.957 306.987L317.929 306.993Z" fill="#D80A49"/>
<path opacity="0.1" d="M341.879 222.966C341.879 226.356 335.73 236.183 335.73 236.183C335.73 236.183 329.58 226.356 329.58 222.966C329.695 221.418 330.391 219.969 331.528 218.912C332.666 217.855 334.161 217.268 335.713 217.268C337.265 217.268 338.76 217.855 339.898 218.912C341.035 219.969 341.731 221.418 341.846 222.966H341.879Z" fill="#D80A49"/>
<path opacity="0.1" d="M352.021 241.737C350.182 244.584 339.694 249.495 339.694 249.495C339.694 249.495 339.884 237.911 341.723 235.065C342.131 234.325 342.687 233.678 343.355 233.163C344.024 232.648 344.792 232.277 345.61 232.071C346.429 231.866 347.281 231.831 348.113 231.969C348.946 232.108 349.741 232.416 350.449 232.875C351.158 233.334 351.764 233.934 352.231 234.637C352.697 235.341 353.014 236.133 353.161 236.964C353.309 237.795 353.284 238.648 353.087 239.469C352.891 240.291 352.528 241.062 352.021 241.737Z" fill="#D80A49"/>
<path opacity="0.1" d="M351.596 273.825C348.571 275.352 337.06 274.295 337.06 274.295C337.06 274.295 343.07 264.39 346.095 262.863C346.821 262.423 347.63 262.139 348.471 262.027C349.312 261.915 350.167 261.979 350.982 262.214C351.798 262.449 352.555 262.851 353.208 263.393C353.861 263.935 354.394 264.607 354.775 265.366C355.156 266.124 355.375 266.954 355.42 267.801C355.465 268.649 355.334 269.497 355.035 270.291C354.737 271.086 354.277 271.81 353.685 272.418C353.093 273.026 352.382 273.505 351.596 273.825Z" fill="#D80A49"/>
<path opacity="0.1" d="M345.776 298.021C343.054 300.035 331.503 300.947 331.503 300.947C331.503 300.947 335.752 290.169 338.48 288.149C339.793 287.351 341.357 287.074 342.865 287.371C344.372 287.669 345.713 288.52 346.624 289.757C347.536 290.995 347.951 292.528 347.789 294.057C347.627 295.585 346.899 296.998 345.748 298.016L345.776 298.021Z" fill="#D80A49"/>
<path opacity="0.1" d="M326.807 250.155C329.239 252.515 340.56 254.965 340.56 254.965C340.56 254.965 337.765 243.717 335.355 241.351C334.793 240.721 334.107 240.213 333.34 239.859C332.573 239.506 331.741 239.314 330.897 239.296C330.052 239.278 329.213 239.434 328.432 239.755C327.651 240.076 326.944 240.554 326.355 241.16C325.767 241.766 325.309 242.487 325.011 243.278C324.714 244.068 324.582 244.912 324.624 245.756C324.667 246.6 324.882 247.426 325.258 248.183C325.633 248.94 326.161 249.611 326.807 250.155Z" fill="#D80A49"/>
<path opacity="0.1" d="M320.383 278.546C323.408 280.073 334.919 279.016 334.919 279.016C334.919 279.016 328.909 269.11 325.885 267.583C324.451 266.988 322.844 266.957 321.389 267.497C319.933 268.037 318.735 269.108 318.036 270.495C317.337 271.882 317.188 273.482 317.619 274.975C318.05 276.467 319.03 277.741 320.361 278.54L320.383 278.546Z" fill="#D80A49"/>
<path opacity="0.1" d="M317.929 306.993C320.652 309.006 332.202 309.918 332.202 309.918C332.202 309.918 327.953 299.14 325.225 297.121C323.912 296.323 322.348 296.045 320.841 296.343C319.334 296.64 317.992 297.491 317.081 298.729C316.169 299.966 315.754 301.5 315.916 303.028C316.078 304.557 316.806 305.969 317.957 306.987L317.929 306.993Z" fill="#D80A49"/>
<path opacity="0.5" d="M374.518 8.56312H371.007C371.339 8.579 371.672 8.52717 371.984 8.4108C372.295 8.29443 372.581 8.11592 372.821 7.8861C373.062 7.65627 373.254 7.3799 373.385 7.07374C373.516 6.76757 373.584 6.43798 373.584 6.10492C373.584 5.77186 373.516 5.44227 373.385 5.13611C373.254 4.82994 373.062 4.55357 372.821 4.32374C372.581 4.09392 372.295 3.91541 371.984 3.79904C371.672 3.68266 371.339 3.63084 371.007 3.64672H342.539C341.908 3.67686 341.312 3.949 340.876 4.4067C340.44 4.8644 340.197 5.47253 340.197 6.10492C340.197 6.73731 340.44 7.34543 340.876 7.80313C341.312 8.26083 341.908 8.53298 342.539 8.56312H346.05C345.419 8.59326 344.823 8.86541 344.387 9.32311C343.951 9.78081 343.707 10.3889 343.707 11.0213C343.707 11.6537 343.951 12.2618 344.387 12.7195C344.823 13.1772 345.419 13.4494 346.05 13.4795H341.136C340.803 13.4637 340.471 13.5155 340.159 13.6318C339.847 13.7482 339.562 13.9267 339.321 14.1566C339.08 14.3864 338.888 14.6627 338.757 14.9689C338.626 15.2751 338.559 15.6047 338.559 15.9377C338.559 16.2708 338.626 16.6004 338.757 16.9065C338.888 17.2127 339.08 17.4891 339.321 17.7189C339.562 17.9487 339.847 18.1272 340.159 18.2436C340.471 18.36 340.803 18.4118 341.136 18.3959H369.581C369.914 18.4118 370.246 18.36 370.558 18.2436C370.87 18.1272 371.155 17.9487 371.396 17.7189C371.637 17.4891 371.829 17.2127 371.96 16.9065C372.091 16.6004 372.158 16.2708 372.158 15.9377C372.158 15.6047 372.091 15.2751 371.96 14.9689C371.829 14.6627 371.637 14.3864 371.396 14.1566C371.155 13.9267 370.87 13.7482 370.558 13.6318C370.246 13.5155 369.914 13.4637 369.581 13.4795H374.518C375.149 13.4494 375.745 13.1772 376.181 12.7195C376.617 12.2618 376.86 11.6537 376.86 11.0213C376.86 10.3889 376.617 9.78081 376.181 9.32311C375.745 8.86541 375.149 8.59326 374.518 8.56312Z" fill="#DEE3F3"/>
<path opacity="0.5" d="M210.03 22.9041H207.357C207.611 22.918 207.866 22.8799 208.105 22.7921C208.344 22.7044 208.562 22.5689 208.747 22.3938C208.932 22.2187 209.079 22.0077 209.18 21.7738C209.28 21.5398 209.332 21.2878 209.332 21.0331C209.332 20.7785 209.28 20.5265 209.18 20.2925C209.079 20.0586 208.932 19.8476 208.747 19.6725C208.562 19.4974 208.344 19.3619 208.105 19.2741C207.866 19.1864 207.611 19.1483 207.357 19.1622H185.71C185.232 19.1884 184.782 19.3969 184.452 19.7449C184.123 20.0929 183.94 20.5539 183.94 21.0331C183.94 21.5124 184.123 21.9734 184.452 22.3214C184.782 22.6694 185.232 22.8779 185.71 22.9041H188.383C188.128 22.8901 187.874 22.9282 187.635 23.016C187.396 23.1037 187.177 23.2393 186.993 23.4144C186.808 23.5895 186.661 23.8004 186.56 24.0344C186.459 24.2683 186.407 24.5203 186.407 24.775C186.407 25.0297 186.459 25.2817 186.56 25.5156C186.661 25.7495 186.808 25.9605 186.993 26.1356C187.177 26.3107 187.396 26.4462 187.635 26.534C187.874 26.6217 188.128 26.6598 188.383 26.6459H184.642C184.388 26.632 184.134 26.6701 183.895 26.7578C183.656 26.8455 183.437 26.9811 183.252 27.1562C183.068 27.3313 182.92 27.5423 182.82 27.7762C182.719 28.0101 182.667 28.2621 182.667 28.5168C182.667 28.7715 182.719 29.0235 182.82 29.2574C182.92 29.4914 183.068 29.7023 183.252 29.8774C183.437 30.0525 183.656 30.1881 183.895 30.2758C184.134 30.3636 184.388 30.4016 184.642 30.3877H206.289C206.544 30.4016 206.798 30.3636 207.037 30.2758C207.276 30.1881 207.494 30.0525 207.679 29.8774C207.864 29.7023 208.011 29.4914 208.112 29.2574C208.213 29.0235 208.265 28.7715 208.265 28.5168C208.265 28.2621 208.213 28.0101 208.112 27.7762C208.011 27.5423 207.864 27.3313 207.679 27.1562C207.494 26.9811 207.276 26.8455 207.037 26.7578C206.798 26.6701 206.544 26.632 206.289 26.6459H210.03C210.508 26.6197 210.958 26.4112 211.287 26.0632C211.617 25.7152 211.8 25.2542 211.8 24.775C211.8 24.2958 211.617 23.8347 211.287 23.4867C210.958 23.1388 210.508 22.9302 210.03 22.9041Z" fill="#DEE3F3"/>
<path d="M28.3334 287.914C28.3334 287.914 38.117 307.127 30.1448 317.637C22.1725 328.146 30.8716 356.789 30.8716 356.789" stroke="#D80A49" stroke-miterlimit="10"/>
<path d="M31.2517 281.907C31.2517 285.61 28.5347 288.619 28.5347 288.619C28.5347 288.619 25.8176 285.616 25.8176 281.907C25.8176 278.199 28.5347 275.196 28.5347 275.196C28.5347 275.196 31.2517 278.205 31.2517 281.907Z" fill="#D80A49"/>
<path d="M33.4041 287.914C33.4041 287.914 23.6205 307.127 31.5928 317.637C39.565 328.146 30.866 356.789 30.866 356.789" stroke="#D80A49" stroke-miterlimit="10"/>
<path d="M30.5082 281.907C30.5082 285.61 33.2252 288.619 33.2252 288.619C33.2252 288.619 35.9423 285.616 35.9423 281.907C35.9423 278.199 33.2252 275.196 33.2252 275.196C33.2252 275.196 30.5082 278.205 30.5082 281.907Z" fill="#D80A49"/>
<path opacity="0.1" d="M30.5082 281.907C30.5082 285.61 33.2252 288.619 33.2252 288.619C33.2252 288.619 35.9423 285.616 35.9423 281.907C35.9423 278.199 33.2252 275.196 33.2252 275.196C33.2252 275.196 30.5082 278.205 30.5082 281.907Z" fill="black"/>
<path d="M37.4015 287.914C37.4015 287.914 47.1851 307.127 39.2128 317.637C31.2406 328.146 39.9396 356.789 39.9396 356.789" stroke="#D80A49" stroke-miterlimit="10"/>
<path d="M40.2918 281.907C40.2918 285.61 37.5748 288.619 37.5748 288.619C37.5748 288.619 34.8577 285.616 34.8577 281.907C34.8577 278.199 37.5748 275.196 37.5748 275.196C37.5748 275.196 40.2918 278.205 40.2918 281.907Z" fill="#D80A49"/>
<path d="M38.7656 297.3C36.1995 299.968 32.1574 300.247 32.1574 300.247C32.1574 300.247 32.2804 296.198 34.8465 293.536C37.4126 290.873 41.4547 290.588 41.4547 290.588C41.4547 290.588 41.3149 294.626 38.7656 297.3Z" fill="#D80A49"/>
<path d="M39.0228 310.556C36.4566 313.224 32.4146 313.503 32.4146 313.503C32.4146 313.503 32.5376 309.454 35.1037 306.791C37.6698 304.129 41.7119 303.844 41.7119 303.844C41.7119 303.844 41.5889 307.882 39.0228 310.556Z" fill="#D80A49"/>
<path d="M25.102 317.844C27.5284 320.64 27.4445 324.69 27.4445 324.69C27.4445 324.69 23.4248 324.203 20.9985 321.406C18.5721 318.61 18.656 314.56 18.656 314.56C18.656 314.56 22.6757 315.047 25.102 317.844Z" fill="#D80A49"/>
<path d="M27.3383 289.592C30.4243 291.64 31.425 295.566 31.425 295.566C31.425 295.566 27.4221 296.176 24.3361 294.128C21.2501 292.081 20.2493 288.155 20.2493 288.155C20.2493 288.155 24.269 287.534 27.3383 289.592Z" fill="#D80A49"/>
<path opacity="0.1" d="M27.3383 289.592C30.4243 291.64 31.425 295.566 31.425 295.566C31.425 295.566 27.4221 296.176 24.3361 294.128C21.2501 292.081 20.2493 288.155 20.2493 288.155C20.2493 288.155 24.269 287.534 27.3383 289.592Z" fill="black"/>
<path d="M42.461 287.914C42.461 287.914 32.6774 307.127 40.6496 317.637C48.6219 328.146 39.9229 356.789 39.9229 356.789" stroke="#D80A49" stroke-miterlimit="10"/>
<path d="M39.565 281.907C39.565 285.61 42.2821 288.619 42.2821 288.619C42.2821 288.619 44.9991 285.616 44.9991 281.907C44.9991 278.199 42.2821 275.196 42.2821 275.196C42.2821 275.196 39.565 278.205 39.565 281.907Z" fill="#D80A49"/>
<path opacity="0.1" d="M39.565 281.907C39.565 285.61 42.2821 288.619 42.2821 288.619C42.2821 288.619 44.9991 285.616 44.9991 281.907C44.9991 278.199 42.2821 275.196 42.2821 275.196C42.2821 275.196 39.565 278.205 39.565 281.907Z" fill="black"/>
<path d="M40.3478 297.585C37.7481 300.225 37.5524 304.297 37.5524 304.297C37.5524 304.297 41.5945 304.068 44.1941 301.428C46.7938 298.788 46.9894 294.716 46.9894 294.716C46.9894 294.716 42.9474 294.945 40.3478 297.585Z" fill="#D80A49"/>
<path opacity="0.1" d="M40.3478 297.585C37.7481 300.225 37.5524 304.297 37.5524 304.297C37.5524 304.297 41.5945 304.068 44.1941 301.428C46.7938 298.788 46.9894 294.716 46.9894 294.716C46.9894 294.716 42.9474 294.945 40.3478 297.585Z" fill="black"/>
<path d="M45.4408 315.936C42.8412 318.576 42.6455 322.648 42.6455 322.648C42.6455 322.648 46.6875 322.419 49.2872 319.779C51.8869 317.139 52.0825 313.067 52.0825 313.067C52.0825 313.067 48.0237 313.296 45.4408 315.936Z" fill="#D80A49"/>
<path d="M37.9605 311.904C37.9605 311.904 43.8475 302.619 52.116 302.395" stroke="#D80A49" stroke-miterlimit="10"/>
<path d="M33.3594 306.294C33.3594 306.294 27.4725 297.009 19.2039 296.785" stroke="#D80A49" stroke-miterlimit="10"/>
<path d="M32.5935 319.55C32.5935 319.55 38.4805 310.265 46.749 310.041" stroke="#D80A49" stroke-miterlimit="10"/>
<path d="M51.8309 303.872C52.6739 303.872 53.3572 303.188 53.3572 302.345C53.3572 301.502 52.6739 300.818 51.8309 300.818C50.988 300.818 50.3047 301.502 50.3047 302.345C50.3047 303.188 50.988 303.872 51.8309 303.872Z" fill="#D80A49"/>
<path d="M19.3492 298.391C20.1922 298.391 20.8755 297.707 20.8755 296.864C20.8755 296.02 20.1922 295.337 19.3492 295.337C18.5063 295.337 17.823 296.02 17.823 296.864C17.823 297.707 18.5063 298.391 19.3492 298.391Z" fill="#D80A49"/>
<path d="M36.9263 322.592C36.9263 322.592 31.0393 313.308 22.7708 313.084" stroke="#D80A49" stroke-miterlimit="10"/>
<path d="M22.9161 314.7C23.759 314.7 24.4423 314.017 24.4423 313.173C24.4423 312.33 23.759 311.646 22.9161 311.646C22.0732 311.646 21.3898 312.33 21.3898 313.173C21.3898 314.017 22.0732 314.7 22.9161 314.7Z" fill="#D80A49"/>
<path d="M46.8608 311.646C47.7038 311.646 48.3871 310.963 48.3871 310.119C48.3871 309.276 47.7038 308.592 46.8608 308.592C46.0179 308.592 45.3346 309.276 45.3346 310.119C45.3346 310.963 46.0179 311.646 46.8608 311.646Z" fill="#D80A49"/>
<path d="M69.4806 345.608C69.4806 345.608 55.2915 342.767 51.501 338.98C47.7106 335.194 30.6926 328.571 28.7974 333.303C26.9022 338.035 3.25372 354.127 19.338 356.968C35.4223 359.809 57.1811 360.754 61.9108 358.858C66.6405 356.962 69.4806 345.608 69.4806 345.608Z" fill="#A8A8A8"/>
<path opacity="0.2" d="M19.3381 355.206C35.4224 358.047 57.1812 358.993 61.9109 357.097C65.5112 355.653 68.0159 348.707 69.0054 345.507L69.4806 345.608C69.4806 345.608 66.6406 356.968 61.9109 358.858C57.1812 360.749 35.4224 359.804 19.3381 356.968C14.6978 356.146 13.3672 354.222 13.8704 351.789C14.2618 353.355 15.883 354.596 19.3381 355.206Z" fill="black"/>
<path d="M500.268 292.266C500.268 292.266 504.953 298.418 498.105 307.647C491.256 316.876 485.61 324.712 487.896 330.484C487.896 330.484 498.228 313.296 506.636 313.056C515.044 312.815 509.521 302.597 500.268 292.266Z" fill="#D80A49"/>
<path opacity="0.1" d="M500.268 292.266C500.676 292.859 500.998 293.507 501.224 294.19C509.431 303.833 513.798 312.832 505.915 313.061C498.569 313.274 489.758 326.412 487.645 329.735C487.714 329.991 487.798 330.243 487.896 330.49C487.896 330.49 498.228 313.302 506.636 313.061C515.044 312.821 509.521 302.597 500.268 292.266Z" fill="black"/>
<path d="M508.978 300.074C508.978 302.233 508.738 303.989 508.419 303.989C508.101 303.989 507.86 302.239 507.86 300.074C507.86 297.909 508.162 298.955 508.458 298.955C508.755 298.955 508.978 297.921 508.978 300.074Z" fill="#FFD037"/>
<path d="M511.969 302.653C510.074 303.687 508.425 304.33 508.285 304.045C508.145 303.76 509.56 302.731 511.455 301.702C513.35 300.673 512.601 301.422 512.747 301.702C512.892 301.981 513.859 301.618 511.969 302.653Z" fill="#FFD037"/>
<path d="M475.524 292.266C475.524 292.266 470.839 298.418 477.688 307.647C484.536 316.876 490.183 324.712 487.896 330.484C487.896 330.484 477.565 313.296 469.156 313.056C460.748 312.815 466.271 302.597 475.524 292.266Z" fill="#D80A49"/>
<path opacity="0.1" d="M475.524 292.266C475.116 292.859 474.794 293.507 474.568 294.19C466.361 303.833 461.995 312.832 469.877 313.061C477.224 313.274 486.034 326.412 488.148 329.735C488.078 329.991 487.994 330.243 487.896 330.49C487.896 330.49 477.565 313.302 469.156 313.061C460.748 312.821 466.271 302.597 475.524 292.266Z" fill="black"/>
<path d="M466.814 300.074C466.814 302.233 467.054 303.989 467.373 303.989C467.692 303.989 467.932 302.239 467.932 300.074C467.932 297.909 467.63 298.955 467.334 298.955C467.037 298.955 466.814 297.921 466.814 300.074Z" fill="#FFD037"/>
<path d="M463.823 302.653C465.718 303.687 467.367 304.33 467.507 304.045C467.647 303.76 466.232 302.731 464.337 301.702C462.442 300.673 463.191 301.422 463.046 301.702C462.9 301.981 461.927 301.618 463.823 302.653Z" fill="#FFD037"/>
<path d="M468.306 329.679C468.306 329.679 481.405 329.276 485.352 326.463C489.299 323.649 505.479 320.31 506.479 324.785C507.48 329.259 526.164 347.219 511.377 347.336C496.59 347.454 477.017 345.032 473.075 342.633C469.134 340.233 468.306 329.679 468.306 329.679Z" fill="#A8A8A8"/>
<path opacity="0.2" d="M511.64 345.787C496.852 345.905 477.279 343.483 473.338 341.083C470.336 339.254 469.139 332.694 468.743 329.668H468.306C468.306 329.668 469.134 340.239 473.075 342.638C477.017 345.038 496.59 347.465 511.377 347.342C515.648 347.309 517.118 345.787 517.04 343.539C516.448 344.909 514.843 345.759 511.64 345.787Z" fill="black"/>
<path opacity="0.5" d="M99.4242 41.7475H95.9132C96.2458 41.7633 96.5781 41.7115 96.89 41.5951C97.2019 41.4788 97.487 41.3002 97.7279 41.0704C97.9689 40.8406 98.1607 40.5642 98.2917 40.2581C98.4228 39.9519 98.4904 39.6223 98.4904 39.2892C98.4904 38.9562 98.4228 38.6266 98.2917 38.3204C98.1607 38.0143 97.9689 37.7379 97.7279 37.5081C97.487 37.2782 97.2019 37.0997 96.89 36.9834C96.5781 36.867 96.2458 36.8152 95.9132 36.831H67.468C66.8366 36.8612 66.2411 37.1333 65.8049 37.591C65.3687 38.0487 65.1254 38.6569 65.1254 39.2892C65.1254 39.9216 65.3687 40.5298 65.8049 40.9875C66.2411 41.4452 66.8366 41.7173 67.468 41.7475H70.9789C70.3476 41.7776 69.752 42.0497 69.3158 42.5074C68.8796 42.9651 68.6363 43.5733 68.6363 44.2057C68.6363 44.838 68.8796 45.4462 69.3158 45.9039C69.752 46.3616 70.3476 46.6337 70.9789 46.6639H66.0648C65.4334 46.694 64.8378 46.9661 64.4016 47.4238C63.9654 47.8815 63.7221 48.4897 63.7221 49.1221C63.7221 49.7545 63.9654 50.3626 64.4016 50.8203C64.8378 51.278 65.4334 51.5501 66.0648 51.5803H94.51C94.8425 51.5961 95.1748 51.5443 95.4867 51.4279C95.7987 51.3116 96.0837 51.1331 96.3247 50.9032C96.5656 50.6734 96.7574 50.397 96.8885 50.0909C97.0195 49.7847 97.0871 49.4551 97.0871 49.1221C97.0871 48.789 97.0195 48.4594 96.8885 48.1532C96.7574 47.8471 96.5656 47.5707 96.3247 47.3409C96.0837 47.1111 95.7987 46.9326 95.4867 46.8162C95.1748 46.6998 94.8425 46.648 94.51 46.6639H99.4242C100.056 46.6337 100.651 46.3616 101.087 45.9039C101.523 45.4462 101.767 44.838 101.767 44.2057C101.767 43.5733 101.523 42.9651 101.087 42.5074C100.651 42.0497 100.056 41.7776 99.4242 41.7475Z" fill="#DEE3F3"/>
</g>
<defs>
<linearGradient id="paint0_linear" x1="257.45" y1="304.135" x2="257.45" y2="72.5771" gradientUnits="userSpaceOnUse">
<stop stop-color="#808080" stop-opacity="0.25"/>
<stop offset="0.54" stop-color="#808080" stop-opacity="0.12"/>
<stop offset="1" stop-color="#808080" stop-opacity="0.1"/>
</linearGradient>
<linearGradient id="paint1_linear" x1="214.051" y1="264.753" x2="214.051" y2="264.726" gradientUnits="userSpaceOnUse">
<stop stop-color="#808080" stop-opacity="0.25"/>
<stop offset="0.54" stop-color="#808080" stop-opacity="0.12"/>
<stop offset="1" stop-color="#808080" stop-opacity="0.1"/>
</linearGradient>
<linearGradient id="paint2_linear" x1="36001.3" y1="113093" x2="36001.3" y2="50705.2" gradientUnits="userSpaceOnUse">
<stop stop-color="#808080" stop-opacity="0.25"/>
<stop offset="0.54" stop-color="#808080" stop-opacity="0.12"/>
<stop offset="1" stop-color="#808080" stop-opacity="0.1"/>
</linearGradient>
<linearGradient id="paint3_linear" x1="101416" y1="137091" x2="101416" y2="44435.2" gradientUnits="userSpaceOnUse">
<stop stop-color="#808080" stop-opacity="0.25"/>
<stop offset="0.54" stop-color="#808080" stop-opacity="0.12"/>
<stop offset="1" stop-color="#808080" stop-opacity="0.1"/>
</linearGradient>
<clipPath id="clip0">
<rect width="531" height="370" fill="white"/>
</clipPath>
</defs>
</svg>
